<svg width="312.5" height="358.77253249657224" viewBox="0 0 312.5 358.77253249657224" class="css-1j8o68f"><defs id="SvgjsDefs15125"></defs><g id="SvgjsG15126" featurekey="nameContainer" transform="matrix(1.679851890870981,0,0,1.679851890870981,0.0005879455985542774,0.0002897674663174521)" fill="#000000"><path xmlns="http://www.w3.org/2000/svg" d="M17.914 148.907zM22.657 154.94a90.586 90.586 0 0 0 5.861 6.251c6.914 6.805 15.159 12.525 24.004 16.851 3.259 1.526 6.265 3.107 9.787 4.468.88.338 1.779.7 2.724 1.026.953.302 1.941.604 2.974.903 1.027.321 2.122.549 3.267.786 1.146.23 2.336.493 3.614.624a91.24 91.24 0 0 1-18.434-5.99 93.833 93.833 0 0 1-16.873-9.842c-10.548-7.727-19.57-17.648-26.16-28.989-.272-.339-.685-.985-1.18-1.808l-.796-1.348-.803-1.551c-.534-1.076-1.149-2.168-1.62-3.226a71.281 71.281 0 0 0-1.326-2.748c2.048 5.101 4.412 9.563 7.059 13.806a93.473 93.473 0 0 0 3.869 5.697c-.192-.259-.392-.511-.583-.771a95.012 95.012 0 0 0 4.6 5.841l.016.02zM18.039 149.078l-.125-.17.125.17zM1.335 106.042l-.483-3.875c.256 2.365.553 5.008 1.096 7.654l-.327-1.879a23.961 23.961 0 0 1-.286-1.9zM85.812 185.575c6.652.673 13.628.472 20.461-.609 6.837-1.077 13.524-2.987 19.741-5.449-11.45 4.503-23.602 6.506-35.49 6.171-1.591-.025-3.159 0-4.712-.113z"></path><path xmlns="http://www.w3.org/2000/svg" d="M46.426 171.967l-.259-.165c.087.055.172.111.259.165zM46.167 171.802zM43.653 170.135zM56.077 177.284A83.837 83.837 0 0 0 73.2 183.1c-9.688-2.21-18.805-6.109-26.774-11.133 3.06 1.947 6.277 3.749 9.651 5.317zM177.002 107.094c.098-1.58.296-3.238.346-4.027.594-5.071.77-9.401.745-13.745-.11-.783-.425-2.25-.55-3.918-.153-1.672-.378-3.309-.568-4.924-.289-1.601-.538-3.186-.854-4.74 2.275 11.617 2.237 23.279.144 34.282a94.97 94.97 0 0 1 .737-2.928z"></path><path xmlns="http://www.w3.org/2000/svg" d="M.887 83.482c.848-6.9 2.653-13.626 4.37-18.107l-.695 3.28c.429-.961 1.122-3.194 2.067-5.557l.682-1.802.753-1.747c.5-1.131.92-2.203 1.363-3.025-.303.771-.595 1.602-.947 2.436-.345.837-.732 1.687-1.101 2.542l1.514-3.409A111.863 111.863 0 0 0 4.954 69.8c-1.133 4.352-2.029 8.926-2.511 13.032-.14 1.024-.189 2.024-.28 2.978-.067.954-.183 1.864-.192 2.724-.042 1.719-.1 3.224-.071 4.428.105 2.409.25 3.61.459 2.939.411-1.333.403-8.188 1.837-16.767.767-4.276 1.868-8.966 3.362-13.561 1.483-4.599 3.427-9.058 5.44-12.992l-.592 1.292-.545 1.331-1.116 2.691-1.024 2.78-.521 1.402c-.153.476-.308.954-.461 1.434-1.32 3.807-2.307 7.816-3.167 11.857l-.559 3.052c-.205 1.014-.292 2.046-.444 3.067-.318 2.041-.434 4.097-.611 6.129-.199 4.074-.239 8.098.13 11.946-.015-.914-.03-1.726-.017-2.512l.115-2.355c.048-.809.039-1.667.115-2.65.07-.983.134-2.091.19-3.402.391-6.608 1.572-13.15 3.408-19.481 1.75-6.358 3.814-11.957 6.889-17.03l.801-1.526c.542-1.024.993-2.034 1.566-3.064.653-1.13 1.278-1.976 1.784-2.751.521-.767.963-1.441 1.469-2.095l3.682-5.082c.075-.009-.022.185-.2.473a28.962 28.962 0 0 1 1.959-2.49c.755-.875 1.488-1.803 2.109-2.569.146-.007.288-.011.623-.251 8.65-9.197 19.295-16.692 31.291-21.417l2.667-1.039 2.7-.899 1.343-.448 1.36-.38 2.71-.753c1.55-.373 3.12-.751 4.721-1.091l2.437-.426c.819-.141 1.642-.3 2.484-.378 1.674-.201 3.134-.625 3.921-.729 4.369-.249 8.73-.199 13.849.216.397.007 1.015.043 1.732.082.717.041 1.537.061 2.332.134.932.21 1.927.418 2.971.621 6.369.988 12.527 2.754 18.386 5.103l-.007-.028 2.244.894 2.29 1.058c1.571.684 3.11 1.559 4.7 2.383.798.407 1.554.904 2.338 1.354.77.474 1.576.894 2.32 1.412 1.508 1.002 3.037 1.961 4.446 3.032a99.912 99.912 0 0 1 6.6 5.198c.046.042.094.081.14.122l.042.038 1.457 1.322 1.394 1.391 1.395 1.392c.462.467.89.967 1.337 1.449-.216-.35-.208-.491-.2-.63-.689-.66-1.504-1.441-2.309-2.21 1.343 1.222 2.515 2.327 3.477 3.229.371.474.776.94 1.16 1.449l1.186 1.566 1.261 1.629 1.255 1.752c2.226 2.838 4.191 5.874 6.057 8.97.864 1.588 1.817 3.131 2.586 4.774l1.213 2.436 1.092 2.497c.314.533.192.022.231-.068 1.225 2.962 2.21 6.042 3.102 9.146a88.212 88.212 0 0 1 3.408 17.211c.225 1.378.321 2.772.52 4.153l-.123 2.924c-.001 1.103.057 2.206.01 3.311l-.128 3.326c-.016.75-.124 1.569-.187 2.459-.084.888-.128 1.846-.256 2.856l-.412 3.192c-.132 1.119-.387 2.269-.583 3.471a90.635 90.635 0 0 1-4.312 15.482c-.242.826-.427 1.486-.592 1.855-.627 1.501-1.296 2.954-1.942 4.385-.723 1.394-1.386 2.788-2.127 4.108a86.09 86.09 0 0 1-7.949 12.379c-.336.439-.649.885-.987 1.297l-.998 1.206c-.66.779-1.25 1.558-1.876 2.234-1.251 1.352-2.301 2.606-3.286 3.549-1.128 1.178-1.027 1.233-.246.665a35.07 35.07 0 0 0 1.608-1.262l2.122-1.914c.776-.677 1.519-1.441 2.235-2.161.708-.725 1.416-1.386 1.962-1.984 1.101-1.191 1.824-1.926 1.67-1.599-1.777 3.345-5.013 7.471-9.743 12.035-2.413 2.227-5.128 4.647-8.339 6.98-1.566 1.221-3.307 2.338-5.082 3.558-1.834 1.123-3.708 2.353-5.757 3.445-4.484 2.442 3.365-1.475 3.577-1.512a22.87 22.87 0 0 1-2.377 1.64c-1.478.786-2.943 1.597-4.474 2.273-.895.411-1.774.855-2.679 1.239l-2.729 1.122 1.444-.568c2.952-1.173 5.711-2.555 8.202-3.922-.936.566-1.96 1.221-3.082 1.812-1.203.622-2.448 1.302-3.697 1.909l-3.625 1.686c12.968-4.711 24.885-12.507 34.319-22.67 4.723-5.066 8.935-10.631 12.369-16.651a93.904 93.904 0 0 0 8.288-18.999c-3.154 9.93-8.071 19.052-13.981 26.765 10.744-14.507 17.15-32.293 17.999-50.636-.001 1.011-.101 2.018-.168 3.025-.083 1.007-.123 2.018-.241 3.022-.257 2.005-.441 4.021-.827 6.009-.624 4-1.636 7.931-2.782 11.815 2.262-7.021 3.613-14.424 4.145-21.869.554-7.451.092-14.947-1.057-22.211 1.974 9.622 2.301 20.524.619 31.298 1.182-6.949 1.482-14.112 1.028-21.214-.102-2.713-.422-5.407-.685-7.901-.377-2.476-.662-4.762-1.027-6.611 1.445 6.826 2.015 12.648 2.293 18.136-.267-11.977-2.748-24.112-7.62-35.511 2.659 6.191 4.842 12.851 6.175 19.698 1.34 6.84 1.897 13.838 1.58 20.57-.015-.788.018-1.575-.028-2.366l-.107-2.391c.287 10.85-1.384 21.604-4.696 31.717-1.662 5.056-3.715 9.969-6.2 14.644a95.521 95.521 0 0 1-8.56 13.316c3.673-4.29 7.551-10.354 10.646-17.015 3.081-6.675 5.368-13.894 6.941-20.199-2.314 11.322-6.907 22.494-13.571 32.471-6.646 9.985-15.351 18.764-25.423 25.502-10.06 6.759-21.474 11.437-33.187 13.748a94.608 94.608 0 0 1-17.657 1.809 94.462 94.462 0 0 1-17.361-1.515l3.005.571c1.002.19 2.018.295 3.026.445 2.016.324 4.055.446 6.087.633 4.073.229 8.168.306 12.25-.005 4.089-.217 8.152-.827 12.196-1.572 2.006-.456 4.036-.829 6.017-1.414.994-.278 2-.521 2.987-.83l2.955-.958c-1.492.462-3.062 1.074-4.739 1.523l-2.101.618a91.772 91.772 0 0 0 12.91-4.496 89.46 89.46 0 0 0 5.651-2.705 96.653 96.653 0 0 1-10.714 4.872 98.407 98.407 0 0 1-21.66 5.382c-1.11.176-2.122.231-3.029.326l-2.428.24c-1.429.113-2.484.164-3.222.245-1.477.147-1.687.284-1.099.397.587.113 1.971.203 3.673.251 1.697-.01 3.71-.101 5.541-.268 18.397-1.887 35.288-9.107 48.824-19.916 13.545-10.811 23.919-25.172 29.701-41.467.363-.946.642-1.922.944-2.89.293-.971.617-1.932.882-2.912.491-1.97 1.072-3.917 1.448-5.917l.619-2.985.487-3.012.241-1.507.172-1.517.342-3.034c.698-8.114.422-16.315-.812-24.363-.66-4.554-1.82-9.961-3.315-14.777l-1.15-3.484c-.4-1.107-.825-2.151-1.203-3.133l-.557-1.415-.571-1.271-.981-2.124c-3.134-6.359-7.072-12.424-11.682-18.065-4.605-5.643-9.896-10.868-15.861-15.418l-2.244-1.703-2.327-1.608-1.166-.806-1.203-.756-2.417-1.508c-3.295-1.904-6.67-3.739-10.228-5.261-3.521-1.598-7.206-2.895-10.957-4.055-1.895-.52-3.781-1.1-5.724-1.499-.968-.209-1.928-.463-2.907-.638l-2.944-.521C100.363.01 93.04-.285 85.724.265 78.412.83 71.069 2.218 64.028 4.614l-2.635.913c-.881.297-1.73.682-2.597 1.019-.858.359-1.735.673-2.577 1.069l-2.532 1.173c-.852.376-1.675.808-2.496 1.245l-2.469 1.297-2.402 1.412c-.8.472-1.606.933-2.372 1.458l-2.324 1.528c-.782.497-1.506 1.078-2.261 1.612-.741.554-1.51 1.07-2.226 1.654l-2.157 1.737c-.729.565-1.417 1.178-2.103 1.792l-2.063 1.83-1.971 1.919c-.656.639-1.319 1.271-1.93 1.951-5.031 5.298-9.451 11.078-13.066 17.194A99.518 99.518 0 0 0 5.18 64.379C.805 77.299-.45 90.402.134 102.237c-.126-4.872-.147-11.859.753-18.755zm141.132 90.446a96.807 96.807 0 0 0 8.765-6.389c-2.84 2.339-5.758 4.499-8.765 6.389zm40.217-54.282c-.299.901-.552 1.791-.882 2.641l-.957 2.523-.466 1.248-.513 1.231a108.54 108.54 0 0 0-.997 2.501 97.307 97.307 0 0 1-6.587 13.35c-2.521 4.275-5.443 8.281-8.565 12.04-1.542 1.899-3.222 3.66-4.874 5.421l-2.581 2.523c-.847.848-1.774 1.604-2.652 2.404-.736.64-1.478 1.266-2.225 1.882a90.696 90.696 0 0 0 7.896-7.312 89.808 89.808 0 0 1-11.689 10.188c-1.036.722-2.037 1.496-3.113 2.176l-3.247 2.069-3.43 1.949c-1.167.648-2.399 1.224-3.634 1.855a74.206 74.206 0 0 1 2.685-1.508c1.021-.567 2.092-1.237 3.138-1.85 1.054-.601 2.012-1.261 2.808-1.813.796-.552 1.42-1.01 1.745-1.306-.464.315-.936.617-1.406.924a92.477 92.477 0 0 0 1.507-1.015c-.021.023-.065.059-.101.091 10.932-7.466 20.245-17.277 27.223-28.462 7.009-11.175 11.57-23.781 13.46-36.601-.41 5.142-1.352 9.248-2.543 12.851zm-6.654-65.352zm-8.448-12.698a92.37 92.37 0 0 1 7.773 14.352c.25.549.486 1.106.719 1.664 4.963 12.154 7.221 25.192 6.89 38.036.084-4.25-.198-8.498-.669-12.71-.533-4.854-1.518-9.65-2.824-14.341-2.562-9.407-6.723-18.323-12.005-26.451.485.67.996 1.396 1.525 2.166a32.826 32.826 0 0 1 1.59 2.463l-.638-1.109-.689-1.079-1.378-2.156c-.938-1.424-1.955-2.796-2.934-4.192-1.062-1.334-2.069-2.712-3.174-4.011-.836-.953-1.637-1.938-2.485-2.879 2.992 3.155 5.801 6.54 8.299 10.247zM96.886 1.152c1.467.078 2.937.221 4.407.331 1.204.101 2.402.279 3.588.413.356.015.732.039 1.204.092.471.065 1.034.186 1.769.354 5.469.912 10.459 2.283 14.001 3.699 6.798 2.573 13.123 5.774 18.86 9.471 5.739 3.69 10.889 7.887 15.246 12.471 2.008 2.179 1.422 1.704.315.646l1.662 1.764c-.736-.734-1.459-1.478-2.206-2.196l-2.301-2.09c.56.49 1.918 1.663 2.845 2.522-7.389-7.539-16.026-13.799-25.375-18.404-9.356-4.603-19.431-7.446-29.502-8.581 1.618.18 2.412.22 3.168.24-1.085-.127-2.173-.301-3.274-.401-1.479-.097-2.955-.229-4.423-.301l-4.36-.103c1.444-.001 2.907.039 4.376.073z"></path><path xmlns="http://www.w3.org/2000/svg" d="M115.942 184.69l.426-.125c-.446.12-.885.252-1.334.366.304-.076.609-.15.908-.241zM160.424 146.151c4.235-5.587 7.977-12.263 10.366-18.014l-.029.006c-6.061 14.322-15.892 26.66-28.16 35.744a159.12 159.12 0 0 0 6.418-4.703c2.698-2.82 7.213-7.406 11.405-13.033zM35.35 162.846c7.172 6.412 15.821 11.992 25.448 15.751 3.754 1.413 7.585 2.651 11.503 3.523 1.944.502 3.929.812 5.899 1.181.987.175 1.987.272 2.979.412.994.129 1.986.275 2.987.333-4.519-.501-9.005-1.251-13.372-2.44-4.364-1.185-8.642-2.65-12.769-4.449a97.4 97.4 0 0 1-11.894-6.314c-3.786-2.408-7.376-5.097-10.781-7.997zM123.877 174.277l-2.219.871-2.266.756c-1.5.54-3.047.944-4.59 1.373 1.551-.39 3.111-.754 4.624-1.254l2.283-.698 2.23-.815c-.086-.044-.594.055-.062-.233zM97.683 179.965c-1.16.099-2.326.09-3.494.102-1.168.014-2.338.039-3.509-.038l1.576.148c.482.031.916.068 1.295.113 1.381-.118 2.752-.151 4.132-.325zM51.441 169.209c1.341.787 2.765 1.48 4.178 2.244.354.194.996.415 1.801.709-1.721-.739-3.37-1.655-5.046-2.505-.83-.441-1.629-.935-2.443-1.395-.812-.464-1.621-.927-2.389-1.445l.937.626.977.584 1.985 1.182z"></path></g><g id="SvgjsG15127" featurekey="nameFeature-0" transform="matrix(3.1680001817578227,0,0,3.1680001817578227,52.28749978700255,77.00048122317214)" fill="#000000"><path d="M27.559 40.91797 q-0.17578125 0 -0.25390625 -0.52734375 l-0.097656 0 l0 0.35156 q-0.25390625 -0.09765625 -0.25390625 -0.52734375 l-0.17578 0 l0 0.17578 l-0.097656 0 q0 -0.3515625 -0.25390625 -0.3515625 q0.078125 0.4296875 0.078125 0.52734375 l-0.078125 0 l-0.097656 -0.52734 l-0.078125 0 l-0.078125 0.60547 l-0.097656 0 l-0.078125 -0.42969 l-0.097656 0 l0 0.42969 q-0.2734375 0 -0.60546875 -0.60546875 l-0.17578 0.097656 l-0.097656 0 l-0.078125 -0.52734 l-0.097656 0 l-0.17578 0.078125 l0 -0.17578 l-0.078125 0 q0 0.3515625 -0.17578125 0.3515625 q0 -0.1953125 -0.3515625 -0.25390625 q-0.1953125 0 -0.3515625 0.4296875 l-0.27344 0.17578 l0 -0.25391 l-0.17578 0.078125 q-0.25390625 -0.3125 -0.25390625 -0.703125 l-0.17578 0 q0 0.09765625 0.078125 0.09765625 q-0.078125 0.13671875 -0.078125 0.3515625 l-0.17578 0 q-0.17578125 0 -0.17578125 -0.3515625 q-0.17578125 0.078125 -0.3515625 0.078125 l0.078125 -0.17578 l0 -0.078125 l-0.17578 0 l-0.078125 0.35156 l-0.35156 0 q0 -0.21484375 -0.078125 -0.3515625 q0.078125 -0.15625 0.078125 -0.3515625 q-0.078125 -0.2734375 -0.17578125 -0.2734375 l0.097656 -0.60547 q0 -0.48828125 -0.09765625 -1.23046875 q0.09765625 -1.81640625 0.17578125 -2.4609375 q0 -0.078125 -0.078125 -0.078125 q0.17578125 -1.0546875 0.17578125 -3.33984375 l0.078125 -0.17578 l-0.078125 0 l0.078125 -0.17578 q-0.078125 -1.19140625 -0.078125 -1.66015625 l0.078125 0 l-0.078125 -0.17578 l0 -5.1758 l0.078125 0 l0 0.25391 l0.097656 0 l0 -0.25391 q-0.17578125 0 -0.17578125 -0.17578125 l0 -0.17578 q0.078125 0 0.25390625 -0.078125 l0 1.6602 q0 0.17578125 -0.17578125 0.17578125 q0.09765625 0.15625 0.25390625 1.0546875 l-0.078125 0 l0.078125 0.17578 l-0.078125 0.60547 l0.078125 0 l-0.078125 0.17578 l0.078125 1.4063 q0 0.09765625 -0.078125 0.25390625 q0.078125 0.17578125 0.078125 0.2734375 l-0.078125 0 l0.078125 0.17578 l0 1.3086 q0 0.09765625 0.09765625 0.09765625 l-0.097656 0.17578 q0.09765625 0.15625 0.09765625 0.3515625 l0.078125 0 l0 -0.70313 l-0.078125 -0.17578 l0.078125 0 l-0.078125 -0.17578 l0 -0.70313 q0 -0.09765625 0.078125 -0.09765625 l-0.078125 -0.17578 q0 -0.29296875 0.078125 -0.4296875 q-0.078125 -0.7421875 -0.078125 -2.4609375 q0 -0.3125 -0.09765625 -0.78125 q0.09765625 -0.17578125 0.09765625 -0.2734375 q0 -0.078125 -0.09765625 -0.078125 q0.09765625 -0.390625 0.09765625 -0.80078125 l-0.097656 -0.17578 l0.097656 0 q0 -0.078125 -0.09765625 -0.078125 q0.09765625 -0.3515625 0.09765625 -0.703125 q0 -0.078125 -0.09765625 -0.078125 q0.09765625 -0.17578125 0.09765625 -0.2734375 l-0.097656 -0.60547 q0 -0.09765625 0.09765625 -0.09765625 l-0.097656 -0.42969 l0 -1.2305 l-0.078125 -0.87891 q0.078125 0 0.078125 -0.09765625 q-0.078125 0 -0.078125 -0.078125 l0.078125 0 l-0.078125 -0.17578 l0 -1.0547 l-0.078125 -0.17578 l0.078125 0 l-0.078125 -0.17578 l0 -0.95703 l-0.097656 0 l0 1.3086 q0.09765625 0 0.09765625 0.09765625 l-0.097656 0 l0.097656 0.17578 q0 0.87890625 -0.09765625 1.73828125 l-0.078125 0 q0 -0.87890625 -0.17578125 -2.96875 l0.17578 -4.5703 l0.078125 0 l0 0.35156 l0.097656 0 q0 -0.41015625 0.33203125 -0.52734375 q0 0.09765625 0.09765625 0.09765625 l0 -0.097656 l-0.097656 0 q0.3515625 -1.07421875 0.3515625 -2.1875 l0.097656 0 l0 0.44922 l0.17578 0 q0.17578125 -0.72265625 0.17578125 -0.9765625 q0.17578125 0 0.25390625 1.0546875 q0.17578125 0.01953125 0.17578125 0.17578125 l0 1.0547 l0.097656 0.42969 l0.078125 0 q0 -0.80078125 0.3515625 -1.30859375 l0.097656 0 l0 0.17578 l0.078125 0 l0.097656 -0.87891 l0.078125 0 l0 0.70313 l0.097656 0 l0 -0.35156 l0.17578 0.097656 q0 -0.09765625 0.078125 -0.09765625 l0 0.52734 l0.17578 0 l0 -0.27344 l0.097656 0 q0 1.0546875 0.25390625 1.0546875 l0.17578 0 l0 -0.17578 l0.097656 0 l0 0.35156 l0.17578 0 q0 -0.25390625 0.17578125 -0.25390625 l0 0.078125 q0.15625 -0.078125 0.3515625 -0.078125 l-0.097656 0.17578 l0.097656 0 q0 -0.09765625 0.078125 -0.09765625 l0 0.35156 l0.078125 0 q0.0390625 -0.4296875 0.2734375 -0.4296875 l0 0.25391 q0.1171875 0 0.25390625 -0.4296875 l0.35156 -0.097656 l0 0.097656 q-0.078125 0.15625 -0.078125 0.4296875 l0.17578 -0.078125 q0.078125 0.13671875 0.078125 0.4296875 l0.097656 0 l0 -0.42969 l0.17578 0.078125 l0 -0.17578 q-0.09765625 -0.15625 -0.09765625 -0.25390625 q0.17578125 0.01953125 0.17578125 0.17578125 l-0.078125 1.0547 l0.078125 0 q-0.078125 0.15625 -0.078125 0.3515625 l0.078125 0 q0 -0.17578125 0.17578125 -0.17578125 l0 -0.17578 l-0.17578 -0.27344 l0.17578 -0.078125 l-0.078125 -0.17578 q0.078125 -0.15625 0.078125 -0.3515625 l0.097656 0 l0.078125 1.0547 l0.097656 0 l0 -0.35156 q-0.09765625 -0.17578125 -0.09765625 -0.2734375 l0.17578 0 q0.17578125 0.9765625 0.17578125 1.0546875 l0.097656 0 l0 -0.35156 l0.078125 0 q0 0.4296875 0.17578125 1.40625 l0.097656 0 l0 -1.3086 l0.078125 0 q0 0.95703125 0.2734375 1.9140625 l0 1.2305 q0 0.1953125 0.078125 0.3515625 q-0.078125 0.15625 -0.078125 0.3515625 l0 1.2305 q0 0.09765625 0.078125 0.09765625 l-0.078125 0.17578 l0 0.25391 q0 0.09765625 0.078125 0.09765625 q0 0.078125 -0.078125 0.078125 l0.078125 0.87891 q0 0.2734375 -0.078125 0.4296875 l0.078125 0.17578 q0 0.09765625 -0.078125 0.09765625 l0.078125 0.60547 l0 2.4609 q0 0.3125 -0.078125 0.78125 q0 0.09765625 0.078125 0.09765625 l-0.078125 0.42969 q0 0.625 0.078125 0.625 q0 0.078125 -0.078125 0.25390625 q-0.09765625 2.890625 -0.09765625 5.09765625 q0 1.2109375 -0.078125 2.5390625 l0.17578 0 l0 3.8477 q0 0.7421875 -0.09765625 2.20703125 l-0.17578 0 l0 0.42969 l0.097656 0.42969 l-0.17578 0.097656 l-0.097656 -0.35156 l-0.17578 0 l0 0.25391 l-0.17578 0 q0 -0.13671875 -0.17578125 -0.68359375 l-0.17578 0.078125 q-0.078125 -0.17578125 -0.078125 -0.25390625 l-0.097656 0 l0 0.95703 l-0.078125 0 q0 -0.52734375 -0.17578125 -0.52734375 l0 0.17578 q0 0.078125 0.078125 0.078125 q-0.17578125 0.29296875 -0.17578125 0.44921875 z M6.7773 41.6992 l-0.078125 0 q-0.09765625 -0.8203125 -0.09765625 -1.66015625 l-0.17578 0 l0 0.78125 l-0.078125 0 l0 -0.42969 l-0.17578 0 q-0.09765625 0.46875 -0.09765625 0.78125 l-0.078125 0 q0 -0.2734375 -0.2734375 -0.95703125 l-0.17578 0 q0 0.25390625 -0.33203125 0.703125 l0 0.17578 l-0.27344 0 q0 -0.15625 -0.25390625 -0.52734375 q0 -0.17578125 -0.2734375 -0.17578125 l0 0.42969 q0 0.17578125 -0.17578125 0.17578125 q0 -0.25390625 -0.078125 -0.60546875 l0.17578 0 q-0.3515625 -1.484375 -0.52734375 -1.484375 l0 0.078125 l0.078125 0.17578 l-0.078125 0 l0.078125 0.17578 l0 0.52734 q0 0.17578125 -0.17578125 0.17578125 q-0.25390625 -0.68359375 -0.25390625 -0.78125 l-0.17578 0.078125 q-0.09765625 -0.17578125 -0.09765625 -0.25390625 l-0.42969 0.078125 l0.078125 0.17578 l0 0.44922 q0 0.078125 -0.078125 0.078125 l0.078125 0.17578 l0 0.60547 l-0.17578 -0.078125 l0 0.35156 l-0.078125 0 l-0.625 -2.5391 l-0.17578 0.078125 l0 -0.17578 q0.09765625 -0.15625 0.09765625 -0.25390625 q-0.17578125 0 -0.17578125 0.3515625 l-0.097656 0 l0 -0.625 q0 -0.078125 0.09765625 -0.078125 q-0.17578125 -0.33203125 -0.3515625 -2.5390625 l0.078125 0 q0 -0.09765625 -0.078125 -0.09765625 l0.078125 -0.60547 q0 -0.44921875 -0.078125 -0.44921875 q0 -0.09765625 0.078125 -0.25390625 q-0.078125 -2.3828125 -0.078125 -2.890625 q0.17578125 -3.26171875 0.17578125 -4.74609375 l0 -2.5391 q0 -0.1953125 -0.09765625 -0.3515625 q0.09765625 -0.15625 0.09765625 -0.3515625 l0 -0.70313 q0 -0.078125 -0.09765625 -0.078125 l0.097656 -0.17578 l0 -1.8555 q0 -0.078125 0.078125 -0.078125 q-0.078125 -0.17578125 -0.078125 -0.2734375 q0 -0.078125 0.078125 -0.078125 q0 -0.09765625 -0.078125 -0.25390625 q0 -0.4296875 0.25390625 -3.61328125 l0 -0.078125 l-0.078125 0 q0 0.13671875 -0.17578125 0.78125 l-0.097656 0 l0 -0.25391 q0 -0.09765625 0.09765625 -0.09765625 l-0.097656 -0.17578 l0.097656 -0.17578 l-0.097656 -0.42969 q0.15625 -0.37109375 0.2734375 -1.0546875 l-0.097656 -0.17578 l0.27344 -1.7578 l0.25391 0 l0.097656 0.35156 l0.078125 0 l-0.078125 -0.42969 l0 -0.44922 l0.078125 0 l0 0.44922 q0.17578125 0 0.17578125 -0.2734375 l-0.078125 -0.42969 l0.078125 0 l0.35156 0.35156 q0 -0.09765625 0.09765625 -0.09765625 q0.078125 0.52734375 0.25390625 0.52734375 q0.44921875 -0.72265625 0.44921875 -0.95703125 l0.078125 0 l0 0.35156 q-0.078125 0 -0.078125 0.078125 l0.17578 0 l0 -0.17578 l0.17578 0.097656 l0 -0.27344 l0.17578 0.097656 l0.078125 -0.35156 l0.097656 0 l0 0.70313 q0.17578125 0 0.17578125 -0.52734375 l0.17578 0.078125 l0.078125 0 q0 -0.234375 0.2734375 -0.3515625 l0 -0.078125 l0.078125 0 q0 0.3515625 0.17578125 0.3515625 q0.0390625 -0.3515625 0.25390625 -0.3515625 l0 0.17578 l0.097656 0 l0 -0.17578 l0.078125 0 l0.097656 0.42969 q0.17578125 0 0.17578125 -0.25390625 l0.17578 0.078125 l0.078125 0 l0 -0.17578 l0.097656 0 q0 0.21484375 0.3515625 0.3515625 q0 -0.25390625 0.25390625 -0.25390625 l0 0.25391 l0.17578 0 q0 -0.25390625 0.17578125 -0.25390625 q0.0390625 0.17578125 0.2734375 0.17578125 q0 -0.4296875 0.17578125 -0.4296875 l0.17578 0.78125 l0.17578 -0.097656 q0.17578125 0 0.17578125 0.52734375 l0.17578 0 l-0.097656 -0.17578 l0 -0.70313 l0.097656 0 q0 0.234375 0.3515625 0.80078125 q0 0.2734375 0.703125 0.4296875 l0 -0.078125 q-0.09765625 0 -0.09765625 -0.09765625 l0.17578 -0.078125 q0.1171875 0.48828125 0.3515625 0.78125 l0 0.52734 q0 0.09765625 -0.09765625 0.09765625 q0 0.078125 0.09765625 0.078125 q-0.17578125 2.109375 -0.2734375 2.109375 q0 0.078125 0.09765625 0.078125 l-0.097656 0.44922 q0 0.1953125 0.09765625 0.3515625 l-0.097656 0.35156 q0 0.25390625 0.09765625 0.25390625 q-0.09765625 0.87890625 -0.09765625 1.328125 l0 2.0898 l0.097656 0.52734 q-0.09765625 0.15625 -0.09765625 0.44921875 q0 0.078125 0.09765625 0.078125 q-0.09765625 0.13671875 -0.09765625 0.52734375 l-0.078125 0 l0 -0.35156 q-0.078125 -5.83984375 -0.078125 -7.44140625 q0 -0.09765625 0.078125 -0.2734375 q-0.078125 -0.17578125 -0.078125 -0.25390625 l0.078125 0 l-0.078125 -0.17578 l0 -1.0547 l-0.097656 0 l0 1.6602 l-0.078125 0.17578 l0.078125 0.17578 q-0.17578125 1.23046875 -0.17578125 1.66015625 l0.097656 0 l-0.097656 0.17578 l0 4.3945 q0 0.60546875 -0.078125 1.93359375 l0.078125 0 l-0.078125 0.17578 l0 0.78125 q0 0.1953125 -0.09765625 0.3515625 l0.097656 0.17578 l-0.097656 1.0547 l0.097656 0.42969 l-0.097656 0 q0.17578125 0.46875 0.17578125 1.23046875 q-0.078125 0.17578125 -0.078125 0.2734375 l0.078125 0 l-0.078125 0.17578 q0 0.8203125 -0.09765625 2.44140625 l-0.078125 0 l0.078125 0.17578 l0 0.097656 l-0.078125 0.17578 q0.078125 0 0.078125 0.078125 l-0.17578 0.097656 l0 -0.35156 l-0.078125 0 l0 0.25391 l-0.17578 -0.078125 l0.078125 -0.17578 l-0.078125 -0.17578 q0 -0.09765625 0.078125 -0.09765625 l-0.078125 -0.42969 q0.01953125 -0.3515625 0.17578125 -0.3515625 q-0.09765625 -0.17578125 -0.09765625 -0.2734375 l0.097656 -1.0547 q-0.17578125 -0.2734375 -0.17578125 -0.4296875 l0.078125 0 l-0.078125 -0.17578 q0.078125 -0.15625 0.078125 -0.3515625 l-0.17578 -0.078125 q-0.17578125 1.0546875 -0.25390625 3.06640625 l0.078125 0 l-0.078125 0.17578 l0 0.52734 l-0.17578 0 l0 -0.17578 l-0.097656 0 l0 0.25391 l0.097656 0 l-0.097656 0.17578 l0 1.0547 l0.17578 -0.097656 l0.097656 0.17578 l0 0.097656 l-0.097656 0.17578 q0.09765625 0 0.09765625 0.078125 l-0.097656 0 q0 0.09765625 0.09765625 0.09765625 l-0.097656 0.42969 l0 1.3281 q0.234375 0 0.3515625 -0.52734375 l0 -0.27344 l0.097656 0 l-0.097656 -0.17578 l0.097656 -0.17578 q-0.17578125 0 -0.17578125 -0.17578125 l0.17578 0 l0 -0.70313 l-0.097656 -0.17578 q0.09765625 0 0.09765625 -0.078125 l-0.097656 0 l0.097656 -0.17578 l0 -0.95703 q0.17578125 0 0.17578125 0.25390625 l0.078125 0 l0 -0.17578 q-0.078125 0 -0.078125 -0.078125 l0.17578 -0.097656 l0 2.6367 l-0.097656 0 l0 -1.582 l-0.078125 0 q0.078125 -0.17578125 0.078125 -0.3515625 l-0.078125 0 q0 0.17578125 -0.09765625 0.17578125 l0.097656 0.42969 l0 0.52734 q0 0.09765625 -0.09765625 0.09765625 l0.097656 0.17578 l-0.097656 0.52734 q0.09765625 0.87890625 0.09765625 1.30859375 q0 0.859375 -0.17578125 1.484375 l0.078125 0.17578 q-0.078125 0.15625 -0.078125 0.3515625 l0.078125 0 l-0.078125 0.17578 q0 0.6640625 0.078125 1.23046875 l0 0.17578 l-0.078125 0 l0 -0.35156 l-0.097656 0 l0 0.097656 q0.09765625 0.46875 0.09765625 0.87890625 l-0.097656 0 l-0.17578 -1.0547 q0.09765625 -0.17578125 0.09765625 -0.2734375 l-0.097656 0 q0 -0.078125 0.09765625 -0.078125 q-0.09765625 -0.48828125 -0.09765625 -0.703125 q0.09765625 -0.17578125 0.09765625 -0.2734375 q-0.17578125 0 -0.17578125 0.3515625 l-0.097656 0 q0 -0.546875 0.09765625 -0.703125 q-0.09765625 -0.13671875 -0.09765625 -0.4296875 q0 -0.17578125 0.09765625 -0.17578125 q-0.09765625 -0.17578125 -0.09765625 -0.25390625 l0.097656 -0.70313 l-0.097656 0 l-0.078125 0.60547 l0 2.7148 l-0.097656 0 l-0.17578 -0.078125 q0 0.95703125 -0.078125 0.95703125 q0.078125 0 0.078125 0.09765625 l-0.17578 0 q0 -0.17578125 -0.17578125 -0.17578125 l0 -0.35156 l0.17578 0.078125 l-0.078125 -0.17578 l0 -0.078125 l0.17578 0 q-0.09765625 -0.17578125 -0.09765625 -0.2734375 l0 -0.87891 l-0.078125 0 l0 0.87891 l-0.097656 0 l0 -0.25391 l-0.078125 0 q0 0.859375 -0.17578125 1.1328125 l0.078125 0 l-0.078125 0.17578 l0 0.70313 l-0.097656 0.44922 l-0.25391 -0.17578 l-0.097656 0 l0 1.3086 l0.17578 0 l0 0.078125 q-0.17578125 0 -0.17578125 0.3515625 z M16.523 40.91797 l-0.17578 -0.625 l-0.097656 0 l0 0.17578 l-0.078125 0 l0 -0.25391 l-0.097656 0 l-0.078125 0.35156 l-0.097656 0 l0 -0.17578 l-0.078125 0 l0 0.25391 l-0.097656 0 q0 -0.3515625 -0.17578125 -0.3515625 q0 0.09765625 -0.078125 0.09765625 q0 -0.1953125 -0.44921875 -0.25390625 q0 0.15625 -0.17578125 0.15625 l-0.35156 -0.15625 l0 0.078125 l-0.78125 -0.25391 q-0.078125 0.15625 -0.078125 0.25390625 l-0.097656 0 q0 -0.25390625 -0.17578125 -0.25390625 q0 0.078125 -0.078125 0.078125 q0 -0.3125 -0.52734375 -0.52734375 l0 -0.35156 l-0.097656 0 q0 0.13671875 -0.25390625 0.625 l-0.27344 0 l-0.25391 -0.17578 l-0.17578 0.42969 l-0.17578 -0.078125 q0 -0.09765625 0.078125 -0.09765625 q-0.25390625 -2.1875 -0.25390625 -2.63671875 l0 -2.0898 q0 -0.09765625 0.078125 -0.09765625 q0 -0.078125 -0.078125 -0.078125 q0.078125 -0.625 0.078125 -0.80078125 q0 -0.078125 -0.078125 -0.078125 q0.078125 -0.3125 0.3515625 -2.98828125 l-0.097656 0 l0.097656 -0.17578 l0 -0.60547 q0 -0.1953125 -0.09765625 -0.3515625 q0.09765625 -0.17578125 0.09765625 -0.2734375 q-0.05859375 -1.30859375 -0.17578125 -1.30859375 l0.078125 -0.17578 q0 -0.56640625 -0.17578125 -1.484375 l0.097656 0 q-0.09765625 -0.17578125 -0.09765625 -0.3515625 l0.17578 -0.27344 q0 -0.4296875 -0.078125 -0.4296875 l0.17578 -1.582 l-0.097656 -0.17578 q0.09765625 -1.2890625 0.2734375 -1.40625 l-0.097656 0 q0 -0.078125 0.09765625 -0.078125 q-0.17578125 -0.6640625 -0.17578125 -0.80078125 l0.078125 -0.60547 q0 -0.09765625 -0.078125 -0.09765625 l0.078125 -0.42969 l0 -0.70313 q0 -0.1953125 -0.078125 -0.3515625 q0.078125 -0.15625 0.078125 -0.3515625 l0 -0.70313 q0 -0.078125 0.09765625 -0.078125 q0 -0.09765625 -0.09765625 -0.09765625 q0 -0.15625 0.17578125 -0.703125 l-0.078125 0 l0.078125 -0.17578 l0 -0.25391 l-0.17578 0 q0 -0.17578125 0.17578125 -0.80078125 l0 -0.078125 l-0.17578 0 l0 -0.17578 q0.21484375 0 0.2734375 -0.52734375 q-0.09765625 -0.2734375 -0.17578125 -0.2734375 q0.078125 -0.15625 0.078125 -0.25390625 l-0.078125 -0.17578 q0.17578125 -0.41015625 0.17578125 -0.78125 q-0.17578125 0 -0.17578125 -0.17578125 l0.17578 -0.27344 l0 -1.0547 l0.078125 0 l0 0.17578 q0.17578125 0 0.17578125 -0.4296875 l0.097656 0 l0 1.3086 l-0.097656 0.17578 l0.097656 0 l-0.097656 0.17578 l0.097656 0.17578 l-0.097656 0.52734 l0.097656 0 l-0.097656 0.17578 q0.09765625 1.328125 0.09765625 1.8359375 l0.078125 0 l0.17578 -0.78125 l0 -1.4844 l0.097656 0 l0 -0.27344 l-0.097656 0 l0 0.17578 l-0.078125 0 l0 -1.2305 l0.078125 0 l0 0.44922 l0.097656 0 l0 -0.87891 l0.078125 0 l0 0.35156 l0.097656 0 q0 -0.17578125 0.17578125 -1.0546875 l0.078125 0 q0 0.4296875 0.09765625 0.4296875 q-0.09765625 0.17578125 -0.09765625 0.2734375 l0.097656 0.17578 q-0.09765625 0.15625 -0.09765625 0.3515625 l0.097656 0 l0.078125 -0.44922 q-0.078125 0 -0.078125 -0.078125 l0.17578 -0.097656 l0 0.17578 l0.078125 0 q0 -0.05859375 0.09765625 -0.52734375 q0.15625 0.09765625 0.25390625 0.09765625 l0 0.60547 l0.078125 0 q0 -0.21484375 0.3515625 -1.1328125 l0.097656 0 l0 0.70313 l0.078125 0 l0 -0.35156 l0.097656 0 l0 0.25391 l0.17578 0 l0 -0.52734 l0.078125 0 l0 0.17578 l0.35156 -0.25391 q0 0.078125 0.09765625 0.078125 l0 -0.17578 l0.078125 0 l0 0.35156 l0.27344 0 q0.078125 -0.33203125 0.078125 -0.60546875 l0.17578 0.078125 l0.097656 -0.50781 l0.078125 0 q0 0.078125 -0.17578125 0.859375 l0.27344 0 l0 -0.25391 l0.078125 0 l0 0.17578 l0.17578 -0.097656 l0 0.27344 l0.17578 -0.097656 q0 0.09765625 0.09765625 0.09765625 q0.4296875 -0.5859375 0.4296875 -0.80078125 l0.097656 0 l0 0.625 q0.3515625 0 0.3515625 0.17578125 l0.078125 0 q0 -0.68359375 0.52734375 -0.87890625 l0.078125 0.42969 l0.35156 -0.50781 q0 0.4296875 0.17578125 0.4296875 q0 0.078125 -0.078125 0.078125 l0.25391 0.97656 l0.097656 0 q0.3515625 -0.17578125 0.3515625 -0.44921875 q0.17578125 0 0.17578125 0.2734375 q0 0.29296875 -0.09765625 0.4296875 q0.09765625 0.48828125 0.09765625 0.703125 l-0.097656 0.70313 l0.097656 0 l-0.097656 0.17578 l0 1.4063 q0 0.078125 0.09765625 0.078125 l-0.097656 0.17578 l0 0.35156 q0 0.09765625 0.09765625 0.09765625 q0 0.078125 -0.09765625 0.078125 l0.097656 0.44922 l-0.097656 0.60547 q0.09765625 0.17578125 0.09765625 0.2734375 q-0.09765625 0 -0.09765625 0.078125 l0.097656 0 l-0.097656 0.17578 l0 0.27344 q0 0.078125 0.09765625 0.078125 q-0.09765625 0.1953125 -0.17578125 0.80078125 q0.078125 0.13671875 0.078125 0.33203125 l-0.078125 0 l0.17578 0.97656 q-0.09765625 1.23046875 -0.09765625 2.63671875 q0 1.796875 0.09765625 4.47265625 l-0.097656 0 l0.097656 0.15625 l-0.097656 0.35156 q0 0.21484375 0.09765625 0.3515625 q-0.17578125 1.5625 -0.17578125 2.63671875 q0.078125 1.50390625 0.078125 1.7578125 l-0.078125 0.17578 q0 0.078125 0.078125 0.078125 l-0.078125 0.52734 q0 0.6640625 0.17578125 3.515625 q-0.09765625 1.4453125 -0.09765625 2.1875 q-0.078125 0.17578125 -0.078125 0.2734375 q0.078125 0 0.078125 0.078125 l-0.35156 0.44922 l-0.078125 0 l0 -0.17578 q-0.17578125 0 -0.17578125 0.25390625 l-0.17578 -0.078125 q0 0.15625 -0.17578125 0.15625 l0 -0.078125 l-0.17578 0.078125 q-0.09765625 0 -0.09765625 -0.078125 q-0.078125 0 -0.078125 0.078125 q-0.4296875 -0.078125 -0.60546875 -0.078125 l0 0.17578 l-0.097656 0 l0 -0.17578 l-0.25391 0 q0 0.4296875 -0.17578125 0.4296875 l-0.097656 0 q0 -0.4296875 -0.17578125 -0.4296875 q0 0.703125 -0.25390625 0.703125 z M16.348 11.27 l-0.097656 0 q0 -0.078125 -0.078125 -0.25390625 l0.17578 -0.078125 l0 0.33203 z M1.5234 13.905999999999999 l-0.097656 0 l0 -0.17578 l-0.078125 0 l0 0.17578 l-0.097656 0 l0.097656 -0.60547 q0 -0.09765625 -0.09765625 -0.703125 l0.17578 0.078125 l0 -0.25391 l0.097656 0 q0 0.3515625 0.078125 0.3515625 q-0.078125 0.29296875 -0.078125 1.1328125 z M19.316 14.082 q0 -0.72265625 0.09765625 -1.40625 l0 -0.078125 l-0.097656 0 l-0.078125 0.42969 l0 1.0547 l0.078125 0 z M21.426 13.203 l-0.078125 0 l0 -0.42969 l0.078125 0 l0 0.42969 z M13.789 13.828 l0 -0.625 l-0.078125 0 l-0.078125 0.625 l0.15625 0 z M12.832 14.609000000000002 l0.097656 -0.35156 l0 -0.87891 l-0.097656 0 q0 1.15234375 -0.078125 1.15234375 l0 0.078125 l0.078125 0 z M21.25 16.719 l-0.17578 0 l0 -1.8359 q0 -0.46875 0.09765625 -1.50390625 l0.078125 0 q0 0.5078125 0.09765625 0.625 q-0.17578125 0.01953125 -0.17578125 0.17578125 l0 2.3633 z M12.754 13.905999999999999 l0 -0.35156 l-0.097656 0 l0 0.35156 l0.097656 0 z M28.008 17.949 l0.078125 -0.17578 l0 -1.582 q0 -0.09765625 -0.078125 -0.09765625 q0.078125 -0.15625 0.078125 -0.25390625 q0 -0.76171875 -0.17578125 -2.1875 l-0.17578 0 l0.097656 0.17578 l0 0.35156 l-0.17578 0.25391 l0 0.097656 l0.17578 0 q0 0.078125 -0.09765625 0.078125 q0.09765625 0.44921875 0.17578125 0.44921875 q-0.078125 0.78125 -0.17578125 0.78125 q0.09765625 0.29296875 0.2734375 1.8359375 l0 0.097656 l-0.17578 0 q0 -0.09765625 0.078125 -0.09765625 q-0.1171875 -0.52734375 -0.25390625 -0.52734375 l-0.097656 0.17578 l0.17578 0 q0 0.17578125 -0.078125 0.625 l0.078125 0 l0.17578 -0.097656 q0 0.09765625 0.09765625 0.09765625 z M11.699 14.18 l0 -0.27344 l0.17578 0 q0 0.2734375 -0.17578125 0.2734375 z M11.777 14.434000000000001 l-0.25391 0 q0.078125 -0.17578125 0.078125 -0.25390625 l0.097656 0 q0 0.078125 0.078125 0.25390625 z M19.316 15.565999999999999 l0 -1.3086 l-0.078125 0 l0 1.2305 q-0.09765625 0 -0.09765625 0.078125 l0.17578 0 z M22.207 14.960999999999999 l0 -0.42969 l-0.078125 0 l0 0.42969 l0.078125 0 z M21.875 16.367 q0.15625 0 0.15625 -0.17578125 q-0.078125 -0.46875 -0.078125 -0.80078125 l0.25391 -0.33203 l-0.078125 0 q0 0.078125 -0.09765625 0.078125 q0 -0.25390625 -0.15625 -0.25390625 l0 0.078125 q0 0.09765625 0.078125 0.09765625 l-0.078125 0.15625 l0 1.1523 z M12.305 16.797 q-0.078125 -0.4296875 -0.078125 -0.60546875 q0 -0.09765625 0.078125 -0.09765625 q-0.078125 -0.078125 -0.078125 -0.703125 l-0.097656 0 l0 0.97656 l0.097656 0.42969 l0.078125 0 z M11.777 16.016 l-0.078125 0 l0 -0.625 l0.17578 0 z M22.207 16.016 l0 -0.52734 l-0.17578 0 q0.09765625 0.13671875 0.09765625 0.52734375 l0.078125 0 z M19.316 16.094 l0 -0.42969 l-0.078125 0 l0 0.42969 l0.078125 0 z M19.316 16.797 l0 -0.60547 l-0.078125 0 l0 0.60547 l0.078125 0 z M11.523 16.445 l0 -0.17578 q0.09765625 0 0.25390625 -0.078125 l0 0.17578 q-0.09765625 0 -0.25390625 0.078125 z M27.305 16.543 l0 -0.097656 q-0.09765625 0 -0.2734375 -0.078125 l0 0.17578 l0.27344 0 z M27.734 16.973 l-0.078125 -0.42969 l-0.097656 0 q0 0.1953125 -0.078125 0.3515625 l0.17578 0.078125 l0.078125 0 z M11.523 17.676 l-0.097656 0 l0 -1.0547 l0.097656 0 l0 1.0547 z M12.48 17.422 l0 -0.70313 l-0.078125 0 l0 0.70313 l0.078125 0 z M1.5234 17.422 l-0.097656 0 l0 -0.625 l0.097656 0 l0 0.625 z M21.172 18.027 l-0.097656 0 l0 -1.2305 l0.17578 0.097656 q-0.078125 0.29296875 -0.078125 1.1328125 z M12.305 17.324 q-0.078125 -0.15625 -0.078125 -0.3515625 l-0.097656 0 l0 0.35156 l0.17578 0 z M19.316 17.598 l0 -0.625 l-0.078125 0 l0 0.625 l0.078125 0 z M12.305 17.676 l0 -0.25391 l-0.17578 0 l0 0.25391 l0.17578 0 z M22.129 17.949 l0 -0.52734 l-0.097656 0 l0 0.52734 l0.097656 0 z M11.523 18.477 l-0.097656 0 l0 -0.625 l0.097656 0 l0 0.625 z M28.008 21.016 l0 -0.35156 l0.17578 0.078125 q0 -0.17578125 -0.09765625 -0.3515625 q0.09765625 -0.13671875 0.09765625 -0.3515625 q0 -0.078125 -0.09765625 -0.078125 l0.097656 -0.17578 l-0.097656 -0.17578 l0.097656 0 l-0.17578 -0.42969 q0.17578125 0 0.17578125 -0.17578125 l-0.17578 0 l0.078125 -0.44922 l-0.17578 -0.25391 l0.097656 0 q-0.09765625 -0.17578125 -0.09765625 -0.2734375 l-0.25391 0 l0 0.17578 l0.25391 0 l-0.17578 0.27344 q0 0.078125 0.09765625 0.078125 l-0.097656 0.17578 l0.17578 0.27344 l-0.078125 0.42969 l0.17578 -0.078125 l0 0.15625 l-0.17578 0 l0 0.97656 l-0.097656 0 l0 -0.27344 l-0.078125 0 q0 0.3515625 -0.17578125 0.3515625 l0 0.17578 q0.078125 0 0.078125 -0.078125 z M21.348 18.555 l-0.097656 0 l0 -0.52734 l0.097656 0 l0 0.52734 z M21.25 19.18 l-0.078125 0 l0 -0.44922 l0.078125 0 l0 0.44922 z M27.305 20.391 l0 -0.60547 l-0.17578 0 l0.078125 0.17578 l-0.078125 0 q0.078125 0.13671875 0.078125 0.4296875 l0.097656 0 z M21.777 21.094 l-0.078125 0 l0 -0.78125 l0.078125 0 l0 0.78125 z M27.383 21.016 q0 -0.44921875 -0.25390625 -0.52734375 l0 0.078125 l0.078125 0.44922 l0.17578 0 z M12.051 20.918 q0 -0.25390625 -0.17578125 -0.25390625 l0 0.25391 l0.17578 0 z M27.734 21.27 l0 -0.42969 l-0.078125 0 q0 0.17578125 -0.09765625 0.17578125 q0.09765625 0.15625 0.09765625 0.25390625 l0.078125 0 z M28.086 21.543 q0 -0.1953125 0.09765625 -0.3515625 l-0.35156 -0.097656 q0.01953125 0.17578125 0.17578125 0.17578125 l-0.097656 0.17578 l0 0.097656 l0.17578 0 z M21.875 21.445 l-0.097656 0 q0 -0.09765625 -0.078125 -0.25390625 l0.17578 0 l0 0.25391 z M27.559 21.797 q0.17578125 -0.078125 0.2734375 -0.078125 l0 -0.097656 l-0.17578 0 l0 -0.078125 l0.17578 0 l0 -0.17578 l-0.17578 0 z M21.875 22.949 l-0.17578 0 l0 -1.5039 q0.17578125 0.0390625 0.17578125 0.17578125 l0 1.3281 z M11.953 22.148 l0 -0.52734 l-0.078125 0 l0 0.52734 l0.078125 0 z M28.086 22.676 q0 -0.17578125 0.09765625 -0.17578125 l-0.097656 -0.17578 l0 -0.70313 l-0.17578 0 l0.097656 0.17578 q-0.44921875 0.1171875 -0.44921875 0.2734375 l0.097656 0 l-0.097656 0.17578 l0 0.078125 l0.17578 -0.078125 l0.27344 0 l0 0.42969 l0.078125 0 z M27.383 26.445 q0.44921875 -0.25390625 0.44921875 -0.60546875 l-0.097656 -0.17578 q0.09765625 -0.15625 0.09765625 -0.3515625 q0 -0.09765625 -0.09765625 -0.09765625 l0.097656 -0.17578 l-0.097656 -0.42969 l-0.078125 0 l0 0.52734 q0 0.078125 0.078125 0.078125 q-0.078125 0.15625 -0.078125 0.3515625 l-0.097656 0 q0 -0.25390625 -0.078125 -0.25390625 l0.078125 -0.17578 q0 -0.09765625 -0.078125 -0.09765625 q0.078125 -0.15625 0.078125 -0.25390625 l-0.078125 -0.44922 l0.52734 0.27344 q0.17578125 -0.29296875 0.17578125 -0.52734375 l0 -0.60547 l-0.097656 -0.44922 l0.097656 0 q-0.09765625 -0.17578125 -0.09765625 -0.25390625 l-0.078125 0 q0 0.78125 -0.2734375 0.78125 l0 0.078125 l0.17578 0 q-0.078125 0.17578125 -0.078125 0.2734375 l-0.097656 0 l-0.078125 -0.52734 l-0.097656 0 l0 0.87891 l-0.078125 0 l0 -1.8359 l-0.097656 -0.44922 l-0.078125 0 l0 0.17578 l0.078125 0 q-0.078125 0.17578125 -0.078125 0.2734375 q0 0.25390625 0.078125 0.25390625 l-0.078125 0.87891 l0 1.7578 l-0.097656 0 l0 -0.27344 l-0.078125 0 l0 0.70313 l0.078125 0.17578 q-0.078125 0 -0.078125 0.09765625 q0.25390625 0 0.25390625 0.4296875 z M27.91 22.598 q0 -0.2734375 -0.17578125 -0.2734375 l-0.078125 0.17578 l0.17578 0.097656 l0.078125 0 z M8.6328 26.797 q0 -0.7421875 0.078125 -1.58203125 l-0.078125 0 q0.17578125 -0.546875 0.17578125 -2.08984375 l-0.097656 -0.70313 l-0.078125 0 l0 0.42969 l0.078125 0 l-0.078125 0.17578 l-0.097656 2.9883 l0 0.78125 l0.097656 0 z M12.051 23.984 l0 -0.17578 l-0.17578 -0.078125 l0.17578 -0.95703 l-0.17578 0 q0 0.25390625 -0.09765625 0.25390625 q0 0.09765625 0.09765625 0.09765625 q-0.078125 0.33203125 -0.09765625 0.68359375 q0.17578125 0 0.17578125 0.17578125 l0.097656 0 z M12.48 23.301 l0 -0.27344 q-0.17578125 0.01953125 -0.17578125 0.17578125 l0 0.097656 l0.17578 0 z M9.7656 24.863 l-0.097656 0 q0 -0.1953125 -0.078125 -0.3515625 l0.078125 -0.52734 l-0.078125 0 q0.078125 0 0.078125 -0.95703125 l0.097656 0 l0 1.8359 z M27.832 23.477 l0 -0.17578 l-0.17578 -0.097656 q0.078125 0.17578125 0.078125 0.2734375 l0.097656 0 z M27.207 24.082 l0 -0.60547 l-0.078125 0 l0 0.60547 l0.078125 0 z M12.48 23.984 l0 -0.42969 l-0.078125 0 l0 0.42969 l0.078125 0 z M11.875 24.258 l0 -0.35156 l-0.097656 0 l0 0.35156 l0.097656 0 z M27.91 24.336 l-0.17578 0 l0.097656 -0.17578 q-0.17578125 0 -0.17578125 -0.17578125 l0.25391 0 l0 0.35156 z M12.051 26.719 l0 -0.80078 l-0.097656 -0.17578 q0.09765625 -0.15625 0.09765625 -0.25390625 q-0.09765625 0 -0.09765625 -0.09765625 l0.097656 0 l-0.097656 -0.17578 q0.09765625 -0.60546875 0.09765625 -0.78125 l-0.097656 0 q0 0.234375 -0.17578125 0.52734375 l0.097656 0 q0 0.078125 -0.09765625 0.078125 q0.17578125 0.859375 0.17578125 1.6796875 l0.097656 0 z M11.426 25.664 l-0.078125 0 l0 -1.2305 l0.078125 0 l0 1.2305 z M28.086 26.367 l0.097656 -0.44922 q0 -0.2734375 -0.09765625 -0.4296875 q0.09765625 -0.15625 0.09765625 -0.3515625 l-0.17578 -0.097656 l0.078125 -0.17578 l0 -0.078125 q-0.17578125 0.01953125 -0.17578125 0.17578125 l0 0.95703 l0.097656 0.44922 l0.078125 0 z M9.8438 26.797 l-0.078125 0 l0 -0.17578 l-0.097656 0 l0 0.17578 l-0.078125 0 l0 -0.52734 l0.25391 0 l0 0.52734 z M28.086 26.797 l0 -0.35156 l-0.17578 0 l0 0.35156 l0.17578 0 z M28.184 28.378999999999998 q0 -0.17578125 -0.09765625 -0.17578125 l0.097656 -0.17578 l0 -0.95703 q-0.2734375 0 -0.2734375 0.17578125 l0.17578 0 l0 0.078125 q-0.1171875 0 -0.4296875 0.4296875 l-0.17578 -0.078125 l-0.097656 0 l0 0.078125 q0.17578125 0.41015625 0.3515625 0.44921875 l0 -0.097656 l-0.078125 -0.17578 l0.17578 0 q0 0.44921875 0.17578125 0.44921875 q0 -0.09765625 0.078125 -0.09765625 q0 0.09765625 0.09765625 0.09765625 z M29.063 30.039099999999998 l0 -2.9688 l-0.097656 0 q0 0.17578125 -0.078125 0.17578125 q0 0.078125 0.078125 0.078125 l-0.078125 0.42969 l0.078125 0.17578 l-0.078125 0 l0.078125 0.17578 q-0.078125 0.17578125 -0.078125 0.2734375 l0.078125 0.17578 q0 0.078125 -0.078125 0.078125 l0.078125 0.44922 l0 0.78125 l-0.078125 0.17578 l0.17578 0 z M27.656 27.5 l0 -0.17578 q-0.3515625 0 -0.3515625 0.17578125 l0.35156 0 z M28.086 27.852 l-0.078125 0 l0 -0.35156 l0.078125 0 l0 0.35156 z M27.305 28.378999999999998 l0 -0.17578 q-0.2734375 0 -0.2734375 0.17578125 l0.27344 0 z M27.656 29.609 q-0.17578125 -0.21484375 -0.17578125 -0.3515625 l0.17578 -0.35156 l0 -0.097656 l-0.097656 0 l0 0.17578 l-0.078125 0 l0 -0.35156 l0.17578 0.097656 l0.078125 -0.17578 q-0.25390625 0 -0.25390625 -0.3515625 l-0.097656 0 l0 1.4063 l0.27344 0 z M28.086 29.686999999999998 l0 -0.078125 l-0.17578 -0.27344 q0.13671875 0 0.2734375 -0.25390625 l0 -0.625 q-0.09765625 0 -0.09765625 0.09765625 l-0.17578 -0.097656 l-0.078125 0 l0 0.35156 q0 0.1953125 0.078125 0.3515625 q-0.078125 0.15625 -0.078125 0.52734375 l0.17578 -0.078125 q0 0.078125 0.078125 0.078125 z M8.0078 30.3125 q0.17578125 0 0.17578125 -0.2734375 l0 -0.78125 l-0.078125 0 q0 0.5859375 -0.09765625 1.0546875 z M27.832 30.7422 q0.1171875 0 0.25390625 -0.25390625 l0 -0.097656 l-0.17578 0.097656 l0 -0.27344 l0.17578 0 l0 -0.42969 l-0.25391 0 l0 0.25391 l0.17578 -0.078125 l0 0.17578 q-0.2734375 0 -0.2734375 0.17578125 l0 0.42969 l0.097656 0 z M27.129 30.136699999999998 q0 -0.09765625 0.078125 -0.2734375 l-0.078125 0 l-0.097656 0.17578 l0 0.097656 l0.097656 0 z M27.559 30.3906 l-0.078125 -0.17578 q0.078125 0 0.078125 -0.078125 l-0.17578 -0.097656 l0 0.35156 l0.17578 0 z M7.832 31.4453 l0 -1.3086 l-0.078125 0 l0 1.3086 l0.078125 0 z M29.414 30.5664 l-0.097656 0 l0 -0.42969 l0.097656 0 l0 0.42969 z M21.426 31.0937 l-0.078125 0 l0 -0.35156 l0.078125 0 l0 0.35156 z M28.008 31.2695 l0 -0.078125 l-0.097656 -0.17578 l0.17578 0 q0 -0.17578125 -0.17578125 -0.17578125 l0 0.17578 l-0.17578 -0.097656 l0 0.27344 q0.09765625 0 0.2734375 0.078125 z M29.414 31.3672 l-0.097656 0 l0 -0.35156 l0.097656 0 l0 0.35156 z M21.348 31.543 l-0.097656 0 l0 -0.35156 l0.097656 0 l0 0.35156 z M28.008 31.875 l0 -0.078125 q-0.09765625 0 -0.09765625 -0.078125 l0.097656 0 q-0.09765625 -0.17578125 -0.09765625 -0.2734375 l-0.078125 0 l0 0.27344 q0.01953125 0.15625 0.17578125 0.15625 z M8.1055 33.5547 l0 -1.5039 l-0.17578 0 q0 0.21484375 0.078125 0.3515625 q0 0.09765625 -0.078125 0.09765625 q0.078125 0.44921875 0.078125 1.0546875 l0.097656 0 z M29.316 33.3789 l-0.078125 0 l0 -0.625 l0.078125 0 l0 0.625 z M11.875 35.6641 q0 -0.859375 0.078125 -0.87890625 l-0.078125 0 l0.078125 -0.17578 l0 -1.5039 q0 -0.17578125 -0.17578125 -0.17578125 l0 2.7344 l0.097656 0 z M27.832 33.457 l0 -0.25391 q-0.17578125 0.01953125 -0.17578125 0.17578125 z M8.9844 33.7305 l-0.17578 0 l0 -0.27344 l0.078125 0 q0 0.09765625 0.09765625 0.2734375 z M9.0625 34.2578 l-0.17578 0 l0 -0.35156 l0.097656 0 z M9.0625 34.8633 l-0.078125 0 l-0.097656 -0.52734 q0.17578125 0.0390625 0.17578125 0.17578125 l0 0.35156 z M1.3477 35.918 l-0.17578 0 l0 -0.70313 l0.078125 0 q0 0.625 0.09765625 0.703125 z M9.0625 35.8398 l-0.078125 0 l0 -0.35156 l0.078125 0 l0 0.35156 z M1.3477 36.6992 l-0.097656 0 l0 -0.68359 l0.097656 0 l0 0.68359 z M7.5781 36.9727 q0.078125 -0.44921875 0.078125 -0.52734375 l-0.078125 -0.17578 q0.078125 0 0.078125 -0.09765625 l-0.078125 0 l-0.097656 0.17578 l0.097656 0 l-0.097656 0.17578 l0 0.44922 l0.097656 0 z M7.9297 36.875 l0 -0.42969 l-0.097656 0 l0 0.42969 l0.097656 0 z M1.4258 37.6758 l-0.078125 0 l0 -0.625 l0.078125 0 l0 0.625 z M1.7773 39.25781 q-0.1953125 0 -0.3515625 -0.87890625 l0 -0.52734 l0.097656 0 q0 0.64453125 0.25390625 1.40625 z M1.25 39.51172 l-0.078125 0 l0 -0.42969 l0.078125 0 l0 0.42969 z M7.832 39.6875 l-0.078125 0 l0 -0.35156 l0.078125 0 l0 0.35156 z M26.855 40.74219 l-0.078125 0 l0 -0.35156 l0.078125 0 l0 0.35156 z M4.5898 40.91797 l-0.078125 0 l0 -0.35156 l0.078125 0 l0 0.35156 z M46.217234375000004 40.99609 l-0.078125 0 q0 -0.64453125 -0.09765625 -0.95703125 l0.097656 -0.17578 q-0.09765625 -0.15625 -0.09765625 -0.3515625 l-0.17578 0 q0 0.09765625 0.09765625 0.09765625 q-0.09765625 0.15625 -0.09765625 0.3515625 l-0.078125 0 l0 -0.17578 l-0.097656 0 q0 0.17578125 -0.17578125 0.52734375 l-0.078125 0 q0 -0.21484375 -0.17578125 -0.625 l-0.17578 0 q0 0.234375 -0.25390625 0.52734375 l0.078125 0 q-0.17578125 0.37109375 -0.17578125 0.52734375 l-0.078125 0 l-0.35156 -0.87891 q-0.17578125 0.09765625 -0.2734375 0.09765625 l0 0.078125 l0.17578 0 q-0.078125 0.15625 -0.078125 0.3515625 q-0.17578125 0 -0.17578125 -0.52734375 l0.078125 0 q-0.37109375 -1.38671875 -0.5078125 -1.38671875 l0 0.078125 l0.078125 0 l-0.078125 0.17578 l0.078125 0.17578 l-0.078125 0 l0.078125 0.17578 l0 0.35156 l-0.17578 0 l-0.17578 -0.60547 l-0.17578 0.078125 q-0.078125 -0.17578125 -0.078125 -0.25390625 q-0.3515625 0 -0.3515625 0.17578125 l0 0.95703 l-0.097656 0.60547 l-0.078125 0 q-0.2734375 -1.26953125 -0.625 -2.1875 q0 -0.25390625 -0.15625 -0.25390625 q0.078125 -0.17578125 0.078125 -0.3515625 l-0.25391 0.17578 q0 -0.2734375 0.078125 -0.4296875 q-0.3515625 -1.2890625 -0.3515625 -3.671875 q0 -0.09765625 -0.078125 -0.09765625 l0.078125 -0.17578 q0 -0.5078125 -0.17578125 -2.01171875 l0.097656 0 l-0.097656 -0.17578 l0 -2.1875 q0 -0.1953125 0.09765625 -0.33203125 l-0.097656 -0.17578 q0.09765625 -0.7421875 0.09765625 -1.30859375 q0 -0.29296875 -0.09765625 -0.44921875 l0.097656 -0.17578 q-0.09765625 -0.83984375 -0.17578125 -0.95703125 q0.078125 0 0.078125 -0.078125 q-0.48828125 0 -0.60546875 -0.09765625 l-0.097656 0.17578 q-3.02734375 0.078125 -4.62890625 0.078125 q-0.56640625 0 -1.03515625 -0.078125 q-0.17578125 0.078125 -0.2734375 0.078125 q0 -0.15625 -0.17578125 -0.15625 q-0.390625 0 -0.78125 0.078125 l0 -0.17578 l0.35156 -0.078125 q0 -0.17578125 -0.2734375 -0.17578125 q0 -0.17578125 0.625 -0.2734375 l-0.097656 -0.17578 q0.17578125 -0.078125 0.2734375 -0.078125 l0 -0.097656 l-0.80078 0 l0 -0.078125 l0.35156 0 l0 -0.097656 l-0.60547 0 l0 -0.25391 l0.35156 0 l0 -0.17578 l-0.27344 0 l0 -0.097656 l0.52734 -0.15625 l0 -0.097656 l-0.35156 0 l0 -0.078125 q0.46875 0 0.52734375 -0.2734375 l-0.25391 0 l0 -0.078125 l0.17578 0 l0 -0.097656 l-0.35156 0 l0 -0.17578 l0.17578 0 l0 -0.078125 l-0.52734 0 l0 -0.097656 q0.1953125 0 0.4296875 -0.3515625 l-0.17578 0 l0 -0.078125 q0.3515625 0 0.3515625 -0.146484375 t0.52734 -0.20508 l0 -0.25391 q0 -0.17578125 -0.17578125 -0.17578125 q0.078125 -0.3515625 0.17578125 -0.3515625 q0 -0.17578125 -0.60546875 -0.44921875 l0 -0.078125 q0.17578125 0 0.3515625 -0.3515625 l0.52734 -0.078125 l0 -0.097656 l-0.44922 -0.078125 l0 -0.27344 q0.2734375 0 0.2734375 -0.3515625 l0.17578 0.097656 l0.078125 0 l0 -0.17578 q-0.4296875 0 -0.4296875 -0.3515625 l0.078125 0 q0.703125 -0.17578125 1.66015625 -0.17578125 q0.17578125 0.078125 0.2734375 0.078125 l0 -0.078125 l0.17578 0.078125 q0.25390625 0 0.25390625 -0.17578125 q1.30859375 0.09765625 2.79296875 0.09765625 l0.87891 0.078125 l0 -0.078125 l0.17578 0.078125 l0.25391 0 l0 -1.8359 q0 -0.078125 0.09765625 -0.078125 l-0.097656 -0.17578 q0.09765625 -0.17578125 0.09765625 -0.25390625 l-0.097656 0 l0.097656 -0.17578 l0 -0.625 l-0.097656 0 l-0.078125 0.87891 l-0.097656 0 l0 -1.0547 q0 -0.078125 -0.078125 -0.078125 q0.17578125 0 0.25390625 -2.890625 l0.17578 -0.078125 l0.097656 0 l0.078125 0.35156 l0.097656 0 l0 -0.27344 q-0.09765625 0 -0.09765625 -0.078125 q0.13671875 0 0.2734375 -0.2734375 q-0.09765625 -0.5078125 -0.09765625 -0.60546875 l0.097656 0 q0.17578125 0.37109375 0.17578125 0.4296875 l0.15625 -0.078125 q0.1171875 0.52734375 0.2734375 0.52734375 q0.3515625 -0.72265625 0.3515625 -0.95703125 l0.078125 0 l0 0.42969 l0.097656 0 l0 -0.17578 l0.17578 0.078125 q0 -0.05859375 0.17578125 -0.5078125 l0.078125 0 l0 0.60547 q0.17578125 0 0.17578125 -0.4296875 l0.17578 0.078125 q0 -0.3515625 0.3515625 -0.3515625 q0.078125 0.17578125 0.078125 0.2734375 l0.097656 0 l0.078125 -0.35156 l0.097656 0 l0.17578 0.078125 q0 -0.078125 0.078125 -0.078125 l0 0.25391 l0.17578 0 l0 -0.17578 l0.17578 0.097656 l0.17578 -0.097656 q0.01953125 0.17578125 0.17578125 0.17578125 l0.17578 0 l0 -0.17578 l0.17578 0 l0 0.17578 l0.17578 0 q0 -0.17578125 0.078125 -0.17578125 l0.27344 0 l0.078125 -0.35156 l0.097656 0 l0.17578 0.80078 l0.17578 -0.097656 l0.078125 0 l0.097656 0.52734 l0.078125 0 l0 -0.52734 l0.097656 0 l0.42969 0.70313 q0.3515625 0 0.3515625 0.17578125 l0.17578 0 l-0.17578 -0.27344 l0.25391 0 l0.27344 0.97656 l0 1.1328 q0 0.1953125 -0.09765625 0.3515625 q0 0.078125 0.09765625 0.078125 l-0.097656 0.44922 q0 1.66015625 0.09765625 2.51953125 l-0.097656 0 q0 0.09765625 0.09765625 0.09765625 q-0.09765625 0.46875 -0.09765625 0.703125 q0.09765625 0.33203125 0.52734375 0.33203125 l1.4844 0 l0.17578 0.097656 l0 -0.097656 l0.17578 0.097656 q0.17578125 -0.09765625 0.25390625 -0.09765625 l0 0.097656 l0.17578 -0.097656 q0.17578125 0.09765625 0.2734375 0.09765625 l0 0.078125 l-1.8359 0 q-0.09765625 0 -0.09765625 -0.078125 q-1.03515625 0.078125 -1.03515625 0.25390625 l0.95703 0 q0.078125 0 0.078125 -0.078125 l0.17578 0.078125 q0.48828125 0 0.9765625 -0.078125 l0.15625 0.078125 l0.17578 -0.078125 q0.09765625 0 0.09765625 0.078125 l0.42969 -0.078125 l1.582 0 q0.078125 0 0.078125 -0.09765625 l0.17578 0.097656 q0.17578125 -0.09765625 0.2734375 -0.09765625 l0 0.097656 q0.078125 0 0.078125 -0.09765625 q0.17578125 0 0.17578125 0.09765625 l0.87891 -0.097656 l0.95703 0 l0 -0.17578 l-0.52734 0 l-0.17578 0.097656 l0 -0.097656 q-0.078125 0 -0.078125 0.09765625 q-0.3515625 -0.09765625 -0.703125 -0.09765625 l0 -0.078125 q3.203125 -0.17578125 4.90234375 -0.17578125 q0.078125 0 0.078125 0.078125 l0.17578 -0.078125 l0.87891 0 q0.078125 0 0.078125 0.078125 l0.17578 -0.078125 q0.60546875 0.078125 0.95703125 0.078125 l0 0.17578 l0.52734 0 l0 0.097656 l-0.17578 0 l0 0.078125 l0.17578 0 l0 0.097656 l-0.17578 0 l0 0.078125 l0.95703 0 l0 0.17578 l1.1523 0 l0 0.097656 l-0.17578 0 l0 0.17578 l0.85938 0.17578 l0 0.078125 q-0.91796875 0 -1.1328125 0.2734375 l-0.87891 0 l-0.60547 0.078125 l0 0.097656 q1.09375 0 1.30859375 0.5078125 l0.70313 0 l0 0.097656 l-0.60547 0 l0 0.078125 l0.25391 0 l-0.078125 0.17578 q0.078125 0 0.078125 0.09765625 l-0.42969 0 l0.078125 0.17578 l-0.95703 0.17578 l0 0.25391 l0.17578 0 l0 0.097656 l-0.35156 0 l0 0.15625 q0.3515625 0 0.3515625 0.2734375 q-0.17578125 0.078125 -0.25390625 0.078125 l0.078125 0.17578 l-0.25391 0 l0 0.097656 l0.42969 0.17578 l0 0.078125 l-0.25391 0 l0 0.097656 q0.4296875 0 0.5078125 0.3515625 q-0.078125 0 -0.078125 0.078125 l-0.17578 -0.078125 l-0.25391 0 q0 0.25390625 -0.2734375 0.25390625 q0 -0.078125 -0.078125 -0.078125 l0 0.15625 q0.21484375 0 0.68359375 0.09765625 l0 0.078125 l-1.0352 0 l-0.17578 0.097656 q0 -0.17578125 -0.17578125 -0.17578125 q0 0.25390625 0.17578125 0.25390625 l0.42969 -0.078125 q0 0.078125 0.09765625 0.078125 l0 -0.078125 q0.13671875 0.078125 0.4296875 0.078125 l0 0.097656 l-0.60547 0 l0 0.078125 l0.17578 0 q0 0.17578125 -1.0546875 0.3515625 l0 0.097656 l0.35156 0 l0 0.078125 q-0.5078125 0 -1.40625 0.09765625 l0 0.17578 l0.17578 -0.097656 l1.0547 0 l0 0.097656 q-0.390625 0 -0.52734375 0.078125 l0 -0.078125 l-2.0117 0.35156 q-0.15625 -0.09765625 -0.25390625 -0.09765625 l-0.17578 0.097656 l-0.17578 -0.097656 q-0.46875 0.09765625 -0.78125 0.09765625 l-0.17578 -0.097656 l0 0.097656 l-0.17578 -0.097656 q-0.09765625 0 -0.09765625 0.09765625 q-0.078125 0 -0.078125 -0.09765625 l-0.625 0.097656 l-1.3086 0 q-0.078125 0 -0.078125 0.078125 l-0.17578 -0.078125 q-0.17578125 0 -0.17578125 0.078125 q-0.09765625 0 -0.09765625 -0.078125 q-1.73828125 0.078125 -4.453125 0.078125 l-0.42969 -0.078125 q0 0.078125 -0.09765625 0.078125 l0 -0.078125 q-0.5078125 0.078125 -0.5078125 0.15625 l-0.17578 -0.078125 l-0.35156 0 q0.078125 0.15625 0.17578125 0.87890625 l-0.097656 0 q0.09765625 0.15625 0.09765625 0.25390625 q-0.09765625 0.17578125 -0.09765625 0.2734375 q0.09765625 0 0.09765625 0.078125 q-0.17578125 0.01953125 -0.17578125 0.17578125 l0.17578 0 q0 0.078125 -0.09765625 0.078125 l0.097656 0.17578 l0 0.625 q0 0.17578125 -0.17578125 0.17578125 l0.078125 0.17578 l0 2.3438 l-0.25391 0.44922 l0.17578 0 l0 -0.27344 l0.078125 0 l0 0.44922 l-0.17578 0 l0 1.8359 q0.0390625 0.17578125 0.17578125 0.17578125 q0 -0.09765625 0.09765625 -0.09765625 l0 0.27344 l-0.17578 0 l0 2.5195 q0 0.09765625 -0.09765625 0.09765625 q0.09765625 0.13671875 0.17578125 1.38671875 l-0.17578 0.097656 l0.097656 0.17578 l0 0.25391 q-0.17578125 0 -0.17578125 -0.17578125 l0 -0.52734 l0.17578 0 l0 -0.078125 q-0.2734375 0 -0.2734375 -0.25390625 l0.097656 -0.17578 q-0.09765625 0 -0.09765625 -0.09765625 l0.097656 0 q-0.09765625 -0.01953125 -0.09765625 -0.87890625 l-0.078125 0 l0 0.17578 l-0.097656 0 q0 -0.4296875 0.09765625 -0.4296875 l-0.097656 -0.42969 l0 -0.625 l-0.17578 0 l0.097656 0.625 l0 0.85938 q0 0.09765625 0.078125 0.09765625 l-0.078125 0.17578 l0 0.87891 l-0.27344 0 l0.097656 0.15625 q0 0.09765625 -0.09765625 0.52734375 q0.09765625 0 0.09765625 0.09765625 l-0.17578 0.078125 l-0.17578 -0.25391 l0 -0.17578 l0.17578 0.078125 q0 -0.1953125 0.078125 -0.3515625 l-0.15625 0 l0.078125 -0.15625 l0 -0.80078 l-0.078125 0 l0 0.87891 l-0.097656 0 l0 -0.52734 l-0.078125 0 l0 0.60547 l0.078125 0 q-0.17578125 0.33203125 -0.17578125 0.703125 l0 1.1328 q0 0.17578125 -0.17578125 0.17578125 q0 -0.17578125 -0.17578125 -0.17578125 l0 1.1523 l0.17578 0.25391 q-0.17578125 0 -0.17578125 0.25390625 z M46.744234375 11.640999999999998 l-0.078125 0 l0 -0.35156 l0.078125 0 l0 0.35156 z M47.974234375 18.809 q-0.09765625 -2.05078125 -0.09765625 -4.453125 l-0.078125 -0.44922 l0.078125 0 l-0.078125 -0.17578 l0 -0.85938 q0 -0.17578125 -0.17578125 -0.17578125 l0 0.078125 q0 0.09765625 0.078125 0.09765625 q0 0.078125 -0.078125 0.078125 l0.078125 0.87891 q0 1.42578125 -0.078125 2.44140625 l0.078125 0 l-0.078125 0.17578 q0 1.484375 0.078125 2.36328125 l0.27344 0 z M40.709034375 13.905999999999999 l-0.25391 0 l0.078125 -0.60547 l-0.078125 0 l0.078125 -0.17578 l-0.17578 -0.35156 q0.09765625 0 0.2734375 -0.078125 l0.078125 0.60547 l0 0.27344 q0 0.078125 -0.078125 0.078125 l0.078125 0.17578 l0 0.078125 z M58.717234375000004 18.281 l-0.52734 0 l0 -0.078125 l0.52734 0 l0 0.078125 z M60.299234375 18.379 q-0.37109375 -0.09765625 -1.484375 -0.09765625 l0 -0.078125 l1.4844 0 l0 0.17578 z M55.826234375 18.457 q-0.09765625 -0.078125 -0.60546875 -0.078125 l0 -0.097656 l0.70313 0 z M61.256234375 18.457 l-0.70313 0 l0 -0.078125 q0.17578125 0 0.17578125 -0.09765625 q0.13671875 0.09765625 0.52734375 0.09765625 l0 0.078125 z M52.506234375 18.984 l-1.3867 0 l0 -0.097656 q0.3515625 0 1.5625 -0.078125 q0 0.17578125 -0.17578125 0.17578125 z M53.814234375 18.887 l-0.95703 0 l0 -0.078125 l0.95703 0 l0 0.078125 z M55.826234375 19.062 q0.2734375 -0.078125 1.0546875 -0.078125 l0 -0.097656 l-1.3086 0 l0 0.097656 q0.25390625 0 0.25390625 0.078125 z M58.638234374999996 19.238 l0 -0.078125 l-0.097656 -0.17578 l0.17578 0 l0.35156 0.17578 q0 -0.17578125 0.25390625 -0.17578125 l0 -0.097656 l-1.4844 0 l0 0.17578 q0.3515625 0 0.3515625 0.17578125 l0.17578 -0.078125 q0.17578125 0.078125 0.2734375 0.078125 z M48.053234375 19.238 q0 -0.17578125 -0.17578125 -0.17578125 q-0.17578125 0.0390625 -0.17578125 0.17578125 l0.35156 0 z M59.595234375000004 19.238 l0 -0.17578 l-0.35156 0 l0 0.17578 l0.35156 0 z M57.760234374999996 23.789 l0.078125 -0.17578 l-0.17578 -0.078125 l0 0.078125 q0.09765625 0 0.09765625 0.09765625 q-0.09765625 0 -0.09765625 0.078125 l0.097656 0 z M53.736234374999995 23.867 q0.33203125 -0.078125 0.703125 -0.078125 l0 -0.078125 q-0.2734375 0 -0.2734375 -0.09765625 q-0.15625 0.078125 -0.3515625 0.09765625 q-0.078125 0 -0.078125 -0.09765625 q-0.13671875 0.09765625 -0.52734375 0.09765625 l0 0.15625 q0.15625 0 0.52734375 -0.15625 l0 0.15625 z M50.064234375 24.668 q0.87890625 -0.09765625 0.87890625 -0.17578125 q0.15625 0.078125 0.3515625 0.078125 l0 -0.17578 l-0.70313 0 l0.078125 -0.17578 l0.17578 0.097656 l0.097656 0 l0 -0.17578 l-0.17578 0.078125 l0 -0.17578 l-0.70313 0 l-0.17578 0.097656 l0 -0.17578 l2.2656 0 l0 -0.17578 l-0.15625 0.078125 q-0.1953125 0 -0.3515625 -0.078125 q0 0.078125 -0.09765625 0.078125 l0 -0.078125 l-0.17578 0.078125 l-0.70313 0 l0 -0.15625 l-0.60547 0 l0 0.078125 l0.27344 0 l0 0.078125 l-0.97656 0 l0.097656 0.17578 l0 0.097656 l-0.17578 0 q0 -0.2734375 -0.2734375 -0.2734375 l0.097656 -0.15625 l-0.70313 0 l-0.17578 0.078125 q0 -0.078125 -0.078125 -0.078125 q0 0.21484375 -0.44921875 0.25390625 l0 0.078125 q0.17578125 0 0.17578125 0.17578125 l0.17578 0 q0.17578125 0 0.17578125 -0.25390625 l0.17578 0 l-0.078125 0.17578 q0.078125 0 0.078125 0.078125 q-0.078125 0 -0.078125 0.09765625 l0.078125 0 l0.17578 -0.097656 l0 0.17578 l-0.60547 0 q-0.17578125 0.0390625 -0.17578125 0.17578125 q0.1953125 0 0.3515625 0.09765625 q0 -0.09765625 0.078125 -0.09765625 l0 0.097656 q0.1953125 -0.09765625 1.1328125 -0.17578125 l0 -0.097656 l-0.25391 0 l0 -0.078125 q0.4296875 0 0.4296875 -0.3515625 l0.27344 0 q-0.0390625 0.4296875 -0.2734375 0.4296875 l0 0.097656 q0.52734375 0.05859375 0.52734375 0.17578125 z M55.474234375 24.57 l0 -0.17578 l0.17578 0.097656 l0.44922 -0.17578 q0 0.078125 0.078125 0.078125 l0 -0.17578 q0 -0.17578125 -0.17578125 -0.17578125 l0 0.27344 l-0.25391 -0.17578 l-0.097656 0 l0 0.17578 l-0.078125 0 l0 -0.17578 l-0.097656 0 l-0.25391 0.17578 q-0.17578125 0 -0.3515625 -0.09765625 l-0.078125 0.17578 q-0.2734375 -0.078125 -0.2734375 -0.17578125 l-0.42969 0.097656 l-0.52734 0 l0 -0.097656 l0.35156 0 l0 -0.078125 q-0.25390625 0 -0.25390625 -0.17578125 l-0.17578 0 q0 0.3515625 -0.2734375 0.3515625 l0 0.17578 q0.48828125 0.078125 0.703125 0.078125 q0.29296875 0 1.484375 -0.078125 q0 0.078125 0.078125 0.078125 z M57.662234375 24.141 l0 -0.17578 q-0.078125 0 -0.078125 0.078125 q-0.17578125 -0.078125 -0.3515625 -0.078125 l0 0.17578 l0.42969 0 z M49.185234375 24.219 l-0.078125 0 q0 -0.078125 -0.09765625 -0.25390625 l0.17578 0 l0 0.25391 z M53.033234375 24.57 l0 -0.25391 l-0.17578 0.078125 l-0.60547 0 l0 -0.35156 l-0.097656 0 l0 0.17578 l-0.25391 -0.17578 l0 0.52734 q0.17578125 0 0.3515625 -0.078125 l0 0.078125 l0.17578 -0.078125 l0.25391 0 l0.17578 0.078125 q0 -0.078125 0.09765625 -0.078125 q0 0.078125 0.078125 0.078125 z M53.306234375 24.219 l0 -0.17578 q-0.3515625 0 -0.3515625 0.17578125 l0.35156 0 z M58.638234374999996 24.492 q0.3515625 0 0.859375 -0.17578125 q0 0.078125 0.09765625 0.078125 l0 -0.078125 q0.078125 0 0.078125 0.078125 l0.44922 -0.078125 l0.50781 0 l0 -0.17578 l-0.25391 0 q-0.078125 0 -0.078125 0.078125 q-0.1171875 -0.078125 -0.52734375 -0.078125 l0 0.078125 q-0.17578125 0 -0.17578125 -0.078125 q-0.52734375 0.078125 -0.52734375 0.17578125 q-0.703125 -0.09765625 -0.703125 -0.17578125 q-1.66015625 0.25390625 -1.9140625 0.25390625 l0 -0.078125 l0.52734 -0.097656 l0 -0.078125 q-0.625 0 -0.703125 -0.09765625 l0 0.44922 l1.4844 0 l0.52734 -0.097656 q0.15625 0.09765625 0.3515625 0.09765625 z M40.982434375 24.395 l0 -0.078125 l-0.35156 -0.097656 q0 0.17578125 0.3515625 0.17578125 z M50.162234375 24.395 l-0.35156 0 l0 -0.17578 l0.17578 0.097656 q0.01953125 -0.17578125 0.17578125 -0.17578125 l0 0.25391 z M50.494234375000005 24.395 l-0.25391 0 q0 -0.21484375 0.3515625 -0.25390625 l0.078125 0 l0 0.078125 q-0.17578125 0 -0.17578125 0.17578125 z M51.822234375 24.57 l0 -0.078125 l-0.097656 -0.17578 q0.09765625 0 0.09765625 -0.09765625 l-0.27344 0 l0 0.17578 q0.0390625 0.17578125 0.2734375 0.17578125 z M61.334234375 24.492 l0 -0.097656 l-0.35156 0 l0 0.097656 l0.35156 0 z M40.884734375 25.703 l-0.35156 0 l0 -0.078125 l0.35156 0 l0 0.078125 z M47.447234375 26.406 l0 -0.60547 l-0.17578 0 l0.078125 0.60547 l0.097656 0 z M48.404234375 26.503999999999998 l-0.078125 0 q0 -0.2734375 -0.09765625 -0.2734375 q0.09765625 -0.15625 0.09765625 -0.25390625 l0.17578 0 z M47.447234375 33.75 q0 -0.4296875 0.17578125 -0.4296875 l-0.17578 -0.27344 l0 -0.17578 l0.17578 0.097656 l0 -0.17578 l-0.17578 0 l0 -0.17578 l0.17578 0.078125 l0 -0.17578 l-0.17578 0 l0 -0.078125 l0.17578 0 l-0.097656 -0.42969 l0.097656 0 l-0.097656 -0.17578 q0 -0.64453125 0.09765625 -0.80078125 q-0.09765625 -0.13671875 -0.09765625 -0.60546875 q0.0390625 -0.17578125 0.17578125 -0.17578125 l0 0.17578 l0.097656 0 l0 -0.35156 l-0.17578 0.097656 l-0.097656 -0.17578 l0.27344 0 l0 -0.097656 l-0.27344 0 q0 -0.25390625 0.09765625 -0.25390625 l-0.097656 -0.44922 q0 -0.2734375 0.09765625 -0.4296875 q-0.09765625 -0.17578125 -0.09765625 -0.25390625 q0.09765625 -0.78125 0.09765625 -0.9765625 q-0.09765625 -0.25390625 -0.17578125 -0.25390625 l0.078125 -0.17578 q-0.078125 -0.17578125 -0.078125 -0.25390625 q0.078125 0 0.078125 -0.09765625 l-0.17578 -0.078125 l-0.078125 0 l0 0.68359 q0 0.09765625 -0.09765625 0.09765625 l0.097656 0.17578 l0 1.4844 q-0.2734375 0 -0.2734375 0.078125 l0 0.70313 l0.097656 0 l0 -0.70313 l0.078125 0 q0 0.3515625 0.09765625 0.3515625 l-0.097656 0.17578 l0 0.52734 l-0.17578 0 l0 2.6172 q0.0390625 0.17578125 0.17578125 0.17578125 q0 -0.546875 -0.078125 -1.5625 q0.17578125 0.01953125 0.17578125 0.17578125 q0 0.078125 -0.09765625 0.078125 l0.097656 0.17578 l0 1.8359 l0.17578 0 z M46.842234375000004 31.0352 l0 -1.3086 l-0.097656 0 l0 1.3086 l0.097656 0 z M47.349234375 34.4531 l0 -0.35156 l-0.078125 0 l0 0.35156 l0.078125 0 z M48.053234375 34.3555 l-0.078125 0 l0 -0.33203 l0.078125 0 l0 0.33203 z M41.158234375 35.5859 l-0.097656 0 l0 -0.35156 l0.097656 0 l0 0.35156 z M41.236334375 36.1914 l-0.078125 0 l0 -0.50781 l0.078125 0 l0 0.50781 z M46.842234375000004 36.1914 q0 -0.1953125 0.078125 -0.3515625 q-0.09765625 0 -0.25390625 -0.078125 l0 0.078125 l0.078125 0 q-0.078125 0.17578125 -0.078125 0.3515625 l0.17578 0 z M47.095234375000004 36.3672 l0 -0.42969 l-0.097656 0 l0 0.42969 l0.097656 0 z M41.334034375 36.9922 l-0.097656 0 l0 -0.44922 l0.097656 0 l0 0.44922 z M41.412134375 38.0273 l-0.078125 0 l0 -0.60547 l0.078125 0 l0 0.60547 z M41.685534375 38.7305 l-0.097656 0 l-0.078125 -0.35156 l0.17578 -0.078125 l0 0.42969 z M47.095234375000004 39.00391 l-0.097656 0 l0 -0.625 l0.097656 0 l0 0.625 z"></path></g><g id="SvgjsG15128" featurekey="sloganFeature-0" transform="matrix(1.6433726144319973,0,0,1.6433726144319973,75.48872855042865,325.09160938461525)" fill="#000000"><path d="M0.4 7.48 c-0.06 -0.26 -0.08 -0.5 -0.08 -0.74 c0 -0.12 -0.02 -0.26 0 -0.4 c0.04 -0.26 0.08 -0.32 0.36 -0.34 c0.08 -0.02 0.16 -0.02 0.22 0 c0.38 0 0.76 -0.04 1.12 -0.16 c0.04 0 0.08 -0.02 0.1 -0.02 c0.24 -0.02 0.46 -0.04 0.7 -0.06 c0.1 0 0.2 0 0.28 0.02 c0.16 0 0.3 0.02 0.44 0.04 c0.06 0.02 0.12 0.02 0.18 0.04 c0.22 0.06 0.44 0.12 0.68 0.1 c0.12 0 0.24 0.02 0.36 0.08 c0.08 0.04 0.18 0.08 0.26 0.1 c0.08 0.04 0.16 0.06 0.24 0.1 c0.24 0.14 0.46 0.3 0.7 0.46 c0.06 0.04 0.1 0.1 0.14 0.16 c0.16 0.18 0.32 0.38 0.5 0.54 c0.1 0.08 0.16 0.18 0.22 0.28 c0.16 0.22 0.3 0.46 0.38 0.74 c0.06 0.18 0.12 0.36 0.16 0.56 c0 0.1 0.04 0.18 0.08 0.28 c0.02 0.06 0.04 0.12 0.04 0.18 c0.02 0.36 0.08 0.72 0.14 1.08 l0 0.04 c-0.02 0.38 0.08 0.76 0.08 1.16 c0.02 0.36 0.04 0.72 0.1 1.08 c0.02 0.12 0.06 0.24 0.08 0.36 c0 0.08 0.02 0.16 0.02 0.26 c0.02 0.24 0.04 0.48 0.04 0.72 c0 0.26 -0.02 0.52 -0.02 0.76 c0 0.26 -0.04 0.52 -0.08 0.76 c-0.04 0.3 -0.04 0.58 -0.12 0.88 l0 0.18 c0 0.12 -0.02 0.24 -0.08 0.34 c-0.04 0.12 -0.08 0.24 -0.1 0.36 c0 0.06 -0.02 0.14 -0.06 0.2 c-0.06 0.14 -0.08 0.28 -0.08 0.44 c0 0.1 -0.04 0.18 -0.1 0.26 c-0.08 0.1 -0.14 0.22 -0.18 0.36 c-0.04 0.12 -0.14 0.2 -0.22 0.28 c0 0.02 -0.02 0.04 -0.06 0.06 c-0.14 0.04 -0.26 0.14 -0.38 0.26 c-0.02 0.02 -0.08 0.04 -0.14 0.04 c-0.12 0 -0.22 0.02 -0.34 0.06 c-0.32 0.04 -0.64 0.14 -0.98 0.14 c-0.3 0.02 -0.6 0.02 -0.9 0 c-0.54 -0.02 -1.06 0 -1.58 0 c-0.06 0 -0.12 0 -0.18 0.02 l-0.1 0 c-0.28 0 -0.54 -0.02 -0.8 -0.04 c-0.04 -0.02 -0.1 -0.04 -0.14 -0.06 c-0.08 -0.12 -0.22 -0.14 -0.34 -0.2 c-0.04 -0.02 -0.08 -0.06 -0.08 -0.12 c0.02 -0.24 0 -0.5 0.1 -0.74 c0.02 -0.08 0.06 -0.16 0.08 -0.24 c0.06 -0.14 0.16 -0.18 0.3 -0.2 c0.1 -0.02 0.22 0 0.32 0.04 c0.04 0 0.1 -0.04 0.1 -0.08 c0.02 -0.12 0.02 -0.22 0.02 -0.34 l0 -3.74 l0 -4.28 l0 -1.74 c0 -0.08 0 -0.16 -0.02 -0.22 c0 -0.04 -0.04 -0.06 -0.08 -0.08 c-0.16 -0.02 -0.32 -0.02 -0.46 0.02 c-0.18 0.06 -0.36 0.06 -0.54 0 c-0.08 -0.04 -0.2 -0.04 -0.3 -0.04 z M3.34 7.4 c0 0.04 -0.02 0.06 -0.02 0.1 l0 0.34 l0 9.68 l0 0.26 l0 0.12 c0.02 0.04 0.06 0.08 0.1 0.08 l0.22 0 c0.32 0.02 0.62 0 0.92 0.02 c0.24 0 0.46 -0.04 0.68 -0.08 c0.14 -0.02 0.28 -0.08 0.42 -0.12 c0.08 -0.04 0.12 -0.08 0.12 -0.16 c0.02 -0.16 0.06 -0.3 0.12 -0.42 c0.06 -0.14 0.08 -0.28 0.12 -0.42 c0.02 -0.06 0.04 -0.1 0.06 -0.14 c0.06 -0.1 0.08 -0.2 0.1 -0.3 c0.04 -0.24 0.06 -0.46 0.1 -0.7 c0.1 -0.6 0.1 -1.2 0.1 -1.8 c0 -0.2 -0.02 -0.4 -0.08 -0.58 c-0.04 -0.08 -0.04 -0.16 -0.06 -0.24 c-0.02 -0.2 -0.02 -0.4 -0.06 -0.58 c-0.02 -0.08 -0.02 -0.18 -0.02 -0.26 c0.02 -0.3 0 -0.58 -0.04 -0.88 c-0.02 -0.12 -0.02 -0.26 -0.04 -0.4 c0 -0.06 0 -0.14 -0.02 -0.2 c-0.04 -0.34 -0.1 -0.68 -0.16 -1.02 c-0.04 -0.32 -0.16 -0.6 -0.26 -0.9 c-0.02 -0.1 -0.08 -0.18 -0.14 -0.26 c-0.14 -0.14 -0.28 -0.3 -0.4 -0.46 c-0.12 -0.14 -0.24 -0.24 -0.4 -0.32 c-0.2 -0.14 -0.4 -0.2 -0.64 -0.26 c-0.1 -0.02 -0.2 -0.04 -0.32 -0.06 s-0.26 -0.06 -0.4 -0.04 z M11.396999999999998 19.86 l-0.18 -0.06 s-0.12 -0.02 -0.16 0 s-0.1 0.02 -0.14 0.02 c-0.3 -0.04 -0.66 -0.12 -0.9 -0.4 c-0.02 0 -0.04 -0.02 -0.06 -0.04 c-0.32 -0.2 -0.52 -0.5 -0.8 -0.76 c-0.1 -0.08 -0.16 -0.18 -0.22 -0.28 c-0.04 -0.08 -0.08 -0.18 -0.1 -0.26 c-0.06 -0.14 -0.1 -0.28 -0.1 -0.42 c0.02 -0.1 -0.02 -0.2 -0.04 -0.3 c-0.04 -0.14 -0.06 -0.28 -0.1 -0.42 c-0.1 -0.34 -0.14 -0.68 -0.22 -1.02 c-0.04 -0.18 -0.04 -0.36 -0.04 -0.54 c0 -0.62 -0.02 -1.24 -0.02 -1.86 s0.02 -1.24 0.02 -1.88 l0 -0.9 c0.02 -0.14 0 -0.28 -0.08 -0.4 c-0.02 -0.04 -0.02 -0.1 -0.02 -0.16 c0.02 -0.04 0.02 -0.06 0.02 -0.1 c0.04 -0.22 0.04 -0.44 -0.02 -0.66 c-0.02 -0.1 -0.02 -0.2 0 -0.3 c0.04 -0.18 0.06 -0.34 0 -0.5 l0 -0.14 c0.02 -0.06 0.02 -0.1 0.04 -0.16 c0.06 -0.14 0.08 -0.3 0.08 -0.46 c0 -0.12 0.02 -0.24 0.08 -0.36 c0.1 -0.24 0.26 -0.44 0.36 -0.68 c0.02 -0.04 0.04 -0.08 0.08 -0.1 c0.2 -0.22 0.4 -0.44 0.64 -0.6 c0.16 -0.1 0.3 -0.22 0.46 -0.34 c0.08 -0.08 0.18 -0.12 0.3 -0.14 c0.16 -0.04 0.3 -0.06 0.46 -0.1 c0.08 -0.04 0.16 -0.04 0.22 -0.04 c0.08 -0.02 0.16 -0.02 0.24 -0.04 c0.06 -0.02 0.14 -0.02 0.2 0.02 c0.02 0.02 0.06 0.02 0.08 0.04 c0.1 0.06 0.22 0.08 0.34 0.08 l0.2 0 s0.14 0.02 0.2 0.08 c0.02 0.02 0.04 0.04 0.06 0.04 c0.06 0.08 0.14 0.12 0.22 0.14 c0.22 0.08 0.36 0.22 0.5 0.4 c0.08 0.12 0.18 0.26 0.3 0.36 c0.04 0.04 0.08 0.1 0.1 0.16 c0.06 0.14 0.12 0.26 0.16 0.42 c0.02 0.1 0.08 0.2 0.12 0.3 c0.06 0.12 0.1 0.26 0.12 0.38 c0 0.18 0.04 0.36 0.08 0.54 c0.04 0.16 0.06 0.34 0.06 0.5 c-0.02 0.16 0 0.32 0.06 0.46 c0.02 0.06 0.02 0.12 0.02 0.16 c0.02 0.1 0.02 0.2 -0.04 0.26 c-0.04 0.06 -0.04 0.14 -0.04 0.2 l0 0.36 l0 6.62 c0.02 0.3 -0.06 0.6 -0.18 0.88 l-0.42 0.96 c-0.04 0.06 -0.08 0.1 -0.12 0.16 c-0.18 0.26 -0.46 0.42 -0.7 0.6 c-0.1 0.08 -0.2 0.12 -0.32 0.14 c-0.06 0 -0.14 0.02 -0.2 0.02 c-0.2 0 -0.4 0.06 -0.6 0.12 z M9.896999999999998 13.26 l0 2.24 l0 0.34 c0 0.06 0 0.12 0.02 0.16 c0.08 0.14 0.1 0.28 0.12 0.42 c0.02 0.06 0.04 0.14 0.06 0.2 c0.08 0.2 0.16 0.38 0.24 0.58 c0.04 0.08 0.08 0.18 0.12 0.24 c0.14 0.16 0.28 0.32 0.4 0.46 c0.16 0.18 0.38 0.24 0.62 0.22 c0.18 -0.02 0.32 -0.08 0.4 -0.26 c0.02 -0.04 0.02 -0.08 0.04 -0.12 c0 -0.18 0.06 -0.36 0.12 -0.54 c0.04 -0.14 0.08 -0.28 0.08 -0.42 c0 -0.1 0.04 -0.2 0.06 -0.3 c0.12 -0.28 0.16 -0.58 0.18 -0.88 c0 -0.22 0 -0.42 0.02 -0.64 c0 -0.08 0 -0.16 -0.04 -0.24 c-0.02 -0.04 -0.02 -0.1 0 -0.16 c0.06 -0.26 0.04 -0.52 0.02 -0.78 c-0.04 -0.38 -0.02 -0.78 -0.02 -1.16 c0 -0.74 0.02 -1.46 0.02 -2.2 c0.02 -0.12 0.02 -0.22 -0.02 -0.34 c-0.02 -0.04 -0.02 -0.1 -0.02 -0.16 c-0.02 -0.28 -0.06 -0.56 -0.12 -0.84 s-0.12 -0.56 -0.12 -0.86 c0 -0.14 -0.06 -0.28 -0.12 -0.42 c-0.04 -0.08 -0.1 -0.14 -0.14 -0.22 c-0.04 -0.1 -0.12 -0.16 -0.22 -0.2 c-0.04 -0.04 -0.1 -0.06 -0.14 -0.08 c-0.3 -0.1 -0.56 -0.08 -0.8 0.12 c-0.14 0.12 -0.26 0.24 -0.38 0.38 c-0.08 0.06 -0.12 0.16 -0.14 0.26 c-0.04 0.2 -0.08 0.42 -0.12 0.62 l0 0.1 c0 0.1 -0.02 0.2 0 0.3 c0 0.12 -0.08 0.22 -0.1 0.34 l0 0.02 c-0.02 0.26 -0.06 0.52 -0.08 0.78 c-0.02 0.18 -0.02 0.38 0.02 0.56 c0.02 0.06 0.02 0.12 0.02 0.18 c0 0.78 -0.02 1.58 0.02 2.3 z M19.811 7.279999999999999 c-0.54 -0.1 -1.1 -0.1 -1.66 -0.08 c-0.22 0.02 -0.28 -0.02 -0.38 -0.22 c-0.1 -0.22 -0.12 -0.46 -0.12 -0.72 c0 -0.28 0.04 -0.34 0.36 -0.46 c0.18 -0.08 0.36 -0.08 0.56 -0.1 c0.42 -0.02 0.84 0 1.26 0.02 l0.62 0 c0.28 -0.02 0.58 -0.02 0.86 -0.02 c0.04 0 0.1 0 0.14 0.02 c0.14 0.06 0.26 0.06 0.4 0.06 l1.08 0 c0.08 0 0.18 -0.02 0.26 0.02 c0 0.02 0.02 0.04 0.04 0.06 c0.02 0.22 0.06 0.42 0.08 0.64 c0 0.1 -0.02 0.2 0 0.28 c0 0.14 -0.04 0.28 -0.08 0.4 c-0.02 0.08 -0.08 0.14 -0.16 0.14 c-0.2 0.02 -0.42 0.02 -0.62 0.02 l-0.82 0 c-0.12 0 -0.18 0.06 -0.18 0.18 l0 0.3 c0 0.2 0.02 0.42 0.02 0.62 l0 3.32 c0 0.78 0.02 1.58 0 2.36 l0 3.38 c0 0.12 0 0.22 0.02 0.34 c0 0.02 0.02 0.04 0.04 0.04 c0.06 0.02 0.12 0.04 0.18 0.04 c0.28 0 0.56 0.08 0.84 0.02 l0.78 0.06 c0.04 0.02 0.08 0.02 0.12 0.02 l0.18 0.12 c0.04 0.04 0.06 0.1 0.08 0.16 c0.08 0.22 0.06 0.44 0.02 0.66 c0 0.02 -0.02 0.04 -0.02 0.06 c-0.1 0.38 -0.14 0.38 -0.48 0.34 c-0.02 0 -0.06 -0.02 -0.08 -0.02 c-0.32 0 -0.64 -0.02 -0.96 -0.04 c-0.22 0 -0.42 0.02 -0.62 0.04 c-0.12 0.02 -0.24 0.02 -0.32 0.12 c-0.2 0.06 -0.4 0.12 -0.6 0.14 c-0.18 0.02 -0.34 -0.06 -0.5 -0.14 c-0.04 -0.02 -0.08 -0.06 -0.12 -0.08 c-0.06 -0.02 -0.12 -0.04 -0.18 -0.04 c-0.1 0 -0.2 0.02 -0.3 0 c-0.1 0 -0.22 0 -0.32 0.04 c-0.08 0.04 -0.16 0.06 -0.26 0.06 c-0.12 0 -0.26 0.02 -0.4 0.06 c-0.24 0.06 -0.48 0.02 -0.72 -0.06 c-0.08 -0.06 -0.16 -0.14 -0.22 -0.2 c-0.02 -0.02 -0.02 -0.04 -0.02 -0.06 c0 -0.1 0.02 -0.18 0.02 -0.26 c0.02 -0.12 0.04 -0.24 0.02 -0.38 c-0.02 -0.1 0 -0.22 0.04 -0.32 c0.02 -0.12 0.12 -0.22 0.26 -0.24 c0.24 -0.02 0.5 -0.04 0.74 -0.06 l0.36 -0.06 s0.24 -0.04 0.36 0 c0.1 0.02 0.2 0 0.3 -0.02 c0.16 -0.02 0.18 -0.04 0.18 -0.22 l0 -0.88 c-0.02 -0.46 -0.02 -0.9 -0.02 -1.34 l0 -3.34 c0.02 -0.98 0.02 -1.96 0.04 -2.94 c0 -0.48 0 -0.96 0.04 -1.44 l0 -0.12 c0.02 -0.12 -0.04 -0.2 -0.14 -0.28 z M27.608 13.2 c0.02 -1.48 0.02 -2.96 0.02 -4.44 c0 -0.26 0.02 -0.54 0.04 -0.8 c0 -0.14 -0.02 -0.28 -0.02 -0.4 c0 -0.02 -0.02 -0.04 -0.04 -0.04 c-0.08 -0.02 -0.16 -0.02 -0.22 -0.02 l-2.22 0 l-0.36 0 c-0.06 0 -0.12 -0.02 -0.16 -0.04 c-0.04 0 -0.08 -0.04 -0.1 -0.08 c0 -0.08 -0.02 -0.14 -0.04 -0.22 c-0.12 -0.34 -0.12 -0.68 -0.08 -1.04 c0.02 -0.08 0.06 -0.16 0.08 -0.24 c0.02 -0.04 0.06 -0.08 0.1 -0.08 c0.04 -0.02 0.08 -0.02 0.12 -0.02 l0.26 0 l6.3 0 l0.5 0 c0.06 0 0.1 0 0.16 0.02 c0.06 0 0.1 0.02 0.12 0.08 c0.1 0.48 0.14 0.96 0.02 1.42 c-0.04 0.1 -0.1 0.16 -0.18 0.18 c-0.12 0 -0.22 0.02 -0.32 0.02 l-1.94 0 l-0.3 0 c-0.04 0.02 -0.08 0.06 -0.08 0.1 l0 0.12 c0.04 0.2 0.02 0.4 0.02 0.58 l0 9.54 c0 0.2 -0.02 0.4 -0.02 0.6 l0 0.54 l0 0.34 c-0.02 0.06 -0.06 0.12 -0.12 0.14 c-0.3 0.04 -0.6 0.08 -0.92 0.08 c-0.14 -0.02 -0.28 -0.04 -0.4 -0.08 c-0.08 -0.02 -0.12 -0.08 -0.12 -0.16 c-0.02 -0.22 -0.04 -0.44 -0.04 -0.68 c-0.04 -0.74 -0.04 -1.48 -0.04 -2.22 l0 -1.34 l0 -1 l0 -0.86 l-0.02 0 z M40.442 5 l0.3 -0.12 c0.24 -0.1 0.5 -0.08 0.74 0 c0.06 0.02 0.12 0.06 0.12 0.12 c0.02 0.14 0.04 0.28 0.06 0.4 c0.04 0.3 0 0.6 0.06 0.88 c0.02 0.08 0 0.18 0 0.26 c0 0.6 0 1.2 0.06 1.8 c0.04 0.64 0.04 1.28 0.04 1.92 c0 0.14 0.02 0.28 0.04 0.4 l0 0.34 l0 0.84 c0 0.04 0.02 0.08 0.02 0.12 s0.06 0.08 0.1 0.06 c0.06 0 0.12 -0.02 0.18 -0.04 c0.14 -0.06 0.28 -0.1 0.42 -0.16 c0.06 -0.02 0.14 -0.04 0.2 -0.04 c0.18 0 0.32 -0.04 0.48 -0.08 c0.22 -0.06 0.44 -0.06 0.66 -0.06 c0.04 0 0.1 0.02 0.14 0.04 s0.1 0.06 0.1 0.1 c0.1 0.34 0.18 0.7 0.16 1.06 c0 0.08 0 0.16 -0.02 0.24 s-0.06 0.12 -0.12 0.14 c-0.1 0.02 -0.18 0.06 -0.28 0.06 c-0.32 0 -0.62 0.08 -0.9 0.16 c-0.34 0.08 -0.66 0.2 -1 0.3 c-0.08 0.02 -0.1 0.08 -0.1 0.16 c0 0.4 -0.04 0.8 0 1.18 c0.02 0.1 0.02 0.2 0.02 0.3 l0 3.32 c0 0.52 -0.04 1.06 -0.06 1.58 c0 0.08 -0.06 0.14 -0.14 0.14 c-0.12 0 -0.24 0.02 -0.36 0.04 c-0.32 0.04 -0.66 0.06 -0.98 -0.02 c-0.12 -0.04 -0.18 -0.1 -0.18 -0.2 c-0.04 -0.18 -0.06 -0.38 -0.06 -0.56 c-0.04 -1.6 -0.02 -3.2 -0.02 -4.8 c0 -0.12 0.02 -0.24 -0.04 -0.36 c-0.04 0 -0.1 0 -0.14 0.02 c-0.34 0.12 -0.66 0.24 -1 0.36 c-0.1 0.04 -0.14 0.1 -0.14 0.2 l0 0.32 l0 3.1 c0 0.14 0 0.28 -0.02 0.4 c0 0.1 -0.04 0.14 -0.14 0.16 c-0.28 0.04 -0.58 0.08 -0.88 0.08 c-0.12 0 -0.24 -0.02 -0.36 -0.06 c-0.02 0 -0.04 0 -0.06 -0.02 c-0.1 -0.04 -0.16 -0.1 -0.16 -0.22 c-0.02 -0.2 -0.02 -0.42 -0.02 -0.62 c-0.02 -0.82 -0.02 -1.62 -0.02 -2.44 l0 -0.32 c0 -0.18 -0.02 -0.2 -0.2 -0.2 c-0.08 -0.02 -0.18 -0.02 -0.28 -0.04 c-0.06 0 -0.1 -0.04 -0.12 -0.08 c-0.06 -0.2 -0.12 -0.4 -0.1 -0.62 c0 -0.16 0 -0.34 0.04 -0.5 c0.04 -0.1 0.08 -0.18 0.2 -0.2 c0.14 -0.06 0.3 -0.1 0.46 -0.14 c0.02 -0.06 0.02 -0.12 0.02 -0.18 c0.02 -0.52 0.02 -1.02 0.04 -1.54 c0 -0.3 0 -0.6 0.02 -0.88 c0.04 -0.3 0.02 -0.6 0.04 -0.88 c0.02 -0.52 0.02 -1.02 0.04 -1.52 c0.02 -0.36 0.02 -0.72 0.04 -1.06 l0.06 -0.78 c0 -0.08 0.02 -0.16 0.04 -0.26 l0.12 -0.54 c0.02 -0.14 0.18 -0.28 0.32 -0.3 l0.16 0 c0.28 0 0.32 0.08 0.34 0.28 c0.02 0.06 0.02 0.1 0.04 0.14 c0.12 0.44 0.16 0.88 0.18 1.32 c0.02 0.56 0.06 1.12 0.06 1.68 c0 0.06 -0.02 0.1 0 0.16 c0.06 0.54 0.06 1.08 0.06 1.62 c0 0.28 0.02 0.56 0.02 0.84 l0 0.14 c0.06 0.34 0.04 0.68 0.04 1 c0 0.08 0.02 0.14 0.02 0.22 c0 0.02 0.04 0.04 0.06 0.04 l0.06 0 l1.08 -0.42 c0.08 -0.04 0.14 -0.08 0.14 -0.18 c0.02 -0.44 0.02 -0.86 0.04 -1.3 c0 -0.62 0 -1.24 0.02 -1.88 c0 -0.32 0.04 -0.66 0.06 -0.98 c0 -0.16 0 -0.3 0.02 -0.44 c0 -0.6 0.02 -1.18 0.04 -1.78 c0.02 -0.32 0.06 -0.66 0.08 -0.98 c0 -0.08 0.02 -0.16 0.04 -0.24 z M47.379 19.86 l-0.18 -0.06 s-0.12 -0.02 -0.16 0 s-0.1 0.02 -0.14 0.02 c-0.3 -0.04 -0.66 -0.12 -0.9 -0.4 c-0.02 0 -0.04 -0.02 -0.06 -0.04 c-0.32 -0.2 -0.52 -0.5 -0.8 -0.76 c-0.1 -0.08 -0.16 -0.18 -0.22 -0.28 c-0.04 -0.08 -0.08 -0.18 -0.1 -0.26 c-0.06 -0.14 -0.1 -0.28 -0.1 -0.42 c0.02 -0.1 -0.02 -0.2 -0.04 -0.3 c-0.04 -0.14 -0.06 -0.28 -0.1 -0.42 c-0.1 -0.34 -0.14 -0.68 -0.22 -1.02 c-0.04 -0.18 -0.04 -0.36 -0.04 -0.54 c0 -0.62 -0.02 -1.24 -0.02 -1.86 s0.02 -1.24 0.02 -1.88 l0 -0.9 c0.02 -0.14 0 -0.28 -0.08 -0.4 c-0.02 -0.04 -0.02 -0.1 -0.02 -0.16 c0.02 -0.04 0.02 -0.06 0.02 -0.1 c0.04 -0.22 0.04 -0.44 -0.02 -0.66 c-0.02 -0.1 -0.02 -0.2 0 -0.3 c0.04 -0.18 0.06 -0.34 0 -0.5 l0 -0.14 c0.02 -0.06 0.02 -0.1 0.04 -0.16 c0.06 -0.14 0.08 -0.3 0.08 -0.46 c0 -0.12 0.02 -0.24 0.08 -0.36 c0.1 -0.24 0.26 -0.44 0.36 -0.68 c0.02 -0.04 0.04 -0.08 0.08 -0.1 c0.2 -0.22 0.4 -0.44 0.64 -0.6 c0.16 -0.1 0.3 -0.22 0.46 -0.34 c0.08 -0.08 0.18 -0.12 0.3 -0.14 c0.16 -0.04 0.3 -0.06 0.46 -0.1 c0.08 -0.04 0.16 -0.04 0.22 -0.04 c0.08 -0.02 0.16 -0.02 0.24 -0.04 c0.06 -0.02 0.14 -0.02 0.2 0.02 c0.02 0.02 0.06 0.02 0.08 0.04 c0.1 0.06 0.22 0.08 0.34 0.08 l0.2 0 s0.14 0.02 0.2 0.08 c0.02 0.02 0.04 0.04 0.06 0.04 c0.06 0.08 0.14 0.12 0.22 0.14 c0.22 0.08 0.36 0.22 0.5 0.4 c0.08 0.12 0.18 0.26 0.3 0.36 c0.04 0.04 0.08 0.1 0.1 0.16 c0.06 0.14 0.12 0.26 0.16 0.42 c0.02 0.1 0.08 0.2 0.12 0.3 c0.06 0.12 0.1 0.26 0.12 0.38 c0 0.18 0.04 0.36 0.08 0.54 c0.04 0.16 0.06 0.34 0.06 0.5 c-0.02 0.16 0 0.32 0.06 0.46 c0.02 0.06 0.02 0.12 0.02 0.16 c0.02 0.1 0.02 0.2 -0.04 0.26 c-0.04 0.06 -0.04 0.14 -0.04 0.2 l0 0.36 l0 6.62 c0.02 0.3 -0.06 0.6 -0.18 0.88 l-0.42 0.96 c-0.04 0.06 -0.08 0.1 -0.12 0.16 c-0.18 0.26 -0.46 0.42 -0.7 0.6 c-0.1 0.08 -0.2 0.12 -0.32 0.14 c-0.06 0 -0.14 0.02 -0.2 0.02 c-0.2 0 -0.4 0.06 -0.6 0.12 z M45.879 13.26 l0 2.24 l0 0.34 c0 0.06 0 0.12 0.02 0.16 c0.08 0.14 0.1 0.28 0.12 0.42 c0.02 0.06 0.04 0.14 0.06 0.2 c0.08 0.2 0.16 0.38 0.24 0.58 c0.04 0.08 0.08 0.18 0.12 0.24 c0.14 0.16 0.28 0.32 0.4 0.46 c0.16 0.18 0.38 0.24 0.62 0.22 c0.18 -0.02 0.32 -0.08 0.4 -0.26 c0.02 -0.04 0.02 -0.08 0.04 -0.12 c0 -0.18 0.06 -0.36 0.12 -0.54 c0.04 -0.14 0.08 -0.28 0.08 -0.42 c0 -0.1 0.04 -0.2 0.06 -0.3 c0.12 -0.28 0.16 -0.58 0.18 -0.88 c0 -0.22 0 -0.42 0.02 -0.64 c0 -0.08 0 -0.16 -0.04 -0.24 c-0.02 -0.04 -0.02 -0.1 0 -0.16 c0.06 -0.26 0.04 -0.52 0.02 -0.78 c-0.04 -0.38 -0.02 -0.78 -0.02 -1.16 c0 -0.74 0.02 -1.46 0.02 -2.2 c0.02 -0.12 0.02 -0.22 -0.02 -0.34 c-0.02 -0.04 -0.02 -0.1 -0.02 -0.16 c-0.02 -0.28 -0.06 -0.56 -0.12 -0.84 s-0.12 -0.56 -0.12 -0.86 c0 -0.14 -0.06 -0.28 -0.12 -0.42 c-0.04 -0.08 -0.1 -0.14 -0.14 -0.22 c-0.04 -0.1 -0.12 -0.16 -0.22 -0.2 c-0.04 -0.04 -0.1 -0.06 -0.14 -0.08 c-0.3 -0.1 -0.56 -0.08 -0.8 0.12 c-0.14 0.12 -0.26 0.24 -0.38 0.38 c-0.08 0.06 -0.12 0.16 -0.14 0.26 c-0.04 0.2 -0.08 0.42 -0.12 0.62 l0 0.1 c0 0.1 -0.02 0.2 0 0.3 c0 0.12 -0.08 0.22 -0.1 0.34 l0 0.02 c-0.02 0.26 -0.06 0.52 -0.08 0.78 c-0.02 0.18 -0.02 0.38 0.02 0.56 c0.02 0.06 0.02 0.12 0.02 0.18 c0 0.78 -0.02 1.58 0.02 2.3 z M50.995999999999995 5.74 c0.3 -0.14 0.6 -0.2 0.92 -0.2 c0.08 0 0.18 0 0.28 0.02 c0.08 0.02 0.12 0.06 0.14 0.14 c0.04 0.08 0.06 0.14 0.08 0.22 c0.04 0.18 0.06 0.36 0.1 0.54 c0.02 0.06 0.04 0.12 0.06 0.2 c0.04 0.06 0.08 0.12 0.1 0.18 c0.08 0.34 0.18 0.66 0.26 1 c0.06 0.2 0.12 0.4 0.22 0.6 c0.14 0.28 0.28 0.56 0.42 0.86 c0.12 0.26 0.26 0.52 0.38 0.8 c0.16 0.32 0.3 0.66 0.46 1 c0.06 0.14 0.16 0.28 0.24 0.44 c0.26 0.46 0.46 0.94 0.6 1.46 c0.02 0.1 0.06 0.2 0.1 0.3 c0.22 0.52 0.44 1.02 0.66 1.52 c0.08 0.16 0.16 0.3 0.26 0.44 c0.12 0.16 0.24 0.34 0.34 0.52 c0.06 0.12 0.14 0.2 0.2 0.3 c0.02 0.02 0.04 0.02 0.06 0.04 c0.02 0 0.06 -0.04 0.06 -0.08 l0 -0.36 l0 -9.86 l0 -0.36 c0 -0.04 0.02 -0.08 0.04 -0.12 c0.38 -0.1 0.76 -0.1 1.14 -0.1 c0.04 0 0.08 0.02 0.14 0.02 c0.18 0.06 0.24 0.06 0.26 0.3 c0.04 0.44 0.02 0.88 0.02 1.32 l0 1.42 c0.02 0.14 0 0.28 0 0.42 c0 0.28 0.02 0.56 0 0.86 c0 0.28 0.02 0.58 0 0.88 l0 0.84 l0 0.9 l0 1.1 c0 0.4 -0.02 0.82 -0.02 1.22 c0 0.18 0 0.34 -0.02 0.5 c0 0.72 0 1.42 -0.02 2.14 c0 0.26 -0.02 0.52 -0.04 0.78 l0 0.14 c-0.02 0.26 0.06 0.48 0.3 0.62 c0.12 0.06 0.16 0.14 0.16 0.26 c0.02 0.06 0.02 0.14 0.02 0.2 c0 0.08 -0.04 0.12 -0.08 0.16 c-0.14 0.1 -0.24 0.26 -0.34 0.4 c-0.04 0.08 -0.08 0.14 -0.14 0.2 c-0.12 0.1 -0.24 0.16 -0.38 0.14 c-0.06 -0.02 -0.1 0 -0.14 0 c-0.14 0 -0.24 -0.06 -0.32 -0.16 c-0.1 -0.12 -0.22 -0.24 -0.32 -0.36 c-0.08 -0.08 -0.14 -0.18 -0.18 -0.26 c-0.14 -0.3 -0.32 -0.6 -0.5 -0.86 c-0.1 -0.14 -0.2 -0.28 -0.3 -0.4 c-0.14 -0.12 -0.26 -0.28 -0.36 -0.44 c-0.08 -0.1 -0.16 -0.2 -0.22 -0.32 c-0.06 -0.08 -0.12 -0.16 -0.18 -0.26 c-0.1 -0.22 -0.22 -0.42 -0.36 -0.6 s-0.26 -0.38 -0.36 -0.58 c-0.16 -0.28 -0.3 -0.56 -0.42 -0.86 c-0.06 -0.22 -0.16 -0.42 -0.26 -0.62 c-0.18 -0.38 -0.34 -0.78 -0.46 -1.18 c-0.06 -0.22 -0.16 -0.42 -0.26 -0.62 c-0.24 -0.44 -0.46 -0.86 -0.64 -1.32 c-0.02 -0.06 -0.06 -0.12 -0.1 -0.18 l-0.02 0 l-0.04 0 l0 0.28 l0 3.74 c-0.02 1 -0.02 2.02 -0.04 3.04 c0 0.38 -0.02 0.76 -0.08 1.14 c-0.02 0.08 -0.02 0.16 -0.02 0.24 c-0.02 0.1 -0.08 0.18 -0.18 0.22 c-0.26 0.1 -0.52 0.12 -0.8 0.08 c-0.08 0 -0.18 -0.04 -0.26 -0.06 c-0.06 -0.02 -0.08 -0.06 -0.08 -0.12 c-0.02 -0.06 -0.02 -0.12 -0.04 -0.18 c0 -0.08 0 -0.16 -0.02 -0.24 c-0.04 -0.32 -0.06 -0.64 -0.08 -0.96 l0 -0.48 c-0.02 -0.2 -0.02 -0.4 -0.02 -0.62 l0 -10.14 c0 -0.22 0.02 -0.44 -0.04 -0.66 c-0.02 -0.04 0 -0.1 0.02 -0.14 c0.06 -0.14 0.08 -0.28 0.1 -0.44 z M66.753 5.960000000000001 c0 0.02 0.02 0.02 0.02 0.04 c0.08 0.34 0.1 0.7 0.1 1.08 l-0.02 0.02 c-0.06 0.32 -0.04 0.38 -0.4 0.4 c-0.12 0.02 -0.26 0.02 -0.4 0.02 l-3.14 0 c-0.12 0 -0.24 0 -0.36 0.02 c-0.1 0 -0.14 0.04 -0.14 0.12 l0 0.36 s0.02 0.24 0.02 0.36 l0 0.66 c0 0.28 0 0.54 0.04 0.82 l0 0.3 l0 2.56 c0 0.12 -0.02 0.24 0.02 0.38 c0.06 -0.02 0.1 0 0.14 -0.02 c0.46 -0.16 0.92 -0.24 1.38 -0.26 c0.32 -0.04 0.66 -0.06 0.98 -0.12 c0.16 -0.04 0.32 -0.06 0.5 -0.06 c0.18 -0.02 0.32 -0.04 0.48 -0.14 c0.04 -0.02 0.12 -0.02 0.16 0.04 c0.08 0.1 0.18 0.18 0.3 0.26 c0.18 0.12 0.28 0.44 0.14 0.72 c-0.16 0.3 -0.24 0.42 -0.66 0.5 c-0.14 0.02 -0.26 0.04 -0.4 0.06 c-0.42 0.06 -0.84 0.12 -1.26 0.16 c-0.06 0.02 -0.14 0.02 -0.2 0.02 c-0.52 0.04 -1 0.18 -1.46 0.4 c-0.08 0.04 -0.12 0.1 -0.12 0.2 l0 0.54 l0 2 c0 0.1 0 0.2 0.02 0.32 c0 0.04 0.02 0.06 0.06 0.08 l0.32 0 l3.16 0 l0.24 0 c0.36 0.02 0.32 -0.02 0.38 0.32 c0.04 0.28 0.04 0.54 0.04 0.8 l0 0.08 c-0.1 0.3 -0.06 0.36 -0.42 0.36 c-0.54 0.02 -1.08 0.02 -1.64 0 l-1.16 0 c-0.48 0 -0.98 0 -1.48 -0.02 c-0.28 -0.02 -0.54 -0.06 -0.82 -0.1 c-0.06 0 -0.1 -0.06 -0.12 -0.12 c-0.16 -0.44 -0.16 -0.44 -0.16 -0.92 c-0.02 -0.54 -0.02 -1.1 -0.02 -1.66 l0 -4.02 c0.02 -1.2 0.04 -2.42 0.04 -3.62 c0 -0.4 0.04 -0.8 0.04 -1.2 c0 -0.08 0.02 -0.18 -0.06 -0.26 c-0.04 -0.16 -0.1 -0.3 -0.14 -0.44 c-0.04 -0.32 -0.06 -0.64 0.04 -0.94 c0.04 -0.08 0.08 -0.12 0.16 -0.12 l0.26 0 l5.22 0 c0.1 0 0.22 -0.02 0.32 0.02 z M69.71 10.6 c0.2 0.28 0.42 0.54 0.66 0.8 c0.18 0.22 0.4 0.36 0.64 0.48 c0.18 0.06 0.34 0.14 0.5 0.22 c0.28 0.18 0.52 0.36 0.74 0.58 c0.2 0.2 0.4 0.42 0.62 0.58 c0.06 0.06 0.1 0.12 0.18 0.18 l0.16 0 c0.06 0.02 0.1 0.04 0.14 0.08 c0.14 0.14 0.24 0.3 0.28 0.5 c0.02 0.16 0.06 0.32 0.12 0.48 c0.06 0.2 0.08 0.42 0.1 0.64 l0 0.58 c0 0.1 0 0.22 0.06 0.32 c0.02 0.04 0.02 0.1 0.02 0.16 c0.02 0.12 0.02 0.24 0.04 0.34 c0.04 0.28 0.04 0.54 -0.02 0.82 c-0.02 0.04 -0.02 0.1 -0.02 0.16 c-0.02 0.04 -0.02 0.1 -0.04 0.16 c-0.08 0.2 -0.12 0.42 -0.2 0.64 c0 0.02 -0.02 0.06 -0.04 0.08 c-0.1 0.14 -0.18 0.3 -0.28 0.44 c-0.04 0.06 -0.08 0.12 -0.14 0.18 c-0.16 0.04 -0.32 0.1 -0.48 0.2 c-0.04 0.04 -0.1 0.06 -0.18 0.06 c-0.06 0 -0.14 0.02 -0.22 0.02 c-0.12 0.02 -0.2 0.06 -0.28 0.16 s-0.18 0.14 -0.3 0.16 l-0.1 0 c-0.12 0.02 -0.26 0.06 -0.38 0.06 c-0.14 0 -0.26 -0.04 -0.38 -0.06 l-0.2 0 c-0.12 0 -0.24 -0.02 -0.34 -0.08 c-0.18 -0.08 -0.38 -0.14 -0.56 -0.18 c-0.14 -0.04 -0.26 -0.1 -0.38 -0.18 s-0.24 -0.16 -0.36 -0.22 c-0.3 -0.16 -0.5 -0.44 -0.68 -0.74 c-0.02 -0.1 -0.06 -0.2 -0.06 -0.3 c-0.02 -0.2 -0.08 -0.38 -0.1 -0.58 c-0.06 -0.3 -0.12 -0.6 -0.1 -0.9 c0.02 -0.1 0.02 -0.2 0.04 -0.3 c0.02 -0.14 0.04 -0.28 0.04 -0.42 c0 -0.08 0 -0.16 0.02 -0.24 c0.06 -0.14 0.04 -0.26 0.02 -0.38 c-0.04 -0.12 -0.06 -0.22 -0.1 -0.34 c0.04 -0.1 0.08 -0.2 0.12 -0.32 c0.02 -0.06 0.08 -0.1 0.14 -0.1 l0.24 0 c0.22 -0.02 0.46 -0.02 0.68 -0.02 c0.1 0 0.16 0.04 0.22 0.1 c0.04 0.04 0.06 0.08 0.06 0.12 c-0.02 0.12 0 0.22 0.1 0.3 c0.04 0.04 0.06 0.1 0.04 0.18 c-0.02 0.04 -0.04 0.1 -0.06 0.16 c-0.04 0.1 -0.06 0.22 -0.04 0.34 c0.04 0.12 0.02 0.26 0.04 0.38 c0 0.14 -0.02 0.26 0.04 0.4 c0.02 0.06 0.02 0.12 0 0.18 c-0.06 0.18 -0.04 0.34 -0.02 0.52 c0 0.08 0.04 0.16 0.12 0.22 c0.18 0.16 0.36 0.3 0.6 0.38 c0.06 0.02 0.14 0.06 0.2 0.08 c0.1 0.04 0.2 0.06 0.32 0.06 c0.08 0 0.18 0 0.26 0.04 c0.28 0.06 0.54 0.02 0.8 -0.08 c0.1 -0.02 0.2 -0.08 0.3 -0.12 c0.08 -0.22 0.16 -0.42 0.14 -0.66 l0 -1.42 l0 -0.2 c0 -0.14 -0.04 -0.26 -0.18 -0.32 c-0.04 -0.04 -0.08 -0.08 -0.1 -0.14 c-0.04 -0.18 -0.16 -0.32 -0.3 -0.44 c-0.26 -0.24 -0.5 -0.48 -0.76 -0.72 c-0.06 -0.04 -0.1 -0.1 -0.18 -0.12 c-0.08 0 -0.18 -0.04 -0.24 -0.08 c-0.14 -0.08 -0.28 -0.12 -0.44 -0.16 c-0.4 -0.1 -0.76 -0.28 -1.06 -0.56 c-0.26 -0.24 -0.42 -0.52 -0.58 -0.78 c-0.08 -0.12 -0.14 -0.26 -0.2 -0.38 c-0.1 -0.18 -0.12 -0.4 -0.18 -0.58 c-0.02 -0.04 0 -0.08 0 -0.1 c0.04 -0.14 0.06 -0.26 -0.02 -0.38 c-0.02 -0.24 -0.08 -0.46 -0.06 -0.7 c0.02 -0.22 0.04 -0.44 0.02 -0.66 l0 -0.08 c0.06 -0.16 0.06 -0.3 0.06 -0.46 l0 -0.94 c-0.02 -0.2 0.04 -0.38 0.16 -0.54 c0.04 -0.06 0.06 -0.1 0.1 -0.14 c0.14 -0.18 0.3 -0.38 0.46 -0.56 c0.02 -0.04 0.06 -0.06 0.12 -0.1 c0.18 -0.08 0.32 -0.2 0.48 -0.32 c0.12 -0.1 0.26 -0.18 0.42 -0.24 c0.14 -0.04 0.26 -0.12 0.4 -0.12 c0.06 0 0.12 -0.02 0.2 -0.02 c0.16 0 0.32 -0.02 0.48 -0.04 c0.1 -0.02 0.22 0 0.32 0.02 c0.18 0.02 0.34 0.04 0.52 0.04 c0.12 0.02 0.26 0.02 0.38 0.06 c0.1 0.02 0.2 0.08 0.3 0.14 c0.16 0.1 0.28 0.26 0.38 0.42 c0.08 0.12 0.14 0.24 0.24 0.34 c0.06 0.08 0.12 0.16 0.14 0.26 c0.02 0.06 0.04 0.12 0.08 0.18 c0.06 0.18 0.12 0.36 0.14 0.56 c0.02 0.08 0.04 0.16 0.04 0.22 c0.02 0.16 0.08 0.3 0.2 0.4 c0.06 0.04 0.06 0.08 0.06 0.14 c0 0.24 0 0.48 -0.02 0.72 c-0.04 0.18 -0.04 0.36 -0.04 0.54 c0 0.26 -0.02 0.5 -0.08 0.74 c-0.02 0.1 -0.02 0.18 0 0.26 c0.02 0.06 0.02 0.1 0.02 0.16 c0 0.04 0 0.06 -0.02 0.1 c-0.08 0.08 -0.16 0.14 -0.26 0.18 c-0.22 0.06 -0.44 0.1 -0.68 0.14 c-0.02 0.02 -0.06 0 -0.08 -0.02 c-0.06 -0.06 -0.14 -0.14 -0.2 -0.22 c0 -0.02 -0.02 -0.06 -0.02 -0.08 c-0.02 -0.14 -0.04 -0.26 -0.04 -0.4 c0.02 -0.18 0 -0.36 0 -0.54 c0 -0.14 0.02 -0.28 -0.02 -0.42 c-0.02 -0.02 -0.02 -0.04 -0.02 -0.06 c0.04 -0.36 -0.06 -0.72 -0.14 -1.06 c0 -0.02 0 -0.04 -0.02 -0.06 c-0.1 -0.18 -0.18 -0.4 -0.34 -0.56 c-0.1 -0.12 -0.22 -0.24 -0.34 -0.34 c-0.14 -0.12 -0.3 -0.18 -0.44 -0.26 l-0.1 0 c-0.22 0 -0.42 0.08 -0.62 0.18 c-0.04 0.02 -0.06 0.06 -0.1 0.08 l-0.28 0.28 s-0.2 0.2 -0.22 0.34 c0 0.06 -0.02 0.1 -0.02 0.14 c-0.02 0.04 -0.04 0.1 -0.02 0.16 c0.02 0.16 -0.08 0.34 -0.06 0.5 l0 1.44 c0 0.08 0.02 0.16 0.02 0.26 z M77.407 13.2 c0.02 -1.48 0.02 -2.96 0.02 -4.44 c0 -0.26 0.02 -0.54 0.04 -0.8 c0 -0.14 -0.02 -0.28 -0.02 -0.4 c0 -0.02 -0.02 -0.04 -0.04 -0.04 c-0.08 -0.02 -0.16 -0.02 -0.22 -0.02 l-2.22 0 l-0.36 0 c-0.06 0 -0.12 -0.02 -0.16 -0.04 c-0.04 0 -0.08 -0.04 -0.1 -0.08 c0 -0.08 -0.02 -0.14 -0.04 -0.22 c-0.12 -0.34 -0.12 -0.68 -0.08 -1.04 c0.02 -0.08 0.06 -0.16 0.08 -0.24 c0.02 -0.04 0.06 -0.08 0.1 -0.08 c0.04 -0.02 0.08 -0.02 0.12 -0.02 l0.26 0 l6.3 0 l0.5 0 c0.06 0 0.1 0 0.16 0.02 c0.06 0 0.1 0.02 0.12 0.08 c0.1 0.48 0.14 0.96 0.02 1.42 c-0.04 0.1 -0.1 0.16 -0.18 0.18 c-0.12 0 -0.22 0.02 -0.32 0.02 l-1.94 0 l-0.3 0 c-0.04 0.02 -0.08 0.06 -0.08 0.1 l0 0.12 c0.04 0.2 0.02 0.4 0.02 0.58 l0 9.54 c0 0.2 -0.02 0.4 -0.02 0.6 l0 0.54 l0 0.34 c-0.02 0.06 -0.06 0.12 -0.12 0.14 c-0.3 0.04 -0.6 0.08 -0.92 0.08 c-0.14 -0.02 -0.28 -0.04 -0.4 -0.08 c-0.08 -0.02 -0.12 -0.08 -0.12 -0.16 c-0.02 -0.22 -0.04 -0.44 -0.04 -0.68 c-0.04 -0.74 -0.04 -1.48 -0.04 -2.22 l0 -1.34 l0 -1 l0 -0.86 l-0.02 0 z M83.22399999999999 5.800000000000001 c0.08 -0.02 0.14 -0.04 0.2 -0.06 c0.26 -0.12 0.54 -0.1 0.82 -0.1 c0.04 0 0.06 0 0.08 0.02 c0.28 0.06 0.34 0.04 0.36 0.38 c0 0.36 0.02 0.74 0.02 1.1 l0 10.4 l0 0.36 c0 0.14 0.02 0.18 0.18 0.18 l0.22 0 c0.3 0.06 0.58 0 0.86 -0.06 c0.26 -0.06 0.52 -0.1 0.78 -0.1 l1.92 0 c0.04 0 0.08 0.02 0.14 0.02 c0.1 0.36 0.12 0.72 0.1 1.1 c0 0.08 -0.02 0.16 -0.04 0.24 c-0.02 0.1 -0.1 0.16 -0.2 0.18 c-0.12 0.02 -0.24 0.02 -0.36 0.02 c-0.3 0 -0.6 0 -0.92 -0.02 c-0.4 0 -0.82 0.04 -1.22 0.12 c-0.08 0.02 -0.14 0.02 -0.22 0.04 c-0.18 0.02 -0.34 0.04 -0.52 0.04 l-0.42 0 c-0.1 0 -0.18 -0.02 -0.26 -0.02 c-0.48 0 -0.94 -0.08 -1.42 -0.1 c-0.12 0 -0.24 -0.02 -0.36 -0.1 c-0.14 -0.26 -0.16 -0.56 -0.14 -0.86 c0.02 -0.06 0.02 -0.12 0.04 -0.18 c0.02 -0.08 0.06 -0.16 0.16 -0.2 c0.02 -0.02 0.04 -0.04 0.06 -0.04 c0.04 -0.12 0.04 -0.24 0.04 -0.36 l0 -2.76 c0 -2.16 -0.02 -4.34 0 -6.5 c0 -0.6 0 -1.22 0.02 -1.84 c0 -0.26 0.04 -0.52 0.06 -0.78 c0 -0.04 0 -0.06 0.02 -0.12 z M93.201 17.14 c0 -0.72 -0.02 -1.44 0 -2.14 c0 -0.2 -0.02 -0.4 -0.1 -0.58 c-0.02 -0.06 -0.04 -0.14 -0.04 -0.22 c-0.04 -0.34 -0.14 -0.64 -0.22 -0.96 c-0.02 -0.08 -0.06 -0.16 -0.08 -0.22 c-0.1 -0.18 -0.18 -0.36 -0.26 -0.52 c-0.22 -0.44 -0.38 -0.88 -0.52 -1.34 c-0.1 -0.38 -0.24 -0.74 -0.42 -1.08 c-0.2 -0.42 -0.36 -0.88 -0.48 -1.34 c-0.04 -0.2 -0.1 -0.38 -0.18 -0.56 c-0.1 -0.24 -0.18 -0.48 -0.26 -0.72 c-0.04 -0.08 -0.06 -0.16 -0.14 -0.2 s-0.12 -0.1 -0.12 -0.18 c-0.02 -0.06 -0.02 -0.12 -0.02 -0.18 c0 -0.18 -0.02 -0.34 -0.1 -0.5 c-0.02 -0.06 -0.02 -0.14 0.02 -0.2 c0.04 -0.08 0.06 -0.16 0.06 -0.26 c0 -0.06 0 -0.14 0.02 -0.2 c0 -0.1 0.04 -0.14 0.14 -0.16 c0.06 -0.02 0.12 -0.02 0.2 -0.06 c0.08 -0.02 0.16 -0.04 0.26 -0.04 l0.54 0 c0.02 0 0.02 -0.02 0.04 -0.02 c0.32 0.04 0.36 0.08 0.4 0.36 c0.02 0.12 0.02 0.24 0.02 0.38 c0 0.1 0.02 0.2 0.06 0.3 c0.1 0.26 0.18 0.56 0.32 0.82 c0.04 0.08 0.06 0.16 0.08 0.26 c0.06 0.14 0.1 0.3 0.16 0.44 c0.06 0.16 0.12 0.3 0.14 0.46 c0.02 0.26 0.12 0.5 0.24 0.74 c0.24 0.42 0.4 0.88 0.56 1.36 c0.02 0.1 0.04 0.2 0.08 0.3 c0.06 0.28 0.16 0.54 0.28 0.78 c0.02 0.04 0.02 0.04 0.04 0.06 c0.02 0.04 0.06 0.02 0.08 0 c0.14 -0.2 0.22 -0.44 0.28 -0.68 c0.04 -0.08 0.04 -0.16 0.06 -0.24 c0.06 -0.2 0.1 -0.4 0.2 -0.58 c0.02 -0.04 0.02 -0.08 0.04 -0.14 c0.08 -0.28 0.2 -0.54 0.34 -0.8 c0.16 -0.28 0.26 -0.56 0.3 -0.86 c0.02 -0.14 0.06 -0.28 0.12 -0.4 l0.06 -0.12 c0.1 -0.4 0.28 -0.76 0.42 -1.16 c0.08 -0.22 0.16 -0.44 0.14 -0.68 c0 -0.1 0.02 -0.22 0.04 -0.32 c0.02 -0.18 0.1 -0.24 0.28 -0.26 l0.14 0 l0.48 0 c0.12 0 0.24 0.02 0.36 0.06 c0.3 0.08 0.3 0.04 0.32 0.38 c0 0.06 0 0.14 0.02 0.2 c0.12 0.12 0.06 0.24 0.02 0.38 c-0.04 0.1 -0.06 0.2 -0.06 0.3 l0 0.2 c0 0.12 -0.04 0.22 -0.16 0.28 c-0.06 0.04 -0.08 0.08 -0.1 0.14 c-0.08 0.26 -0.18 0.52 -0.28 0.76 c-0.08 0.2 -0.14 0.38 -0.2 0.58 c-0.1 0.48 -0.28 0.92 -0.48 1.34 c-0.16 0.34 -0.3 0.68 -0.38 1.02 c-0.18 0.58 -0.4 1.14 -0.68 1.68 c-0.12 0.22 -0.22 0.46 -0.28 0.72 c-0.06 0.3 -0.1 0.6 -0.18 0.9 c-0.02 0.12 -0.02 0.24 -0.02 0.34 l0 1.06 l0 3.62 c0 0.32 0.02 0.3 -0.3 0.36 c-0.28 0.04 -0.58 0.04 -0.86 0.04 c-0.1 0 -0.2 -0.04 -0.3 -0.06 c-0.06 -0.02 -0.12 -0.08 -0.12 -0.14 c-0.02 -0.08 -0.02 -0.16 -0.02 -0.24 c0 -0.66 0 -1.3 -0.02 -1.96 l0 -0.3 l0.02 0 z"></path></g><g id="SvgjsG15129" featurekey="sloganFeature-1" transform="matrix(1,0,0,1,156,369)" fill="#000000"><path d=""></path></g></svg>
