<svg width="312.5" height="394.77253249657224" viewBox="0 0 312.5 394.77253249657224" class="css-1j8o68f"><defs id="SvgjsDefs15188"></defs><g id="SvgjsG15189" featurekey="nameContainer" transform="matrix(6.300400512276706,0,0,6.300400512276706,0.00004635863601583897,0.026296015352531184)" fill="#000000"><path xmlns="http://www.w3.org/2000/svg" d="M23.11 55.78L1.69 43.41A3.39 3.39 0 0 1 0 40.48V15.75a3.39 3.39 0 0 1 1.69-2.94L23.11.45a3.39 3.39 0 0 1 3.39 0l21.41 12.37a3.39 3.39 0 0 1 1.69 2.94v24.72a3.39 3.39 0 0 1-1.69 2.94L26.5 55.78a3.39 3.39 0 0 1-3.39 0z"></path></g><g id="SvgjsG15190" featurekey="nameFeature-0" transform="matrix(3.1680001817578227,0,0,3.1680001817578227,52.28749978700255,96.00048122317214)" fill="#ffffff"><path d="M27.559 40.91797 q-0.17578125 0 -0.25390625 -0.52734375 l-0.097656 0 l0 0.35156 q-0.25390625 -0.09765625 -0.25390625 -0.52734375 l-0.17578 0 l0 0.17578 l-0.097656 0 q0 -0.3515625 -0.25390625 -0.3515625 q0.078125 0.4296875 0.078125 0.52734375 l-0.078125 0 l-0.097656 -0.52734 l-0.078125 0 l-0.078125 0.60547 l-0.097656 0 l-0.078125 -0.42969 l-0.097656 0 l0 0.42969 q-0.2734375 0 -0.60546875 -0.60546875 l-0.17578 0.097656 l-0.097656 0 l-0.078125 -0.52734 l-0.097656 0 l-0.17578 0.078125 l0 -0.17578 l-0.078125 0 q0 0.3515625 -0.17578125 0.3515625 q0 -0.1953125 -0.3515625 -0.25390625 q-0.1953125 0 -0.3515625 0.4296875 l-0.27344 0.17578 l0 -0.25391 l-0.17578 0.078125 q-0.25390625 -0.3125 -0.25390625 -0.703125 l-0.17578 0 q0 0.09765625 0.078125 0.09765625 q-0.078125 0.13671875 -0.078125 0.3515625 l-0.17578 0 q-0.17578125 0 -0.17578125 -0.3515625 q-0.17578125 0.078125 -0.3515625 0.078125 l0.078125 -0.17578 l0 -0.078125 l-0.17578 0 l-0.078125 0.35156 l-0.35156 0 q0 -0.21484375 -0.078125 -0.3515625 q0.078125 -0.15625 0.078125 -0.3515625 q-0.078125 -0.2734375 -0.17578125 -0.2734375 l0.097656 -0.60547 q0 -0.48828125 -0.09765625 -1.23046875 q0.09765625 -1.81640625 0.17578125 -2.4609375 q0 -0.078125 -0.078125 -0.078125 q0.17578125 -1.0546875 0.17578125 -3.33984375 l0.078125 -0.17578 l-0.078125 0 l0.078125 -0.17578 q-0.078125 -1.19140625 -0.078125 -1.66015625 l0.078125 0 l-0.078125 -0.17578 l0 -5.1758 l0.078125 0 l0 0.25391 l0.097656 0 l0 -0.25391 q-0.17578125 0 -0.17578125 -0.17578125 l0 -0.17578 q0.078125 0 0.25390625 -0.078125 l0 1.6602 q0 0.17578125 -0.17578125 0.17578125 q0.09765625 0.15625 0.25390625 1.0546875 l-0.078125 0 l0.078125 0.17578 l-0.078125 0.60547 l0.078125 0 l-0.078125 0.17578 l0.078125 1.4063 q0 0.09765625 -0.078125 0.25390625 q0.078125 0.17578125 0.078125 0.2734375 l-0.078125 0 l0.078125 0.17578 l0 1.3086 q0 0.09765625 0.09765625 0.09765625 l-0.097656 0.17578 q0.09765625 0.15625 0.09765625 0.3515625 l0.078125 0 l0 -0.70313 l-0.078125 -0.17578 l0.078125 0 l-0.078125 -0.17578 l0 -0.70313 q0 -0.09765625 0.078125 -0.09765625 l-0.078125 -0.17578 q0 -0.29296875 0.078125 -0.4296875 q-0.078125 -0.7421875 -0.078125 -2.4609375 q0 -0.3125 -0.09765625 -0.78125 q0.09765625 -0.17578125 0.09765625 -0.2734375 q0 -0.078125 -0.09765625 -0.078125 q0.09765625 -0.390625 0.09765625 -0.80078125 l-0.097656 -0.17578 l0.097656 0 q0 -0.078125 -0.09765625 -0.078125 q0.09765625 -0.3515625 0.09765625 -0.703125 q0 -0.078125 -0.09765625 -0.078125 q0.09765625 -0.17578125 0.09765625 -0.2734375 l-0.097656 -0.60547 q0 -0.09765625 0.09765625 -0.09765625 l-0.097656 -0.42969 l0 -1.2305 l-0.078125 -0.87891 q0.078125 0 0.078125 -0.09765625 q-0.078125 0 -0.078125 -0.078125 l0.078125 0 l-0.078125 -0.17578 l0 -1.0547 l-0.078125 -0.17578 l0.078125 0 l-0.078125 -0.17578 l0 -0.95703 l-0.097656 0 l0 1.3086 q0.09765625 0 0.09765625 0.09765625 l-0.097656 0 l0.097656 0.17578 q0 0.87890625 -0.09765625 1.73828125 l-0.078125 0 q0 -0.87890625 -0.17578125 -2.96875 l0.17578 -4.5703 l0.078125 0 l0 0.35156 l0.097656 0 q0 -0.41015625 0.33203125 -0.52734375 q0 0.09765625 0.09765625 0.09765625 l0 -0.097656 l-0.097656 0 q0.3515625 -1.07421875 0.3515625 -2.1875 l0.097656 0 l0 0.44922 l0.17578 0 q0.17578125 -0.72265625 0.17578125 -0.9765625 q0.17578125 0 0.25390625 1.0546875 q0.17578125 0.01953125 0.17578125 0.17578125 l0 1.0547 l0.097656 0.42969 l0.078125 0 q0 -0.80078125 0.3515625 -1.30859375 l0.097656 0 l0 0.17578 l0.078125 0 l0.097656 -0.87891 l0.078125 0 l0 0.70313 l0.097656 0 l0 -0.35156 l0.17578 0.097656 q0 -0.09765625 0.078125 -0.09765625 l0 0.52734 l0.17578 0 l0 -0.27344 l0.097656 0 q0 1.0546875 0.25390625 1.0546875 l0.17578 0 l0 -0.17578 l0.097656 0 l0 0.35156 l0.17578 0 q0 -0.25390625 0.17578125 -0.25390625 l0 0.078125 q0.15625 -0.078125 0.3515625 -0.078125 l-0.097656 0.17578 l0.097656 0 q0 -0.09765625 0.078125 -0.09765625 l0 0.35156 l0.078125 0 q0.0390625 -0.4296875 0.2734375 -0.4296875 l0 0.25391 q0.1171875 0 0.25390625 -0.4296875 l0.35156 -0.097656 l0 0.097656 q-0.078125 0.15625 -0.078125 0.4296875 l0.17578 -0.078125 q0.078125 0.13671875 0.078125 0.4296875 l0.097656 0 l0 -0.42969 l0.17578 0.078125 l0 -0.17578 q-0.09765625 -0.15625 -0.09765625 -0.25390625 q0.17578125 0.01953125 0.17578125 0.17578125 l-0.078125 1.0547 l0.078125 0 q-0.078125 0.15625 -0.078125 0.3515625 l0.078125 0 q0 -0.17578125 0.17578125 -0.17578125 l0 -0.17578 l-0.17578 -0.27344 l0.17578 -0.078125 l-0.078125 -0.17578 q0.078125 -0.15625 0.078125 -0.3515625 l0.097656 0 l0.078125 1.0547 l0.097656 0 l0 -0.35156 q-0.09765625 -0.17578125 -0.09765625 -0.2734375 l0.17578 0 q0.17578125 0.9765625 0.17578125 1.0546875 l0.097656 0 l0 -0.35156 l0.078125 0 q0 0.4296875 0.17578125 1.40625 l0.097656 0 l0 -1.3086 l0.078125 0 q0 0.95703125 0.2734375 1.9140625 l0 1.2305 q0 0.1953125 0.078125 0.3515625 q-0.078125 0.15625 -0.078125 0.3515625 l0 1.2305 q0 0.09765625 0.078125 0.09765625 l-0.078125 0.17578 l0 0.25391 q0 0.09765625 0.078125 0.09765625 q0 0.078125 -0.078125 0.078125 l0.078125 0.87891 q0 0.2734375 -0.078125 0.4296875 l0.078125 0.17578 q0 0.09765625 -0.078125 0.09765625 l0.078125 0.60547 l0 2.4609 q0 0.3125 -0.078125 0.78125 q0 0.09765625 0.078125 0.09765625 l-0.078125 0.42969 q0 0.625 0.078125 0.625 q0 0.078125 -0.078125 0.25390625 q-0.09765625 2.890625 -0.09765625 5.09765625 q0 1.2109375 -0.078125 2.5390625 l0.17578 0 l0 3.8477 q0 0.7421875 -0.09765625 2.20703125 l-0.17578 0 l0 0.42969 l0.097656 0.42969 l-0.17578 0.097656 l-0.097656 -0.35156 l-0.17578 0 l0 0.25391 l-0.17578 0 q0 -0.13671875 -0.17578125 -0.68359375 l-0.17578 0.078125 q-0.078125 -0.17578125 -0.078125 -0.25390625 l-0.097656 0 l0 0.95703 l-0.078125 0 q0 -0.52734375 -0.17578125 -0.52734375 l0 0.17578 q0 0.078125 0.078125 0.078125 q-0.17578125 0.29296875 -0.17578125 0.44921875 z M6.7773 41.6992 l-0.078125 0 q-0.09765625 -0.8203125 -0.09765625 -1.66015625 l-0.17578 0 l0 0.78125 l-0.078125 0 l0 -0.42969 l-0.17578 0 q-0.09765625 0.46875 -0.09765625 0.78125 l-0.078125 0 q0 -0.2734375 -0.2734375 -0.95703125 l-0.17578 0 q0 0.25390625 -0.33203125 0.703125 l0 0.17578 l-0.27344 0 q0 -0.15625 -0.25390625 -0.52734375 q0 -0.17578125 -0.2734375 -0.17578125 l0 0.42969 q0 0.17578125 -0.17578125 0.17578125 q0 -0.25390625 -0.078125 -0.60546875 l0.17578 0 q-0.3515625 -1.484375 -0.52734375 -1.484375 l0 0.078125 l0.078125 0.17578 l-0.078125 0 l0.078125 0.17578 l0 0.52734 q0 0.17578125 -0.17578125 0.17578125 q-0.25390625 -0.68359375 -0.25390625 -0.78125 l-0.17578 0.078125 q-0.09765625 -0.17578125 -0.09765625 -0.25390625 l-0.42969 0.078125 l0.078125 0.17578 l0 0.44922 q0 0.078125 -0.078125 0.078125 l0.078125 0.17578 l0 0.60547 l-0.17578 -0.078125 l0 0.35156 l-0.078125 0 l-0.625 -2.5391 l-0.17578 0.078125 l0 -0.17578 q0.09765625 -0.15625 0.09765625 -0.25390625 q-0.17578125 0 -0.17578125 0.3515625 l-0.097656 0 l0 -0.625 q0 -0.078125 0.09765625 -0.078125 q-0.17578125 -0.33203125 -0.3515625 -2.5390625 l0.078125 0 q0 -0.09765625 -0.078125 -0.09765625 l0.078125 -0.60547 q0 -0.44921875 -0.078125 -0.44921875 q0 -0.09765625 0.078125 -0.25390625 q-0.078125 -2.3828125 -0.078125 -2.890625 q0.17578125 -3.26171875 0.17578125 -4.74609375 l0 -2.5391 q0 -0.1953125 -0.09765625 -0.3515625 q0.09765625 -0.15625 0.09765625 -0.3515625 l0 -0.70313 q0 -0.078125 -0.09765625 -0.078125 l0.097656 -0.17578 l0 -1.8555 q0 -0.078125 0.078125 -0.078125 q-0.078125 -0.17578125 -0.078125 -0.2734375 q0 -0.078125 0.078125 -0.078125 q0 -0.09765625 -0.078125 -0.25390625 q0 -0.4296875 0.25390625 -3.61328125 l0 -0.078125 l-0.078125 0 q0 0.13671875 -0.17578125 0.78125 l-0.097656 0 l0 -0.25391 q0 -0.09765625 0.09765625 -0.09765625 l-0.097656 -0.17578 l0.097656 -0.17578 l-0.097656 -0.42969 q0.15625 -0.37109375 0.2734375 -1.0546875 l-0.097656 -0.17578 l0.27344 -1.7578 l0.25391 0 l0.097656 0.35156 l0.078125 0 l-0.078125 -0.42969 l0 -0.44922 l0.078125 0 l0 0.44922 q0.17578125 0 0.17578125 -0.2734375 l-0.078125 -0.42969 l0.078125 0 l0.35156 0.35156 q0 -0.09765625 0.09765625 -0.09765625 q0.078125 0.52734375 0.25390625 0.52734375 q0.44921875 -0.72265625 0.44921875 -0.95703125 l0.078125 0 l0 0.35156 q-0.078125 0 -0.078125 0.078125 l0.17578 0 l0 -0.17578 l0.17578 0.097656 l0 -0.27344 l0.17578 0.097656 l0.078125 -0.35156 l0.097656 0 l0 0.70313 q0.17578125 0 0.17578125 -0.52734375 l0.17578 0.078125 l0.078125 0 q0 -0.234375 0.2734375 -0.3515625 l0 -0.078125 l0.078125 0 q0 0.3515625 0.17578125 0.3515625 q0.0390625 -0.3515625 0.25390625 -0.3515625 l0 0.17578 l0.097656 0 l0 -0.17578 l0.078125 0 l0.097656 0.42969 q0.17578125 0 0.17578125 -0.25390625 l0.17578 0.078125 l0.078125 0 l0 -0.17578 l0.097656 0 q0 0.21484375 0.3515625 0.3515625 q0 -0.25390625 0.25390625 -0.25390625 l0 0.25391 l0.17578 0 q0 -0.25390625 0.17578125 -0.25390625 q0.0390625 0.17578125 0.2734375 0.17578125 q0 -0.4296875 0.17578125 -0.4296875 l0.17578 0.78125 l0.17578 -0.097656 q0.17578125 0 0.17578125 0.52734375 l0.17578 0 l-0.097656 -0.17578 l0 -0.70313 l0.097656 0 q0 0.234375 0.3515625 0.80078125 q0 0.2734375 0.703125 0.4296875 l0 -0.078125 q-0.09765625 0 -0.09765625 -0.09765625 l0.17578 -0.078125 q0.1171875 0.48828125 0.3515625 0.78125 l0 0.52734 q0 0.09765625 -0.09765625 0.09765625 q0 0.078125 0.09765625 0.078125 q-0.17578125 2.109375 -0.2734375 2.109375 q0 0.078125 0.09765625 0.078125 l-0.097656 0.44922 q0 0.1953125 0.09765625 0.3515625 l-0.097656 0.35156 q0 0.25390625 0.09765625 0.25390625 q-0.09765625 0.87890625 -0.09765625 1.328125 l0 2.0898 l0.097656 0.52734 q-0.09765625 0.15625 -0.09765625 0.44921875 q0 0.078125 0.09765625 0.078125 q-0.09765625 0.13671875 -0.09765625 0.52734375 l-0.078125 0 l0 -0.35156 q-0.078125 -5.83984375 -0.078125 -7.44140625 q0 -0.09765625 0.078125 -0.2734375 q-0.078125 -0.17578125 -0.078125 -0.25390625 l0.078125 0 l-0.078125 -0.17578 l0 -1.0547 l-0.097656 0 l0 1.6602 l-0.078125 0.17578 l0.078125 0.17578 q-0.17578125 1.23046875 -0.17578125 1.66015625 l0.097656 0 l-0.097656 0.17578 l0 4.3945 q0 0.60546875 -0.078125 1.93359375 l0.078125 0 l-0.078125 0.17578 l0 0.78125 q0 0.1953125 -0.09765625 0.3515625 l0.097656 0.17578 l-0.097656 1.0547 l0.097656 0.42969 l-0.097656 0 q0.17578125 0.46875 0.17578125 1.23046875 q-0.078125 0.17578125 -0.078125 0.2734375 l0.078125 0 l-0.078125 0.17578 q0 0.8203125 -0.09765625 2.44140625 l-0.078125 0 l0.078125 0.17578 l0 0.097656 l-0.078125 0.17578 q0.078125 0 0.078125 0.078125 l-0.17578 0.097656 l0 -0.35156 l-0.078125 0 l0 0.25391 l-0.17578 -0.078125 l0.078125 -0.17578 l-0.078125 -0.17578 q0 -0.09765625 0.078125 -0.09765625 l-0.078125 -0.42969 q0.01953125 -0.3515625 0.17578125 -0.3515625 q-0.09765625 -0.17578125 -0.09765625 -0.2734375 l0.097656 -1.0547 q-0.17578125 -0.2734375 -0.17578125 -0.4296875 l0.078125 0 l-0.078125 -0.17578 q0.078125 -0.15625 0.078125 -0.3515625 l-0.17578 -0.078125 q-0.17578125 1.0546875 -0.25390625 3.06640625 l0.078125 0 l-0.078125 0.17578 l0 0.52734 l-0.17578 0 l0 -0.17578 l-0.097656 0 l0 0.25391 l0.097656 0 l-0.097656 0.17578 l0 1.0547 l0.17578 -0.097656 l0.097656 0.17578 l0 0.097656 l-0.097656 0.17578 q0.09765625 0 0.09765625 0.078125 l-0.097656 0 q0 0.09765625 0.09765625 0.09765625 l-0.097656 0.42969 l0 1.3281 q0.234375 0 0.3515625 -0.52734375 l0 -0.27344 l0.097656 0 l-0.097656 -0.17578 l0.097656 -0.17578 q-0.17578125 0 -0.17578125 -0.17578125 l0.17578 0 l0 -0.70313 l-0.097656 -0.17578 q0.09765625 0 0.09765625 -0.078125 l-0.097656 0 l0.097656 -0.17578 l0 -0.95703 q0.17578125 0 0.17578125 0.25390625 l0.078125 0 l0 -0.17578 q-0.078125 0 -0.078125 -0.078125 l0.17578 -0.097656 l0 2.6367 l-0.097656 0 l0 -1.582 l-0.078125 0 q0.078125 -0.17578125 0.078125 -0.3515625 l-0.078125 0 q0 0.17578125 -0.09765625 0.17578125 l0.097656 0.42969 l0 0.52734 q0 0.09765625 -0.09765625 0.09765625 l0.097656 0.17578 l-0.097656 0.52734 q0.09765625 0.87890625 0.09765625 1.30859375 q0 0.859375 -0.17578125 1.484375 l0.078125 0.17578 q-0.078125 0.15625 -0.078125 0.3515625 l0.078125 0 l-0.078125 0.17578 q0 0.6640625 0.078125 1.23046875 l0 0.17578 l-0.078125 0 l0 -0.35156 l-0.097656 0 l0 0.097656 q0.09765625 0.46875 0.09765625 0.87890625 l-0.097656 0 l-0.17578 -1.0547 q0.09765625 -0.17578125 0.09765625 -0.2734375 l-0.097656 0 q0 -0.078125 0.09765625 -0.078125 q-0.09765625 -0.48828125 -0.09765625 -0.703125 q0.09765625 -0.17578125 0.09765625 -0.2734375 q-0.17578125 0 -0.17578125 0.3515625 l-0.097656 0 q0 -0.546875 0.09765625 -0.703125 q-0.09765625 -0.13671875 -0.09765625 -0.4296875 q0 -0.17578125 0.09765625 -0.17578125 q-0.09765625 -0.17578125 -0.09765625 -0.25390625 l0.097656 -0.70313 l-0.097656 0 l-0.078125 0.60547 l0 2.7148 l-0.097656 0 l-0.17578 -0.078125 q0 0.95703125 -0.078125 0.95703125 q0.078125 0 0.078125 0.09765625 l-0.17578 0 q0 -0.17578125 -0.17578125 -0.17578125 l0 -0.35156 l0.17578 0.078125 l-0.078125 -0.17578 l0 -0.078125 l0.17578 0 q-0.09765625 -0.17578125 -0.09765625 -0.2734375 l0 -0.87891 l-0.078125 0 l0 0.87891 l-0.097656 0 l0 -0.25391 l-0.078125 0 q0 0.859375 -0.17578125 1.1328125 l0.078125 0 l-0.078125 0.17578 l0 0.70313 l-0.097656 0.44922 l-0.25391 -0.17578 l-0.097656 0 l0 1.3086 l0.17578 0 l0 0.078125 q-0.17578125 0 -0.17578125 0.3515625 z M16.523 40.91797 l-0.17578 -0.625 l-0.097656 0 l0 0.17578 l-0.078125 0 l0 -0.25391 l-0.097656 0 l-0.078125 0.35156 l-0.097656 0 l0 -0.17578 l-0.078125 0 l0 0.25391 l-0.097656 0 q0 -0.3515625 -0.17578125 -0.3515625 q0 0.09765625 -0.078125 0.09765625 q0 -0.1953125 -0.44921875 -0.25390625 q0 0.15625 -0.17578125 0.15625 l-0.35156 -0.15625 l0 0.078125 l-0.78125 -0.25391 q-0.078125 0.15625 -0.078125 0.25390625 l-0.097656 0 q0 -0.25390625 -0.17578125 -0.25390625 q0 0.078125 -0.078125 0.078125 q0 -0.3125 -0.52734375 -0.52734375 l0 -0.35156 l-0.097656 0 q0 0.13671875 -0.25390625 0.625 l-0.27344 0 l-0.25391 -0.17578 l-0.17578 0.42969 l-0.17578 -0.078125 q0 -0.09765625 0.078125 -0.09765625 q-0.25390625 -2.1875 -0.25390625 -2.63671875 l0 -2.0898 q0 -0.09765625 0.078125 -0.09765625 q0 -0.078125 -0.078125 -0.078125 q0.078125 -0.625 0.078125 -0.80078125 q0 -0.078125 -0.078125 -0.078125 q0.078125 -0.3125 0.3515625 -2.98828125 l-0.097656 0 l0.097656 -0.17578 l0 -0.60547 q0 -0.1953125 -0.09765625 -0.3515625 q0.09765625 -0.17578125 0.09765625 -0.2734375 q-0.05859375 -1.30859375 -0.17578125 -1.30859375 l0.078125 -0.17578 q0 -0.56640625 -0.17578125 -1.484375 l0.097656 0 q-0.09765625 -0.17578125 -0.09765625 -0.3515625 l0.17578 -0.27344 q0 -0.4296875 -0.078125 -0.4296875 l0.17578 -1.582 l-0.097656 -0.17578 q0.09765625 -1.2890625 0.2734375 -1.40625 l-0.097656 0 q0 -0.078125 0.09765625 -0.078125 q-0.17578125 -0.6640625 -0.17578125 -0.80078125 l0.078125 -0.60547 q0 -0.09765625 -0.078125 -0.09765625 l0.078125 -0.42969 l0 -0.70313 q0 -0.1953125 -0.078125 -0.3515625 q0.078125 -0.15625 0.078125 -0.3515625 l0 -0.70313 q0 -0.078125 0.09765625 -0.078125 q0 -0.09765625 -0.09765625 -0.09765625 q0 -0.15625 0.17578125 -0.703125 l-0.078125 0 l0.078125 -0.17578 l0 -0.25391 l-0.17578 0 q0 -0.17578125 0.17578125 -0.80078125 l0 -0.078125 l-0.17578 0 l0 -0.17578 q0.21484375 0 0.2734375 -0.52734375 q-0.09765625 -0.2734375 -0.17578125 -0.2734375 q0.078125 -0.15625 0.078125 -0.25390625 l-0.078125 -0.17578 q0.17578125 -0.41015625 0.17578125 -0.78125 q-0.17578125 0 -0.17578125 -0.17578125 l0.17578 -0.27344 l0 -1.0547 l0.078125 0 l0 0.17578 q0.17578125 0 0.17578125 -0.4296875 l0.097656 0 l0 1.3086 l-0.097656 0.17578 l0.097656 0 l-0.097656 0.17578 l0.097656 0.17578 l-0.097656 0.52734 l0.097656 0 l-0.097656 0.17578 q0.09765625 1.328125 0.09765625 1.8359375 l0.078125 0 l0.17578 -0.78125 l0 -1.4844 l0.097656 0 l0 -0.27344 l-0.097656 0 l0 0.17578 l-0.078125 0 l0 -1.2305 l0.078125 0 l0 0.44922 l0.097656 0 l0 -0.87891 l0.078125 0 l0 0.35156 l0.097656 0 q0 -0.17578125 0.17578125 -1.0546875 l0.078125 0 q0 0.4296875 0.09765625 0.4296875 q-0.09765625 0.17578125 -0.09765625 0.2734375 l0.097656 0.17578 q-0.09765625 0.15625 -0.09765625 0.3515625 l0.097656 0 l0.078125 -0.44922 q-0.078125 0 -0.078125 -0.078125 l0.17578 -0.097656 l0 0.17578 l0.078125 0 q0 -0.05859375 0.09765625 -0.52734375 q0.15625 0.09765625 0.25390625 0.09765625 l0 0.60547 l0.078125 0 q0 -0.21484375 0.3515625 -1.1328125 l0.097656 0 l0 0.70313 l0.078125 0 l0 -0.35156 l0.097656 0 l0 0.25391 l0.17578 0 l0 -0.52734 l0.078125 0 l0 0.17578 l0.35156 -0.25391 q0 0.078125 0.09765625 0.078125 l0 -0.17578 l0.078125 0 l0 0.35156 l0.27344 0 q0.078125 -0.33203125 0.078125 -0.60546875 l0.17578 0.078125 l0.097656 -0.50781 l0.078125 0 q0 0.078125 -0.17578125 0.859375 l0.27344 0 l0 -0.25391 l0.078125 0 l0 0.17578 l0.17578 -0.097656 l0 0.27344 l0.17578 -0.097656 q0 0.09765625 0.09765625 0.09765625 q0.4296875 -0.5859375 0.4296875 -0.80078125 l0.097656 0 l0 0.625 q0.3515625 0 0.3515625 0.17578125 l0.078125 0 q0 -0.68359375 0.52734375 -0.87890625 l0.078125 0.42969 l0.35156 -0.50781 q0 0.4296875 0.17578125 0.4296875 q0 0.078125 -0.078125 0.078125 l0.25391 0.97656 l0.097656 0 q0.3515625 -0.17578125 0.3515625 -0.44921875 q0.17578125 0 0.17578125 0.2734375 q0 0.29296875 -0.09765625 0.4296875 q0.09765625 0.48828125 0.09765625 0.703125 l-0.097656 0.70313 l0.097656 0 l-0.097656 0.17578 l0 1.4063 q0 0.078125 0.09765625 0.078125 l-0.097656 0.17578 l0 0.35156 q0 0.09765625 0.09765625 0.09765625 q0 0.078125 -0.09765625 0.078125 l0.097656 0.44922 l-0.097656 0.60547 q0.09765625 0.17578125 0.09765625 0.2734375 q-0.09765625 0 -0.09765625 0.078125 l0.097656 0 l-0.097656 0.17578 l0 0.27344 q0 0.078125 0.09765625 0.078125 q-0.09765625 0.1953125 -0.17578125 0.80078125 q0.078125 0.13671875 0.078125 0.33203125 l-0.078125 0 l0.17578 0.97656 q-0.09765625 1.23046875 -0.09765625 2.63671875 q0 1.796875 0.09765625 4.47265625 l-0.097656 0 l0.097656 0.15625 l-0.097656 0.35156 q0 0.21484375 0.09765625 0.3515625 q-0.17578125 1.5625 -0.17578125 2.63671875 q0.078125 1.50390625 0.078125 1.7578125 l-0.078125 0.17578 q0 0.078125 0.078125 0.078125 l-0.078125 0.52734 q0 0.6640625 0.17578125 3.515625 q-0.09765625 1.4453125 -0.09765625 2.1875 q-0.078125 0.17578125 -0.078125 0.2734375 q0.078125 0 0.078125 0.078125 l-0.35156 0.44922 l-0.078125 0 l0 -0.17578 q-0.17578125 0 -0.17578125 0.25390625 l-0.17578 -0.078125 q0 0.15625 -0.17578125 0.15625 l0 -0.078125 l-0.17578 0.078125 q-0.09765625 0 -0.09765625 -0.078125 q-0.078125 0 -0.078125 0.078125 q-0.4296875 -0.078125 -0.60546875 -0.078125 l0 0.17578 l-0.097656 0 l0 -0.17578 l-0.25391 0 q0 0.4296875 -0.17578125 0.4296875 l-0.097656 0 q0 -0.4296875 -0.17578125 -0.4296875 q0 0.703125 -0.25390625 0.703125 z M16.348 11.27 l-0.097656 0 q0 -0.078125 -0.078125 -0.25390625 l0.17578 -0.078125 l0 0.33203 z M1.5234 13.905999999999999 l-0.097656 0 l0 -0.17578 l-0.078125 0 l0 0.17578 l-0.097656 0 l0.097656 -0.60547 q0 -0.09765625 -0.09765625 -0.703125 l0.17578 0.078125 l0 -0.25391 l0.097656 0 q0 0.3515625 0.078125 0.3515625 q-0.078125 0.29296875 -0.078125 1.1328125 z M19.316 14.082 q0 -0.72265625 0.09765625 -1.40625 l0 -0.078125 l-0.097656 0 l-0.078125 0.42969 l0 1.0547 l0.078125 0 z M21.426 13.203 l-0.078125 0 l0 -0.42969 l0.078125 0 l0 0.42969 z M13.789 13.828 l0 -0.625 l-0.078125 0 l-0.078125 0.625 l0.15625 0 z M12.832 14.609000000000002 l0.097656 -0.35156 l0 -0.87891 l-0.097656 0 q0 1.15234375 -0.078125 1.15234375 l0 0.078125 l0.078125 0 z M21.25 16.719 l-0.17578 0 l0 -1.8359 q0 -0.46875 0.09765625 -1.50390625 l0.078125 0 q0 0.5078125 0.09765625 0.625 q-0.17578125 0.01953125 -0.17578125 0.17578125 l0 2.3633 z M12.754 13.905999999999999 l0 -0.35156 l-0.097656 0 l0 0.35156 l0.097656 0 z M28.008 17.949 l0.078125 -0.17578 l0 -1.582 q0 -0.09765625 -0.078125 -0.09765625 q0.078125 -0.15625 0.078125 -0.25390625 q0 -0.76171875 -0.17578125 -2.1875 l-0.17578 0 l0.097656 0.17578 l0 0.35156 l-0.17578 0.25391 l0 0.097656 l0.17578 0 q0 0.078125 -0.09765625 0.078125 q0.09765625 0.44921875 0.17578125 0.44921875 q-0.078125 0.78125 -0.17578125 0.78125 q0.09765625 0.29296875 0.2734375 1.8359375 l0 0.097656 l-0.17578 0 q0 -0.09765625 0.078125 -0.09765625 q-0.1171875 -0.52734375 -0.25390625 -0.52734375 l-0.097656 0.17578 l0.17578 0 q0 0.17578125 -0.078125 0.625 l0.078125 0 l0.17578 -0.097656 q0 0.09765625 0.09765625 0.09765625 z M11.699 14.18 l0 -0.27344 l0.17578 0 q0 0.2734375 -0.17578125 0.2734375 z M11.777 14.434000000000001 l-0.25391 0 q0.078125 -0.17578125 0.078125 -0.25390625 l0.097656 0 q0 0.078125 0.078125 0.25390625 z M19.316 15.565999999999999 l0 -1.3086 l-0.078125 0 l0 1.2305 q-0.09765625 0 -0.09765625 0.078125 l0.17578 0 z M22.207 14.960999999999999 l0 -0.42969 l-0.078125 0 l0 0.42969 l0.078125 0 z M21.875 16.367 q0.15625 0 0.15625 -0.17578125 q-0.078125 -0.46875 -0.078125 -0.80078125 l0.25391 -0.33203 l-0.078125 0 q0 0.078125 -0.09765625 0.078125 q0 -0.25390625 -0.15625 -0.25390625 l0 0.078125 q0 0.09765625 0.078125 0.09765625 l-0.078125 0.15625 l0 1.1523 z M12.305 16.797 q-0.078125 -0.4296875 -0.078125 -0.60546875 q0 -0.09765625 0.078125 -0.09765625 q-0.078125 -0.078125 -0.078125 -0.703125 l-0.097656 0 l0 0.97656 l0.097656 0.42969 l0.078125 0 z M11.777 16.016 l-0.078125 0 l0 -0.625 l0.17578 0 z M22.207 16.016 l0 -0.52734 l-0.17578 0 q0.09765625 0.13671875 0.09765625 0.52734375 l0.078125 0 z M19.316 16.094 l0 -0.42969 l-0.078125 0 l0 0.42969 l0.078125 0 z M19.316 16.797 l0 -0.60547 l-0.078125 0 l0 0.60547 l0.078125 0 z M11.523 16.445 l0 -0.17578 q0.09765625 0 0.25390625 -0.078125 l0 0.17578 q-0.09765625 0 -0.25390625 0.078125 z M27.305 16.543 l0 -0.097656 q-0.09765625 0 -0.2734375 -0.078125 l0 0.17578 l0.27344 0 z M27.734 16.973 l-0.078125 -0.42969 l-0.097656 0 q0 0.1953125 -0.078125 0.3515625 l0.17578 0.078125 l0.078125 0 z M11.523 17.676 l-0.097656 0 l0 -1.0547 l0.097656 0 l0 1.0547 z M12.48 17.422 l0 -0.70313 l-0.078125 0 l0 0.70313 l0.078125 0 z M1.5234 17.422 l-0.097656 0 l0 -0.625 l0.097656 0 l0 0.625 z M21.172 18.027 l-0.097656 0 l0 -1.2305 l0.17578 0.097656 q-0.078125 0.29296875 -0.078125 1.1328125 z M12.305 17.324 q-0.078125 -0.15625 -0.078125 -0.3515625 l-0.097656 0 l0 0.35156 l0.17578 0 z M19.316 17.598 l0 -0.625 l-0.078125 0 l0 0.625 l0.078125 0 z M12.305 17.676 l0 -0.25391 l-0.17578 0 l0 0.25391 l0.17578 0 z M22.129 17.949 l0 -0.52734 l-0.097656 0 l0 0.52734 l0.097656 0 z M11.523 18.477 l-0.097656 0 l0 -0.625 l0.097656 0 l0 0.625 z M28.008 21.016 l0 -0.35156 l0.17578 0.078125 q0 -0.17578125 -0.09765625 -0.3515625 q0.09765625 -0.13671875 0.09765625 -0.3515625 q0 -0.078125 -0.09765625 -0.078125 l0.097656 -0.17578 l-0.097656 -0.17578 l0.097656 0 l-0.17578 -0.42969 q0.17578125 0 0.17578125 -0.17578125 l-0.17578 0 l0.078125 -0.44922 l-0.17578 -0.25391 l0.097656 0 q-0.09765625 -0.17578125 -0.09765625 -0.2734375 l-0.25391 0 l0 0.17578 l0.25391 0 l-0.17578 0.27344 q0 0.078125 0.09765625 0.078125 l-0.097656 0.17578 l0.17578 0.27344 l-0.078125 0.42969 l0.17578 -0.078125 l0 0.15625 l-0.17578 0 l0 0.97656 l-0.097656 0 l0 -0.27344 l-0.078125 0 q0 0.3515625 -0.17578125 0.3515625 l0 0.17578 q0.078125 0 0.078125 -0.078125 z M21.348 18.555 l-0.097656 0 l0 -0.52734 l0.097656 0 l0 0.52734 z M21.25 19.18 l-0.078125 0 l0 -0.44922 l0.078125 0 l0 0.44922 z M27.305 20.391 l0 -0.60547 l-0.17578 0 l0.078125 0.17578 l-0.078125 0 q0.078125 0.13671875 0.078125 0.4296875 l0.097656 0 z M21.777 21.094 l-0.078125 0 l0 -0.78125 l0.078125 0 l0 0.78125 z M27.383 21.016 q0 -0.44921875 -0.25390625 -0.52734375 l0 0.078125 l0.078125 0.44922 l0.17578 0 z M12.051 20.918 q0 -0.25390625 -0.17578125 -0.25390625 l0 0.25391 l0.17578 0 z M27.734 21.27 l0 -0.42969 l-0.078125 0 q0 0.17578125 -0.09765625 0.17578125 q0.09765625 0.15625 0.09765625 0.25390625 l0.078125 0 z M28.086 21.543 q0 -0.1953125 0.09765625 -0.3515625 l-0.35156 -0.097656 q0.01953125 0.17578125 0.17578125 0.17578125 l-0.097656 0.17578 l0 0.097656 l0.17578 0 z M21.875 21.445 l-0.097656 0 q0 -0.09765625 -0.078125 -0.25390625 l0.17578 0 l0 0.25391 z M27.559 21.797 q0.17578125 -0.078125 0.2734375 -0.078125 l0 -0.097656 l-0.17578 0 l0 -0.078125 l0.17578 0 l0 -0.17578 l-0.17578 0 z M21.875 22.949 l-0.17578 0 l0 -1.5039 q0.17578125 0.0390625 0.17578125 0.17578125 l0 1.3281 z M11.953 22.148 l0 -0.52734 l-0.078125 0 l0 0.52734 l0.078125 0 z M28.086 22.676 q0 -0.17578125 0.09765625 -0.17578125 l-0.097656 -0.17578 l0 -0.70313 l-0.17578 0 l0.097656 0.17578 q-0.44921875 0.1171875 -0.44921875 0.2734375 l0.097656 0 l-0.097656 0.17578 l0 0.078125 l0.17578 -0.078125 l0.27344 0 l0 0.42969 l0.078125 0 z M27.383 26.445 q0.44921875 -0.25390625 0.44921875 -0.60546875 l-0.097656 -0.17578 q0.09765625 -0.15625 0.09765625 -0.3515625 q0 -0.09765625 -0.09765625 -0.09765625 l0.097656 -0.17578 l-0.097656 -0.42969 l-0.078125 0 l0 0.52734 q0 0.078125 0.078125 0.078125 q-0.078125 0.15625 -0.078125 0.3515625 l-0.097656 0 q0 -0.25390625 -0.078125 -0.25390625 l0.078125 -0.17578 q0 -0.09765625 -0.078125 -0.09765625 q0.078125 -0.15625 0.078125 -0.25390625 l-0.078125 -0.44922 l0.52734 0.27344 q0.17578125 -0.29296875 0.17578125 -0.52734375 l0 -0.60547 l-0.097656 -0.44922 l0.097656 0 q-0.09765625 -0.17578125 -0.09765625 -0.25390625 l-0.078125 0 q0 0.78125 -0.2734375 0.78125 l0 0.078125 l0.17578 0 q-0.078125 0.17578125 -0.078125 0.2734375 l-0.097656 0 l-0.078125 -0.52734 l-0.097656 0 l0 0.87891 l-0.078125 0 l0 -1.8359 l-0.097656 -0.44922 l-0.078125 0 l0 0.17578 l0.078125 0 q-0.078125 0.17578125 -0.078125 0.2734375 q0 0.25390625 0.078125 0.25390625 l-0.078125 0.87891 l0 1.7578 l-0.097656 0 l0 -0.27344 l-0.078125 0 l0 0.70313 l0.078125 0.17578 q-0.078125 0 -0.078125 0.09765625 q0.25390625 0 0.25390625 0.4296875 z M27.91 22.598 q0 -0.2734375 -0.17578125 -0.2734375 l-0.078125 0.17578 l0.17578 0.097656 l0.078125 0 z M8.6328 26.797 q0 -0.7421875 0.078125 -1.58203125 l-0.078125 0 q0.17578125 -0.546875 0.17578125 -2.08984375 l-0.097656 -0.70313 l-0.078125 0 l0 0.42969 l0.078125 0 l-0.078125 0.17578 l-0.097656 2.9883 l0 0.78125 l0.097656 0 z M12.051 23.984 l0 -0.17578 l-0.17578 -0.078125 l0.17578 -0.95703 l-0.17578 0 q0 0.25390625 -0.09765625 0.25390625 q0 0.09765625 0.09765625 0.09765625 q-0.078125 0.33203125 -0.09765625 0.68359375 q0.17578125 0 0.17578125 0.17578125 l0.097656 0 z M12.48 23.301 l0 -0.27344 q-0.17578125 0.01953125 -0.17578125 0.17578125 l0 0.097656 l0.17578 0 z M9.7656 24.863 l-0.097656 0 q0 -0.1953125 -0.078125 -0.3515625 l0.078125 -0.52734 l-0.078125 0 q0.078125 0 0.078125 -0.95703125 l0.097656 0 l0 1.8359 z M27.832 23.477 l0 -0.17578 l-0.17578 -0.097656 q0.078125 0.17578125 0.078125 0.2734375 l0.097656 0 z M27.207 24.082 l0 -0.60547 l-0.078125 0 l0 0.60547 l0.078125 0 z M12.48 23.984 l0 -0.42969 l-0.078125 0 l0 0.42969 l0.078125 0 z M11.875 24.258 l0 -0.35156 l-0.097656 0 l0 0.35156 l0.097656 0 z M27.91 24.336 l-0.17578 0 l0.097656 -0.17578 q-0.17578125 0 -0.17578125 -0.17578125 l0.25391 0 l0 0.35156 z M12.051 26.719 l0 -0.80078 l-0.097656 -0.17578 q0.09765625 -0.15625 0.09765625 -0.25390625 q-0.09765625 0 -0.09765625 -0.09765625 l0.097656 0 l-0.097656 -0.17578 q0.09765625 -0.60546875 0.09765625 -0.78125 l-0.097656 0 q0 0.234375 -0.17578125 0.52734375 l0.097656 0 q0 0.078125 -0.09765625 0.078125 q0.17578125 0.859375 0.17578125 1.6796875 l0.097656 0 z M11.426 25.664 l-0.078125 0 l0 -1.2305 l0.078125 0 l0 1.2305 z M28.086 26.367 l0.097656 -0.44922 q0 -0.2734375 -0.09765625 -0.4296875 q0.09765625 -0.15625 0.09765625 -0.3515625 l-0.17578 -0.097656 l0.078125 -0.17578 l0 -0.078125 q-0.17578125 0.01953125 -0.17578125 0.17578125 l0 0.95703 l0.097656 0.44922 l0.078125 0 z M9.8438 26.797 l-0.078125 0 l0 -0.17578 l-0.097656 0 l0 0.17578 l-0.078125 0 l0 -0.52734 l0.25391 0 l0 0.52734 z M28.086 26.797 l0 -0.35156 l-0.17578 0 l0 0.35156 l0.17578 0 z M28.184 28.378999999999998 q0 -0.17578125 -0.09765625 -0.17578125 l0.097656 -0.17578 l0 -0.95703 q-0.2734375 0 -0.2734375 0.17578125 l0.17578 0 l0 0.078125 q-0.1171875 0 -0.4296875 0.4296875 l-0.17578 -0.078125 l-0.097656 0 l0 0.078125 q0.17578125 0.41015625 0.3515625 0.44921875 l0 -0.097656 l-0.078125 -0.17578 l0.17578 0 q0 0.44921875 0.17578125 0.44921875 q0 -0.09765625 0.078125 -0.09765625 q0 0.09765625 0.09765625 0.09765625 z M29.063 30.039099999999998 l0 -2.9688 l-0.097656 0 q0 0.17578125 -0.078125 0.17578125 q0 0.078125 0.078125 0.078125 l-0.078125 0.42969 l0.078125 0.17578 l-0.078125 0 l0.078125 0.17578 q-0.078125 0.17578125 -0.078125 0.2734375 l0.078125 0.17578 q0 0.078125 -0.078125 0.078125 l0.078125 0.44922 l0 0.78125 l-0.078125 0.17578 l0.17578 0 z M27.656 27.5 l0 -0.17578 q-0.3515625 0 -0.3515625 0.17578125 l0.35156 0 z M28.086 27.852 l-0.078125 0 l0 -0.35156 l0.078125 0 l0 0.35156 z M27.305 28.378999999999998 l0 -0.17578 q-0.2734375 0 -0.2734375 0.17578125 l0.27344 0 z M27.656 29.609 q-0.17578125 -0.21484375 -0.17578125 -0.3515625 l0.17578 -0.35156 l0 -0.097656 l-0.097656 0 l0 0.17578 l-0.078125 0 l0 -0.35156 l0.17578 0.097656 l0.078125 -0.17578 q-0.25390625 0 -0.25390625 -0.3515625 l-0.097656 0 l0 1.4063 l0.27344 0 z M28.086 29.686999999999998 l0 -0.078125 l-0.17578 -0.27344 q0.13671875 0 0.2734375 -0.25390625 l0 -0.625 q-0.09765625 0 -0.09765625 0.09765625 l-0.17578 -0.097656 l-0.078125 0 l0 0.35156 q0 0.1953125 0.078125 0.3515625 q-0.078125 0.15625 -0.078125 0.52734375 l0.17578 -0.078125 q0 0.078125 0.078125 0.078125 z M8.0078 30.3125 q0.17578125 0 0.17578125 -0.2734375 l0 -0.78125 l-0.078125 0 q0 0.5859375 -0.09765625 1.0546875 z M27.832 30.7422 q0.1171875 0 0.25390625 -0.25390625 l0 -0.097656 l-0.17578 0.097656 l0 -0.27344 l0.17578 0 l0 -0.42969 l-0.25391 0 l0 0.25391 l0.17578 -0.078125 l0 0.17578 q-0.2734375 0 -0.2734375 0.17578125 l0 0.42969 l0.097656 0 z M27.129 30.136699999999998 q0 -0.09765625 0.078125 -0.2734375 l-0.078125 0 l-0.097656 0.17578 l0 0.097656 l0.097656 0 z M27.559 30.3906 l-0.078125 -0.17578 q0.078125 0 0.078125 -0.078125 l-0.17578 -0.097656 l0 0.35156 l0.17578 0 z M7.832 31.4453 l0 -1.3086 l-0.078125 0 l0 1.3086 l0.078125 0 z M29.414 30.5664 l-0.097656 0 l0 -0.42969 l0.097656 0 l0 0.42969 z M21.426 31.0937 l-0.078125 0 l0 -0.35156 l0.078125 0 l0 0.35156 z M28.008 31.2695 l0 -0.078125 l-0.097656 -0.17578 l0.17578 0 q0 -0.17578125 -0.17578125 -0.17578125 l0 0.17578 l-0.17578 -0.097656 l0 0.27344 q0.09765625 0 0.2734375 0.078125 z M29.414 31.3672 l-0.097656 0 l0 -0.35156 l0.097656 0 l0 0.35156 z M21.348 31.543 l-0.097656 0 l0 -0.35156 l0.097656 0 l0 0.35156 z M28.008 31.875 l0 -0.078125 q-0.09765625 0 -0.09765625 -0.078125 l0.097656 0 q-0.09765625 -0.17578125 -0.09765625 -0.2734375 l-0.078125 0 l0 0.27344 q0.01953125 0.15625 0.17578125 0.15625 z M8.1055 33.5547 l0 -1.5039 l-0.17578 0 q0 0.21484375 0.078125 0.3515625 q0 0.09765625 -0.078125 0.09765625 q0.078125 0.44921875 0.078125 1.0546875 l0.097656 0 z M29.316 33.3789 l-0.078125 0 l0 -0.625 l0.078125 0 l0 0.625 z M11.875 35.6641 q0 -0.859375 0.078125 -0.87890625 l-0.078125 0 l0.078125 -0.17578 l0 -1.5039 q0 -0.17578125 -0.17578125 -0.17578125 l0 2.7344 l0.097656 0 z M27.832 33.457 l0 -0.25391 q-0.17578125 0.01953125 -0.17578125 0.17578125 z M8.9844 33.7305 l-0.17578 0 l0 -0.27344 l0.078125 0 q0 0.09765625 0.09765625 0.2734375 z M9.0625 34.2578 l-0.17578 0 l0 -0.35156 l0.097656 0 z M9.0625 34.8633 l-0.078125 0 l-0.097656 -0.52734 q0.17578125 0.0390625 0.17578125 0.17578125 l0 0.35156 z M1.3477 35.918 l-0.17578 0 l0 -0.70313 l0.078125 0 q0 0.625 0.09765625 0.703125 z M9.0625 35.8398 l-0.078125 0 l0 -0.35156 l0.078125 0 l0 0.35156 z M1.3477 36.6992 l-0.097656 0 l0 -0.68359 l0.097656 0 l0 0.68359 z M7.5781 36.9727 q0.078125 -0.44921875 0.078125 -0.52734375 l-0.078125 -0.17578 q0.078125 0 0.078125 -0.09765625 l-0.078125 0 l-0.097656 0.17578 l0.097656 0 l-0.097656 0.17578 l0 0.44922 l0.097656 0 z M7.9297 36.875 l0 -0.42969 l-0.097656 0 l0 0.42969 l0.097656 0 z M1.4258 37.6758 l-0.078125 0 l0 -0.625 l0.078125 0 l0 0.625 z M1.7773 39.25781 q-0.1953125 0 -0.3515625 -0.87890625 l0 -0.52734 l0.097656 0 q0 0.64453125 0.25390625 1.40625 z M1.25 39.51172 l-0.078125 0 l0 -0.42969 l0.078125 0 l0 0.42969 z M7.832 39.6875 l-0.078125 0 l0 -0.35156 l0.078125 0 l0 0.35156 z M26.855 40.74219 l-0.078125 0 l0 -0.35156 l0.078125 0 l0 0.35156 z M4.5898 40.91797 l-0.078125 0 l0 -0.35156 l0.078125 0 l0 0.35156 z M46.217234375000004 40.99609 l-0.078125 0 q0 -0.64453125 -0.09765625 -0.95703125 l0.097656 -0.17578 q-0.09765625 -0.15625 -0.09765625 -0.3515625 l-0.17578 0 q0 0.09765625 0.09765625 0.09765625 q-0.09765625 0.15625 -0.09765625 0.3515625 l-0.078125 0 l0 -0.17578 l-0.097656 0 q0 0.17578125 -0.17578125 0.52734375 l-0.078125 0 q0 -0.21484375 -0.17578125 -0.625 l-0.17578 0 q0 0.234375 -0.25390625 0.52734375 l0.078125 0 q-0.17578125 0.37109375 -0.17578125 0.52734375 l-0.078125 0 l-0.35156 -0.87891 q-0.17578125 0.09765625 -0.2734375 0.09765625 l0 0.078125 l0.17578 0 q-0.078125 0.15625 -0.078125 0.3515625 q-0.17578125 0 -0.17578125 -0.52734375 l0.078125 0 q-0.37109375 -1.38671875 -0.5078125 -1.38671875 l0 0.078125 l0.078125 0 l-0.078125 0.17578 l0.078125 0.17578 l-0.078125 0 l0.078125 0.17578 l0 0.35156 l-0.17578 0 l-0.17578 -0.60547 l-0.17578 0.078125 q-0.078125 -0.17578125 -0.078125 -0.25390625 q-0.3515625 0 -0.3515625 0.17578125 l0 0.95703 l-0.097656 0.60547 l-0.078125 0 q-0.2734375 -1.26953125 -0.625 -2.1875 q0 -0.25390625 -0.15625 -0.25390625 q0.078125 -0.17578125 0.078125 -0.3515625 l-0.25391 0.17578 q0 -0.2734375 0.078125 -0.4296875 q-0.3515625 -1.2890625 -0.3515625 -3.671875 q0 -0.09765625 -0.078125 -0.09765625 l0.078125 -0.17578 q0 -0.5078125 -0.17578125 -2.01171875 l0.097656 0 l-0.097656 -0.17578 l0 -2.1875 q0 -0.1953125 0.09765625 -0.33203125 l-0.097656 -0.17578 q0.09765625 -0.7421875 0.09765625 -1.30859375 q0 -0.29296875 -0.09765625 -0.44921875 l0.097656 -0.17578 q-0.09765625 -0.83984375 -0.17578125 -0.95703125 q0.078125 0 0.078125 -0.078125 q-0.48828125 0 -0.60546875 -0.09765625 l-0.097656 0.17578 q-3.02734375 0.078125 -4.62890625 0.078125 q-0.56640625 0 -1.03515625 -0.078125 q-0.17578125 0.078125 -0.2734375 0.078125 q0 -0.15625 -0.17578125 -0.15625 q-0.390625 0 -0.78125 0.078125 l0 -0.17578 l0.35156 -0.078125 q0 -0.17578125 -0.2734375 -0.17578125 q0 -0.17578125 0.625 -0.2734375 l-0.097656 -0.17578 q0.17578125 -0.078125 0.2734375 -0.078125 l0 -0.097656 l-0.80078 0 l0 -0.078125 l0.35156 0 l0 -0.097656 l-0.60547 0 l0 -0.25391 l0.35156 0 l0 -0.17578 l-0.27344 0 l0 -0.097656 l0.52734 -0.15625 l0 -0.097656 l-0.35156 0 l0 -0.078125 q0.46875 0 0.52734375 -0.2734375 l-0.25391 0 l0 -0.078125 l0.17578 0 l0 -0.097656 l-0.35156 0 l0 -0.17578 l0.17578 0 l0 -0.078125 l-0.52734 0 l0 -0.097656 q0.1953125 0 0.4296875 -0.3515625 l-0.17578 0 l0 -0.078125 q0.3515625 0 0.3515625 -0.146484375 t0.52734 -0.20508 l0 -0.25391 q0 -0.17578125 -0.17578125 -0.17578125 q0.078125 -0.3515625 0.17578125 -0.3515625 q0 -0.17578125 -0.60546875 -0.44921875 l0 -0.078125 q0.17578125 0 0.3515625 -0.3515625 l0.52734 -0.078125 l0 -0.097656 l-0.44922 -0.078125 l0 -0.27344 q0.2734375 0 0.2734375 -0.3515625 l0.17578 0.097656 l0.078125 0 l0 -0.17578 q-0.4296875 0 -0.4296875 -0.3515625 l0.078125 0 q0.703125 -0.17578125 1.66015625 -0.17578125 q0.17578125 0.078125 0.2734375 0.078125 l0 -0.078125 l0.17578 0.078125 q0.25390625 0 0.25390625 -0.17578125 q1.30859375 0.09765625 2.79296875 0.09765625 l0.87891 0.078125 l0 -0.078125 l0.17578 0.078125 l0.25391 0 l0 -1.8359 q0 -0.078125 0.09765625 -0.078125 l-0.097656 -0.17578 q0.09765625 -0.17578125 0.09765625 -0.25390625 l-0.097656 0 l0.097656 -0.17578 l0 -0.625 l-0.097656 0 l-0.078125 0.87891 l-0.097656 0 l0 -1.0547 q0 -0.078125 -0.078125 -0.078125 q0.17578125 0 0.25390625 -2.890625 l0.17578 -0.078125 l0.097656 0 l0.078125 0.35156 l0.097656 0 l0 -0.27344 q-0.09765625 0 -0.09765625 -0.078125 q0.13671875 0 0.2734375 -0.2734375 q-0.09765625 -0.5078125 -0.09765625 -0.60546875 l0.097656 0 q0.17578125 0.37109375 0.17578125 0.4296875 l0.15625 -0.078125 q0.1171875 0.52734375 0.2734375 0.52734375 q0.3515625 -0.72265625 0.3515625 -0.95703125 l0.078125 0 l0 0.42969 l0.097656 0 l0 -0.17578 l0.17578 0.078125 q0 -0.05859375 0.17578125 -0.5078125 l0.078125 0 l0 0.60547 q0.17578125 0 0.17578125 -0.4296875 l0.17578 0.078125 q0 -0.3515625 0.3515625 -0.3515625 q0.078125 0.17578125 0.078125 0.2734375 l0.097656 0 l0.078125 -0.35156 l0.097656 0 l0.17578 0.078125 q0 -0.078125 0.078125 -0.078125 l0 0.25391 l0.17578 0 l0 -0.17578 l0.17578 0.097656 l0.17578 -0.097656 q0.01953125 0.17578125 0.17578125 0.17578125 l0.17578 0 l0 -0.17578 l0.17578 0 l0 0.17578 l0.17578 0 q0 -0.17578125 0.078125 -0.17578125 l0.27344 0 l0.078125 -0.35156 l0.097656 0 l0.17578 0.80078 l0.17578 -0.097656 l0.078125 0 l0.097656 0.52734 l0.078125 0 l0 -0.52734 l0.097656 0 l0.42969 0.70313 q0.3515625 0 0.3515625 0.17578125 l0.17578 0 l-0.17578 -0.27344 l0.25391 0 l0.27344 0.97656 l0 1.1328 q0 0.1953125 -0.09765625 0.3515625 q0 0.078125 0.09765625 0.078125 l-0.097656 0.44922 q0 1.66015625 0.09765625 2.51953125 l-0.097656 0 q0 0.09765625 0.09765625 0.09765625 q-0.09765625 0.46875 -0.09765625 0.703125 q0.09765625 0.33203125 0.52734375 0.33203125 l1.4844 0 l0.17578 0.097656 l0 -0.097656 l0.17578 0.097656 q0.17578125 -0.09765625 0.25390625 -0.09765625 l0 0.097656 l0.17578 -0.097656 q0.17578125 0.09765625 0.2734375 0.09765625 l0 0.078125 l-1.8359 0 q-0.09765625 0 -0.09765625 -0.078125 q-1.03515625 0.078125 -1.03515625 0.25390625 l0.95703 0 q0.078125 0 0.078125 -0.078125 l0.17578 0.078125 q0.48828125 0 0.9765625 -0.078125 l0.15625 0.078125 l0.17578 -0.078125 q0.09765625 0 0.09765625 0.078125 l0.42969 -0.078125 l1.582 0 q0.078125 0 0.078125 -0.09765625 l0.17578 0.097656 q0.17578125 -0.09765625 0.2734375 -0.09765625 l0 0.097656 q0.078125 0 0.078125 -0.09765625 q0.17578125 0 0.17578125 0.09765625 l0.87891 -0.097656 l0.95703 0 l0 -0.17578 l-0.52734 0 l-0.17578 0.097656 l0 -0.097656 q-0.078125 0 -0.078125 0.09765625 q-0.3515625 -0.09765625 -0.703125 -0.09765625 l0 -0.078125 q3.203125 -0.17578125 4.90234375 -0.17578125 q0.078125 0 0.078125 0.078125 l0.17578 -0.078125 l0.87891 0 q0.078125 0 0.078125 0.078125 l0.17578 -0.078125 q0.60546875 0.078125 0.95703125 0.078125 l0 0.17578 l0.52734 0 l0 0.097656 l-0.17578 0 l0 0.078125 l0.17578 0 l0 0.097656 l-0.17578 0 l0 0.078125 l0.95703 0 l0 0.17578 l1.1523 0 l0 0.097656 l-0.17578 0 l0 0.17578 l0.85938 0.17578 l0 0.078125 q-0.91796875 0 -1.1328125 0.2734375 l-0.87891 0 l-0.60547 0.078125 l0 0.097656 q1.09375 0 1.30859375 0.5078125 l0.70313 0 l0 0.097656 l-0.60547 0 l0 0.078125 l0.25391 0 l-0.078125 0.17578 q0.078125 0 0.078125 0.09765625 l-0.42969 0 l0.078125 0.17578 l-0.95703 0.17578 l0 0.25391 l0.17578 0 l0 0.097656 l-0.35156 0 l0 0.15625 q0.3515625 0 0.3515625 0.2734375 q-0.17578125 0.078125 -0.25390625 0.078125 l0.078125 0.17578 l-0.25391 0 l0 0.097656 l0.42969 0.17578 l0 0.078125 l-0.25391 0 l0 0.097656 q0.4296875 0 0.5078125 0.3515625 q-0.078125 0 -0.078125 0.078125 l-0.17578 -0.078125 l-0.25391 0 q0 0.25390625 -0.2734375 0.25390625 q0 -0.078125 -0.078125 -0.078125 l0 0.15625 q0.21484375 0 0.68359375 0.09765625 l0 0.078125 l-1.0352 0 l-0.17578 0.097656 q0 -0.17578125 -0.17578125 -0.17578125 q0 0.25390625 0.17578125 0.25390625 l0.42969 -0.078125 q0 0.078125 0.09765625 0.078125 l0 -0.078125 q0.13671875 0.078125 0.4296875 0.078125 l0 0.097656 l-0.60547 0 l0 0.078125 l0.17578 0 q0 0.17578125 -1.0546875 0.3515625 l0 0.097656 l0.35156 0 l0 0.078125 q-0.5078125 0 -1.40625 0.09765625 l0 0.17578 l0.17578 -0.097656 l1.0547 0 l0 0.097656 q-0.390625 0 -0.52734375 0.078125 l0 -0.078125 l-2.0117 0.35156 q-0.15625 -0.09765625 -0.25390625 -0.09765625 l-0.17578 0.097656 l-0.17578 -0.097656 q-0.46875 0.09765625 -0.78125 0.09765625 l-0.17578 -0.097656 l0 0.097656 l-0.17578 -0.097656 q-0.09765625 0 -0.09765625 0.09765625 q-0.078125 0 -0.078125 -0.09765625 l-0.625 0.097656 l-1.3086 0 q-0.078125 0 -0.078125 0.078125 l-0.17578 -0.078125 q-0.17578125 0 -0.17578125 0.078125 q-0.09765625 0 -0.09765625 -0.078125 q-1.73828125 0.078125 -4.453125 0.078125 l-0.42969 -0.078125 q0 0.078125 -0.09765625 0.078125 l0 -0.078125 q-0.5078125 0.078125 -0.5078125 0.15625 l-0.17578 -0.078125 l-0.35156 0 q0.078125 0.15625 0.17578125 0.87890625 l-0.097656 0 q0.09765625 0.15625 0.09765625 0.25390625 q-0.09765625 0.17578125 -0.09765625 0.2734375 q0.09765625 0 0.09765625 0.078125 q-0.17578125 0.01953125 -0.17578125 0.17578125 l0.17578 0 q0 0.078125 -0.09765625 0.078125 l0.097656 0.17578 l0 0.625 q0 0.17578125 -0.17578125 0.17578125 l0.078125 0.17578 l0 2.3438 l-0.25391 0.44922 l0.17578 0 l0 -0.27344 l0.078125 0 l0 0.44922 l-0.17578 0 l0 1.8359 q0.0390625 0.17578125 0.17578125 0.17578125 q0 -0.09765625 0.09765625 -0.09765625 l0 0.27344 l-0.17578 0 l0 2.5195 q0 0.09765625 -0.09765625 0.09765625 q0.09765625 0.13671875 0.17578125 1.38671875 l-0.17578 0.097656 l0.097656 0.17578 l0 0.25391 q-0.17578125 0 -0.17578125 -0.17578125 l0 -0.52734 l0.17578 0 l0 -0.078125 q-0.2734375 0 -0.2734375 -0.25390625 l0.097656 -0.17578 q-0.09765625 0 -0.09765625 -0.09765625 l0.097656 0 q-0.09765625 -0.01953125 -0.09765625 -0.87890625 l-0.078125 0 l0 0.17578 l-0.097656 0 q0 -0.4296875 0.09765625 -0.4296875 l-0.097656 -0.42969 l0 -0.625 l-0.17578 0 l0.097656 0.625 l0 0.85938 q0 0.09765625 0.078125 0.09765625 l-0.078125 0.17578 l0 0.87891 l-0.27344 0 l0.097656 0.15625 q0 0.09765625 -0.09765625 0.52734375 q0.09765625 0 0.09765625 0.09765625 l-0.17578 0.078125 l-0.17578 -0.25391 l0 -0.17578 l0.17578 0.078125 q0 -0.1953125 0.078125 -0.3515625 l-0.15625 0 l0.078125 -0.15625 l0 -0.80078 l-0.078125 0 l0 0.87891 l-0.097656 0 l0 -0.52734 l-0.078125 0 l0 0.60547 l0.078125 0 q-0.17578125 0.33203125 -0.17578125 0.703125 l0 1.1328 q0 0.17578125 -0.17578125 0.17578125 q0 -0.17578125 -0.17578125 -0.17578125 l0 1.1523 l0.17578 0.25391 q-0.17578125 0 -0.17578125 0.25390625 z M46.744234375 11.640999999999998 l-0.078125 0 l0 -0.35156 l0.078125 0 l0 0.35156 z M47.974234375 18.809 q-0.09765625 -2.05078125 -0.09765625 -4.453125 l-0.078125 -0.44922 l0.078125 0 l-0.078125 -0.17578 l0 -0.85938 q0 -0.17578125 -0.17578125 -0.17578125 l0 0.078125 q0 0.09765625 0.078125 0.09765625 q0 0.078125 -0.078125 0.078125 l0.078125 0.87891 q0 1.42578125 -0.078125 2.44140625 l0.078125 0 l-0.078125 0.17578 q0 1.484375 0.078125 2.36328125 l0.27344 0 z M40.709034375 13.905999999999999 l-0.25391 0 l0.078125 -0.60547 l-0.078125 0 l0.078125 -0.17578 l-0.17578 -0.35156 q0.09765625 0 0.2734375 -0.078125 l0.078125 0.60547 l0 0.27344 q0 0.078125 -0.078125 0.078125 l0.078125 0.17578 l0 0.078125 z M58.717234375000004 18.281 l-0.52734 0 l0 -0.078125 l0.52734 0 l0 0.078125 z M60.299234375 18.379 q-0.37109375 -0.09765625 -1.484375 -0.09765625 l0 -0.078125 l1.4844 0 l0 0.17578 z M55.826234375 18.457 q-0.09765625 -0.078125 -0.60546875 -0.078125 l0 -0.097656 l0.70313 0 z M61.256234375 18.457 l-0.70313 0 l0 -0.078125 q0.17578125 0 0.17578125 -0.09765625 q0.13671875 0.09765625 0.52734375 0.09765625 l0 0.078125 z M52.506234375 18.984 l-1.3867 0 l0 -0.097656 q0.3515625 0 1.5625 -0.078125 q0 0.17578125 -0.17578125 0.17578125 z M53.814234375 18.887 l-0.95703 0 l0 -0.078125 l0.95703 0 l0 0.078125 z M55.826234375 19.062 q0.2734375 -0.078125 1.0546875 -0.078125 l0 -0.097656 l-1.3086 0 l0 0.097656 q0.25390625 0 0.25390625 0.078125 z M58.638234374999996 19.238 l0 -0.078125 l-0.097656 -0.17578 l0.17578 0 l0.35156 0.17578 q0 -0.17578125 0.25390625 -0.17578125 l0 -0.097656 l-1.4844 0 l0 0.17578 q0.3515625 0 0.3515625 0.17578125 l0.17578 -0.078125 q0.17578125 0.078125 0.2734375 0.078125 z M48.053234375 19.238 q0 -0.17578125 -0.17578125 -0.17578125 q-0.17578125 0.0390625 -0.17578125 0.17578125 l0.35156 0 z M59.595234375000004 19.238 l0 -0.17578 l-0.35156 0 l0 0.17578 l0.35156 0 z M57.760234374999996 23.789 l0.078125 -0.17578 l-0.17578 -0.078125 l0 0.078125 q0.09765625 0 0.09765625 0.09765625 q-0.09765625 0 -0.09765625 0.078125 l0.097656 0 z M53.736234374999995 23.867 q0.33203125 -0.078125 0.703125 -0.078125 l0 -0.078125 q-0.2734375 0 -0.2734375 -0.09765625 q-0.15625 0.078125 -0.3515625 0.09765625 q-0.078125 0 -0.078125 -0.09765625 q-0.13671875 0.09765625 -0.52734375 0.09765625 l0 0.15625 q0.15625 0 0.52734375 -0.15625 l0 0.15625 z M50.064234375 24.668 q0.87890625 -0.09765625 0.87890625 -0.17578125 q0.15625 0.078125 0.3515625 0.078125 l0 -0.17578 l-0.70313 0 l0.078125 -0.17578 l0.17578 0.097656 l0.097656 0 l0 -0.17578 l-0.17578 0.078125 l0 -0.17578 l-0.70313 0 l-0.17578 0.097656 l0 -0.17578 l2.2656 0 l0 -0.17578 l-0.15625 0.078125 q-0.1953125 0 -0.3515625 -0.078125 q0 0.078125 -0.09765625 0.078125 l0 -0.078125 l-0.17578 0.078125 l-0.70313 0 l0 -0.15625 l-0.60547 0 l0 0.078125 l0.27344 0 l0 0.078125 l-0.97656 0 l0.097656 0.17578 l0 0.097656 l-0.17578 0 q0 -0.2734375 -0.2734375 -0.2734375 l0.097656 -0.15625 l-0.70313 0 l-0.17578 0.078125 q0 -0.078125 -0.078125 -0.078125 q0 0.21484375 -0.44921875 0.25390625 l0 0.078125 q0.17578125 0 0.17578125 0.17578125 l0.17578 0 q0.17578125 0 0.17578125 -0.25390625 l0.17578 0 l-0.078125 0.17578 q0.078125 0 0.078125 0.078125 q-0.078125 0 -0.078125 0.09765625 l0.078125 0 l0.17578 -0.097656 l0 0.17578 l-0.60547 0 q-0.17578125 0.0390625 -0.17578125 0.17578125 q0.1953125 0 0.3515625 0.09765625 q0 -0.09765625 0.078125 -0.09765625 l0 0.097656 q0.1953125 -0.09765625 1.1328125 -0.17578125 l0 -0.097656 l-0.25391 0 l0 -0.078125 q0.4296875 0 0.4296875 -0.3515625 l0.27344 0 q-0.0390625 0.4296875 -0.2734375 0.4296875 l0 0.097656 q0.52734375 0.05859375 0.52734375 0.17578125 z M55.474234375 24.57 l0 -0.17578 l0.17578 0.097656 l0.44922 -0.17578 q0 0.078125 0.078125 0.078125 l0 -0.17578 q0 -0.17578125 -0.17578125 -0.17578125 l0 0.27344 l-0.25391 -0.17578 l-0.097656 0 l0 0.17578 l-0.078125 0 l0 -0.17578 l-0.097656 0 l-0.25391 0.17578 q-0.17578125 0 -0.3515625 -0.09765625 l-0.078125 0.17578 q-0.2734375 -0.078125 -0.2734375 -0.17578125 l-0.42969 0.097656 l-0.52734 0 l0 -0.097656 l0.35156 0 l0 -0.078125 q-0.25390625 0 -0.25390625 -0.17578125 l-0.17578 0 q0 0.3515625 -0.2734375 0.3515625 l0 0.17578 q0.48828125 0.078125 0.703125 0.078125 q0.29296875 0 1.484375 -0.078125 q0 0.078125 0.078125 0.078125 z M57.662234375 24.141 l0 -0.17578 q-0.078125 0 -0.078125 0.078125 q-0.17578125 -0.078125 -0.3515625 -0.078125 l0 0.17578 l0.42969 0 z M49.185234375 24.219 l-0.078125 0 q0 -0.078125 -0.09765625 -0.25390625 l0.17578 0 l0 0.25391 z M53.033234375 24.57 l0 -0.25391 l-0.17578 0.078125 l-0.60547 0 l0 -0.35156 l-0.097656 0 l0 0.17578 l-0.25391 -0.17578 l0 0.52734 q0.17578125 0 0.3515625 -0.078125 l0 0.078125 l0.17578 -0.078125 l0.25391 0 l0.17578 0.078125 q0 -0.078125 0.09765625 -0.078125 q0 0.078125 0.078125 0.078125 z M53.306234375 24.219 l0 -0.17578 q-0.3515625 0 -0.3515625 0.17578125 l0.35156 0 z M58.638234374999996 24.492 q0.3515625 0 0.859375 -0.17578125 q0 0.078125 0.09765625 0.078125 l0 -0.078125 q0.078125 0 0.078125 0.078125 l0.44922 -0.078125 l0.50781 0 l0 -0.17578 l-0.25391 0 q-0.078125 0 -0.078125 0.078125 q-0.1171875 -0.078125 -0.52734375 -0.078125 l0 0.078125 q-0.17578125 0 -0.17578125 -0.078125 q-0.52734375 0.078125 -0.52734375 0.17578125 q-0.703125 -0.09765625 -0.703125 -0.17578125 q-1.66015625 0.25390625 -1.9140625 0.25390625 l0 -0.078125 l0.52734 -0.097656 l0 -0.078125 q-0.625 0 -0.703125 -0.09765625 l0 0.44922 l1.4844 0 l0.52734 -0.097656 q0.15625 0.09765625 0.3515625 0.09765625 z M40.982434375 24.395 l0 -0.078125 l-0.35156 -0.097656 q0 0.17578125 0.3515625 0.17578125 z M50.162234375 24.395 l-0.35156 0 l0 -0.17578 l0.17578 0.097656 q0.01953125 -0.17578125 0.17578125 -0.17578125 l0 0.25391 z M50.494234375000005 24.395 l-0.25391 0 q0 -0.21484375 0.3515625 -0.25390625 l0.078125 0 l0 0.078125 q-0.17578125 0 -0.17578125 0.17578125 z M51.822234375 24.57 l0 -0.078125 l-0.097656 -0.17578 q0.09765625 0 0.09765625 -0.09765625 l-0.27344 0 l0 0.17578 q0.0390625 0.17578125 0.2734375 0.17578125 z M61.334234375 24.492 l0 -0.097656 l-0.35156 0 l0 0.097656 l0.35156 0 z M40.884734375 25.703 l-0.35156 0 l0 -0.078125 l0.35156 0 l0 0.078125 z M47.447234375 26.406 l0 -0.60547 l-0.17578 0 l0.078125 0.60547 l0.097656 0 z M48.404234375 26.503999999999998 l-0.078125 0 q0 -0.2734375 -0.09765625 -0.2734375 q0.09765625 -0.15625 0.09765625 -0.25390625 l0.17578 0 z M47.447234375 33.75 q0 -0.4296875 0.17578125 -0.4296875 l-0.17578 -0.27344 l0 -0.17578 l0.17578 0.097656 l0 -0.17578 l-0.17578 0 l0 -0.17578 l0.17578 0.078125 l0 -0.17578 l-0.17578 0 l0 -0.078125 l0.17578 0 l-0.097656 -0.42969 l0.097656 0 l-0.097656 -0.17578 q0 -0.64453125 0.09765625 -0.80078125 q-0.09765625 -0.13671875 -0.09765625 -0.60546875 q0.0390625 -0.17578125 0.17578125 -0.17578125 l0 0.17578 l0.097656 0 l0 -0.35156 l-0.17578 0.097656 l-0.097656 -0.17578 l0.27344 0 l0 -0.097656 l-0.27344 0 q0 -0.25390625 0.09765625 -0.25390625 l-0.097656 -0.44922 q0 -0.2734375 0.09765625 -0.4296875 q-0.09765625 -0.17578125 -0.09765625 -0.25390625 q0.09765625 -0.78125 0.09765625 -0.9765625 q-0.09765625 -0.25390625 -0.17578125 -0.25390625 l0.078125 -0.17578 q-0.078125 -0.17578125 -0.078125 -0.25390625 q0.078125 0 0.078125 -0.09765625 l-0.17578 -0.078125 l-0.078125 0 l0 0.68359 q0 0.09765625 -0.09765625 0.09765625 l0.097656 0.17578 l0 1.4844 q-0.2734375 0 -0.2734375 0.078125 l0 0.70313 l0.097656 0 l0 -0.70313 l0.078125 0 q0 0.3515625 0.09765625 0.3515625 l-0.097656 0.17578 l0 0.52734 l-0.17578 0 l0 2.6172 q0.0390625 0.17578125 0.17578125 0.17578125 q0 -0.546875 -0.078125 -1.5625 q0.17578125 0.01953125 0.17578125 0.17578125 q0 0.078125 -0.09765625 0.078125 l0.097656 0.17578 l0 1.8359 l0.17578 0 z M46.842234375000004 31.0352 l0 -1.3086 l-0.097656 0 l0 1.3086 l0.097656 0 z M47.349234375 34.4531 l0 -0.35156 l-0.078125 0 l0 0.35156 l0.078125 0 z M48.053234375 34.3555 l-0.078125 0 l0 -0.33203 l0.078125 0 l0 0.33203 z M41.158234375 35.5859 l-0.097656 0 l0 -0.35156 l0.097656 0 l0 0.35156 z M41.236334375 36.1914 l-0.078125 0 l0 -0.50781 l0.078125 0 l0 0.50781 z M46.842234375000004 36.1914 q0 -0.1953125 0.078125 -0.3515625 q-0.09765625 0 -0.25390625 -0.078125 l0 0.078125 l0.078125 0 q-0.078125 0.17578125 -0.078125 0.3515625 l0.17578 0 z M47.095234375000004 36.3672 l0 -0.42969 l-0.097656 0 l0 0.42969 l0.097656 0 z M41.334034375 36.9922 l-0.097656 0 l0 -0.44922 l0.097656 0 l0 0.44922 z M41.412134375 38.0273 l-0.078125 0 l0 -0.60547 l0.078125 0 l0 0.60547 z M41.685534375 38.7305 l-0.097656 0 l-0.078125 -0.35156 l0.17578 -0.078125 l0 0.42969 z M47.095234375000004 39.00391 l-0.097656 0 l0 -0.625 l0.097656 0 l0 0.625 z"></path></g><g id="SvgjsG15191" featurekey="sloganFeature-0" transform="matrix(1.6433726144319973,0,0,1.6433726144319973,75.48872855042865,361.09160938461525)" fill="#000000"><path d="M0.4 7.48 c-0.06 -0.26 -0.08 -0.5 -0.08 -0.74 c0 -0.12 -0.02 -0.26 0 -0.4 c0.04 -0.26 0.08 -0.32 0.36 -0.34 c0.08 -0.02 0.16 -0.02 0.22 0 c0.38 0 0.76 -0.04 1.12 -0.16 c0.04 0 0.08 -0.02 0.1 -0.02 c0.24 -0.02 0.46 -0.04 0.7 -0.06 c0.1 0 0.2 0 0.28 0.02 c0.16 0 0.3 0.02 0.44 0.04 c0.06 0.02 0.12 0.02 0.18 0.04 c0.22 0.06 0.44 0.12 0.68 0.1 c0.12 0 0.24 0.02 0.36 0.08 c0.08 0.04 0.18 0.08 0.26 0.1 c0.08 0.04 0.16 0.06 0.24 0.1 c0.24 0.14 0.46 0.3 0.7 0.46 c0.06 0.04 0.1 0.1 0.14 0.16 c0.16 0.18 0.32 0.38 0.5 0.54 c0.1 0.08 0.16 0.18 0.22 0.28 c0.16 0.22 0.3 0.46 0.38 0.74 c0.06 0.18 0.12 0.36 0.16 0.56 c0 0.1 0.04 0.18 0.08 0.28 c0.02 0.06 0.04 0.12 0.04 0.18 c0.02 0.36 0.08 0.72 0.14 1.08 l0 0.04 c-0.02 0.38 0.08 0.76 0.08 1.16 c0.02 0.36 0.04 0.72 0.1 1.08 c0.02 0.12 0.06 0.24 0.08 0.36 c0 0.08 0.02 0.16 0.02 0.26 c0.02 0.24 0.04 0.48 0.04 0.72 c0 0.26 -0.02 0.52 -0.02 0.76 c0 0.26 -0.04 0.52 -0.08 0.76 c-0.04 0.3 -0.04 0.58 -0.12 0.88 l0 0.18 c0 0.12 -0.02 0.24 -0.08 0.34 c-0.04 0.12 -0.08 0.24 -0.1 0.36 c0 0.06 -0.02 0.14 -0.06 0.2 c-0.06 0.14 -0.08 0.28 -0.08 0.44 c0 0.1 -0.04 0.18 -0.1 0.26 c-0.08 0.1 -0.14 0.22 -0.18 0.36 c-0.04 0.12 -0.14 0.2 -0.22 0.28 c0 0.02 -0.02 0.04 -0.06 0.06 c-0.14 0.04 -0.26 0.14 -0.38 0.26 c-0.02 0.02 -0.08 0.04 -0.14 0.04 c-0.12 0 -0.22 0.02 -0.34 0.06 c-0.32 0.04 -0.64 0.14 -0.98 0.14 c-0.3 0.02 -0.6 0.02 -0.9 0 c-0.54 -0.02 -1.06 0 -1.58 0 c-0.06 0 -0.12 0 -0.18 0.02 l-0.1 0 c-0.28 0 -0.54 -0.02 -0.8 -0.04 c-0.04 -0.02 -0.1 -0.04 -0.14 -0.06 c-0.08 -0.12 -0.22 -0.14 -0.34 -0.2 c-0.04 -0.02 -0.08 -0.06 -0.08 -0.12 c0.02 -0.24 0 -0.5 0.1 -0.74 c0.02 -0.08 0.06 -0.16 0.08 -0.24 c0.06 -0.14 0.16 -0.18 0.3 -0.2 c0.1 -0.02 0.22 0 0.32 0.04 c0.04 0 0.1 -0.04 0.1 -0.08 c0.02 -0.12 0.02 -0.22 0.02 -0.34 l0 -3.74 l0 -4.28 l0 -1.74 c0 -0.08 0 -0.16 -0.02 -0.22 c0 -0.04 -0.04 -0.06 -0.08 -0.08 c-0.16 -0.02 -0.32 -0.02 -0.46 0.02 c-0.18 0.06 -0.36 0.06 -0.54 0 c-0.08 -0.04 -0.2 -0.04 -0.3 -0.04 z M3.34 7.4 c0 0.04 -0.02 0.06 -0.02 0.1 l0 0.34 l0 9.68 l0 0.26 l0 0.12 c0.02 0.04 0.06 0.08 0.1 0.08 l0.22 0 c0.32 0.02 0.62 0 0.92 0.02 c0.24 0 0.46 -0.04 0.68 -0.08 c0.14 -0.02 0.28 -0.08 0.42 -0.12 c0.08 -0.04 0.12 -0.08 0.12 -0.16 c0.02 -0.16 0.06 -0.3 0.12 -0.42 c0.06 -0.14 0.08 -0.28 0.12 -0.42 c0.02 -0.06 0.04 -0.1 0.06 -0.14 c0.06 -0.1 0.08 -0.2 0.1 -0.3 c0.04 -0.24 0.06 -0.46 0.1 -0.7 c0.1 -0.6 0.1 -1.2 0.1 -1.8 c0 -0.2 -0.02 -0.4 -0.08 -0.58 c-0.04 -0.08 -0.04 -0.16 -0.06 -0.24 c-0.02 -0.2 -0.02 -0.4 -0.06 -0.58 c-0.02 -0.08 -0.02 -0.18 -0.02 -0.26 c0.02 -0.3 0 -0.58 -0.04 -0.88 c-0.02 -0.12 -0.02 -0.26 -0.04 -0.4 c0 -0.06 0 -0.14 -0.02 -0.2 c-0.04 -0.34 -0.1 -0.68 -0.16 -1.02 c-0.04 -0.32 -0.16 -0.6 -0.26 -0.9 c-0.02 -0.1 -0.08 -0.18 -0.14 -0.26 c-0.14 -0.14 -0.28 -0.3 -0.4 -0.46 c-0.12 -0.14 -0.24 -0.24 -0.4 -0.32 c-0.2 -0.14 -0.4 -0.2 -0.64 -0.26 c-0.1 -0.02 -0.2 -0.04 -0.32 -0.06 s-0.26 -0.06 -0.4 -0.04 z M11.396999999999998 19.86 l-0.18 -0.06 s-0.12 -0.02 -0.16 0 s-0.1 0.02 -0.14 0.02 c-0.3 -0.04 -0.66 -0.12 -0.9 -0.4 c-0.02 0 -0.04 -0.02 -0.06 -0.04 c-0.32 -0.2 -0.52 -0.5 -0.8 -0.76 c-0.1 -0.08 -0.16 -0.18 -0.22 -0.28 c-0.04 -0.08 -0.08 -0.18 -0.1 -0.26 c-0.06 -0.14 -0.1 -0.28 -0.1 -0.42 c0.02 -0.1 -0.02 -0.2 -0.04 -0.3 c-0.04 -0.14 -0.06 -0.28 -0.1 -0.42 c-0.1 -0.34 -0.14 -0.68 -0.22 -1.02 c-0.04 -0.18 -0.04 -0.36 -0.04 -0.54 c0 -0.62 -0.02 -1.24 -0.02 -1.86 s0.02 -1.24 0.02 -1.88 l0 -0.9 c0.02 -0.14 0 -0.28 -0.08 -0.4 c-0.02 -0.04 -0.02 -0.1 -0.02 -0.16 c0.02 -0.04 0.02 -0.06 0.02 -0.1 c0.04 -0.22 0.04 -0.44 -0.02 -0.66 c-0.02 -0.1 -0.02 -0.2 0 -0.3 c0.04 -0.18 0.06 -0.34 0 -0.5 l0 -0.14 c0.02 -0.06 0.02 -0.1 0.04 -0.16 c0.06 -0.14 0.08 -0.3 0.08 -0.46 c0 -0.12 0.02 -0.24 0.08 -0.36 c0.1 -0.24 0.26 -0.44 0.36 -0.68 c0.02 -0.04 0.04 -0.08 0.08 -0.1 c0.2 -0.22 0.4 -0.44 0.64 -0.6 c0.16 -0.1 0.3 -0.22 0.46 -0.34 c0.08 -0.08 0.18 -0.12 0.3 -0.14 c0.16 -0.04 0.3 -0.06 0.46 -0.1 c0.08 -0.04 0.16 -0.04 0.22 -0.04 c0.08 -0.02 0.16 -0.02 0.24 -0.04 c0.06 -0.02 0.14 -0.02 0.2 0.02 c0.02 0.02 0.06 0.02 0.08 0.04 c0.1 0.06 0.22 0.08 0.34 0.08 l0.2 0 s0.14 0.02 0.2 0.08 c0.02 0.02 0.04 0.04 0.06 0.04 c0.06 0.08 0.14 0.12 0.22 0.14 c0.22 0.08 0.36 0.22 0.5 0.4 c0.08 0.12 0.18 0.26 0.3 0.36 c0.04 0.04 0.08 0.1 0.1 0.16 c0.06 0.14 0.12 0.26 0.16 0.42 c0.02 0.1 0.08 0.2 0.12 0.3 c0.06 0.12 0.1 0.26 0.12 0.38 c0 0.18 0.04 0.36 0.08 0.54 c0.04 0.16 0.06 0.34 0.06 0.5 c-0.02 0.16 0 0.32 0.06 0.46 c0.02 0.06 0.02 0.12 0.02 0.16 c0.02 0.1 0.02 0.2 -0.04 0.26 c-0.04 0.06 -0.04 0.14 -0.04 0.2 l0 0.36 l0 6.62 c0.02 0.3 -0.06 0.6 -0.18 0.88 l-0.42 0.96 c-0.04 0.06 -0.08 0.1 -0.12 0.16 c-0.18 0.26 -0.46 0.42 -0.7 0.6 c-0.1 0.08 -0.2 0.12 -0.32 0.14 c-0.06 0 -0.14 0.02 -0.2 0.02 c-0.2 0 -0.4 0.06 -0.6 0.12 z M9.896999999999998 13.26 l0 2.24 l0 0.34 c0 0.06 0 0.12 0.02 0.16 c0.08 0.14 0.1 0.28 0.12 0.42 c0.02 0.06 0.04 0.14 0.06 0.2 c0.08 0.2 0.16 0.38 0.24 0.58 c0.04 0.08 0.08 0.18 0.12 0.24 c0.14 0.16 0.28 0.32 0.4 0.46 c0.16 0.18 0.38 0.24 0.62 0.22 c0.18 -0.02 0.32 -0.08 0.4 -0.26 c0.02 -0.04 0.02 -0.08 0.04 -0.12 c0 -0.18 0.06 -0.36 0.12 -0.54 c0.04 -0.14 0.08 -0.28 0.08 -0.42 c0 -0.1 0.04 -0.2 0.06 -0.3 c0.12 -0.28 0.16 -0.58 0.18 -0.88 c0 -0.22 0 -0.42 0.02 -0.64 c0 -0.08 0 -0.16 -0.04 -0.24 c-0.02 -0.04 -0.02 -0.1 0 -0.16 c0.06 -0.26 0.04 -0.52 0.02 -0.78 c-0.04 -0.38 -0.02 -0.78 -0.02 -1.16 c0 -0.74 0.02 -1.46 0.02 -2.2 c0.02 -0.12 0.02 -0.22 -0.02 -0.34 c-0.02 -0.04 -0.02 -0.1 -0.02 -0.16 c-0.02 -0.28 -0.06 -0.56 -0.12 -0.84 s-0.12 -0.56 -0.12 -0.86 c0 -0.14 -0.06 -0.28 -0.12 -0.42 c-0.04 -0.08 -0.1 -0.14 -0.14 -0.22 c-0.04 -0.1 -0.12 -0.16 -0.22 -0.2 c-0.04 -0.04 -0.1 -0.06 -0.14 -0.08 c-0.3 -0.1 -0.56 -0.08 -0.8 0.12 c-0.14 0.12 -0.26 0.24 -0.38 0.38 c-0.08 0.06 -0.12 0.16 -0.14 0.26 c-0.04 0.2 -0.08 0.42 -0.12 0.62 l0 0.1 c0 0.1 -0.02 0.2 0 0.3 c0 0.12 -0.08 0.22 -0.1 0.34 l0 0.02 c-0.02 0.26 -0.06 0.52 -0.08 0.78 c-0.02 0.18 -0.02 0.38 0.02 0.56 c0.02 0.06 0.02 0.12 0.02 0.18 c0 0.78 -0.02 1.58 0.02 2.3 z M19.811 7.279999999999999 c-0.54 -0.1 -1.1 -0.1 -1.66 -0.08 c-0.22 0.02 -0.28 -0.02 -0.38 -0.22 c-0.1 -0.22 -0.12 -0.46 -0.12 -0.72 c0 -0.28 0.04 -0.34 0.36 -0.46 c0.18 -0.08 0.36 -0.08 0.56 -0.1 c0.42 -0.02 0.84 0 1.26 0.02 l0.62 0 c0.28 -0.02 0.58 -0.02 0.86 -0.02 c0.04 0 0.1 0 0.14 0.02 c0.14 0.06 0.26 0.06 0.4 0.06 l1.08 0 c0.08 0 0.18 -0.02 0.26 0.02 c0 0.02 0.02 0.04 0.04 0.06 c0.02 0.22 0.06 0.42 0.08 0.64 c0 0.1 -0.02 0.2 0 0.28 c0 0.14 -0.04 0.28 -0.08 0.4 c-0.02 0.08 -0.08 0.14 -0.16 0.14 c-0.2 0.02 -0.42 0.02 -0.62 0.02 l-0.82 0 c-0.12 0 -0.18 0.06 -0.18 0.18 l0 0.3 c0 0.2 0.02 0.42 0.02 0.62 l0 3.32 c0 0.78 0.02 1.58 0 2.36 l0 3.38 c0 0.12 0 0.22 0.02 0.34 c0 0.02 0.02 0.04 0.04 0.04 c0.06 0.02 0.12 0.04 0.18 0.04 c0.28 0 0.56 0.08 0.84 0.02 l0.78 0.06 c0.04 0.02 0.08 0.02 0.12 0.02 l0.18 0.12 c0.04 0.04 0.06 0.1 0.08 0.16 c0.08 0.22 0.06 0.44 0.02 0.66 c0 0.02 -0.02 0.04 -0.02 0.06 c-0.1 0.38 -0.14 0.38 -0.48 0.34 c-0.02 0 -0.06 -0.02 -0.08 -0.02 c-0.32 0 -0.64 -0.02 -0.96 -0.04 c-0.22 0 -0.42 0.02 -0.62 0.04 c-0.12 0.02 -0.24 0.02 -0.32 0.12 c-0.2 0.06 -0.4 0.12 -0.6 0.14 c-0.18 0.02 -0.34 -0.06 -0.5 -0.14 c-0.04 -0.02 -0.08 -0.06 -0.12 -0.08 c-0.06 -0.02 -0.12 -0.04 -0.18 -0.04 c-0.1 0 -0.2 0.02 -0.3 0 c-0.1 0 -0.22 0 -0.32 0.04 c-0.08 0.04 -0.16 0.06 -0.26 0.06 c-0.12 0 -0.26 0.02 -0.4 0.06 c-0.24 0.06 -0.48 0.02 -0.72 -0.06 c-0.08 -0.06 -0.16 -0.14 -0.22 -0.2 c-0.02 -0.02 -0.02 -0.04 -0.02 -0.06 c0 -0.1 0.02 -0.18 0.02 -0.26 c0.02 -0.12 0.04 -0.24 0.02 -0.38 c-0.02 -0.1 0 -0.22 0.04 -0.32 c0.02 -0.12 0.12 -0.22 0.26 -0.24 c0.24 -0.02 0.5 -0.04 0.74 -0.06 l0.36 -0.06 s0.24 -0.04 0.36 0 c0.1 0.02 0.2 0 0.3 -0.02 c0.16 -0.02 0.18 -0.04 0.18 -0.22 l0 -0.88 c-0.02 -0.46 -0.02 -0.9 -0.02 -1.34 l0 -3.34 c0.02 -0.98 0.02 -1.96 0.04 -2.94 c0 -0.48 0 -0.96 0.04 -1.44 l0 -0.12 c0.02 -0.12 -0.04 -0.2 -0.14 -0.28 z M27.608 13.2 c0.02 -1.48 0.02 -2.96 0.02 -4.44 c0 -0.26 0.02 -0.54 0.04 -0.8 c0 -0.14 -0.02 -0.28 -0.02 -0.4 c0 -0.02 -0.02 -0.04 -0.04 -0.04 c-0.08 -0.02 -0.16 -0.02 -0.22 -0.02 l-2.22 0 l-0.36 0 c-0.06 0 -0.12 -0.02 -0.16 -0.04 c-0.04 0 -0.08 -0.04 -0.1 -0.08 c0 -0.08 -0.02 -0.14 -0.04 -0.22 c-0.12 -0.34 -0.12 -0.68 -0.08 -1.04 c0.02 -0.08 0.06 -0.16 0.08 -0.24 c0.02 -0.04 0.06 -0.08 0.1 -0.08 c0.04 -0.02 0.08 -0.02 0.12 -0.02 l0.26 0 l6.3 0 l0.5 0 c0.06 0 0.1 0 0.16 0.02 c0.06 0 0.1 0.02 0.12 0.08 c0.1 0.48 0.14 0.96 0.02 1.42 c-0.04 0.1 -0.1 0.16 -0.18 0.18 c-0.12 0 -0.22 0.02 -0.32 0.02 l-1.94 0 l-0.3 0 c-0.04 0.02 -0.08 0.06 -0.08 0.1 l0 0.12 c0.04 0.2 0.02 0.4 0.02 0.58 l0 9.54 c0 0.2 -0.02 0.4 -0.02 0.6 l0 0.54 l0 0.34 c-0.02 0.06 -0.06 0.12 -0.12 0.14 c-0.3 0.04 -0.6 0.08 -0.92 0.08 c-0.14 -0.02 -0.28 -0.04 -0.4 -0.08 c-0.08 -0.02 -0.12 -0.08 -0.12 -0.16 c-0.02 -0.22 -0.04 -0.44 -0.04 -0.68 c-0.04 -0.74 -0.04 -1.48 -0.04 -2.22 l0 -1.34 l0 -1 l0 -0.86 l-0.02 0 z M40.442 5 l0.3 -0.12 c0.24 -0.1 0.5 -0.08 0.74 0 c0.06 0.02 0.12 0.06 0.12 0.12 c0.02 0.14 0.04 0.28 0.06 0.4 c0.04 0.3 0 0.6 0.06 0.88 c0.02 0.08 0 0.18 0 0.26 c0 0.6 0 1.2 0.06 1.8 c0.04 0.64 0.04 1.28 0.04 1.92 c0 0.14 0.02 0.28 0.04 0.4 l0 0.34 l0 0.84 c0 0.04 0.02 0.08 0.02 0.12 s0.06 0.08 0.1 0.06 c0.06 0 0.12 -0.02 0.18 -0.04 c0.14 -0.06 0.28 -0.1 0.42 -0.16 c0.06 -0.02 0.14 -0.04 0.2 -0.04 c0.18 0 0.32 -0.04 0.48 -0.08 c0.22 -0.06 0.44 -0.06 0.66 -0.06 c0.04 0 0.1 0.02 0.14 0.04 s0.1 0.06 0.1 0.1 c0.1 0.34 0.18 0.7 0.16 1.06 c0 0.08 0 0.16 -0.02 0.24 s-0.06 0.12 -0.12 0.14 c-0.1 0.02 -0.18 0.06 -0.28 0.06 c-0.32 0 -0.62 0.08 -0.9 0.16 c-0.34 0.08 -0.66 0.2 -1 0.3 c-0.08 0.02 -0.1 0.08 -0.1 0.16 c0 0.4 -0.04 0.8 0 1.18 c0.02 0.1 0.02 0.2 0.02 0.3 l0 3.32 c0 0.52 -0.04 1.06 -0.06 1.58 c0 0.08 -0.06 0.14 -0.14 0.14 c-0.12 0 -0.24 0.02 -0.36 0.04 c-0.32 0.04 -0.66 0.06 -0.98 -0.02 c-0.12 -0.04 -0.18 -0.1 -0.18 -0.2 c-0.04 -0.18 -0.06 -0.38 -0.06 -0.56 c-0.04 -1.6 -0.02 -3.2 -0.02 -4.8 c0 -0.12 0.02 -0.24 -0.04 -0.36 c-0.04 0 -0.1 0 -0.14 0.02 c-0.34 0.12 -0.66 0.24 -1 0.36 c-0.1 0.04 -0.14 0.1 -0.14 0.2 l0 0.32 l0 3.1 c0 0.14 0 0.28 -0.02 0.4 c0 0.1 -0.04 0.14 -0.14 0.16 c-0.28 0.04 -0.58 0.08 -0.88 0.08 c-0.12 0 -0.24 -0.02 -0.36 -0.06 c-0.02 0 -0.04 0 -0.06 -0.02 c-0.1 -0.04 -0.16 -0.1 -0.16 -0.22 c-0.02 -0.2 -0.02 -0.42 -0.02 -0.62 c-0.02 -0.82 -0.02 -1.62 -0.02 -2.44 l0 -0.32 c0 -0.18 -0.02 -0.2 -0.2 -0.2 c-0.08 -0.02 -0.18 -0.02 -0.28 -0.04 c-0.06 0 -0.1 -0.04 -0.12 -0.08 c-0.06 -0.2 -0.12 -0.4 -0.1 -0.62 c0 -0.16 0 -0.34 0.04 -0.5 c0.04 -0.1 0.08 -0.18 0.2 -0.2 c0.14 -0.06 0.3 -0.1 0.46 -0.14 c0.02 -0.06 0.02 -0.12 0.02 -0.18 c0.02 -0.52 0.02 -1.02 0.04 -1.54 c0 -0.3 0 -0.6 0.02 -0.88 c0.04 -0.3 0.02 -0.6 0.04 -0.88 c0.02 -0.52 0.02 -1.02 0.04 -1.52 c0.02 -0.36 0.02 -0.72 0.04 -1.06 l0.06 -0.78 c0 -0.08 0.02 -0.16 0.04 -0.26 l0.12 -0.54 c0.02 -0.14 0.18 -0.28 0.32 -0.3 l0.16 0 c0.28 0 0.32 0.08 0.34 0.28 c0.02 0.06 0.02 0.1 0.04 0.14 c0.12 0.44 0.16 0.88 0.18 1.32 c0.02 0.56 0.06 1.12 0.06 1.68 c0 0.06 -0.02 0.1 0 0.16 c0.06 0.54 0.06 1.08 0.06 1.62 c0 0.28 0.02 0.56 0.02 0.84 l0 0.14 c0.06 0.34 0.04 0.68 0.04 1 c0 0.08 0.02 0.14 0.02 0.22 c0 0.02 0.04 0.04 0.06 0.04 l0.06 0 l1.08 -0.42 c0.08 -0.04 0.14 -0.08 0.14 -0.18 c0.02 -0.44 0.02 -0.86 0.04 -1.3 c0 -0.62 0 -1.24 0.02 -1.88 c0 -0.32 0.04 -0.66 0.06 -0.98 c0 -0.16 0 -0.3 0.02 -0.44 c0 -0.6 0.02 -1.18 0.04 -1.78 c0.02 -0.32 0.06 -0.66 0.08 -0.98 c0 -0.08 0.02 -0.16 0.04 -0.24 z M47.379 19.86 l-0.18 -0.06 s-0.12 -0.02 -0.16 0 s-0.1 0.02 -0.14 0.02 c-0.3 -0.04 -0.66 -0.12 -0.9 -0.4 c-0.02 0 -0.04 -0.02 -0.06 -0.04 c-0.32 -0.2 -0.52 -0.5 -0.8 -0.76 c-0.1 -0.08 -0.16 -0.18 -0.22 -0.28 c-0.04 -0.08 -0.08 -0.18 -0.1 -0.26 c-0.06 -0.14 -0.1 -0.28 -0.1 -0.42 c0.02 -0.1 -0.02 -0.2 -0.04 -0.3 c-0.04 -0.14 -0.06 -0.28 -0.1 -0.42 c-0.1 -0.34 -0.14 -0.68 -0.22 -1.02 c-0.04 -0.18 -0.04 -0.36 -0.04 -0.54 c0 -0.62 -0.02 -1.24 -0.02 -1.86 s0.02 -1.24 0.02 -1.88 l0 -0.9 c0.02 -0.14 0 -0.28 -0.08 -0.4 c-0.02 -0.04 -0.02 -0.1 -0.02 -0.16 c0.02 -0.04 0.02 -0.06 0.02 -0.1 c0.04 -0.22 0.04 -0.44 -0.02 -0.66 c-0.02 -0.1 -0.02 -0.2 0 -0.3 c0.04 -0.18 0.06 -0.34 0 -0.5 l0 -0.14 c0.02 -0.06 0.02 -0.1 0.04 -0.16 c0.06 -0.14 0.08 -0.3 0.08 -0.46 c0 -0.12 0.02 -0.24 0.08 -0.36 c0.1 -0.24 0.26 -0.44 0.36 -0.68 c0.02 -0.04 0.04 -0.08 0.08 -0.1 c0.2 -0.22 0.4 -0.44 0.64 -0.6 c0.16 -0.1 0.3 -0.22 0.46 -0.34 c0.08 -0.08 0.18 -0.12 0.3 -0.14 c0.16 -0.04 0.3 -0.06 0.46 -0.1 c0.08 -0.04 0.16 -0.04 0.22 -0.04 c0.08 -0.02 0.16 -0.02 0.24 -0.04 c0.06 -0.02 0.14 -0.02 0.2 0.02 c0.02 0.02 0.06 0.02 0.08 0.04 c0.1 0.06 0.22 0.08 0.34 0.08 l0.2 0 s0.14 0.02 0.2 0.08 c0.02 0.02 0.04 0.04 0.06 0.04 c0.06 0.08 0.14 0.12 0.22 0.14 c0.22 0.08 0.36 0.22 0.5 0.4 c0.08 0.12 0.18 0.26 0.3 0.36 c0.04 0.04 0.08 0.1 0.1 0.16 c0.06 0.14 0.12 0.26 0.16 0.42 c0.02 0.1 0.08 0.2 0.12 0.3 c0.06 0.12 0.1 0.26 0.12 0.38 c0 0.18 0.04 0.36 0.08 0.54 c0.04 0.16 0.06 0.34 0.06 0.5 c-0.02 0.16 0 0.32 0.06 0.46 c0.02 0.06 0.02 0.12 0.02 0.16 c0.02 0.1 0.02 0.2 -0.04 0.26 c-0.04 0.06 -0.04 0.14 -0.04 0.2 l0 0.36 l0 6.62 c0.02 0.3 -0.06 0.6 -0.18 0.88 l-0.42 0.96 c-0.04 0.06 -0.08 0.1 -0.12 0.16 c-0.18 0.26 -0.46 0.42 -0.7 0.6 c-0.1 0.08 -0.2 0.12 -0.32 0.14 c-0.06 0 -0.14 0.02 -0.2 0.02 c-0.2 0 -0.4 0.06 -0.6 0.12 z M45.879 13.26 l0 2.24 l0 0.34 c0 0.06 0 0.12 0.02 0.16 c0.08 0.14 0.1 0.28 0.12 0.42 c0.02 0.06 0.04 0.14 0.06 0.2 c0.08 0.2 0.16 0.38 0.24 0.58 c0.04 0.08 0.08 0.18 0.12 0.24 c0.14 0.16 0.28 0.32 0.4 0.46 c0.16 0.18 0.38 0.24 0.62 0.22 c0.18 -0.02 0.32 -0.08 0.4 -0.26 c0.02 -0.04 0.02 -0.08 0.04 -0.12 c0 -0.18 0.06 -0.36 0.12 -0.54 c0.04 -0.14 0.08 -0.28 0.08 -0.42 c0 -0.1 0.04 -0.2 0.06 -0.3 c0.12 -0.28 0.16 -0.58 0.18 -0.88 c0 -0.22 0 -0.42 0.02 -0.64 c0 -0.08 0 -0.16 -0.04 -0.24 c-0.02 -0.04 -0.02 -0.1 0 -0.16 c0.06 -0.26 0.04 -0.52 0.02 -0.78 c-0.04 -0.38 -0.02 -0.78 -0.02 -1.16 c0 -0.74 0.02 -1.46 0.02 -2.2 c0.02 -0.12 0.02 -0.22 -0.02 -0.34 c-0.02 -0.04 -0.02 -0.1 -0.02 -0.16 c-0.02 -0.28 -0.06 -0.56 -0.12 -0.84 s-0.12 -0.56 -0.12 -0.86 c0 -0.14 -0.06 -0.28 -0.12 -0.42 c-0.04 -0.08 -0.1 -0.14 -0.14 -0.22 c-0.04 -0.1 -0.12 -0.16 -0.22 -0.2 c-0.04 -0.04 -0.1 -0.06 -0.14 -0.08 c-0.3 -0.1 -0.56 -0.08 -0.8 0.12 c-0.14 0.12 -0.26 0.24 -0.38 0.38 c-0.08 0.06 -0.12 0.16 -0.14 0.26 c-0.04 0.2 -0.08 0.42 -0.12 0.62 l0 0.1 c0 0.1 -0.02 0.2 0 0.3 c0 0.12 -0.08 0.22 -0.1 0.34 l0 0.02 c-0.02 0.26 -0.06 0.52 -0.08 0.78 c-0.02 0.18 -0.02 0.38 0.02 0.56 c0.02 0.06 0.02 0.12 0.02 0.18 c0 0.78 -0.02 1.58 0.02 2.3 z M50.995999999999995 5.74 c0.3 -0.14 0.6 -0.2 0.92 -0.2 c0.08 0 0.18 0 0.28 0.02 c0.08 0.02 0.12 0.06 0.14 0.14 c0.04 0.08 0.06 0.14 0.08 0.22 c0.04 0.18 0.06 0.36 0.1 0.54 c0.02 0.06 0.04 0.12 0.06 0.2 c0.04 0.06 0.08 0.12 0.1 0.18 c0.08 0.34 0.18 0.66 0.26 1 c0.06 0.2 0.12 0.4 0.22 0.6 c0.14 0.28 0.28 0.56 0.42 0.86 c0.12 0.26 0.26 0.52 0.38 0.8 c0.16 0.32 0.3 0.66 0.46 1 c0.06 0.14 0.16 0.28 0.24 0.44 c0.26 0.46 0.46 0.94 0.6 1.46 c0.02 0.1 0.06 0.2 0.1 0.3 c0.22 0.52 0.44 1.02 0.66 1.52 c0.08 0.16 0.16 0.3 0.26 0.44 c0.12 0.16 0.24 0.34 0.34 0.52 c0.06 0.12 0.14 0.2 0.2 0.3 c0.02 0.02 0.04 0.02 0.06 0.04 c0.02 0 0.06 -0.04 0.06 -0.08 l0 -0.36 l0 -9.86 l0 -0.36 c0 -0.04 0.02 -0.08 0.04 -0.12 c0.38 -0.1 0.76 -0.1 1.14 -0.1 c0.04 0 0.08 0.02 0.14 0.02 c0.18 0.06 0.24 0.06 0.26 0.3 c0.04 0.44 0.02 0.88 0.02 1.32 l0 1.42 c0.02 0.14 0 0.28 0 0.42 c0 0.28 0.02 0.56 0 0.86 c0 0.28 0.02 0.58 0 0.88 l0 0.84 l0 0.9 l0 1.1 c0 0.4 -0.02 0.82 -0.02 1.22 c0 0.18 0 0.34 -0.02 0.5 c0 0.72 0 1.42 -0.02 2.14 c0 0.26 -0.02 0.52 -0.04 0.78 l0 0.14 c-0.02 0.26 0.06 0.48 0.3 0.62 c0.12 0.06 0.16 0.14 0.16 0.26 c0.02 0.06 0.02 0.14 0.02 0.2 c0 0.08 -0.04 0.12 -0.08 0.16 c-0.14 0.1 -0.24 0.26 -0.34 0.4 c-0.04 0.08 -0.08 0.14 -0.14 0.2 c-0.12 0.1 -0.24 0.16 -0.38 0.14 c-0.06 -0.02 -0.1 0 -0.14 0 c-0.14 0 -0.24 -0.06 -0.32 -0.16 c-0.1 -0.12 -0.22 -0.24 -0.32 -0.36 c-0.08 -0.08 -0.14 -0.18 -0.18 -0.26 c-0.14 -0.3 -0.32 -0.6 -0.5 -0.86 c-0.1 -0.14 -0.2 -0.28 -0.3 -0.4 c-0.14 -0.12 -0.26 -0.28 -0.36 -0.44 c-0.08 -0.1 -0.16 -0.2 -0.22 -0.32 c-0.06 -0.08 -0.12 -0.16 -0.18 -0.26 c-0.1 -0.22 -0.22 -0.42 -0.36 -0.6 s-0.26 -0.38 -0.36 -0.58 c-0.16 -0.28 -0.3 -0.56 -0.42 -0.86 c-0.06 -0.22 -0.16 -0.42 -0.26 -0.62 c-0.18 -0.38 -0.34 -0.78 -0.46 -1.18 c-0.06 -0.22 -0.16 -0.42 -0.26 -0.62 c-0.24 -0.44 -0.46 -0.86 -0.64 -1.32 c-0.02 -0.06 -0.06 -0.12 -0.1 -0.18 l-0.02 0 l-0.04 0 l0 0.28 l0 3.74 c-0.02 1 -0.02 2.02 -0.04 3.04 c0 0.38 -0.02 0.76 -0.08 1.14 c-0.02 0.08 -0.02 0.16 -0.02 0.24 c-0.02 0.1 -0.08 0.18 -0.18 0.22 c-0.26 0.1 -0.52 0.12 -0.8 0.08 c-0.08 0 -0.18 -0.04 -0.26 -0.06 c-0.06 -0.02 -0.08 -0.06 -0.08 -0.12 c-0.02 -0.06 -0.02 -0.12 -0.04 -0.18 c0 -0.08 0 -0.16 -0.02 -0.24 c-0.04 -0.32 -0.06 -0.64 -0.08 -0.96 l0 -0.48 c-0.02 -0.2 -0.02 -0.4 -0.02 -0.62 l0 -10.14 c0 -0.22 0.02 -0.44 -0.04 -0.66 c-0.02 -0.04 0 -0.1 0.02 -0.14 c0.06 -0.14 0.08 -0.28 0.1 -0.44 z M66.753 5.960000000000001 c0 0.02 0.02 0.02 0.02 0.04 c0.08 0.34 0.1 0.7 0.1 1.08 l-0.02 0.02 c-0.06 0.32 -0.04 0.38 -0.4 0.4 c-0.12 0.02 -0.26 0.02 -0.4 0.02 l-3.14 0 c-0.12 0 -0.24 0 -0.36 0.02 c-0.1 0 -0.14 0.04 -0.14 0.12 l0 0.36 s0.02 0.24 0.02 0.36 l0 0.66 c0 0.28 0 0.54 0.04 0.82 l0 0.3 l0 2.56 c0 0.12 -0.02 0.24 0.02 0.38 c0.06 -0.02 0.1 0 0.14 -0.02 c0.46 -0.16 0.92 -0.24 1.38 -0.26 c0.32 -0.04 0.66 -0.06 0.98 -0.12 c0.16 -0.04 0.32 -0.06 0.5 -0.06 c0.18 -0.02 0.32 -0.04 0.48 -0.14 c0.04 -0.02 0.12 -0.02 0.16 0.04 c0.08 0.1 0.18 0.18 0.3 0.26 c0.18 0.12 0.28 0.44 0.14 0.72 c-0.16 0.3 -0.24 0.42 -0.66 0.5 c-0.14 0.02 -0.26 0.04 -0.4 0.06 c-0.42 0.06 -0.84 0.12 -1.26 0.16 c-0.06 0.02 -0.14 0.02 -0.2 0.02 c-0.52 0.04 -1 0.18 -1.46 0.4 c-0.08 0.04 -0.12 0.1 -0.12 0.2 l0 0.54 l0 2 c0 0.1 0 0.2 0.02 0.32 c0 0.04 0.02 0.06 0.06 0.08 l0.32 0 l3.16 0 l0.24 0 c0.36 0.02 0.32 -0.02 0.38 0.32 c0.04 0.28 0.04 0.54 0.04 0.8 l0 0.08 c-0.1 0.3 -0.06 0.36 -0.42 0.36 c-0.54 0.02 -1.08 0.02 -1.64 0 l-1.16 0 c-0.48 0 -0.98 0 -1.48 -0.02 c-0.28 -0.02 -0.54 -0.06 -0.82 -0.1 c-0.06 0 -0.1 -0.06 -0.12 -0.12 c-0.16 -0.44 -0.16 -0.44 -0.16 -0.92 c-0.02 -0.54 -0.02 -1.1 -0.02 -1.66 l0 -4.02 c0.02 -1.2 0.04 -2.42 0.04 -3.62 c0 -0.4 0.04 -0.8 0.04 -1.2 c0 -0.08 0.02 -0.18 -0.06 -0.26 c-0.04 -0.16 -0.1 -0.3 -0.14 -0.44 c-0.04 -0.32 -0.06 -0.64 0.04 -0.94 c0.04 -0.08 0.08 -0.12 0.16 -0.12 l0.26 0 l5.22 0 c0.1 0 0.22 -0.02 0.32 0.02 z M69.71 10.6 c0.2 0.28 0.42 0.54 0.66 0.8 c0.18 0.22 0.4 0.36 0.64 0.48 c0.18 0.06 0.34 0.14 0.5 0.22 c0.28 0.18 0.52 0.36 0.74 0.58 c0.2 0.2 0.4 0.42 0.62 0.58 c0.06 0.06 0.1 0.12 0.18 0.18 l0.16 0 c0.06 0.02 0.1 0.04 0.14 0.08 c0.14 0.14 0.24 0.3 0.28 0.5 c0.02 0.16 0.06 0.32 0.12 0.48 c0.06 0.2 0.08 0.42 0.1 0.64 l0 0.58 c0 0.1 0 0.22 0.06 0.32 c0.02 0.04 0.02 0.1 0.02 0.16 c0.02 0.12 0.02 0.24 0.04 0.34 c0.04 0.28 0.04 0.54 -0.02 0.82 c-0.02 0.04 -0.02 0.1 -0.02 0.16 c-0.02 0.04 -0.02 0.1 -0.04 0.16 c-0.08 0.2 -0.12 0.42 -0.2 0.64 c0 0.02 -0.02 0.06 -0.04 0.08 c-0.1 0.14 -0.18 0.3 -0.28 0.44 c-0.04 0.06 -0.08 0.12 -0.14 0.18 c-0.16 0.04 -0.32 0.1 -0.48 0.2 c-0.04 0.04 -0.1 0.06 -0.18 0.06 c-0.06 0 -0.14 0.02 -0.22 0.02 c-0.12 0.02 -0.2 0.06 -0.28 0.16 s-0.18 0.14 -0.3 0.16 l-0.1 0 c-0.12 0.02 -0.26 0.06 -0.38 0.06 c-0.14 0 -0.26 -0.04 -0.38 -0.06 l-0.2 0 c-0.12 0 -0.24 -0.02 -0.34 -0.08 c-0.18 -0.08 -0.38 -0.14 -0.56 -0.18 c-0.14 -0.04 -0.26 -0.1 -0.38 -0.18 s-0.24 -0.16 -0.36 -0.22 c-0.3 -0.16 -0.5 -0.44 -0.68 -0.74 c-0.02 -0.1 -0.06 -0.2 -0.06 -0.3 c-0.02 -0.2 -0.08 -0.38 -0.1 -0.58 c-0.06 -0.3 -0.12 -0.6 -0.1 -0.9 c0.02 -0.1 0.02 -0.2 0.04 -0.3 c0.02 -0.14 0.04 -0.28 0.04 -0.42 c0 -0.08 0 -0.16 0.02 -0.24 c0.06 -0.14 0.04 -0.26 0.02 -0.38 c-0.04 -0.12 -0.06 -0.22 -0.1 -0.34 c0.04 -0.1 0.08 -0.2 0.12 -0.32 c0.02 -0.06 0.08 -0.1 0.14 -0.1 l0.24 0 c0.22 -0.02 0.46 -0.02 0.68 -0.02 c0.1 0 0.16 0.04 0.22 0.1 c0.04 0.04 0.06 0.08 0.06 0.12 c-0.02 0.12 0 0.22 0.1 0.3 c0.04 0.04 0.06 0.1 0.04 0.18 c-0.02 0.04 -0.04 0.1 -0.06 0.16 c-0.04 0.1 -0.06 0.22 -0.04 0.34 c0.04 0.12 0.02 0.26 0.04 0.38 c0 0.14 -0.02 0.26 0.04 0.4 c0.02 0.06 0.02 0.12 0 0.18 c-0.06 0.18 -0.04 0.34 -0.02 0.52 c0 0.08 0.04 0.16 0.12 0.22 c0.18 0.16 0.36 0.3 0.6 0.38 c0.06 0.02 0.14 0.06 0.2 0.08 c0.1 0.04 0.2 0.06 0.32 0.06 c0.08 0 0.18 0 0.26 0.04 c0.28 0.06 0.54 0.02 0.8 -0.08 c0.1 -0.02 0.2 -0.08 0.3 -0.12 c0.08 -0.22 0.16 -0.42 0.14 -0.66 l0 -1.42 l0 -0.2 c0 -0.14 -0.04 -0.26 -0.18 -0.32 c-0.04 -0.04 -0.08 -0.08 -0.1 -0.14 c-0.04 -0.18 -0.16 -0.32 -0.3 -0.44 c-0.26 -0.24 -0.5 -0.48 -0.76 -0.72 c-0.06 -0.04 -0.1 -0.1 -0.18 -0.12 c-0.08 0 -0.18 -0.04 -0.24 -0.08 c-0.14 -0.08 -0.28 -0.12 -0.44 -0.16 c-0.4 -0.1 -0.76 -0.28 -1.06 -0.56 c-0.26 -0.24 -0.42 -0.52 -0.58 -0.78 c-0.08 -0.12 -0.14 -0.26 -0.2 -0.38 c-0.1 -0.18 -0.12 -0.4 -0.18 -0.58 c-0.02 -0.04 0 -0.08 0 -0.1 c0.04 -0.14 0.06 -0.26 -0.02 -0.38 c-0.02 -0.24 -0.08 -0.46 -0.06 -0.7 c0.02 -0.22 0.04 -0.44 0.02 -0.66 l0 -0.08 c0.06 -0.16 0.06 -0.3 0.06 -0.46 l0 -0.94 c-0.02 -0.2 0.04 -0.38 0.16 -0.54 c0.04 -0.06 0.06 -0.1 0.1 -0.14 c0.14 -0.18 0.3 -0.38 0.46 -0.56 c0.02 -0.04 0.06 -0.06 0.12 -0.1 c0.18 -0.08 0.32 -0.2 0.48 -0.32 c0.12 -0.1 0.26 -0.18 0.42 -0.24 c0.14 -0.04 0.26 -0.12 0.4 -0.12 c0.06 0 0.12 -0.02 0.2 -0.02 c0.16 0 0.32 -0.02 0.48 -0.04 c0.1 -0.02 0.22 0 0.32 0.02 c0.18 0.02 0.34 0.04 0.52 0.04 c0.12 0.02 0.26 0.02 0.38 0.06 c0.1 0.02 0.2 0.08 0.3 0.14 c0.16 0.1 0.28 0.26 0.38 0.42 c0.08 0.12 0.14 0.24 0.24 0.34 c0.06 0.08 0.12 0.16 0.14 0.26 c0.02 0.06 0.04 0.12 0.08 0.18 c0.06 0.18 0.12 0.36 0.14 0.56 c0.02 0.08 0.04 0.16 0.04 0.22 c0.02 0.16 0.08 0.3 0.2 0.4 c0.06 0.04 0.06 0.08 0.06 0.14 c0 0.24 0 0.48 -0.02 0.72 c-0.04 0.18 -0.04 0.36 -0.04 0.54 c0 0.26 -0.02 0.5 -0.08 0.74 c-0.02 0.1 -0.02 0.18 0 0.26 c0.02 0.06 0.02 0.1 0.02 0.16 c0 0.04 0 0.06 -0.02 0.1 c-0.08 0.08 -0.16 0.14 -0.26 0.18 c-0.22 0.06 -0.44 0.1 -0.68 0.14 c-0.02 0.02 -0.06 0 -0.08 -0.02 c-0.06 -0.06 -0.14 -0.14 -0.2 -0.22 c0 -0.02 -0.02 -0.06 -0.02 -0.08 c-0.02 -0.14 -0.04 -0.26 -0.04 -0.4 c0.02 -0.18 0 -0.36 0 -0.54 c0 -0.14 0.02 -0.28 -0.02 -0.42 c-0.02 -0.02 -0.02 -0.04 -0.02 -0.06 c0.04 -0.36 -0.06 -0.72 -0.14 -1.06 c0 -0.02 0 -0.04 -0.02 -0.06 c-0.1 -0.18 -0.18 -0.4 -0.34 -0.56 c-0.1 -0.12 -0.22 -0.24 -0.34 -0.34 c-0.14 -0.12 -0.3 -0.18 -0.44 -0.26 l-0.1 0 c-0.22 0 -0.42 0.08 -0.62 0.18 c-0.04 0.02 -0.06 0.06 -0.1 0.08 l-0.28 0.28 s-0.2 0.2 -0.22 0.34 c0 0.06 -0.02 0.1 -0.02 0.14 c-0.02 0.04 -0.04 0.1 -0.02 0.16 c0.02 0.16 -0.08 0.34 -0.06 0.5 l0 1.44 c0 0.08 0.02 0.16 0.02 0.26 z M77.407 13.2 c0.02 -1.48 0.02 -2.96 0.02 -4.44 c0 -0.26 0.02 -0.54 0.04 -0.8 c0 -0.14 -0.02 -0.28 -0.02 -0.4 c0 -0.02 -0.02 -0.04 -0.04 -0.04 c-0.08 -0.02 -0.16 -0.02 -0.22 -0.02 l-2.22 0 l-0.36 0 c-0.06 0 -0.12 -0.02 -0.16 -0.04 c-0.04 0 -0.08 -0.04 -0.1 -0.08 c0 -0.08 -0.02 -0.14 -0.04 -0.22 c-0.12 -0.34 -0.12 -0.68 -0.08 -1.04 c0.02 -0.08 0.06 -0.16 0.08 -0.24 c0.02 -0.04 0.06 -0.08 0.1 -0.08 c0.04 -0.02 0.08 -0.02 0.12 -0.02 l0.26 0 l6.3 0 l0.5 0 c0.06 0 0.1 0 0.16 0.02 c0.06 0 0.1 0.02 0.12 0.08 c0.1 0.48 0.14 0.96 0.02 1.42 c-0.04 0.1 -0.1 0.16 -0.18 0.18 c-0.12 0 -0.22 0.02 -0.32 0.02 l-1.94 0 l-0.3 0 c-0.04 0.02 -0.08 0.06 -0.08 0.1 l0 0.12 c0.04 0.2 0.02 0.4 0.02 0.58 l0 9.54 c0 0.2 -0.02 0.4 -0.02 0.6 l0 0.54 l0 0.34 c-0.02 0.06 -0.06 0.12 -0.12 0.14 c-0.3 0.04 -0.6 0.08 -0.92 0.08 c-0.14 -0.02 -0.28 -0.04 -0.4 -0.08 c-0.08 -0.02 -0.12 -0.08 -0.12 -0.16 c-0.02 -0.22 -0.04 -0.44 -0.04 -0.68 c-0.04 -0.74 -0.04 -1.48 -0.04 -2.22 l0 -1.34 l0 -1 l0 -0.86 l-0.02 0 z M83.22399999999999 5.800000000000001 c0.08 -0.02 0.14 -0.04 0.2 -0.06 c0.26 -0.12 0.54 -0.1 0.82 -0.1 c0.04 0 0.06 0 0.08 0.02 c0.28 0.06 0.34 0.04 0.36 0.38 c0 0.36 0.02 0.74 0.02 1.1 l0 10.4 l0 0.36 c0 0.14 0.02 0.18 0.18 0.18 l0.22 0 c0.3 0.06 0.58 0 0.86 -0.06 c0.26 -0.06 0.52 -0.1 0.78 -0.1 l1.92 0 c0.04 0 0.08 0.02 0.14 0.02 c0.1 0.36 0.12 0.72 0.1 1.1 c0 0.08 -0.02 0.16 -0.04 0.24 c-0.02 0.1 -0.1 0.16 -0.2 0.18 c-0.12 0.02 -0.24 0.02 -0.36 0.02 c-0.3 0 -0.6 0 -0.92 -0.02 c-0.4 0 -0.82 0.04 -1.22 0.12 c-0.08 0.02 -0.14 0.02 -0.22 0.04 c-0.18 0.02 -0.34 0.04 -0.52 0.04 l-0.42 0 c-0.1 0 -0.18 -0.02 -0.26 -0.02 c-0.48 0 -0.94 -0.08 -1.42 -0.1 c-0.12 0 -0.24 -0.02 -0.36 -0.1 c-0.14 -0.26 -0.16 -0.56 -0.14 -0.86 c0.02 -0.06 0.02 -0.12 0.04 -0.18 c0.02 -0.08 0.06 -0.16 0.16 -0.2 c0.02 -0.02 0.04 -0.04 0.06 -0.04 c0.04 -0.12 0.04 -0.24 0.04 -0.36 l0 -2.76 c0 -2.16 -0.02 -4.34 0 -6.5 c0 -0.6 0 -1.22 0.02 -1.84 c0 -0.26 0.04 -0.52 0.06 -0.78 c0 -0.04 0 -0.06 0.02 -0.12 z M93.201 17.14 c0 -0.72 -0.02 -1.44 0 -2.14 c0 -0.2 -0.02 -0.4 -0.1 -0.58 c-0.02 -0.06 -0.04 -0.14 -0.04 -0.22 c-0.04 -0.34 -0.14 -0.64 -0.22 -0.96 c-0.02 -0.08 -0.06 -0.16 -0.08 -0.22 c-0.1 -0.18 -0.18 -0.36 -0.26 -0.52 c-0.22 -0.44 -0.38 -0.88 -0.52 -1.34 c-0.1 -0.38 -0.24 -0.74 -0.42 -1.08 c-0.2 -0.42 -0.36 -0.88 -0.48 -1.34 c-0.04 -0.2 -0.1 -0.38 -0.18 -0.56 c-0.1 -0.24 -0.18 -0.48 -0.26 -0.72 c-0.04 -0.08 -0.06 -0.16 -0.14 -0.2 s-0.12 -0.1 -0.12 -0.18 c-0.02 -0.06 -0.02 -0.12 -0.02 -0.18 c0 -0.18 -0.02 -0.34 -0.1 -0.5 c-0.02 -0.06 -0.02 -0.14 0.02 -0.2 c0.04 -0.08 0.06 -0.16 0.06 -0.26 c0 -0.06 0 -0.14 0.02 -0.2 c0 -0.1 0.04 -0.14 0.14 -0.16 c0.06 -0.02 0.12 -0.02 0.2 -0.06 c0.08 -0.02 0.16 -0.04 0.26 -0.04 l0.54 0 c0.02 0 0.02 -0.02 0.04 -0.02 c0.32 0.04 0.36 0.08 0.4 0.36 c0.02 0.12 0.02 0.24 0.02 0.38 c0 0.1 0.02 0.2 0.06 0.3 c0.1 0.26 0.18 0.56 0.32 0.82 c0.04 0.08 0.06 0.16 0.08 0.26 c0.06 0.14 0.1 0.3 0.16 0.44 c0.06 0.16 0.12 0.3 0.14 0.46 c0.02 0.26 0.12 0.5 0.24 0.74 c0.24 0.42 0.4 0.88 0.56 1.36 c0.02 0.1 0.04 0.2 0.08 0.3 c0.06 0.28 0.16 0.54 0.28 0.78 c0.02 0.04 0.02 0.04 0.04 0.06 c0.02 0.04 0.06 0.02 0.08 0 c0.14 -0.2 0.22 -0.44 0.28 -0.68 c0.04 -0.08 0.04 -0.16 0.06 -0.24 c0.06 -0.2 0.1 -0.4 0.2 -0.58 c0.02 -0.04 0.02 -0.08 0.04 -0.14 c0.08 -0.28 0.2 -0.54 0.34 -0.8 c0.16 -0.28 0.26 -0.56 0.3 -0.86 c0.02 -0.14 0.06 -0.28 0.12 -0.4 l0.06 -0.12 c0.1 -0.4 0.28 -0.76 0.42 -1.16 c0.08 -0.22 0.16 -0.44 0.14 -0.68 c0 -0.1 0.02 -0.22 0.04 -0.32 c0.02 -0.18 0.1 -0.24 0.28 -0.26 l0.14 0 l0.48 0 c0.12 0 0.24 0.02 0.36 0.06 c0.3 0.08 0.3 0.04 0.32 0.38 c0 0.06 0 0.14 0.02 0.2 c0.12 0.12 0.06 0.24 0.02 0.38 c-0.04 0.1 -0.06 0.2 -0.06 0.3 l0 0.2 c0 0.12 -0.04 0.22 -0.16 0.28 c-0.06 0.04 -0.08 0.08 -0.1 0.14 c-0.08 0.26 -0.18 0.52 -0.28 0.76 c-0.08 0.2 -0.14 0.38 -0.2 0.58 c-0.1 0.48 -0.28 0.92 -0.48 1.34 c-0.16 0.34 -0.3 0.68 -0.38 1.02 c-0.18 0.58 -0.4 1.14 -0.68 1.68 c-0.12 0.22 -0.22 0.46 -0.28 0.72 c-0.06 0.3 -0.1 0.6 -0.18 0.9 c-0.02 0.12 -0.02 0.24 -0.02 0.34 l0 1.06 l0 3.62 c0 0.32 0.02 0.3 -0.3 0.36 c-0.28 0.04 -0.58 0.04 -0.86 0.04 c-0.1 0 -0.2 -0.04 -0.3 -0.06 c-0.06 -0.02 -0.12 -0.08 -0.12 -0.14 c-0.02 -0.08 -0.02 -0.16 -0.02 -0.24 c0 -0.66 0 -1.3 -0.02 -1.96 l0 -0.3 l0.02 0 z"></path></g><g id="SvgjsG15192" featurekey="sloganFeature-1" transform="matrix(1,0,0,1,156,405)" fill="#000000"><path d=""></path></g></svg>
