<?xml version="1.0" encoding="UTF-8" standalone="no"?>
<svg
   xmlns:dc="http://purl.org/dc/elements/1.1/"
   xmlns:cc="http://creativecommons.org/ns#"
   xmlns:rdf="http://www.w3.org/1999/02/22-rdf-syntax-ns#"
   xmlns:svg="http://www.w3.org/2000/svg"
   xmlns="http://www.w3.org/2000/svg"
   xmlns:sodipodi="http://sodipodi.sourceforge.net/DTD/sodipodi-0.dtd"
   xmlns:inkscape="http://www.inkscape.org/namespaces/inkscape"
   inkscape:version="1.0beta2 (2b71d25, 2019-12-03)"
   sodipodi:docname="main.svg"
   id="svg846"
   version="1.1"
   class="css-1j8o68f"
   viewBox="0 0 80 59.999998"
   height="60"
   width="80">
  <metadata
     id="metadata850">
    <rdf:RDF>
      <cc:Work
         rdf:about="">
        <dc:format>image/svg+xml</dc:format>
        <dc:type
           rdf:resource="http://purl.org/dc/dcmitype/StillImage" />
      </cc:Work>
    </rdf:RDF>
  </metadata>
  <sodipodi:namedview
     inkscape:current-layer="svg846"
     inkscape:window-maximized="0"
     inkscape:window-y="23"
     inkscape:window-x="44"
     inkscape:cy="33.371949"
     inkscape:cx="53.862017"
     inkscape:zoom="6.1312196"
     showgrid="false"
     id="namedview848"
     inkscape:window-height="809"
     inkscape:window-width="1440"
     inkscape:pageshadow="2"
     inkscape:pageopacity="0"
     guidetolerance="10"
     gridtolerance="10"
     objecttolerance="10"
     borderopacity="1"
     inkscape:document-rotation="0"
     bordercolor="#666666"
     pagecolor="#ffffff" />
  <defs
     id="SvgjsDefs14909" />
  <g
     style="fill:#e0bf4b;fill-opacity:1"
     fill="#ffffff"
     transform="matrix(1.267199,0,0,1.2866085,-1.4849988,-12.589706)"
     featurekey="nameFeature-0"
     id="SvgjsG14911">
    <path
       inkscape:connector-curvature="0"
       style="fill:#e0bf4b;fill-opacity:1"
       id="path837"
       d="m 27.559,40.91797 q -0.175781,0 -0.253906,-0.527344 h -0.09766 v 0.35156 q -0.253907,-0.09766 -0.253907,-0.527344 h -0.17578 v 0.17578 h -0.09766 q 0,-0.351562 -0.253906,-0.351562 0.07813,0.429687 0.07813,0.527344 h -0.07813 l -0.09766,-0.52734 h -0.07813 l -0.07813,0.60547 h -0.09766 l -0.07813,-0.42969 h -0.09766 v 0.42969 q -0.273437,0 -0.605469,-0.605469 l -0.17578,0.09766 h -0.09766 l -0.07813,-0.52734 h -0.09766 l -0.17578,0.07813 v -0.17578 h -0.07813 q 0,0.351562 -0.175781,0.351562 0,-0.195312 -0.351562,-0.253906 -0.195313,0 -0.351563,0.429688 l -0.27344,0.17578 v -0.25391 l -0.17578,0.07813 q -0.253906,-0.3125 -0.253906,-0.703125 h -0.17578 q 0,0.09766 0.07813,0.09766 -0.07813,0.136719 -0.07813,0.351562 h -0.17578 q -0.175781,0 -0.175781,-0.351562 -0.175782,0.07813 -0.351563,0.07813 l 0.07813,-0.17578 v -0.07813 h -0.17578 l -0.07813,0.35156 h -0.35156 q 0,-0.214844 -0.07813,-0.351563 0.07813,-0.15625 0.07813,-0.351562 -0.07813,-0.273438 -0.175781,-0.273438 l 0.09766,-0.60547 q 0,-0.488281 -0.09766,-1.230468 0.09766,-1.816407 0.175781,-2.460938 0,-0.07813 -0.07813,-0.07813 0.175781,-1.054687 0.175781,-3.339844 l 0.07813,-0.17578 h -0.07813 l 0.07813,-0.17578 q -0.07813,-1.191406 -0.07813,-1.660156 h 0.07813 l -0.07813,-0.17578 v -5.1758 h 0.07813 v 0.25391 h 0.09766 v -0.25391 q -0.175781,0 -0.175781,-0.175781 v -0.17578 q 0.07813,0 0.253906,-0.07813 v 1.6602 q 0,0.175781 -0.175781,0.175781 0.09766,0.15625 0.253906,1.054688 h -0.07813 l 0.07813,0.17578 -0.07813,0.60547 h 0.07813 l -0.07813,0.17578 0.07813,1.4063 q 0,0.09766 -0.07813,0.253906 0.07813,0.175781 0.07813,0.273437 h -0.07813 l 0.07813,0.17578 v 1.3086 q 0,0.09766 0.09766,0.09766 l -0.09766,0.17578 q 0.09766,0.15625 0.09766,0.351562 h 0.07813 v -0.70313 l -0.07813,-0.17578 h 0.07813 l -0.07813,-0.17578 v -0.70313 q 0,-0.09766 0.07813,-0.09766 l -0.07813,-0.17578 q 0,-0.292969 0.07813,-0.429688 -0.07813,-0.742187 -0.07813,-2.460937 0,-0.3125 -0.09766,-0.78125 0.09766,-0.175781 0.09766,-0.273438 0,-0.07813 -0.09766,-0.07813 0.09766,-0.390625 0.09766,-0.800781 l -0.09766,-0.17578 h 0.09766 q 0,-0.07813 -0.09766,-0.07813 0.09766,-0.351562 0.09766,-0.703125 0,-0.07813 -0.09766,-0.07813 0.09766,-0.175781 0.09766,-0.273437 l -0.09766,-0.60547 q 0,-0.09766 0.09766,-0.09766 l -0.09766,-0.42969 v -1.2305 l -0.07813,-0.87891 q 0.07813,0 0.07813,-0.09766 -0.07813,0 -0.07813,-0.07813 h 0.07813 l -0.07813,-0.17578 v -1.0547 l -0.07813,-0.17578 h 0.07813 l -0.07813,-0.17578 v -0.95703 h -0.09766 v 1.3086 q 0.09766,0 0.09766,0.09766 h -0.09766 l 0.09766,0.17578 q 0,0.878907 -0.09766,1.738282 h -0.07813 q 0,-0.878907 -0.175781,-2.96875 l 0.17578,-4.5703 h 0.07813 v 0.35156 h 0.09766 q 0,-0.410157 0.332031,-0.527344 0,0.09766 0.09766,0.09766 v -0.09766 h -0.09766 q 0.351563,-1.074219 0.351563,-2.1875 h 0.09766 v 0.44922 h 0.17578 q 0.175781,-0.722656 0.175781,-0.9765623 0.175781,0 0.253906,1.0546873 0.175781,0.01953 0.175781,0.175781 v 1.0547 l 0.09766,0.42969 h 0.07813 q 0,-0.800781 0.351563,-1.308593 h 0.09766 v 0.17578 h 0.07813 l 0.09766,-0.87891 h 0.07813 v 0.70313 h 0.09766 v -0.35156 l 0.17578,0.09766 q 0,-0.09766 0.07813,-0.09766 v 0.52734 h 0.17578 v -0.27344 h 0.09766 q 0,1.054688 0.253906,1.054688 h 0.17578 v -0.17578 h 0.09766 v 0.35156 h 0.17578 q 0,-0.253906 0.175781,-0.253906 v 0.07813 q 0.15625,-0.07813 0.351563,-0.07813 l -0.09766,0.17578 h 0.09766 q 0,-0.09766 0.07813,-0.09766 v 0.35156 h 0.07813 q 0.03906,-0.429687 0.273437,-0.429687 v 0.25391 q 0.117188,0 0.253907,-0.429688 l 0.35156,-0.09766 v 0.09766 q -0.07813,0.15625 -0.07813,0.429688 l 0.17578,-0.07813 q 0.07813,0.136719 0.07813,0.429687 h 0.09766 v -0.42969 l 0.17578,0.07813 v -0.17578 q -0.09766,-0.15625 -0.09766,-0.253906 0.175782,0.01953 0.175782,0.175781 l -0.07813,1.0547 h 0.07813 q -0.07813,0.15625 -0.07813,0.351563 h 0.07813 q 0,-0.175781 0.175781,-0.175781 v -0.17578 l -0.17578,-0.27344 0.17578,-0.07813 -0.07813,-0.17578 q 0.07813,-0.15625 0.07813,-0.351563 h 0.09766 l 0.07813,1.0547 h 0.09766 v -0.35156 q -0.09766,-0.175781 -0.09766,-0.273437 h 0.17578 q 0.175781,0.976562 0.175781,1.054687 h 0.09766 v -0.35156 h 0.07813 q 0,0.429688 0.175781,1.40625 h 0.09766 v -1.3086 h 0.07813 q 0,0.957031 0.273438,1.914063 v 1.2305 q 0,0.195312 0.07813,0.351562 -0.07813,0.15625 -0.07813,0.351563 v 1.2305 q 0,0.09766 0.07813,0.09766 l -0.07813,0.17578 v 0.25391 q 0,0.09766 0.07813,0.09766 0,0.07813 -0.07813,0.07813 l 0.07813,0.87891 q 0,0.273438 -0.07813,0.429688 l 0.07813,0.17578 q 0,0.09766 -0.07813,0.09766 l 0.07813,0.60547 v 2.4609 q 0,0.3125 -0.07813,0.78125 0,0.09766 0.07813,0.09766 l -0.07813,0.42969 q 0,0.625 0.07813,0.625 0,0.07813 -0.07813,0.253906 -0.09766,2.890625 -0.09766,5.097657 0,1.210937 -0.07813,2.539062 h 0.175779 v 3.8477 q 0,0.742188 -0.09766,2.207031 h -0.17578 v 0.429691 l 0.09766,0.42969 -0.17578,0.09766 -0.09766,-0.35156 h -0.17578 v 0.25391 h -0.17578 q 0,-0.136719 -0.175781,-0.683594 l -0.17578,0.07813 q -0.07813,-0.175781 -0.07813,-0.253906 h -0.09766 v 0.95703 h -0.07813 q 0,-0.527344 -0.175781,-0.527344 v 0.17578 q 0,0.07813 0.07813,0.07813 Q 27.559,40.761885 27.559,40.918135 Z M 6.7773,41.6992 H 6.699175 Q 6.601519,40.878887 6.601519,40.039044 h -0.17578 v 0.78125 H 6.347614 v -0.42969 h -0.17578 q -0.097656,0.46875 -0.097656,0.78125 H 5.996053 q 0,-0.273438 -0.2734375,-0.957032 h -0.17578 q 0,0.253907 -0.3320312,0.703125 v 0.17578 h -0.27344 q 0,-0.15625 -0.2539063,-0.527343 0,-0.175782 -0.2734375,-0.175782 v 0.42969 q 0,0.175782 -0.1757812,0.175782 0,-0.253907 -0.078125,-0.605469 h 0.17578 Q 3.9843313,38.90623 3.80855,38.90623 v 0.07813 l 0.078125,0.17578 H 3.80855 l 0.078125,0.17578 v 0.52734 q 0,0.175781 -0.1757812,0.175781 -0.2539063,-0.683593 -0.2539063,-0.78125 l -0.17578,0.07813 Q 3.1835513,39.16013 3.1835513,39.082005 l -0.42969,0.07813 0.078125,0.17578 v 0.44922 q 0,0.07813 -0.078125,0.07813 l 0.078125,0.17578 v 0.60547 l -0.17578,-0.07813 v 0.35156 h -0.078125 l -0.625,-2.5391 -0.17578,0.07813 v -0.17578 q 0.097656,-0.15625 0.097656,-0.253906 -0.1757812,0 -0.1757812,0.351562 h -0.097656 v -0.625 q 0,-0.07813 0.097656,-0.07813 Q 1.5233953,37.343685 1.347614,35.136654 h 0.078125 q 0,-0.09766 -0.078125,-0.09766 l 0.078125,-0.60547 q 0,-0.449219 -0.078125,-0.449219 0,-0.09766 0.078125,-0.253906 Q 1.347614,31.34759 1.347614,30.839778 1.5233953,27.578059 1.5233953,26.093684 v -2.5391 q 0,-0.195313 -0.097656,-0.351563 0.097656,-0.15625 0.097656,-0.351562 v -0.70313 q 0,-0.07813 -0.097656,-0.07813 l 0.097656,-0.17578 v -1.8555 q 0,-0.07813 0.078125,-0.07813 -0.078125,-0.175781 -0.078125,-0.273438 0,-0.07813 0.078125,-0.07813 0,-0.09766 -0.078125,-0.253906 0,-0.429687 0.2539063,-3.613281 v -0.07813 h -0.078125 q 0,0.136719 -0.1757813,0.78125 H 1.425739 v -0.25391 q 0,-0.09766 0.097656,-0.09766 l -0.097656,-0.17578 0.097656,-0.17578 -0.097656,-0.42969 q 0.15625,-0.371094 0.2734375,-1.054688 l -0.097656,-0.17578 0.27344,-1.7578 h 0.25391 l 0.097656,0.35156 h 0.078125 l -0.078125,-0.42969 v -0.44922 h 0.078125 v 0.44922 q 0.1757812,0 0.1757812,-0.273437 l -0.078125,-0.42969 h 0.078125 l 0.35156,0.35156 q 0,-0.09766 0.097656,-0.09766 0.078125,0.527344 0.2539062,0.527344 0.4492188,-0.722656 0.4492188,-0.957031 h 0.078125 v 0.35156 q -0.078125,0 -0.078125,0.07813 h 0.17578 v -0.17578 l 0.17578,0.09766 v -0.27344 l 0.17578,0.09766 0.078125,-0.35156 h 0.097656 v 0.70313 q 0.1757812,0 0.1757812,-0.527344 l 0.17578,0.07813 h 0.078125 q 0,-0.234375 0.2734375,-0.351562 v -0.07813 h 0.078125 q 0,0.351562 0.1757813,0.351562 0.039063,-0.351562 0.2539062,-0.351562 v 0.17578 h 0.097656 v -0.17578 h 0.078125 l 0.097656,0.42969 q 0.1757812,0 0.1757812,-0.253907 l 0.17578,0.07813 h 0.078125 v -0.17578 h 0.097656 q 0,0.214844 0.3515625,0.351563 0,-0.253906 0.2539063,-0.253906 v 0.25391 h 0.17578 q 0,-0.253907 0.1757812,-0.253907 0.039063,0.175782 0.2734375,0.175782 0,-0.429688 0.1757813,-0.429688 l 0.17578,0.78125 0.17578,-0.09766 q 0.1757812,0 0.1757812,0.527344 h 0.17578 L 8.3593247,11.97253 V 11.2694 h 0.097656 q 0,0.234375 0.3515625,0.800781 0,0.273438 0.703125,0.429688 v -0.07813 q -0.097656,0 -0.097656,-0.09766 l 0.17578,-0.07813 q 0.1171875,0.488282 0.3515625,0.78125 v 0.52734 q 0,0.09766 -0.097656,0.09766 0,0.07813 0.097656,0.07813 -0.1757813,2.109375 -0.2734375,2.109375 0,0.07813 0.097656,0.07813 l -0.097656,0.44922 q 0,0.195312 0.097656,0.351562 l -0.097656,0.35156 q 0,0.253906 0.097656,0.253906 -0.097656,0.878907 -0.097656,1.328125 v 2.0898 l 0.097656,0.52734 q -0.097656,0.15625 -0.097656,0.449219 0,0.07813 0.097656,0.07813 -0.097656,0.136719 -0.097656,0.527344 h -0.078125 v -0.35156 q -0.078125,-5.839844 -0.078125,-7.441406 0,-0.09766 0.078125,-0.273438 -0.078125,-0.175781 -0.078125,-0.253906 h 0.078125 l -0.078125,-0.17578 v -1.0547 h -0.097656 v 1.6602 l -0.078125,0.17578 0.078125,0.17578 Q 9.23823,16.015474 9.23823,16.445161 h 0.097656 l -0.097656,0.17578 v 4.3945 q 0,0.605469 -0.078125,1.933594 H 9.23823 l -0.078125,0.17578 v 0.78125 q 0,0.195312 -0.097656,0.351562 l 0.097656,0.17578 -0.097656,1.0547 0.097656,0.42969 H 9.0624487 Q 9.23823,26.386547 9.23823,27.148266 9.160105,27.324047 9.160105,27.421704 H 9.23823 l -0.078125,0.17578 q 0,0.820312 -0.097656,2.441406 H 8.984324 l 0.078125,0.17578 v 0.09766 l -0.078125,0.17578 q 0.078125,0 0.078125,0.07813 L 8.886669,30.6639 V 30.31234 H 8.808544 v 0.25391 L 8.632764,30.48812 8.710889,30.31234 8.632764,30.13656 q 0,-0.09766 0.078125,-0.09766 L 8.632764,29.60921 Q 8.652295,29.257643 8.808545,29.257643 8.710889,29.081862 8.710889,28.984206 l 0.097656,-1.0547 Q 8.6327635,27.656068 8.6327635,27.499818 h 0.078125 l -0.078125,-0.17578 q 0.078125,-0.15625 0.078125,-0.351562 l -0.17578,-0.07813 q -0.1757813,1.054687 -0.2539063,3.066406 h 0.078125 l -0.078125,0.17578 v 0.52734 h -0.17578 v -0.17578 h -0.097656 v 0.25391 h 0.097656 l -0.097656,0.17578 v 1.0547 l 0.17578,-0.09766 0.097656,0.17578 v 0.09766 l -0.097656,0.17578 q 0.097656,0 0.097656,0.07813 h -0.097656 q 0,0.09766 0.097656,0.09766 l -0.097656,0.42969 v 1.3281 q 0.234375,0 0.3515625,-0.527344 v -0.27344 h 0.097656 l -0.097656,-0.17578 0.097656,-0.17578 q -0.1757812,0 -0.1757812,-0.175781 h 0.17578 v -0.70313 l -0.097656,-0.17578 q 0.097656,0 0.097656,-0.07813 h -0.097656 l 0.097656,-0.17578 v -0.95703 q 0.1757813,0 0.1757813,0.253906 h 0.078125 v -0.17578 q -0.078125,0 -0.078125,-0.07813 l 0.17578,-0.09766 v 2.6367 h -0.097656 v -1.582 h -0.078125 q 0.078125,-0.175781 0.078125,-0.351562 h -0.078125 q 0,0.175781 -0.097656,0.175781 l 0.097656,0.42969 v 0.52734 q 0,0.09766 -0.097656,0.09766 l 0.097656,0.17578 -0.097656,0.52734 q 0.097656,0.878907 0.097656,1.308594 0,0.859375 -0.1757812,1.484375 l 0.078125,0.17578 q -0.078125,0.15625 -0.078125,0.351563 h 0.078125 l -0.078125,0.17578 q 0,0.664062 0.078125,1.230468 v 0.17578 H 8.632763 v -0.35156 H 8.535107 v 0.09766 q 0.097656,0.46875 0.097656,0.878907 H 8.535107 l -0.17578,-1.0547 Q 8.456983,37.675577 8.456983,37.577921 H 8.359327 q 0,-0.07813 0.097656,-0.07813 -0.097656,-0.488281 -0.097656,-0.703125 0.097656,-0.175781 0.097656,-0.273437 -0.1757812,0 -0.1757812,0.351562 h -0.097656 q 0,-0.546875 0.097656,-0.703125 -0.097656,-0.136719 -0.097656,-0.429687 0,-0.175782 0.097656,-0.175782 -0.097656,-0.175781 -0.097656,-0.253906 l 0.097656,-0.70313 h -0.097656 l -0.078125,0.60547 v 2.7148 h -0.097656 l -0.17578,-0.07813 q 0,0.957031 -0.078125,0.957031 0.078125,0 0.078125,0.09766 h -0.17578 q 0,-0.175782 -0.1757813,-0.175782 v -0.35156 l 0.17578,0.07813 -0.078125,-0.17578 v -0.07813 h 0.17578 Q 7.656203,38.027098 7.656203,37.929442 v -0.87891 H 7.578078 v 0.87891 H 7.480422 v -0.25391 H 7.402297 q 0,0.859375 -0.1757813,1.132812 h 0.078125 l -0.078125,0.17578 v 0.70313 l -0.097656,0.44922 -0.25391,-0.17578 h -0.097656 v 1.3086 h 0.17578 v 0.07813 q -0.1757812,0 -0.1757812,0.351563 z m 9.7457,-0.78123 -0.17578,-0.625 h -0.09766 v 0.17578 h -0.07813 v -0.25391 h -0.09766 l -0.07812,0.35156 h -0.09766 v -0.17578 h -0.07813 v 0.25391 H 15.7222 q 0,-0.351563 -0.175781,-0.351563 0,0.09766 -0.07813,0.09766 0,-0.195313 -0.449219,-0.253907 0,0.15625 -0.175781,0.15625 l -0.35156,-0.15625 v 0.07813 l -0.78125,-0.25391 q -0.07813,0.15625 -0.07813,0.253907 h -0.09766 q 0,-0.253907 -0.175782,-0.253907 0,0.07813 -0.07813,0.07813 0,-0.3125 -0.527343,-0.527343 v -0.35156 h -0.09766 q 0,0.136718 -0.253907,0.625 h -0.27344 l -0.25391,-0.17578 -0.17578,0.42969 -0.17578,-0.07813 q 0,-0.09766 0.07813,-0.09766 -0.253906,-2.1875 -0.253906,-2.636718 v -2.0898 q 0,-0.09766 0.07813,-0.09766 0,-0.07813 -0.07813,-0.07813 0.07813,-0.625 0.07813,-0.800781 0,-0.07813 -0.07813,-0.07813 0.07813,-0.3125 0.351563,-2.988281 h -0.09766 l 0.09766,-0.17578 v -0.60547 q 0,-0.195313 -0.09766,-0.351563 0.09766,-0.175781 0.09766,-0.273437 -0.05859,-1.308594 -0.175782,-1.308594 l 0.07813,-0.17578 q 0,-0.566406 -0.175781,-1.484375 h 0.09766 q -0.09766,-0.175781 -0.09766,-0.351562 l 0.17578,-0.27344 q 0,-0.429688 -0.07813,-0.429688 l 0.17578,-1.582 -0.09766,-0.17578 q 0.09766,-1.289062 0.273437,-1.40625 h -0.09766 q 0,-0.07813 0.09766,-0.07813 Q 11.69878,21.757889 11.69878,21.62117 l 0.07813,-0.60547 q 0,-0.09766 -0.07813,-0.09766 l 0.07813,-0.42969 v -0.70313 q 0,-0.195313 -0.07813,-0.351563 0.07813,-0.15625 0.07813,-0.351562 v -0.70313 q 0,-0.07813 0.09766,-0.07813 0,-0.09766 -0.09766,-0.09766 0,-0.15625 0.175782,-0.703125 h -0.07813 l 0.07813,-0.17578 v -0.25391 h -0.17578 q 0,-0.175781 0.175781,-0.800781 v -0.07813 h -0.17578 v -0.17578 q 0.214844,0 0.273437,-0.527344 -0.09766,-0.273437 -0.175781,-0.273437 0.07813,-0.15625 0.07813,-0.253906 l -0.07813,-0.17578 q 0.175781,-0.410157 0.175781,-0.78125 -0.175781,0 -0.175781,-0.175782 l 0.17578,-0.27344 v -1.0547 h 0.07813 v 0.17578 q 0.175781,0 0.175781,-0.429687 h 0.09766 v 1.3086 l -0.09766,0.17578 h 0.09766 l -0.09766,0.17578 0.09766,0.17578 -0.09766,0.52734 h 0.09766 l -0.09766,0.17578 q 0.09766,1.328125 0.09766,1.835937 h 0.07813 l 0.17578,-0.78125 v -1.4844 h 0.09766 v -0.27344 h -0.09766 v 0.17578 H 12.5777 v -1.2305 h 0.07813 v 0.44922 h 0.09766 v -0.87891 h 0.07813 v 0.35156 h 0.09766 q 0,-0.175781 0.175781,-1.054687 h 0.07813 q 0,0.429687 0.09766,0.429687 -0.09766,0.175782 -0.09766,0.273438 l 0.09766,0.17578 q -0.09766,0.15625 -0.09766,0.351562 h 0.09766 l 0.07813,-0.44922 q -0.07813,0 -0.07813,-0.07813 l 0.17578,-0.09766 v 0.17578 h 0.07813 q 0,-0.05859 0.09766,-0.527343 0.15625,0.09766 0.253906,0.09766 v 0.60547 h 0.07813 q 0,-0.214844 0.351563,-1.132813 h 0.09766 v 0.70313 h 0.07813 v -0.35156 h 0.09766 v 0.25391 h 0.17578 v -0.52734 h 0.07813 v 0.17578 l 0.35156,-0.25391 q 0,0.07813 0.09766,0.07813 v -0.17578 h 0.07813 v 0.35156 h 0.27344 q 0.07813,-0.332031 0.07813,-0.605468 l 0.17578,0.07813 0.09766,-0.50781 h 0.07813 q 0,0.07813 -0.175781,0.859375 h 0.27344 v -0.25391 h 0.07813 v 0.17578 l 0.17578,-0.09766 v 0.27344 l 0.17578,-0.09766 q 0,0.09766 0.09766,0.09766 0.429687,-0.585938 0.429687,-0.800781 h 0.09766 v 0.625 q 0.351563,0 0.351563,0.175781 h 0.07813 q 0,-0.683594 0.527344,-0.878906 l 0.07813,0.42969 0.35156,-0.50781 q 0,0.429687 0.175781,0.429687 0,0.07813 -0.07813,0.07813 l 0.25391,0.97656 h 0.09766 q 0.351562,-0.175781 0.351562,-0.449219 0.175782,0 0.175782,0.273438 0,0.292969 -0.09766,0.429687 0.09766,0.488282 0.09766,0.703125 l -0.09766,0.70313 h 0.09766 l -0.09766,0.17578 v 1.4063 q 0,0.07813 0.09766,0.07813 l -0.09766,0.17578 v 0.35156 q 0,0.09766 0.09766,0.09766 0,0.07813 -0.09766,0.07813 l 0.09766,0.44922 -0.09766,0.60547 q 0.09766,0.175781 0.09766,0.273437 -0.09766,0 -0.09766,0.07813 h 0.09766 l -0.09766,0.17578 v 0.27344 q 0,0.07813 0.09766,0.07813 -0.09766,0.195313 -0.175781,0.800781 0.07813,0.136719 0.07813,0.332032 h -0.07813 l 0.17578,0.97656 q -0.09766,1.230468 -0.09766,2.636718 0,1.796875 0.09766,4.472657 h -0.09766 l 0.09766,0.15625 -0.09766,0.35156 q 0,0.214843 0.09766,0.351562 -0.175781,1.5625 -0.175781,2.636719 0.07813,1.503906 0.07813,1.757812 l -0.07813,0.17578 q 0,0.07813 0.07813,0.07813 l -0.07813,0.52734 q 0,0.664063 0.175781,3.515625 -0.09766,1.445313 -0.09766,2.1875 -0.07813,0.175782 -0.07813,0.273438 0.07813,0 0.07813,0.07813 l -0.35156,0.44922 h -0.07813 v -0.17578 q -0.175781,0 -0.175781,0.253906 l -0.17578,-0.07813 q 0,0.15625 -0.175782,0.15625 v -0.07813 l -0.17578,0.07813 q -0.09766,0 -0.09766,-0.07813 -0.07813,0 -0.07813,0.07813 -0.429687,-0.07813 -0.605469,-0.07813 v 0.17578 h -0.09766 v -0.17578 h -0.25391 q 0,0.429688 -0.175781,0.429688 h -0.09766 q 0,-0.429688 -0.175781,-0.429688 0,0.703125 -0.253906,0.703125 z M 16.348,11.27 h -0.09766 q 0,-0.07813 -0.07813,-0.253906 l 0.17578,-0.07813 v 0.33203 z M 1.5234,13.906 H 1.425744 V 13.73022 H 1.347619 V 13.906 H 1.249963 l 0.097656,-0.60547 q 0,-0.09766 -0.097656,-0.703125 l 0.17578,0.07813 v -0.25391 h 0.097656 q 0,0.351562 0.078125,0.351562 Q 1.523399,13.066156 1.523399,13.906 Z m 17.7926,0.176 q 0,-0.722656 0.09766,-1.40625 V 12.59762 H 19.316 l -0.07813,0.42969 v 1.0547 H 19.316 Z m 2.11,-0.879 H 21.34787 V 12.77331 H 21.426 Z m -7.637,0.625 v -0.625 h -0.07813 l -0.07813,0.625 z m -0.957,0.781 0.09766,-0.35156 V 13.37853 H 12.832 q 0,1.152344 -0.07813,1.152344 v 0.07813 H 12.832 Z m 8.418,2.11 h -0.17578 v -1.8359 q 0,-0.46875 0.09766,-1.503906 h 0.07813 q 0,0.507812 0.09766,0.625 -0.175781,0.01953 -0.175781,0.175781 v 2.3633 z M 12.754,13.906 V 13.55444 H 12.65634 V 13.906 Z m 15.254,4.043 0.07813,-0.17578 v -1.582 q 0,-0.09766 -0.07813,-0.09766 0.07813,-0.15625 0.07813,-0.253906 0,-0.761719 -0.175781,-2.1875 h -0.17578 l 0.09766,0.17578 v 0.35156 l -0.17578,0.25391 v 0.09766 h 0.17578 q 0,0.07813 -0.09766,0.07813 0.09766,0.449218 0.175782,0.449218 -0.07813,0.78125 -0.175782,0.78125 0.09766,0.292969 0.273438,1.835938 v 0.09766 h -0.17578 q 0,-0.09766 0.07813,-0.09766 -0.117188,-0.527344 -0.253906,-0.527344 l -0.09766,0.17578 h 0.17578 q 0,0.175781 -0.07813,0.625 h 0.07813 l 0.17578,-0.09766 q 0,0.09766 0.09766,0.09766 z M 11.699,14.18 v -0.27344 h 0.17578 q 0,0.273437 -0.175781,0.273437 z m 0.078,0.254 h -0.25391 q 0.07813,-0.175781 0.07813,-0.253906 h 0.09766 q 0,0.07813 0.07813,0.253906 z m 7.539,1.132 v -1.3086 h -0.07813 v 1.2305 q -0.09766,0 -0.09766,0.07813 h 0.17578 z m 2.891,-0.605 V 14.53131 H 22.12887 V 14.961 Z m -0.332,1.406 q 0.15625,0 0.15625,-0.175781 -0.07813,-0.46875 -0.07813,-0.800781 l 0.25391,-0.33203 H 22.1289 q 0,0.07813 -0.09766,0.07813 0,-0.253907 -0.15625,-0.253907 v 0.07813 q 0,0.09766 0.07813,0.09766 l -0.07813,0.15625 v 1.1523 z m -9.57,0.43 q -0.07813,-0.429688 -0.07813,-0.605469 0,-0.09766 0.07813,-0.09766 -0.07813,-0.07813 -0.07813,-0.703125 h -0.09766 v 0.97656 l 0.09766,0.42969 z m -0.528,-0.781 h -0.07813 v -0.625 h 0.17578 z m 10.43,0 v -0.52734 h -0.17578 q 0.09766,0.136719 0.09766,0.527344 h 0.07813 z m -2.891,0.078 V 15.66431 H 19.23787 V 16.094 Z m 0,0.703 V 16.19153 H 19.23787 V 16.797 Z m -7.793,-0.352 v -0.17578 q 0.09766,0 0.253906,-0.07813 v 0.17578 q -0.09766,0 -0.253906,0.07813 z m 15.782,0.098 v -0.09766 q -0.09766,0 -0.273438,-0.07813 v 0.17578 h 0.27344 z m 0.429,0.43 -0.07813,-0.42969 h -0.09766 q 0,0.195312 -0.07813,0.351562 l 0.17578,0.07813 h 0.07813 z M 11.523,17.676 H 11.42534 V 16.6213 H 11.523 Z M 12.48,17.422 V 16.71887 H 12.40187 V 17.422 Z m -10.9566,0 H 1.425744 V 16.797 H 1.5234 Z m 19.6486,0.605 h -0.09766 v -1.2305 l 0.17578,0.09766 q -0.07813,0.292969 -0.07813,1.132813 z m -8.867,-0.703 q -0.07813,-0.15625 -0.07813,-0.351562 h -0.09766 v 0.351559 h 0.17578 z m 7.011,0.274 v -0.625 h -0.07813 v 0.625 z m -7.011,0.078 V 17.42209 H 12.12922 V 17.676 Z m 9.824,0.273 V 17.42166 H 22.03134 V 17.949 Z M 11.523,18.477 H 11.42534 V 17.852 H 11.523 Z m 16.485,2.539 v -0.35156 l 0.17578,0.07813 q 0,-0.175781 -0.09766,-0.351563 0.09766,-0.136718 0.09766,-0.351562 0,-0.07813 -0.09766,-0.07813 l 0.09766,-0.17578 -0.09766,-0.17578 h 0.09766 L 28.008,19.180065 q 0.175781,0 0.175781,-0.175781 h -0.17578 l 0.07813,-0.44922 -0.17578,-0.25391 h 0.09766 q -0.09766,-0.175782 -0.09766,-0.273438 h -0.25391 v 0.17578 h 0.25391 l -0.17578,0.27344 q 0,0.07813 0.09766,0.07813 l -0.09766,0.17578 0.17578,0.27344 -0.07813,0.42969 0.17578,-0.07813 v 0.15625 h -0.17578 v 0.97656 h -0.09766 v -0.27344 h -0.07813 q 0,0.351563 -0.175781,0.351563 v 0.17578 q 0.07813,0 0.07813,-0.07813 z m -6.66,-2.461 H 21.25034 V 18.02766 H 21.348 Z M 21.25,19.18 H 21.17187 V 18.73078 H 21.25 Z m 6.055,1.211 v -0.60547 h -0.17578 l 0.07813,0.17578 h -0.07813 q 0.07813,0.136719 0.07813,0.429687 h 0.09766 z m -5.528,0.703 H 21.69887 V 20.31275 H 21.777 Z m 5.606,-0.078 q 0,-0.449219 -0.253906,-0.527344 v 0.07813 l 0.07813,0.44922 h 0.17578 z M 12.051,20.918 q 0,-0.253906 -0.175781,-0.253906 v 0.25391 h 0.17578 z m 15.683,0.352 v -0.42969 h -0.07813 q 0,0.175781 -0.09766,0.175781 0.09766,0.15625 0.09766,0.253906 H 27.734 Z m 0.352,0.273 q 0,-0.195313 0.09766,-0.351563 l -0.35156,-0.09766 q 0.01953,0.175782 0.175781,0.175782 l -0.09766,0.17578 v 0.09766 h 0.17578 z m -6.211,-0.098 h -0.09766 q 0,-0.09766 -0.07813,-0.253906 h 0.17578 v 0.25391 z m 5.684,0.352 q 0.175781,-0.07813 0.273437,-0.07813 v -0.09766 h -0.175779 v -0.07813 h 0.175779 V 21.3673 h -0.175779 z m -5.684,1.152 h -0.17578 v -1.5039 q 0.175781,0.03906 0.175781,0.175781 v 1.3281 z M 11.953,22.148 V 21.62066 H 11.87487 V 22.148 Z m 16.133,0.528 q 0,-0.175781 0.09766,-0.175781 L 28.086,22.324439 v -0.70313 h -0.17578 l 0.09766,0.17578 q -0.449219,0.117187 -0.449219,0.273437 h 0.09766 l -0.09766,0.17578 v 0.07813 l 0.17578,-0.07813 h 0.27344 v 0.42969 h 0.07813 z m -0.703,3.769 q 0.449219,-0.253906 0.449219,-0.605469 l -0.09766,-0.17578 q 0.09766,-0.15625 0.09766,-0.351562 0,-0.09766 -0.09766,-0.09766 l 0.09766,-0.17578 -0.09766,-0.42969 h -0.07813 v 0.52734 q 0,0.07813 0.07813,0.07813 -0.07813,0.15625 -0.07813,0.351563 h -0.09766 q 0,-0.253906 -0.07813,-0.253906 l 0.07813,-0.17578 q 0,-0.09766 -0.07813,-0.09766 0.07813,-0.15625 0.07813,-0.253906 l -0.07813,-0.44922 0.52734,0.27344 q 0.175781,-0.292969 0.175781,-0.527344 v -0.60547 l -0.09766,-0.44922 h 0.09766 Q 28.0861,22.851245 28.0861,22.77312 h -0.07813 q 0,0.78125 -0.273438,0.78125 v 0.07813 h 0.17578 q -0.07813,0.175781 -0.07813,0.273438 h -0.09766 l -0.07813,-0.52734 h -0.09766 v 0.87891 h -0.07813 v -1.8359 l -0.09766,-0.44922 h -0.07813 v 0.17578 h 0.07813 q -0.07813,0.175781 -0.07813,0.273437 0,0.253907 0.07813,0.253907 l -0.07813,0.87891 v 1.7578 h -0.09766 v -0.27344 h -0.07813 v 0.70313 l 0.07813,0.17578 q -0.07813,0 -0.07813,0.09766 0.253906,0 0.253906,0.429687 z m 0.527,-3.847 q 0,-0.273438 -0.175781,-0.273438 l -0.07813,0.17578 0.17578,0.09766 h 0.07813 z M 8.6328,26.797 q 0,-0.742188 0.078125,-1.582031 H 8.6328 q 0.1757813,-0.546875 0.1757813,-2.089844 l -0.097656,-0.70313 h -0.078125 v 0.42969 h 0.078125 l -0.078125,0.17578 -0.097656,2.9883 v 0.78125 h 0.097656 z M 12.051,23.984 V 23.80822 L 11.87522,23.73009 12.051,22.77306 h -0.17578 q 0,0.253906 -0.09766,0.253906 0,0.09766 0.09766,0.09766 -0.07813,0.332031 -0.09766,0.683593 0.175781,0 0.175781,0.175782 h 0.09766 z m 0.429,-0.683 v -0.27344 q -0.175781,0.01953 -0.175781,0.175781 v 0.09766 h 0.17578 z M 9.7656,24.863 H 9.667944 q 0,-0.195313 -0.078125,-0.351563 l 0.078125,-0.52734 H 9.589819 q 0.078125,0 0.078125,-0.957031 H 9.7656 v 1.8359 z M 27.832,23.477 v -0.17578 l -0.17578,-0.09766 q 0.07813,0.175781 0.07813,0.273437 h 0.09766 z m -0.625,0.605 V 23.47653 H 27.12887 V 24.082 Z M 12.48,23.984 V 23.55431 H 12.40187 V 23.984 Z m -0.605,0.274 V 23.90644 H 11.77734 V 24.258 Z m 16.035,0.078 h -0.17578 l 0.09766,-0.17578 q -0.175781,0 -0.175781,-0.175781 h 0.25391 v 0.35156 z m -15.859,2.383 v -0.80078 l -0.09766,-0.17578 q 0.09766,-0.15625 0.09766,-0.253906 -0.09766,0 -0.09766,-0.09766 H 12.051 l -0.09766,-0.17578 Q 12.051,24.609629 12.051,24.433848 h -0.09766 q 0,0.234375 -0.175781,0.527343 h 0.09766 q 0,0.07813 -0.09766,0.07813 0.175781,0.859375 0.175781,1.679688 H 12.051 Z M 11.426,25.664 H 11.34787 V 24.4335 H 11.426 Z m 16.66,0.703 0.09766,-0.44922 q 0,-0.273438 -0.09766,-0.429688 0.09766,-0.15625 0.09766,-0.351562 l -0.17578,-0.09766 0.07813,-0.17578 v -0.07813 q -0.17579,0.01954 -0.17579,0.17579 v 0.95703 L 28.00788,26.367 Z M 9.8438,26.797 H 9.765675 V 26.62122 H 9.668019 V 26.797 H 9.589894 v -0.52734 h 0.25391 V 26.797 Z m 18.2422,0 V 26.44544 H 27.91022 V 26.797 Z m 0.098,1.582 q 0,-0.175781 -0.09766,-0.175781 l 0.09766,-0.17578 v -0.95703 q -0.273438,0 -0.273438,0.175781 h 0.17578 v 0.07813 q -0.117187,0 -0.429687,0.429687 l -0.17578,-0.07813 h -0.09766 v 0.07813 q 0.175781,0.410157 0.351562,0.449219 v -0.09766 l -0.07813,-0.17578 h 0.17578 q 0,0.449219 0.175781,0.449219 0,-0.09766 0.07813,-0.09766 0,0.09766 0.09766,0.09766 z m 0.879,1.6601 v -2.9688 h -0.09766 q 0,0.175781 -0.07813,0.175781 0,0.07813 0.07813,0.07813 l -0.07813,0.42969 0.07813,0.17578 h -0.07813 l 0.07813,0.17578 q -0.07813,0.175781 -0.07813,0.273438 l 0.07813,0.17578 q 0,0.07813 -0.07813,0.07813 l 0.07813,0.44922 v 0.78125 l -0.07813,0.17578 h 0.17578 z M 27.656,27.5 v -0.17578 q -0.351563,0 -0.351563,0.175781 h 0.35156 z m 0.43,0.352 H 28.00787 V 27.50044 H 28.086 Z m -0.781,0.527 v -0.17578 q -0.273438,0 -0.273438,0.175781 h 0.27344 z m 0.351,1.23 q -0.175781,-0.214844 -0.175781,-0.351562 l 0.17578,-0.35156 v -0.09766 h -0.09766 v 0.17578 h -0.07813 v -0.35156 l 0.17578,0.09766 0.07813,-0.17578 q -0.253907,0 -0.253907,-0.351563 h -0.09766 v 1.4063 H 27.656 Z m 0.43,0.078 v -0.07813 l -0.17578,-0.27344 q 0.136719,0 0.273437,-0.253906 v -0.625 q -0.09766,0 -0.09766,0.09766 l -0.17578,-0.09766 h -0.07813 v 0.35156 q 0,0.195312 0.07813,0.351562 -0.07813,0.15625 -0.07813,0.527344 l 0.17578,-0.07813 q 0,0.07813 0.07813,0.07813 z M 8.0078,30.3125 q 0.1757813,0 0.1757813,-0.273438 v -0.78125 h -0.078125 q 0,0.585938 -0.097656,1.054688 z m 19.8242,0.4297 q 0.117187,0 0.253906,-0.253906 v -0.09766 l -0.17578,0.09766 v -0.27344 h 0.17578 v -0.42969 h -0.25391 v 0.25391 l 0.17578,-0.07813 v 0.17578 q -0.273437,0 -0.273437,0.175781 v 0.42969 h 0.09766 z m -0.703,-0.6055 q 0,-0.09766 0.07813,-0.273438 H 27.129 l -0.09766,0.17578 v 0.09766 H 27.129 Z m 0.43,0.2539 -0.07813,-0.17578 q 0.07813,0 0.07813,-0.07813 l -0.17578,-0.09766 v 0.35156 H 27.559 Z M 7.832,31.4453 V 30.1367 H 7.753875 v 1.3086 z M 29.414,30.5664 H 29.31634 V 30.13671 H 29.414 Z m -7.988,0.5273 H 21.34787 V 30.74214 H 21.426 Z m 6.582,0.1758 v -0.07813 l -0.09766,-0.17578 h 0.17578 q 0,-0.175781 -0.175781,-0.175781 v 0.17578 l -0.17578,-0.09766 v 0.27344 q 0.09766,0 0.273437,0.07813 z m 1.406,0.0977 H 29.31634 V 31.01564 H 29.414 Z M 21.348,31.543 H 21.25034 V 31.19144 H 21.348 Z m 6.66,0.332 v -0.07813 q -0.09766,0 -0.09766,-0.07813 H 28.008 q -0.09766,-0.175781 -0.09766,-0.273438 h -0.07813 v 0.27344 q 0.01953,0.15625 0.175782,0.15625 z M 8.1055,33.5547 V 32.0508 H 7.92972 q 0,0.214844 0.078125,0.351562 0,0.09766 -0.078125,0.09766 0.078125,0.449218 0.078125,1.054687 H 8.105501 Z M 29.316,33.3789 h -0.07813 v -0.625 H 29.316 Z m -17.441,2.2852 q 0,-0.859375 0.07813,-0.878906 H 11.875 l 0.07813,-0.17578 v -1.5039 q 0,-0.175782 -0.175781,-0.175782 v 2.7344 H 11.875 Z M 27.832,33.457 v -0.25391 q -0.175781,0.01953 -0.175781,0.175781 z M 8.9844,33.7305 H 8.80862 v -0.27344 h 0.078125 q 0,0.09766 0.097656,0.273437 z m 0.0781,0.5273 H 8.88672 v -0.35156 h 0.097656 z m 0,0.6055 H 8.984375 L 8.886719,34.33596 q 0.1757812,0.03906 0.1757812,0.175781 v 0.35156 z M 1.3477,35.918 H 1.17192 v -0.70313 h 0.078125 q 0,0.625 0.097656,0.703125 z M 9.0625,35.8398 H 8.984375 V 35.48824 H 9.0625 Z M 1.3477,36.6992 H 1.250044 V 36.01561 H 1.3477 Z m 6.2304,0.2735 Q 7.656225,36.523481 7.656225,36.445356 L 7.5781,36.269576 q 0.078125,0 0.078125,-0.09766 H 7.5781 L 7.480444,36.3477 H 7.5781 L 7.480444,36.52348 V 36.9727 Z M 7.9297,36.875 V 36.44531 H 7.832044 V 36.875 Z M 1.4258,37.6758 H 1.347675 v -0.625 H 1.4258 Z m 0.3515,1.58201 q -0.1953125,0 -0.3515625,-0.878906 v -0.52734 h 0.097656 q 0,0.644531 0.2539062,1.40625 z M 1.25,39.51172 H 1.171875 V 39.08203 H 1.25 Z M 7.832,39.6875 H 7.753875 V 39.33594 H 7.832 Z m 19.023,1.05469 H 26.77687 V 40.39063 H 26.855 Z M 4.5898,40.91797 H 4.511675 V 40.56641 H 4.5898 Z m 41.627434,0.07812 h -0.07813 q 0,-0.644531 -0.09766,-0.957031 l 0.09766,-0.17578 q -0.09766,-0.15625 -0.09766,-0.351563 h -0.17578 q 0,0.09766 0.09766,0.09766 -0.09766,0.15625 -0.09766,0.351563 h -0.07813 v -0.17578 h -0.09766 q 0,0.175781 -0.175781,0.527344 h -0.07813 q 0,-0.214844 -0.175782,-0.625 h -0.17578 q 0,0.234375 -0.253906,0.527343 h 0.07813 q -0.175781,0.371094 -0.175781,0.527344 h -0.07813 l -0.35156,-0.87891 q -0.175781,0.09766 -0.273438,0.09766 v 0.07813 h 0.17578 q -0.07813,0.15625 -0.07813,0.351563 -0.175781,0 -0.175781,-0.527344 h 0.07813 Q 43.658621,38.47657 43.521903,38.47657 v 0.07813 h 0.07813 l -0.07813,0.175781 0.07813,0.17578 h -0.07813 l 0.07813,0.17578 v 0.35156 h -0.17578 l -0.17578,-0.60547 -0.17578,0.07813 q -0.07813,-0.175782 -0.07813,-0.253907 -0.351563,0 -0.351563,0.175782 v 0.95703 l -0.09766,0.60547 h -0.07813 q -0.273437,-1.269532 -0.625,-2.1875 0,-0.253907 -0.15625,-0.253907 0.07813,-0.175781 0.07813,-0.351562 l -0.25391,0.17578 q 0,-0.273438 0.07813,-0.429688 -0.351562,-1.289062 -0.351562,-3.671875 0,-0.09766 -0.07813,-0.09766 l 0.07813,-0.17578 q 0,-0.507812 -0.175782,-2.011719 h 0.09766 l -0.09766,-0.17578 v -2.1875 q 0,-0.195312 0.09766,-0.332031 l -0.09766,-0.17578 q 0.09766,-0.742187 0.09766,-1.308594 0,-0.292968 -0.09766,-0.449218 l 0.09766,-0.17578 q -0.09766,-0.839844 -0.175782,-0.957032 0.07813,0 0.07813,-0.07813 -0.488281,0 -0.605468,-0.09766 l -0.09766,0.17578 q -3.027344,0.07813 -4.628907,0.07813 -0.566406,0 -1.035156,-0.07813 -0.175781,0.07813 -0.273437,0.07813 0,-0.15625 -0.175782,-0.15625 -0.390625,0 -0.78125,0.07813 v -0.17578 l 0.35156,-0.07813 q 0,-0.175781 -0.273437,-0.175781 0,-0.175781 0.625,-0.273438 l -0.09766,-0.17578 q 0.175781,-0.07813 0.273437,-0.07813 v -0.09766 h -0.80078 v -0.07813 h 0.35156 v -0.09766 h -0.60547 v -0.25391 h 0.35156 v -0.17578 h -0.27344 v -0.09766 l 0.52734,-0.15625 v -0.09766 h -0.35156 v -0.07813 q 0.46875,0 0.527344,-0.273437 h -0.25391 v -0.07813 h 0.17578 v -0.09766 H 33.6391 v -0.17578 h 0.17578 v -0.07813 h -0.52734 v -0.09766 q 0.195313,0 0.429688,-0.351563 h -0.17578 v -0.07813 q 0.351562,0 0.351562,-0.146484 0,-0.146484 0.52734,-0.20508 v -0.25391 q 0,-0.175781 -0.175781,-0.175781 0.07813,-0.351563 0.175781,-0.351563 0,-0.175781 -0.605469,-0.449219 v -0.07813 q 0.175782,0 0.351563,-0.351562 l 0.52734,-0.07813 v -0.09766 l -0.44922,-0.07813 v -0.27344 q 0.273437,0 0.273437,-0.351563 l 0.17578,0.09766 h 0.07813 v -0.17578 q -0.429687,0 -0.429687,-0.351562 h 0.07813 q 0.703125,-0.175781 1.660156,-0.175781 0.175781,0.07813 0.273438,0.07813 v -0.07813 l 0.17578,0.07813 q 0.253906,0 0.253906,-0.175782 1.308594,0.09766 2.792969,0.09766 l 0.87891,0.07813 v -0.07813 l 0.17578,0.07813 h 0.25391 v -1.8359 q 0,-0.07813 0.09766,-0.07813 l -0.09766,-0.17578 q 0.09766,-0.175782 0.09766,-0.253907 h -0.09766 l 0.09766,-0.17578 v -0.625 h -0.09766 l -0.07813,0.87891 h -0.09766 v -1.0547 q 0,-0.07813 -0.07813,-0.07813 0.175781,0 0.253906,-2.890625 l 0.17578,-0.07813 h 0.09766 l 0.07813,0.35156 h 0.09766 v -0.27344 q -0.09766,0 -0.09766,-0.07813 0.136719,0 0.273438,-0.273437 -0.09766,-0.507813 -0.09766,-0.605469 h 0.09766 q 0.175782,0.371094 0.175782,0.429688 l 0.15625,-0.07813 q 0.117187,0.527343 0.273437,0.527343 0.351563,-0.722656 0.351563,-0.957031 h 0.07813 v 0.42969 h 0.09766 v -0.17578 l 0.17578,0.07813 q 0,-0.05859 0.175781,-0.507812 h 0.07813 v 0.60547 q 0.175781,0 0.175781,-0.429688 l 0.17578,0.07813 q 0,-0.351562 0.351563,-0.351562 0.07813,0.175781 0.07813,0.273437 h 0.09766 l 0.07813,-0.35156 h 0.09766 l 0.17578,0.07813 q 0,-0.07813 0.07813,-0.07813 v 0.25391 h 0.17578 v -0.17578 l 0.17578,0.09766 0.17578,-0.09766 q 0.01953,0.175781 0.175781,0.175781 h 0.17578 v -0.17578 h 0.17578 v 0.17578 h 0.17578 q 0,-0.175781 0.07813,-0.175781 h 0.27344 l 0.07813,-0.35156 h 0.09766 l 0.17578,0.80078 0.17578,-0.09766 h 0.07813 l 0.09766,0.52734 h 0.07813 v -0.52734 h 0.09766 l 0.42969,0.70313 q 0.351562,0 0.351562,0.175781 h 0.17578 l -0.17578,-0.27344 h 0.25391 l 0.27344,0.97656 v 1.1328 q 0,0.195313 -0.09766,0.351563 0,0.07813 0.09766,0.07813 l -0.09766,0.44922 q 0,1.660156 0.09766,2.519531 h -0.09766 q 0,0.09766 0.09766,0.09766 -0.09766,0.46875 -0.09766,0.703125 0.09766,0.332032 0.527343,0.332032 h 1.4844 l 0.17578,0.09766 v -0.09766 l 0.17578,0.09766 q 0.175782,-0.09766 0.253907,-0.09766 v 0.09766 l 0.17578,-0.09766 q 0.175781,0.09766 0.273437,0.09766 v 0.07813 h -1.8359 q -0.09766,0 -0.09766,-0.07813 -1.035156,0.07813 -1.035156,0.253906 h 0.95703 q 0.07813,0 0.07813,-0.07813 l 0.17578,0.07813 q 0.488281,0 0.976562,-0.07813 l 0.15625,0.07813 0.17578,-0.07813 q 0.09766,0 0.09766,0.07813 l 0.42969,-0.07813 h 1.582 q 0.07813,0 0.07813,-0.09766 l 0.17578,0.09766 q 0.175782,-0.09766 0.273438,-0.09766 v 0.09766 q 0.07813,0 0.07813,-0.09766 0.175781,0 0.175781,0.09766 l 0.87891,-0.09766 h 0.95703 v -0.17578 h -0.52734 l -0.17578,0.09766 v -0.09766 q -0.07813,0 -0.07813,0.09766 -0.351562,-0.09766 -0.703125,-0.09766 v -0.07813 q 3.203125,-0.175781 4.902344,-0.175781 0.07813,0 0.07813,0.07813 l 0.17578,-0.07813 h 0.87891 q 0.07813,0 0.07813,0.07813 l 0.17578,-0.07813 q 0.605469,0.07813 0.957031,0.07813 v 0.17578 h 0.52734 v 0.09766 h -0.17578 v 0.07813 h 0.17578 v 0.09766 h -0.17578 v 0.07813 h 0.95703 v 0.17578 h 1.1523 v 0.09766 h -0.17578 v 0.17578 l 0.85938,0.17578 v 0.07813 q -0.917969,0 -1.132812,0.273438 h -0.87891 l -0.60547,0.07813 v 0.09766 q 1.09375,0 1.308593,0.507812 h 0.70313 v 0.09766 H 63.0923 v 0.07813 h 0.25391 l -0.07813,0.17578 q 0.07813,0 0.07813,0.09766 h -0.42969 l 0.07813,0.17578 -0.95703,0.17578 v 0.25391 h 0.17578 v 0.09766 h -0.35156 v 0.15625 q 0.351563,0 0.351563,0.273438 -0.175781,0.07813 -0.253906,0.07813 l 0.07813,0.17578 h -0.25391 v 0.09766 l 0.42969,0.17578 v 0.07813 h -0.25391 v 0.09766 q 0.429687,0 0.507812,0.351562 -0.07813,0 -0.07813,0.07813 l -0.17578,-0.07813 h -0.25391 q 0,0.253907 -0.273437,0.253907 0,-0.07813 -0.07813,-0.07813 v 0.15625 q 0.214843,0 0.683593,0.09766 v 0.07813 h -1.0352 l -0.17578,0.09766 q 0,-0.175781 -0.175781,-0.175781 0,0.253906 0.175781,0.253906 l 0.42969,-0.07813 q 0,0.07813 0.09766,0.07813 v -0.07813 q 0.136718,0.07813 0.429687,0.07813 v 0.09766 h -0.60547 v 0.07813 h 0.17578 q 0,0.175781 -1.054687,0.351562 v 0.09766 h 0.35156 v 0.07813 q -0.507813,0 -1.40625,0.09766 v 0.17578 l 0.17578,-0.09766 h 1.0547 v 0.09766 q -0.390625,0 -0.527344,0.07813 v -0.07813 l -2.0117,0.35156 q -0.15625,-0.09766 -0.253906,-0.09766 l -0.17578,0.09766 -0.17578,-0.09766 q -0.46875,0.09766 -0.78125,0.09766 l -0.17578,-0.09766 v 0.09766 l -0.17578,-0.09766 q -0.09766,0 -0.09766,0.09766 -0.07813,0 -0.07813,-0.09766 l -0.625,0.09766 h -1.3086 q -0.07813,0 -0.07813,0.07813 l -0.17578,-0.07813 q -0.175781,0 -0.175781,0.07813 -0.09766,0 -0.09766,-0.07813 -1.738281,0.07813 -4.453125,0.07813 l -0.42969,-0.07813 q 0,0.07813 -0.09766,0.07813 v -0.07813 q -0.507813,0.07813 -0.507813,0.15625 l -0.17578,-0.07813 h -0.35156 q 0.07813,0.15625 0.175781,0.878906 h -0.09766 q 0.09766,0.15625 0.09766,0.253906 -0.09766,0.175781 -0.09766,0.273438 0.09766,0 0.09766,0.07813 -0.175782,0.01953 -0.175782,0.175781 h 0.17578 q 0,0.07813 -0.09766,0.07813 l 0.09766,0.17578 v 0.625 q 0,0.175781 -0.175781,0.175781 l 0.07813,0.17578 v 2.3438 l -0.25391,0.44922 h 0.17578 v -0.27344 h 0.07813 v 0.44922 h -0.17578 v 1.8359 q 0.03906,0.175781 0.175781,0.175781 0,-0.09766 0.09766,-0.09766 v 0.27344 h -0.17578 v 2.5195 q 0,0.09766 -0.09766,0.09766 0.09766,0.136719 0.175781,1.386719 l -0.17578,0.09766 0.09766,0.17578 v 0.25391 q -0.175781,0 -0.175781,-0.175781 v -0.52734 h 0.17578 v -0.07813 q -0.273437,0 -0.273437,-0.253906 l 0.09766,-0.17578 q -0.09766,0 -0.09766,-0.09766 h 0.09766 q -0.09766,-0.01953 -0.09766,-0.878906 h -0.07813 v 0.17578 h -0.09766 q 0,-0.429687 0.09766,-0.429687 l -0.09766,-0.42969 v -0.625 h -0.17578 l 0.09766,0.625 v 0.85938 q 0,0.09766 0.07813,0.09766 l -0.07813,0.17578 v 0.87891 h -0.27344 l 0.09766,0.15625 q 0,0.09766 -0.09766,0.527344 0.09766,0 0.09766,0.09766 l -0.17578,0.07813 -0.17578,-0.25391 v -0.17578 l 0.17578,0.07813 q 0,-0.195313 0.07813,-0.351563 h -0.15625 l 0.07813,-0.15625 v -0.80078 h -0.07813 v 0.87891 h -0.09766 v -0.52734 h -0.07813 v 0.60547 h 0.07813 q -0.175781,0.332032 -0.175781,0.703125 v 1.1328 q 0,0.175782 -0.175781,0.175782 0,-0.175782 -0.175781,-0.175782 v 1.1523 l 0.17578,0.25391 q -0.175782,0 -0.175782,0.253907 z m 0.527,-29.35509 h -0.07813 v -0.35156 h 0.07813 z m 1.23,7.168 q -0.09766,-2.050781 -0.09766,-4.453125 l -0.07813,-0.44922 h 0.07813 l -0.07813,-0.17578 v -0.85938 q 0,-0.175781 -0.175781,-0.175781 v 0.07813 q 0,0.09766 0.07813,0.09766 0,0.07813 -0.07813,0.07813 l 0.07813,0.87891 q 0,1.425781 -0.07813,2.441406 h 0.07813 l -0.07813,0.17578 q 0,1.484375 0.07813,2.363281 h 0.27344 z m -7.2652,-4.903 h -0.25391 l 0.07813,-0.60547 h -0.07813 l 0.07813,-0.17578 -0.17578,-0.35156 q 0.09766,0 0.273438,-0.07813 l 0.07813,0.60547 v 0.27344 q 0,0.07813 -0.07813,0.07813 l 0.07813,0.17578 v 0.07813 z m 18.0082,4.375 h -0.52734 v -0.07813 h 0.52734 z m 1.582,0.098 q -0.371093,-0.09766 -1.484375,-0.09766 v -0.07813 h 1.4844 v 0.17578 z m -4.473,0.078 q -0.09766,-0.07813 -0.605468,-0.07813 v -0.09766 h 0.70313 z m 5.43,0 h -0.70313 v -0.07813 q 0.175782,0 0.175782,-0.09766 0.136718,0.09766 0.527343,0.09766 V 18.457 Z m -8.75,0.527 h -1.3867 v -0.09766 q 0.351563,0 1.5625,-0.07813 0,0.175781 -0.175781,0.175781 z m 1.308,-0.097 h -0.95703 v -0.07813 h 0.95703 z m 2.012,0.175 q 0.273438,-0.07813 1.054688,-0.07813 v -0.09766 h -1.3086 v 0.09766 q 0.253906,0 0.253906,0.07813 z m 2.812,0.176 v -0.07813 l -0.09766,-0.17578 h 0.17578 l 0.35156,0.17578 q 0,-0.175781 0.253907,-0.175781 v -0.09766 h -1.4844 v 0.17578 q 0.351562,0 0.351562,0.175781 l 0.17578,-0.07813 q 0.175781,0.07813 0.273438,0.07813 z m -10.585,0 q 0,-0.175781 -0.175781,-0.175781 -0.175781,0.03906 -0.175781,0.175781 h 0.35156 z m 11.542,0 v -0.17578 h -0.35156 V 19.238 Z m -1.835,4.551 0.07813,-0.17578 -0.17578,-0.07813 v 0.07813 q 0.09766,0 0.09766,0.09766 -0.09766,0 -0.09766,0.07813 h 0.09766 z m -4.024,0.078 q 0.332032,-0.07813 0.703125,-0.07813 v -0.07813 q -0.273437,0 -0.273437,-0.09766 -0.15625,0.07813 -0.351563,0.09766 -0.07813,0 -0.07813,-0.09766 -0.136718,0.09766 -0.527343,0.09766 V 23.867 q 0.15625,0 0.527343,-0.15625 z m -3.672,0.801 q 0.878907,-0.09766 0.878907,-0.175781 0.15625,0.07813 0.351562,0.07813 v -0.17578 h -0.70313 l 0.07813,-0.17578 0.17578,0.09766 h 0.09766 v -0.17578 l -0.17578,0.07813 v -0.17578 h -0.70313 l -0.17578,0.09766 v -0.17578 h 2.2656 v -0.17578 l -0.15625,0.07813 q -0.195312,0 -0.351562,-0.07813 0,0.07813 -0.09766,0.07813 v -0.07813 l -0.17578,0.07813 h -0.70313 v -0.15625 h -0.60547 v 0.07813 h 0.27344 v 0.07813 h -0.97656 l 0.09766,0.17578 v 0.09766 h -0.17578 q 0,-0.273438 -0.273437,-0.273438 l 0.09766,-0.15625 h -0.70313 l -0.17578,0.07813 q 0,-0.07813 -0.07813,-0.07813 0,0.214844 -0.449219,0.253907 v 0.07813 q 0.175781,0 0.175781,0.175781 h 0.17578 q 0.175782,0 0.175782,-0.253906 h 0.17578 l -0.07813,0.17578 q 0.07813,0 0.07813,0.07813 -0.07813,0 -0.07813,0.09766 h 0.07813 l 0.17578,-0.09766 v 0.17578 h -0.60547 q -0.175782,0.03906 -0.175782,0.175781 0.195313,0 0.351563,0.09766 0,-0.09766 0.07813,-0.09766 v 0.09766 q 0.195312,-0.09766 1.132812,-0.175781 v -0.09766 h -0.25391 v -0.07813 q 0.429688,0 0.429688,-0.351563 h 0.27344 q -0.03906,0.429688 -0.273438,0.429688 v 0.09766 q 0.527344,0.05859 0.527344,0.175781 z m 5.41,-0.098 v -0.17578 l 0.17578,0.09766 0.44922,-0.17578 q 0,0.07813 0.07813,0.07813 v -0.17578 q 0,-0.175781 -0.175781,-0.175781 v 0.27344 l -0.25391,-0.17578 h -0.09766 v 0.17578 h -0.07813 v -0.17578 h -0.09766 l -0.25391,0.17578 q -0.175781,0 -0.351562,-0.09766 l -0.07813,0.17578 q -0.273438,-0.07813 -0.273438,-0.175782 l -0.42969,0.09766 h -0.52734 v -0.09766 h 0.35156 v -0.07813 q -0.253906,0 -0.253906,-0.175781 h -0.17578 q 0,0.351563 -0.273438,0.351563 v 0.17578 q 0.488282,0.07813 0.703125,0.07813 0.292969,0 1.484375,-0.07813 0,0.07813 0.07813,0.07813 z m 2.188,-0.429 v -0.17578 q -0.07813,0 -0.07813,0.07813 -0.175781,-0.07813 -0.351562,-0.07813 V 24.141 h 0.42969 z m -8.477,0.078 h -0.07813 q 0,-0.07813 -0.09766,-0.253906 h 0.17578 v 0.25391 z m 3.848,0.351 v -0.25391 l -0.17578,0.07813 h -0.60547 v -0.35156 h -0.09766 v 0.17578 l -0.25391,-0.17578 V 24.57 q 0.175782,0 0.351563,-0.07813 V 24.57 l 0.17578,-0.07813 h 0.25391 l 0.17578,0.07813 q 0,-0.07813 0.09766,-0.07813 0,0.07813 0.07813,0.07813 z m 0.273,-0.351 v -0.17578 q -0.351562,0 -0.351562,0.175781 h 0.35156 z m 5.332,0.273 q 0.351563,0 0.859375,-0.175781 0,0.07813 0.09766,0.07813 v -0.07813 q 0.07813,0 0.07813,0.07813 l 0.44922,-0.07813 h 0.50781 v -0.17578 h -0.25391 q -0.07813,0 -0.07813,0.07813 -0.117188,-0.07813 -0.527344,-0.07813 v 0.07813 q -0.175781,0 -0.175781,-0.07813 -0.527344,0.07813 -0.527344,0.175781 -0.703125,-0.09766 -0.703125,-0.175781 -1.660156,0.253906 -1.914063,0.253906 v -0.07813 l 0.52734,-0.09766 v -0.07813 q -0.625,0 -0.703125,-0.09766 v 0.44922 h 1.4844 l 0.52734,-0.09766 q 0.15625,0.09766 0.351563,0.09766 z m -17.6558,-0.097 v -0.07813 l -0.35156,-0.09766 q 0,0.175781 0.351563,0.175781 z m 9.1798,0 h -0.35156 v -0.17578 l 0.17578,0.09766 q 0.01953,-0.175781 0.175782,-0.175781 v 0.25391 z m 0.332,0 h -0.25391 q 0,-0.214844 0.351563,-0.253906 h 0.07813 v 0.07813 q -0.175781,0 -0.175781,0.175781 z m 1.328,0.175 v -0.07813 l -0.09766,-0.17578 q 0.09766,0 0.09766,-0.09766 h -0.27344 v 0.17578 Q 51.587857,24.57 51.822232,24.57 Z m 9.512,-0.078 v -0.09766 h -0.35156 V 24.492 Z m -20.4495,1.211 h -0.35156 v -0.07813 h 0.35156 z m 6.5625,0.703 v -0.60547 h -0.17578 l 0.07813,0.60547 z m 0.957,0.098 h -0.07813 q 0,-0.273438 -0.09766,-0.273438 0.09766,-0.15625 0.09766,-0.253906 h 0.17578 z m -0.957,7.246 q 0,-0.429688 0.175782,-0.429688 l -0.17578,-0.27344 v -0.17578 l 0.17578,0.09766 v -0.17578 h -0.17578 v -0.17578 l 0.17578,0.07813 v -0.17578 h -0.17578 v -0.07813 h 0.17578 l -0.09766,-0.42969 h 0.09766 l -0.09766,-0.17578 q 0,-0.644531 0.09766,-0.800781 -0.09766,-0.136719 -0.09766,-0.605469 0.03906,-0.175781 0.175781,-0.175781 v 0.17578 h 0.09766 v -0.35156 l -0.17578,0.09766 -0.09766,-0.17578 h 0.27344 v -0.09766 h -0.27344 q 0,-0.253906 0.09766,-0.253906 l -0.09766,-0.44922 q 0,-0.273438 0.09766,-0.429688 -0.09766,-0.175781 -0.09766,-0.253906 0.09766,-0.78125 0.09766,-0.976562 -0.09766,-0.253907 -0.175781,-0.253907 l 0.07813,-0.17578 q -0.07813,-0.175781 -0.07813,-0.253906 0.07813,0 0.07813,-0.09766 l -0.17578,-0.07813 h -0.07813 v 0.68359 q 0,0.09766 -0.09766,0.09766 l 0.09766,0.17578 v 1.4844 q -0.273438,0 -0.273438,0.07813 v 0.70313 h 0.09766 v -0.70313 h 0.07813 q 0,0.351563 0.09766,0.351563 l -0.09766,0.17578 v 0.52734 h -0.17578 v 2.6172 q 0.03906,0.175781 0.175781,0.175781 0,-0.546875 -0.07813,-1.5625 0.175781,0.01953 0.175781,0.175781 0,0.07813 -0.09766,0.07813 l 0.09766,0.17578 v 1.8359 h 0.17578 z m -0.605,-2.7148 v -1.3086 h -0.09766 v 1.3086 z m 0.507,3.4179 v -0.35156 h -0.07813 v 0.35156 z m 0.704,-0.0976 h -0.07813 v -0.33203 h 0.07813 z m -6.895,1.2304 h -0.09766 v -0.35156 h 0.09766 z m 0.0781,0.6055 h -0.07813 v -0.50781 h 0.07813 z m 5.6059,0 q 0,-0.195312 0.07813,-0.351562 -0.09766,0 -0.253906,-0.07813 v 0.07813 h 0.07813 q -0.07813,0.175781 -0.07813,0.351562 h 0.17578 z m 0.253,0.1758 v -0.42969 h -0.09766 v 0.42969 z m -5.7612,0.625 h -0.09766 v -0.44922 h 0.09766 z m 0.0781,1.0351 h -0.07813 v -0.60547 h 0.07813 z m 0.2734,0.7032 h -0.09766 l -0.07813,-0.35156 0.17578,-0.07813 v 0.42969 z m 5.4097,0.27341 h -0.09766 v -0.625 h 0.09766 z" />
  </g>
  <g
     style="fill:#e0bf4b;fill-opacity:1"
     fill="#000000"
     transform="matrix(0.65734848,0,0,0.66741699,7.7954845,46.321288)"
     featurekey="sloganFeature-0"
     id="SvgjsG14912">
    <path
       style="fill:#e0bf4b;fill-opacity:1"
       inkscape:connector-curvature="0"
       id="path840"
       d="M 0.4,7.48 C 0.34,7.22 0.32,6.98 0.32,6.74 0.32,6.62 0.3,6.48 0.32,6.34 0.36,6.08 0.4,6.02 0.68,6 0.76,5.98 0.84,5.98 0.9,6 1.28,6 1.66,5.96 2.02,5.84 2.06,5.84 2.1,5.82 2.12,5.82 2.36,5.8 2.58,5.78 2.82,5.76 c 0.1,0 0.2,0 0.28,0.02 0.16,0 0.3,0.02 0.44,0.04 0.06,0.02 0.12,0.02 0.18,0.04 0.22,0.06 0.44,0.12 0.68,0.1 0.12,0 0.24,0.02 0.36,0.08 0.08,0.04 0.18,0.08 0.26,0.1 0.08,0.04 0.16,0.06 0.24,0.1 0.24,0.14 0.46,0.3 0.7,0.46 0.06,0.04 0.1,0.1 0.14,0.16 0.16,0.18 0.32,0.38 0.5,0.54 0.1,0.08 0.16,0.18 0.22,0.28 0.16,0.22 0.3,0.46 0.38,0.74 0.06,0.18 0.12,0.36 0.16,0.56 0,0.1 0.04,0.18 0.08,0.28 0.02,0.06 0.04,0.12 0.04,0.18 0.02,0.36 0.08,0.72 0.14,1.08 v 0.04 c -0.02,0.38 0.08,0.76 0.08,1.16 0.02,0.36 0.04,0.72 0.1,1.08 0.02,0.12 0.06,0.24 0.08,0.36 0,0.08 0.02,0.16 0.02,0.26 0.02,0.24 0.04,0.48 0.04,0.72 0,0.26 -0.02,0.52 -0.02,0.76 0,0.26 -0.04,0.52 -0.08,0.76 -0.04,0.3 -0.04,0.58 -0.12,0.88 v 0.18 c 0,0.12 -0.02,0.24 -0.08,0.34 -0.04,0.12 -0.08,0.24 -0.1,0.36 0,0.06 -0.02,0.14 -0.06,0.2 -0.06,0.14 -0.08,0.28 -0.08,0.44 0,0.1 -0.04,0.18 -0.1,0.26 -0.08,0.1 -0.14,0.22 -0.18,0.36 C 7.08,18.8 6.98,18.88 6.9,18.96 6.9,18.98 6.88,19 6.84,19.02 6.7,19.06 6.58,19.16 6.46,19.28 6.44,19.3 6.38,19.32 6.32,19.32 6.2,19.32 6.1,19.34 5.98,19.38 5.66,19.42 5.34,19.52 5,19.52 c -0.3,0.02 -0.6,0.02 -0.9,0 -0.54,-0.02 -1.06,0 -1.58,0 -0.06,0 -0.12,0 -0.18,0.02 H 2.24 C 1.96,19.54 1.7,19.52 1.44,19.5 1.4,19.48 1.34,19.46 1.3,19.44 1.22,19.32 1.08,19.3 0.96,19.24 0.92,19.22 0.88,19.18 0.88,19.12 0.9,18.88 0.88,18.62 0.98,18.38 1,18.3 1.04,18.22 1.06,18.14 1.12,18 1.22,17.96 1.36,17.94 c 0.1,-0.02 0.22,0 0.32,0.04 0.04,0 0.1,-0.04 0.1,-0.08 C 1.8,17.78 1.8,17.68 1.8,17.56 V 13.82 9.54 7.8 C 1.8,7.72 1.8,7.64 1.78,7.58 1.78,7.54 1.74,7.52 1.7,7.5 1.54,7.48 1.38,7.48 1.24,7.52 1.06,7.58 0.88,7.58 0.7,7.52 0.62,7.48 0.5,7.48 0.4,7.48 Z M 3.34,7.4 c 0,0.04 -0.02,0.06 -0.02,0.1 v 0.34 9.68 0.26 0.12 c 0.02,0.04 0.06,0.08 0.1,0.08 H 3.64 C 3.96,18 4.26,17.98 4.56,18 4.8,18 5.02,17.96 5.24,17.92 5.38,17.9 5.52,17.84 5.66,17.8 5.74,17.76 5.78,17.72 5.78,17.64 5.8,17.48 5.84,17.34 5.9,17.22 5.96,17.08 5.98,16.94 6.02,16.8 c 0.02,-0.06 0.04,-0.1 0.06,-0.14 0.06,-0.1 0.08,-0.2 0.1,-0.3 0.04,-0.24 0.06,-0.46 0.1,-0.7 0.1,-0.6 0.1,-1.2 0.1,-1.8 0,-0.2 -0.02,-0.4 -0.08,-0.58 C 6.26,13.2 6.26,13.12 6.24,13.04 6.22,12.84 6.22,12.64 6.18,12.46 6.16,12.38 6.16,12.28 6.16,12.2 6.18,11.9 6.16,11.62 6.12,11.32 6.1,11.2 6.1,11.06 6.08,10.92 c 0,-0.06 0,-0.14 -0.02,-0.2 C 6.02,10.38 5.96,10.04 5.9,9.7 5.86,9.38 5.74,9.1 5.64,8.8 5.62,8.7 5.56,8.62 5.5,8.54 5.36,8.4 5.22,8.24 5.1,8.08 4.98,7.94 4.86,7.84 4.7,7.76 4.5,7.62 4.3,7.56 4.06,7.5 3.96,7.48 3.86,7.46 3.74,7.44 3.62,7.42 3.48,7.38 3.34,7.4 Z m 8.057,12.46 -0.18,-0.06 c 0,0 -0.12,-0.02 -0.16,0 -0.04,0.02 -0.1,0.02 -0.14,0.02 -0.3,-0.04 -0.66,-0.12 -0.9,-0.4 -0.02,0 -0.04,-0.02 -0.06,-0.04 -0.32,-0.2 -0.52,-0.5 -0.8,-0.76 -0.1,-0.08 -0.16,-0.18 -0.22,-0.28 -0.04,-0.08 -0.08,-0.18 -0.1,-0.26 -0.06,-0.14 -0.1,-0.28 -0.1,-0.42 0.02,-0.1 -0.02,-0.2 -0.04,-0.3 -0.04,-0.14 -0.06,-0.28 -0.1,-0.42 -0.1,-0.34 -0.14,-0.68 -0.22,-1.02 -0.04,-0.18 -0.04,-0.36 -0.04,-0.54 0,-0.62 -0.02,-1.24 -0.02,-1.86 0,-0.62 0.02,-1.24 0.02,-1.88 v -0.9 c 0.02,-0.14 0,-0.28 -0.08,-0.4 -0.02,-0.04 -0.02,-0.1 -0.02,-0.16 0.02,-0.04 0.02,-0.06 0.02,-0.1 0.04,-0.22 0.04,-0.44 -0.02,-0.66 -0.02,-0.1 -0.02,-0.2 0,-0.3 0.04,-0.18 0.06,-0.34 0,-0.5 V 8.48 c 0.02,-0.06 0.02,-0.1 0.04,-0.16 0.06,-0.14 0.08,-0.3 0.08,-0.46 0,-0.12 0.02,-0.24 0.08,-0.36 0.1,-0.24 0.26,-0.44 0.36,-0.68 0.02,-0.04 0.04,-0.08 0.08,-0.1 0.2,-0.22 0.4,-0.44 0.64,-0.6 0.16,-0.1 0.3,-0.22 0.46,-0.34 0.08,-0.08 0.18,-0.12 0.3,-0.14 0.16,-0.04 0.3,-0.06 0.46,-0.1 0.08,-0.04 0.16,-0.04 0.22,-0.04 0.08,-0.02 0.16,-0.02 0.24,-0.04 0.06,-0.02 0.14,-0.02 0.2,0.02 0.02,0.02 0.06,0.02 0.08,0.04 0.1,0.06 0.22,0.08 0.34,0.08 h 0.2 c 0,0 0.14,0.02 0.2,0.08 0.02,0.02 0.04,0.04 0.06,0.04 0.06,0.08 0.14,0.12 0.22,0.14 0.22,0.08 0.36,0.22 0.5,0.4 0.08,0.12 0.18,0.26 0.3,0.36 0.04,0.04 0.08,0.1 0.1,0.16 0.06,0.14 0.12,0.26 0.16,0.42 0.02,0.1 0.08,0.2 0.12,0.3 0.06,0.12 0.1,0.26 0.12,0.38 0,0.18 0.04,0.36 0.08,0.54 0.04,0.16 0.06,0.34 0.06,0.5 -0.02,0.16 0,0.32 0.06,0.46 0.02,0.06 0.02,0.12 0.02,0.16 0.02,0.1 0.02,0.2 -0.04,0.26 -0.04,0.06 -0.04,0.14 -0.04,0.2 v 0.36 6.62 c 0.02,0.3 -0.06,0.6 -0.18,0.88 l -0.42,0.96 c -0.04,0.06 -0.08,0.1 -0.12,0.16 -0.18,0.26 -0.46,0.42 -0.7,0.6 -0.1,0.08 -0.2,0.12 -0.32,0.14 -0.06,0 -0.14,0.02 -0.2,0.02 -0.2,0 -0.4,0.06 -0.6,0.12 z m -1.5,-6.6 v 2.24 0.34 c 0,0.06 0,0.12 0.02,0.16 0.08,0.14 0.1,0.28 0.12,0.42 0.02,0.06 0.04,0.14 0.06,0.2 0.08,0.2 0.16,0.38 0.24,0.58 0.04,0.08 0.08,0.18 0.12,0.24 0.14,0.16 0.28,0.32 0.4,0.46 0.16,0.18 0.38,0.24 0.62,0.22 0.18,-0.02 0.32,-0.08 0.4,-0.26 0.02,-0.04 0.02,-0.08 0.04,-0.12 0,-0.18 0.06,-0.36 0.12,-0.54 0.04,-0.14 0.08,-0.28 0.08,-0.42 0,-0.1 0.04,-0.2 0.06,-0.3 0.12,-0.28 0.16,-0.58 0.18,-0.88 0,-0.22 0,-0.42 0.02,-0.64 0,-0.08 0,-0.16 -0.04,-0.24 -0.02,-0.04 -0.02,-0.1 0,-0.16 0.06,-0.26 0.04,-0.52 0.02,-0.78 -0.04,-0.38 -0.02,-0.78 -0.02,-1.16 0,-0.74 0.02,-1.46 0.02,-2.2 0.02,-0.12 0.02,-0.22 -0.02,-0.34 -0.02,-0.04 -0.02,-0.1 -0.02,-0.16 -0.02,-0.28 -0.06,-0.56 -0.12,-0.84 -0.06,-0.28 -0.12,-0.56 -0.12,-0.86 0,-0.14 -0.06,-0.28 -0.12,-0.42 -0.04,-0.08 -0.1,-0.14 -0.14,-0.22 -0.04,-0.1 -0.12,-0.16 -0.22,-0.2 -0.04,-0.04 -0.1,-0.06 -0.14,-0.08 -0.3,-0.1 -0.56,-0.08 -0.8,0.12 -0.14,0.12 -0.26,0.24 -0.38,0.38 -0.08,0.06 -0.12,0.16 -0.14,0.26 -0.04,0.2 -0.08,0.42 -0.12,0.62 v 0.1 c 0,0.1 -0.02,0.2 0,0.3 0,0.12 -0.08,0.22 -0.1,0.34 v 0.02 c -0.02,0.26 -0.06,0.52 -0.08,0.78 -0.02,0.18 -0.02,0.38 0.02,0.56 0.02,0.06 0.02,0.12 0.02,0.18 0,0.78 -0.02,1.58 0.02,2.3 z m 9.914,-5.98 c -0.54,-0.1 -1.1,-0.1 -1.66,-0.08 -0.22,0.02 -0.28,-0.02 -0.38,-0.22 -0.1,-0.22 -0.12,-0.46 -0.12,-0.72 0,-0.28 0.04,-0.34 0.36,-0.46 0.18,-0.08 0.36,-0.08 0.56,-0.1 0.42,-0.02 0.84,0 1.26,0.02 h 0.62 c 0.28,-0.02 0.58,-0.02 0.86,-0.02 0.04,0 0.1,0 0.14,0.02 0.14,0.06 0.26,0.06 0.4,0.06 h 1.08 c 0.08,0 0.18,-0.02 0.26,0.02 0,0.02 0.02,0.04 0.04,0.06 0.02,0.22 0.06,0.42 0.08,0.64 0,0.1 -0.02,0.2 0,0.28 0,0.14 -0.04,0.28 -0.08,0.4 -0.02,0.08 -0.08,0.14 -0.16,0.14 -0.2,0.02 -0.42,0.02 -0.62,0.02 h -0.82 c -0.12,0 -0.18,0.06 -0.18,0.18 v 0.3 c 0,0.2 0.02,0.42 0.02,0.62 v 3.32 c 0,0.78 0.02,1.58 0,2.36 v 3.38 c 0,0.12 0,0.22 0.02,0.34 0,0.02 0.02,0.04 0.04,0.04 0.06,0.02 0.12,0.04 0.18,0.04 0.28,0 0.56,0.08 0.84,0.02 l 0.78,0.06 c 0.04,0.02 0.08,0.02 0.12,0.02 l 0.18,0.12 c 0.04,0.04 0.06,0.1 0.08,0.16 0.08,0.22 0.06,0.44 0.02,0.66 0,0.02 -0.02,0.04 -0.02,0.06 -0.1,0.38 -0.14,0.38 -0.48,0.34 -0.02,0 -0.06,-0.02 -0.08,-0.02 -0.32,0 -0.64,-0.02 -0.96,-0.04 -0.22,0 -0.42,0.02 -0.62,0.04 -0.12,0.02 -0.24,0.02 -0.32,0.12 -0.2,0.06 -0.4,0.12 -0.6,0.14 -0.18,0.02 -0.34,-0.06 -0.5,-0.14 -0.04,-0.02 -0.08,-0.06 -0.12,-0.08 -0.06,-0.02 -0.12,-0.04 -0.18,-0.04 -0.1,0 -0.2,0.02 -0.3,0 -0.1,0 -0.22,0 -0.32,0.04 -0.08,0.04 -0.16,0.06 -0.26,0.06 -0.12,0 -0.26,0.02 -0.4,0.06 -0.24,0.06 -0.48,0.02 -0.72,-0.06 -0.08,-0.06 -0.16,-0.14 -0.22,-0.2 -0.02,-0.02 -0.02,-0.04 -0.02,-0.06 0,-0.1 0.02,-0.18 0.02,-0.26 0.02,-0.12 0.04,-0.24 0.02,-0.38 -0.02,-0.1 0,-0.22 0.04,-0.32 0.02,-0.12 0.12,-0.22 0.26,-0.24 0.24,-0.02 0.5,-0.04 0.74,-0.06 l 0.36,-0.06 c 0,0 0.24,-0.04 0.36,0 0.1,0.02 0.2,0 0.3,-0.02 0.16,-0.02 0.18,-0.04 0.18,-0.22 v -0.88 c -0.02,-0.46 -0.02,-0.9 -0.02,-1.34 v -3.34 c 0.02,-0.98 0.02,-1.96 0.04,-2.94 0,-0.48 0,-0.96 0.04,-1.44 V 7.56 c 0.02,-0.12 -0.04,-0.2 -0.14,-0.28 z m 7.797,5.92 c 0.02,-1.48 0.02,-2.96 0.02,-4.44 0,-0.26 0.02,-0.54 0.04,-0.8 0,-0.14 -0.02,-0.28 -0.02,-0.4 0,-0.02 -0.02,-0.04 -0.04,-0.04 C 27.528,7.5 27.448,7.5 27.388,7.5 h -2.22 -0.36 c -0.06,0 -0.12,-0.02 -0.16,-0.04 -0.04,0 -0.08,-0.04 -0.1,-0.08 0,-0.08 -0.02,-0.14 -0.04,-0.22 -0.12,-0.34 -0.12,-0.68 -0.08,-1.04 0.02,-0.08 0.06,-0.16 0.08,-0.24 0.02,-0.04 0.06,-0.08 0.1,-0.08 0.04,-0.02 0.08,-0.02 0.12,-0.02 h 0.26 6.3 0.5 c 0.06,0 0.1,0 0.16,0.02 0.06,0 0.1,0.02 0.12,0.08 0.1,0.48 0.14,0.96 0.02,1.42 -0.04,0.1 -0.1,0.16 -0.18,0.18 -0.12,0 -0.22,0.02 -0.32,0.02 h -1.94 -0.3 c -0.04,0.02 -0.08,0.06 -0.08,0.1 v 0.12 c 0.04,0.2 0.02,0.4 0.02,0.58 v 9.54 c 0,0.2 -0.02,0.4 -0.02,0.6 v 0.54 0.34 c -0.02,0.06 -0.06,0.12 -0.12,0.14 -0.3,0.04 -0.6,0.08 -0.92,0.08 -0.14,-0.02 -0.28,-0.04 -0.4,-0.08 -0.08,-0.02 -0.12,-0.08 -0.12,-0.16 -0.02,-0.22 -0.04,-0.44 -0.04,-0.68 -0.04,-0.74 -0.04,-1.48 -0.04,-2.22 v -1.34 -1 -0.86 z M 40.442,5 l 0.3,-0.12 c 0.24,-0.1 0.5,-0.08 0.74,0 0.06,0.02 0.12,0.06 0.12,0.12 0.02,0.14 0.04,0.28 0.06,0.4 0.04,0.3 0,0.6 0.06,0.88 0.02,0.08 0,0.18 0,0.26 0,0.6 0,1.2 0.06,1.8 0.04,0.64 0.04,1.28 0.04,1.92 0,0.14 0.02,0.28 0.04,0.4 V 11 11.84 c 0,0.04 0.02,0.08 0.02,0.12 0,0.04 0.06,0.08 0.1,0.06 0.06,0 0.12,-0.02 0.18,-0.04 0.14,-0.06 0.28,-0.1 0.42,-0.16 0.06,-0.02 0.14,-0.04 0.2,-0.04 0.18,0 0.32,-0.04 0.48,-0.08 0.22,-0.06 0.44,-0.06 0.66,-0.06 0.04,0 0.1,0.02 0.14,0.04 0.04,0.02 0.1,0.06 0.1,0.1 0.1,0.34 0.18,0.7 0.16,1.06 0,0.08 0,0.16 -0.02,0.24 -0.02,0.08 -0.06,0.12 -0.12,0.14 -0.1,0.02 -0.18,0.06 -0.28,0.06 -0.32,0 -0.62,0.08 -0.9,0.16 -0.34,0.08 -0.66,0.2 -1,0.3 -0.08,0.02 -0.1,0.08 -0.1,0.16 0,0.4 -0.04,0.8 0,1.18 0.02,0.1 0.02,0.2 0.02,0.3 v 3.32 c 0,0.52 -0.04,1.06 -0.06,1.58 0,0.08 -0.06,0.14 -0.14,0.14 -0.12,0 -0.24,0.02 -0.36,0.04 -0.32,0.04 -0.66,0.06 -0.98,-0.02 -0.12,-0.04 -0.18,-0.1 -0.18,-0.2 -0.04,-0.18 -0.06,-0.38 -0.06,-0.56 -0.04,-1.6 -0.02,-3.2 -0.02,-4.8 0,-0.12 0.02,-0.24 -0.04,-0.36 -0.04,0 -0.1,0 -0.14,0.02 -0.34,0.12 -0.66,0.24 -1,0.36 -0.1,0.04 -0.14,0.1 -0.14,0.2 v 0.32 3.1 c 0,0.14 0,0.28 -0.02,0.4 0,0.1 -0.04,0.14 -0.14,0.16 -0.28,0.04 -0.58,0.08 -0.88,0.08 -0.12,0 -0.24,-0.02 -0.36,-0.06 -0.02,0 -0.04,0 -0.06,-0.02 -0.1,-0.04 -0.16,-0.1 -0.16,-0.22 -0.02,-0.2 -0.02,-0.42 -0.02,-0.62 -0.02,-0.82 -0.02,-1.62 -0.02,-2.44 v -0.32 c 0,-0.18 -0.02,-0.2 -0.2,-0.2 -0.08,-0.02 -0.18,-0.02 -0.28,-0.04 -0.06,0 -0.1,-0.04 -0.12,-0.08 -0.06,-0.2 -0.12,-0.4 -0.1,-0.62 0,-0.16 0,-0.34 0.04,-0.5 0.04,-0.1 0.08,-0.18 0.2,-0.2 0.14,-0.06 0.3,-0.1 0.46,-0.14 0.02,-0.06 0.02,-0.12 0.02,-0.18 0.02,-0.52 0.02,-1.02 0.04,-1.54 0,-0.3 0,-0.6 0.02,-0.88 0.04,-0.3 0.02,-0.6 0.04,-0.88 0.02,-0.52 0.02,-1.02 0.04,-1.52 0.02,-0.36 0.02,-0.72 0.04,-1.06 l 0.06,-0.78 c 0,-0.08 0.02,-0.16 0.04,-0.26 l 0.12,-0.54 c 0.02,-0.14 0.18,-0.28 0.32,-0.3 h 0.16 c 0.28,0 0.32,0.08 0.34,0.28 0.02,0.06 0.02,0.1 0.04,0.14 0.12,0.44 0.16,0.88 0.18,1.32 0.02,0.56 0.06,1.12 0.06,1.68 0,0.06 -0.02,0.1 0,0.16 0.06,0.54 0.06,1.08 0.06,1.62 0,0.28 0.02,0.56 0.02,0.84 v 0.14 c 0.06,0.34 0.04,0.68 0.04,1 0,0.08 0.02,0.14 0.02,0.22 0,0.02 0.04,0.04 0.06,0.04 h 0.06 l 1.08,-0.42 c 0.08,-0.04 0.14,-0.08 0.14,-0.18 0.02,-0.44 0.02,-0.86 0.04,-1.3 0,-0.62 0,-1.24 0.02,-1.88 0,-0.32 0.04,-0.66 0.06,-0.98 0,-0.16 0,-0.3 0.02,-0.44 0,-0.6 0.02,-1.18 0.04,-1.78 0.02,-0.32 0.06,-0.66 0.08,-0.98 0,-0.08 0.02,-0.16 0.04,-0.24 z m 6.937,14.86 -0.18,-0.06 c 0,0 -0.12,-0.02 -0.16,0 -0.04,0.02 -0.1,0.02 -0.14,0.02 -0.3,-0.04 -0.66,-0.12 -0.9,-0.4 -0.02,0 -0.04,-0.02 -0.06,-0.04 -0.32,-0.2 -0.52,-0.5 -0.8,-0.76 -0.1,-0.08 -0.16,-0.18 -0.22,-0.28 -0.04,-0.08 -0.08,-0.18 -0.1,-0.26 -0.06,-0.14 -0.1,-0.28 -0.1,-0.42 0.02,-0.1 -0.02,-0.2 -0.04,-0.3 -0.04,-0.14 -0.06,-0.28 -0.1,-0.42 -0.1,-0.34 -0.14,-0.68 -0.22,-1.02 -0.04,-0.18 -0.04,-0.36 -0.04,-0.54 0,-0.62 -0.02,-1.24 -0.02,-1.86 0,-0.62 0.02,-1.24 0.02,-1.88 v -0.9 c 0.02,-0.14 0,-0.28 -0.08,-0.4 -0.02,-0.04 -0.02,-0.1 -0.02,-0.16 0.02,-0.04 0.02,-0.06 0.02,-0.1 0.04,-0.22 0.04,-0.44 -0.02,-0.66 -0.02,-0.1 -0.02,-0.2 0,-0.3 0.04,-0.18 0.06,-0.34 0,-0.5 V 8.48 c 0.02,-0.06 0.02,-0.1 0.04,-0.16 0.06,-0.14 0.08,-0.3 0.08,-0.46 0,-0.12 0.02,-0.24 0.08,-0.36 0.1,-0.24 0.26,-0.44 0.36,-0.68 0.02,-0.04 0.04,-0.08 0.08,-0.1 0.2,-0.22 0.4,-0.44 0.64,-0.6 0.16,-0.1 0.3,-0.22 0.46,-0.34 0.08,-0.08 0.18,-0.12 0.3,-0.14 0.16,-0.04 0.3,-0.06 0.46,-0.1 0.08,-0.04 0.16,-0.04 0.22,-0.04 0.08,-0.02 0.16,-0.02 0.24,-0.04 0.06,-0.02 0.14,-0.02 0.2,0.02 0.02,0.02 0.06,0.02 0.08,0.04 0.1,0.06 0.22,0.08 0.34,0.08 h 0.2 c 0,0 0.14,0.02 0.2,0.08 0.02,0.02 0.04,0.04 0.06,0.04 0.06,0.08 0.14,0.12 0.22,0.14 0.22,0.08 0.36,0.22 0.5,0.4 0.08,0.12 0.18,0.26 0.3,0.36 0.04,0.04 0.08,0.1 0.1,0.16 0.06,0.14 0.12,0.26 0.16,0.42 0.02,0.1 0.08,0.2 0.12,0.3 0.06,0.12 0.1,0.26 0.12,0.38 0,0.18 0.04,0.36 0.08,0.54 0.04,0.16 0.06,0.34 0.06,0.5 -0.02,0.16 0,0.32 0.06,0.46 0.02,0.06 0.02,0.12 0.02,0.16 0.02,0.1 0.02,0.2 -0.04,0.26 -0.04,0.06 -0.04,0.14 -0.04,0.2 v 0.36 6.62 c 0.02,0.3 -0.06,0.6 -0.18,0.88 l -0.42,0.96 c -0.04,0.06 -0.08,0.1 -0.12,0.16 -0.18,0.26 -0.46,0.42 -0.7,0.6 -0.1,0.08 -0.2,0.12 -0.32,0.14 -0.06,0 -0.14,0.02 -0.2,0.02 -0.2,0 -0.4,0.06 -0.6,0.12 z m -1.5,-6.6 v 2.24 0.34 c 0,0.06 0,0.12 0.02,0.16 0.08,0.14 0.1,0.28 0.12,0.42 0.02,0.06 0.04,0.14 0.06,0.2 0.08,0.2 0.16,0.38 0.24,0.58 0.04,0.08 0.08,0.18 0.12,0.24 0.14,0.16 0.28,0.32 0.4,0.46 0.16,0.18 0.38,0.24 0.62,0.22 0.18,-0.02 0.32,-0.08 0.4,-0.26 0.02,-0.04 0.02,-0.08 0.04,-0.12 0,-0.18 0.06,-0.36 0.12,-0.54 0.04,-0.14 0.08,-0.28 0.08,-0.42 0,-0.1 0.04,-0.2 0.06,-0.3 0.12,-0.28 0.16,-0.58 0.18,-0.88 0,-0.22 0,-0.42 0.02,-0.64 0,-0.08 0,-0.16 -0.04,-0.24 -0.02,-0.04 -0.02,-0.1 0,-0.16 0.06,-0.26 0.04,-0.52 0.02,-0.78 -0.04,-0.38 -0.02,-0.78 -0.02,-1.16 0,-0.74 0.02,-1.46 0.02,-2.2 0.02,-0.12 0.02,-0.22 -0.02,-0.34 -0.02,-0.04 -0.02,-0.1 -0.02,-0.16 -0.02,-0.28 -0.06,-0.56 -0.12,-0.84 -0.06,-0.28 -0.12,-0.56 -0.12,-0.86 0,-0.14 -0.06,-0.28 -0.12,-0.42 -0.04,-0.08 -0.1,-0.14 -0.14,-0.22 -0.04,-0.1 -0.12,-0.16 -0.22,-0.2 -0.04,-0.04 -0.1,-0.06 -0.14,-0.08 -0.3,-0.1 -0.56,-0.08 -0.8,0.12 -0.14,0.12 -0.26,0.24 -0.38,0.38 -0.08,0.06 -0.12,0.16 -0.14,0.26 -0.04,0.2 -0.08,0.42 -0.12,0.62 v 0.1 c 0,0.1 -0.02,0.2 0,0.3 0,0.12 -0.08,0.22 -0.1,0.34 v 0.02 c -0.02,0.26 -0.06,0.52 -0.08,0.78 -0.02,0.18 -0.02,0.38 0.02,0.56 0.02,0.06 0.02,0.12 0.02,0.18 0,0.78 -0.02,1.58 0.02,2.3 z m 5.117,-7.52 c 0.3,-0.14 0.6,-0.2 0.92,-0.2 0.08,0 0.18,0 0.28,0.02 0.08,0.02 0.12,0.06 0.14,0.14 0.04,0.08 0.06,0.14 0.08,0.22 0.04,0.18 0.06,0.36 0.1,0.54 0.02,0.06 0.04,0.12 0.06,0.2 0.04,0.06 0.08,0.12 0.1,0.18 0.08,0.34 0.18,0.66 0.26,1 0.06,0.2 0.12,0.4 0.22,0.6 0.14,0.28 0.28,0.56 0.42,0.86 0.12,0.26 0.26,0.52 0.38,0.8 0.16,0.32 0.3,0.66 0.46,1 0.06,0.14 0.16,0.28 0.24,0.44 0.26,0.46 0.46,0.94 0.6,1.46 0.02,0.1 0.06,0.2 0.1,0.3 0.22,0.52 0.44,1.02 0.66,1.52 0.08,0.16 0.16,0.3 0.26,0.44 0.12,0.16 0.24,0.34 0.34,0.52 0.06,0.12 0.14,0.2 0.2,0.3 0.02,0.02 0.04,0.02 0.06,0.04 0.02,0 0.06,-0.04 0.06,-0.08 V 15.68 5.82 5.46 c 0,-0.04 0.02,-0.08 0.04,-0.12 0.38,-0.1 0.76,-0.1 1.14,-0.1 0.04,0 0.08,0.02 0.14,0.02 0.18,0.06 0.24,0.06 0.26,0.3 0.04,0.44 0.02,0.88 0.02,1.32 V 8.3 c 0.02,0.14 0,0.28 0,0.42 0,0.28 0.02,0.56 0,0.86 0,0.28 0.02,0.58 0,0.88 v 0.84 0.9 1.1 c 0,0.4 -0.02,0.82 -0.02,1.22 0,0.18 0,0.34 -0.02,0.5 0,0.72 0,1.42 -0.02,2.14 0,0.26 -0.02,0.52 -0.04,0.78 v 0.14 c -0.02,0.26 0.06,0.48 0.3,0.62 0.12,0.06 0.16,0.14 0.16,0.26 0.02,0.06 0.02,0.14 0.02,0.2 0,0.08 -0.04,0.12 -0.08,0.16 -0.14,0.1 -0.24,0.26 -0.34,0.4 -0.04,0.08 -0.08,0.14 -0.14,0.2 -0.12,0.1 -0.24,0.16 -0.38,0.14 -0.06,-0.02 -0.1,0 -0.14,0 -0.14,0 -0.24,-0.06 -0.32,-0.16 -0.1,-0.12 -0.22,-0.24 -0.32,-0.36 -0.08,-0.08 -0.14,-0.18 -0.18,-0.26 -0.14,-0.3 -0.32,-0.6 -0.5,-0.86 -0.1,-0.14 -0.2,-0.28 -0.3,-0.4 -0.14,-0.12 -0.26,-0.28 -0.36,-0.44 -0.08,-0.1 -0.16,-0.2 -0.22,-0.32 -0.06,-0.08 -0.12,-0.16 -0.18,-0.26 -0.1,-0.22 -0.22,-0.42 -0.36,-0.6 -0.14,-0.18 -0.26,-0.38 -0.36,-0.58 -0.16,-0.28 -0.3,-0.56 -0.42,-0.86 -0.06,-0.22 -0.16,-0.42 -0.26,-0.62 -0.18,-0.38 -0.34,-0.78 -0.46,-1.18 -0.06,-0.22 -0.16,-0.42 -0.26,-0.62 -0.24,-0.44 -0.46,-0.86 -0.64,-1.32 -0.02,-0.06 -0.06,-0.12 -0.1,-0.18 h -0.02 -0.04 v 0.28 3.74 c -0.02,1 -0.02,2.02 -0.04,3.04 0,0.38 -0.02,0.76 -0.08,1.14 -0.02,0.08 -0.02,0.16 -0.02,0.24 -0.02,0.1 -0.08,0.18 -0.18,0.22 -0.26,0.1 -0.52,0.12 -0.8,0.08 -0.08,0 -0.18,-0.04 -0.26,-0.06 -0.06,-0.02 -0.08,-0.06 -0.08,-0.12 -0.02,-0.06 -0.02,-0.12 -0.04,-0.18 0,-0.08 0,-0.16 -0.02,-0.24 -0.04,-0.32 -0.06,-0.64 -0.08,-0.96 v -0.48 c -0.02,-0.2 -0.02,-0.4 -0.02,-0.62 V 6.98 c 0,-0.22 0.02,-0.44 -0.04,-0.66 -0.02,-0.04 0,-0.1 0.02,-0.14 0.06,-0.14 0.08,-0.28 0.1,-0.44 z m 15.757,0.22 c 0,0.02 0.02,0.02 0.02,0.04 0.08,0.34 0.1,0.7 0.1,1.08 l -0.02,0.02 c -0.06,0.32 -0.04,0.38 -0.4,0.4 -0.12,0.02 -0.26,0.02 -0.4,0.02 h -3.14 c -0.12,0 -0.24,0 -0.36,0.02 -0.1,0 -0.14,0.04 -0.14,0.12 v 0.36 c 0,0 0.02,0.24 0.02,0.36 v 0.66 c 0,0.28 0,0.54 0.04,0.82 v 0.3 2.56 c 0,0.12 -0.02,0.24 0.02,0.38 0.06,-0.02 0.1,0 0.14,-0.02 0.46,-0.16 0.92,-0.24 1.38,-0.26 0.32,-0.04 0.66,-0.06 0.98,-0.12 0.16,-0.04 0.32,-0.06 0.5,-0.06 0.18,-0.02 0.32,-0.04 0.48,-0.14 0.04,-0.02 0.12,-0.02 0.16,0.04 0.08,0.1 0.18,0.18 0.3,0.26 0.18,0.12 0.28,0.44 0.14,0.72 -0.16,0.3 -0.24,0.42 -0.66,0.5 -0.14,0.02 -0.26,0.04 -0.4,0.06 -0.42,0.06 -0.84,0.12 -1.26,0.16 -0.06,0.02 -0.14,0.02 -0.2,0.02 -0.52,0.04 -1,0.18 -1.46,0.4 -0.08,0.04 -0.12,0.1 -0.12,0.2 v 0.54 2 c 0,0.1 0,0.2 0.02,0.32 0,0.04 0.02,0.06 0.06,0.08 h 0.32 3.16 0.24 c 0.36,0.02 0.32,-0.02 0.38,0.32 0.04,0.28 0.04,0.54 0.04,0.8 V 19 c -0.1,0.3 -0.06,0.36 -0.42,0.36 -0.54,0.02 -1.08,0.02 -1.64,0 h -1.16 c -0.48,0 -0.98,0 -1.48,-0.02 -0.28,-0.02 -0.54,-0.06 -0.82,-0.1 -0.06,0 -0.1,-0.06 -0.12,-0.12 -0.16,-0.44 -0.16,-0.44 -0.16,-0.92 -0.02,-0.54 -0.02,-1.1 -0.02,-1.66 v -4.02 c 0.02,-1.2 0.04,-2.42 0.04,-3.62 0,-0.4 0.04,-0.8 0.04,-1.2 0,-0.08 0.02,-0.18 -0.06,-0.26 -0.04,-0.16 -0.1,-0.3 -0.14,-0.44 -0.04,-0.32 -0.06,-0.64 0.04,-0.94 0.04,-0.08 0.08,-0.12 0.16,-0.12 h 0.26 5.22 c 0.1,0 0.22,-0.02 0.32,0.02 z m 2.957,4.64 c 0.2,0.28 0.42,0.54 0.66,0.8 0.18,0.22 0.4,0.36 0.64,0.48 0.18,0.06 0.34,0.14 0.5,0.22 0.28,0.18 0.52,0.36 0.74,0.58 0.2,0.2 0.4,0.42 0.62,0.58 0.06,0.06 0.1,0.12 0.18,0.18 h 0.16 c 0.06,0.02 0.1,0.04 0.14,0.08 0.14,0.14 0.24,0.3 0.28,0.5 0.02,0.16 0.06,0.32 0.12,0.48 0.06,0.2 0.08,0.42 0.1,0.64 v 0.58 c 0,0.1 0,0.22 0.06,0.32 0.02,0.04 0.02,0.1 0.02,0.16 0.02,0.12 0.02,0.24 0.04,0.34 0.04,0.28 0.04,0.54 -0.02,0.82 -0.02,0.04 -0.02,0.1 -0.02,0.16 -0.02,0.04 -0.02,0.1 -0.04,0.16 -0.08,0.2 -0.12,0.42 -0.2,0.64 0,0.02 -0.02,0.06 -0.04,0.08 -0.1,0.14 -0.18,0.3 -0.28,0.44 -0.04,0.06 -0.08,0.12 -0.14,0.18 -0.16,0.04 -0.32,0.1 -0.48,0.2 -0.04,0.04 -0.1,0.06 -0.18,0.06 -0.06,0 -0.14,0.02 -0.22,0.02 -0.12,0.02 -0.2,0.06 -0.28,0.16 -0.08,0.1 -0.18,0.14 -0.3,0.16 h -0.1 c -0.12,0.02 -0.26,0.06 -0.38,0.06 -0.14,0 -0.26,-0.04 -0.38,-0.06 h -0.2 c -0.12,0 -0.24,-0.02 -0.34,-0.08 -0.18,-0.08 -0.38,-0.14 -0.56,-0.18 -0.14,-0.04 -0.26,-0.1 -0.38,-0.18 -0.12,-0.08 -0.24,-0.16 -0.36,-0.22 -0.3,-0.16 -0.5,-0.44 -0.68,-0.74 -0.02,-0.1 -0.06,-0.2 -0.06,-0.3 -0.02,-0.2 -0.08,-0.38 -0.1,-0.58 -0.06,-0.3 -0.12,-0.6 -0.1,-0.9 0.02,-0.1 0.02,-0.2 0.04,-0.3 0.02,-0.14 0.04,-0.28 0.04,-0.42 0,-0.08 0,-0.16 0.02,-0.24 0.06,-0.14 0.04,-0.26 0.02,-0.38 -0.04,-0.12 -0.06,-0.22 -0.1,-0.34 0.04,-0.1 0.08,-0.2 0.12,-0.32 0.02,-0.06 0.08,-0.1 0.14,-0.1 h 0.24 c 0.22,-0.02 0.46,-0.02 0.68,-0.02 0.1,0 0.16,0.04 0.22,0.1 0.04,0.04 0.06,0.08 0.06,0.12 -0.02,0.12 0,0.22 0.1,0.3 0.04,0.04 0.06,0.1 0.04,0.18 -0.02,0.04 -0.04,0.1 -0.06,0.16 -0.04,0.1 -0.06,0.22 -0.04,0.34 0.04,0.12 0.02,0.26 0.04,0.38 0,0.14 -0.02,0.26 0.04,0.4 0.02,0.06 0.02,0.12 0,0.18 -0.06,0.18 -0.04,0.34 -0.02,0.52 0,0.08 0.04,0.16 0.12,0.22 0.18,0.16 0.36,0.3 0.6,0.38 0.06,0.02 0.14,0.06 0.2,0.08 0.1,0.04 0.2,0.06 0.32,0.06 0.08,0 0.18,0 0.26,0.04 0.28,0.06 0.54,0.02 0.8,-0.08 0.1,-0.02 0.2,-0.08 0.3,-0.12 0.08,-0.22 0.16,-0.42 0.14,-0.66 V 15.5 15.3 c 0,-0.14 -0.04,-0.26 -0.18,-0.32 -0.04,-0.04 -0.08,-0.08 -0.1,-0.14 -0.04,-0.18 -0.16,-0.32 -0.3,-0.44 -0.26,-0.24 -0.5,-0.48 -0.76,-0.72 -0.06,-0.04 -0.1,-0.1 -0.18,-0.12 -0.08,0 -0.18,-0.04 -0.24,-0.08 -0.14,-0.08 -0.28,-0.12 -0.44,-0.16 -0.4,-0.1 -0.76,-0.28 -1.06,-0.56 -0.26,-0.24 -0.42,-0.52 -0.58,-0.78 -0.08,-0.12 -0.14,-0.26 -0.2,-0.38 -0.1,-0.18 -0.12,-0.4 -0.18,-0.58 -0.02,-0.04 0,-0.08 0,-0.1 0.04,-0.14 0.06,-0.26 -0.02,-0.38 C 68.19,10.3 68.13,10.08 68.15,9.84 68.17,9.62 68.19,9.4 68.17,9.18 V 9.1 C 68.23,8.94 68.23,8.8 68.23,8.64 V 7.7 c -0.02,-0.2 0.04,-0.38 0.16,-0.54 0.04,-0.06 0.06,-0.1 0.1,-0.14 0.14,-0.18 0.3,-0.38 0.46,-0.56 0.02,-0.04 0.06,-0.06 0.12,-0.1 0.18,-0.08 0.32,-0.2 0.48,-0.32 0.12,-0.1 0.26,-0.18 0.42,-0.24 0.14,-0.04 0.26,-0.12 0.4,-0.12 0.06,0 0.12,-0.02 0.2,-0.02 0.16,0 0.32,-0.02 0.48,-0.04 0.1,-0.02 0.22,0 0.32,0.02 0.18,0.02 0.34,0.04 0.52,0.04 0.12,0.02 0.26,0.02 0.38,0.06 0.1,0.02 0.2,0.08 0.3,0.14 0.16,0.1 0.28,0.26 0.38,0.42 0.08,0.12 0.14,0.24 0.24,0.34 0.06,0.08 0.12,0.16 0.14,0.26 0.02,0.06 0.04,0.12 0.08,0.18 0.06,0.18 0.12,0.36 0.14,0.56 0.02,0.08 0.04,0.16 0.04,0.22 0.02,0.16 0.08,0.3 0.2,0.4 0.06,0.04 0.06,0.08 0.06,0.14 0,0.24 0,0.48 -0.02,0.72 -0.04,0.18 -0.04,0.36 -0.04,0.54 0,0.26 -0.02,0.5 -0.08,0.74 -0.02,0.1 -0.02,0.18 0,0.26 0.02,0.06 0.02,0.1 0.02,0.16 0,0.04 0,0.06 -0.02,0.1 -0.08,0.08 -0.16,0.14 -0.26,0.18 -0.22,0.06 -0.44,0.1 -0.68,0.14 -0.02,0.02 -0.06,0 -0.08,-0.02 -0.06,-0.06 -0.14,-0.14 -0.2,-0.22 0,-0.02 -0.02,-0.06 -0.02,-0.08 -0.02,-0.14 -0.04,-0.26 -0.04,-0.4 0.02,-0.18 0,-0.36 0,-0.54 0,-0.14 0.02,-0.28 -0.02,-0.42 C 72.39,9.54 72.39,9.52 72.39,9.5 72.43,9.14 72.33,8.78 72.25,8.44 72.25,8.42 72.25,8.4 72.23,8.38 72.13,8.2 72.05,7.98 71.89,7.82 71.79,7.7 71.67,7.58 71.55,7.48 71.41,7.36 71.25,7.3 71.11,7.22 h -0.1 c -0.22,0 -0.42,0.08 -0.62,0.18 -0.04,0.02 -0.06,0.06 -0.1,0.08 l -0.28,0.28 c 0,0 -0.2,0.2 -0.22,0.34 0,0.06 -0.02,0.1 -0.02,0.14 -0.02,0.04 -0.04,0.1 -0.02,0.16 0.02,0.16 -0.08,0.34 -0.06,0.5 v 1.44 c 0,0.08 0.02,0.16 0.02,0.26 z m 7.697,2.6 c 0.02,-1.48 0.02,-2.96 0.02,-4.44 0,-0.26 0.02,-0.54 0.04,-0.8 0,-0.14 -0.02,-0.28 -0.02,-0.4 0,-0.02 -0.02,-0.04 -0.04,-0.04 C 77.327,7.5 77.247,7.5 77.187,7.5 h -2.22 -0.36 c -0.06,0 -0.12,-0.02 -0.16,-0.04 -0.04,0 -0.08,-0.04 -0.1,-0.08 0,-0.08 -0.02,-0.14 -0.04,-0.22 -0.12,-0.34 -0.12,-0.68 -0.08,-1.04 0.02,-0.08 0.06,-0.16 0.08,-0.24 0.02,-0.04 0.06,-0.08 0.1,-0.08 0.04,-0.02 0.08,-0.02 0.12,-0.02 h 0.26 6.3 0.5 c 0.06,0 0.1,0 0.16,0.02 0.06,0 0.1,0.02 0.12,0.08 0.1,0.48 0.14,0.96 0.02,1.42 -0.04,0.1 -0.1,0.16 -0.18,0.18 -0.12,0 -0.22,0.02 -0.32,0.02 h -1.94 -0.3 c -0.04,0.02 -0.08,0.06 -0.08,0.1 v 0.12 c 0.04,0.2 0.02,0.4 0.02,0.58 v 9.54 c 0,0.2 -0.02,0.4 -0.02,0.6 v 0.54 0.34 c -0.02,0.06 -0.06,0.12 -0.12,0.14 -0.3,0.04 -0.6,0.08 -0.92,0.08 -0.14,-0.02 -0.28,-0.04 -0.4,-0.08 -0.08,-0.02 -0.12,-0.08 -0.12,-0.16 -0.02,-0.22 -0.04,-0.44 -0.04,-0.68 -0.04,-0.74 -0.04,-1.48 -0.04,-2.22 v -1.34 -1 -0.86 z m 5.817,-7.4 c 0.08,-0.02 0.14,-0.04 0.2,-0.06 0.26,-0.12 0.54,-0.1 0.82,-0.1 0.04,0 0.06,0 0.08,0.02 0.28,0.06 0.34,0.04 0.36,0.38 0,0.36 0.02,0.74 0.02,1.1 v 10.4 0.36 c 0,0.14 0.02,0.18 0.18,0.18 h 0.22 c 0.3,0.06 0.58,0 0.86,-0.06 0.26,-0.06 0.52,-0.1 0.78,-0.1 h 1.92 c 0.04,0 0.08,0.02 0.14,0.02 0.1,0.36 0.12,0.72 0.1,1.1 0,0.08 -0.02,0.16 -0.04,0.24 -0.02,0.1 -0.1,0.16 -0.2,0.18 -0.12,0.02 -0.24,0.02 -0.36,0.02 -0.3,0 -0.6,0 -0.92,-0.02 -0.4,0 -0.82,0.04 -1.22,0.12 -0.08,0.02 -0.14,0.02 -0.22,0.04 -0.18,0.02 -0.34,0.04 -0.52,0.04 h -0.42 c -0.1,0 -0.18,-0.02 -0.26,-0.02 -0.48,0 -0.94,-0.08 -1.42,-0.1 -0.12,0 -0.24,-0.02 -0.36,-0.1 -0.14,-0.26 -0.16,-0.56 -0.14,-0.86 0.02,-0.06 0.02,-0.12 0.04,-0.18 0.02,-0.08 0.06,-0.16 0.16,-0.2 0.02,-0.02 0.04,-0.04 0.06,-0.04 0.04,-0.12 0.04,-0.24 0.04,-0.36 v -2.76 c 0,-2.16 -0.02,-4.34 0,-6.5 0,-0.6 0,-1.22 0.02,-1.84 0,-0.26 0.04,-0.52 0.06,-0.78 0,-0.04 0,-0.06 0.02,-0.12 z m 9.977,11.34 c 0,-0.72 -0.02,-1.44 0,-2.14 0,-0.2 -0.02,-0.4 -0.1,-0.58 -0.02,-0.06 -0.04,-0.14 -0.04,-0.22 -0.04,-0.34 -0.14,-0.64 -0.22,-0.96 -0.02,-0.08 -0.06,-0.16 -0.08,-0.22 -0.1,-0.18 -0.18,-0.36 -0.26,-0.52 -0.22,-0.44 -0.38,-0.88 -0.52,-1.34 -0.1,-0.38 -0.24,-0.74 -0.42,-1.08 -0.2,-0.42 -0.36,-0.88 -0.48,-1.34 -0.04,-0.2 -0.1,-0.38 -0.18,-0.56 -0.1,-0.24 -0.18,-0.48 -0.26,-0.72 -0.04,-0.08 -0.06,-0.16 -0.14,-0.2 -0.08,-0.04 -0.12,-0.1 -0.12,-0.18 -0.02,-0.06 -0.02,-0.12 -0.02,-0.18 0,-0.18 -0.02,-0.34 -0.1,-0.5 -0.02,-0.06 -0.02,-0.14 0.02,-0.2 0.04,-0.08 0.06,-0.16 0.06,-0.26 0,-0.06 0,-0.14 0.02,-0.2 0,-0.1 0.04,-0.14 0.14,-0.16 0.06,-0.02 0.12,-0.02 0.2,-0.06 0.08,-0.02 0.16,-0.04 0.26,-0.04 h 0.54 c 0.02,0 0.02,-0.02 0.04,-0.02 0.32,0.04 0.36,0.08 0.4,0.36 0.02,0.12 0.02,0.24 0.02,0.38 0,0.1 0.02,0.2 0.06,0.3 0.1,0.26 0.18,0.56 0.32,0.82 0.04,0.08 0.06,0.16 0.08,0.26 0.06,0.14 0.1,0.3 0.16,0.44 0.06,0.16 0.12,0.3 0.14,0.46 0.02,0.26 0.12,0.5 0.24,0.74 0.24,0.42 0.4,0.88 0.56,1.36 0.02,0.1 0.04,0.2 0.08,0.3 0.06,0.28 0.16,0.54 0.28,0.78 0.02,0.04 0.02,0.04 0.04,0.06 0.02,0.04 0.06,0.02 0.08,0 0.14,-0.2 0.22,-0.44 0.28,-0.68 0.04,-0.08 0.04,-0.16 0.06,-0.24 0.06,-0.2 0.1,-0.4 0.2,-0.58 0.02,-0.04 0.02,-0.08 0.04,-0.14 0.08,-0.28 0.2,-0.54 0.34,-0.8 0.16,-0.28 0.26,-0.56 0.3,-0.86 0.02,-0.14 0.06,-0.28 0.12,-0.4 l 0.06,-0.12 c 0.1,-0.4 0.28,-0.76 0.42,-1.16 0.08,-0.22 0.16,-0.44 0.14,-0.68 0,-0.1 0.02,-0.22 0.04,-0.32 0.02,-0.18 0.1,-0.24 0.28,-0.26 h 0.14 0.48 c 0.12,0 0.24,0.02 0.36,0.06 0.3,0.08 0.3,0.04 0.32,0.38 0,0.06 0,0.14 0.02,0.2 0.12,0.12 0.06,0.24 0.02,0.38 -0.04,0.1 -0.06,0.2 -0.06,0.3 V 7 c 0,0.12 -0.04,0.22 -0.16,0.28 -0.06,0.04 -0.08,0.08 -0.1,0.14 -0.08,0.26 -0.18,0.52 -0.28,0.76 -0.08,0.2 -0.14,0.38 -0.2,0.58 -0.1,0.48 -0.28,0.92 -0.48,1.34 -0.16,0.34 -0.3,0.68 -0.38,1.02 -0.18,0.58 -0.4,1.14 -0.68,1.68 -0.12,0.22 -0.22,0.46 -0.28,0.72 -0.06,0.3 -0.1,0.6 -0.18,0.9 -0.02,0.12 -0.02,0.24 -0.02,0.34 v 1.06 3.62 c 0,0.32 0.02,0.3 -0.3,0.36 -0.28,0.04 -0.58,0.04 -0.86,0.04 -0.1,0 -0.2,-0.04 -0.3,-0.06 -0.06,-0.02 -0.12,-0.08 -0.12,-0.14 -0.02,-0.08 -0.02,-0.16 -0.02,-0.24 0,-0.66 0,-1.3 -0.02,-1.96 v -0.3 z" />
  </g>
  <g
     fill="#000000"
     transform="matrix(0.7999993,0,0,0.81225279,87.999923,147.83002)"
     featurekey="sloganFeature-1"
     id="SvgjsG14913">
    <path
       inkscape:connector-curvature="0"
       id="path843"
       d="" />
  </g>
</svg>
