<?xml version="1.0" encoding="UTF-8" standalone="no"?>
<svg
   xmlns:dc="http://purl.org/dc/elements/1.1/"
   xmlns:cc="http://creativecommons.org/ns#"
   xmlns:rdf="http://www.w3.org/1999/02/22-rdf-syntax-ns#"
   xmlns:svg="http://www.w3.org/2000/svg"
   xmlns="http://www.w3.org/2000/svg"
   xmlns:sodipodi="http://sodipodi.sourceforge.net/DTD/sodipodi-0.dtd"
   xmlns:inkscape="http://www.inkscape.org/namespaces/inkscape"
   inkscape:version="1.0beta2 (2b71d25, 2019-12-03)"
   sodipodi:docname="slogan.svg"
   id="svg846"
   version="1.1"
   class="css-1j8o68f"
   viewBox="0 0 63.999962 10.466905"
   height="10.466906"
   width="63.999962">
  <metadata
     id="metadata850">
    <rdf:RDF>
      <cc:Work
         rdf:about="">
        <dc:format>image/svg+xml</dc:format>
        <dc:type
           rdf:resource="http://purl.org/dc/dcmitype/StillImage" />
        <dc:title></dc:title>
      </cc:Work>
    </rdf:RDF>
  </metadata>
  <sodipodi:namedview
     inkscape:current-layer="svg846"
     inkscape:window-maximized="0"
     inkscape:window-y="43"
     inkscape:window-x="35"
     inkscape:cy="-16.161145"
     inkscape:cx="45.862024"
     inkscape:zoom="6.1312196"
     showgrid="false"
     id="namedview848"
     inkscape:window-height="809"
     inkscape:window-width="1440"
     inkscape:pageshadow="2"
     inkscape:pageopacity="0"
     guidetolerance="10"
     gridtolerance="10"
     objecttolerance="10"
     borderopacity="1"
     inkscape:document-rotation="0"
     bordercolor="#666666"
     pagecolor="#ffffff" />
  <defs
     id="SvgjsDefs14909" />
  <g
     style="fill:#e0bf4b;fill-opacity:1"
     fill="#000000"
     transform="matrix(0.65734848,0,0,0.66741699,-0.20450842,-3.2118061)"
     featurekey="sloganFeature-0"
     id="SvgjsG14912">
    <path
       style="fill:#e0bf4b;fill-opacity:1"
       inkscape:connector-curvature="0"
       id="path840"
       d="M 0.4,7.48 C 0.34,7.22 0.32,6.98 0.32,6.74 0.32,6.62 0.3,6.48 0.32,6.34 0.36,6.08 0.4,6.02 0.68,6 0.76,5.98 0.84,5.98 0.9,6 1.28,6 1.66,5.96 2.02,5.84 2.06,5.84 2.1,5.82 2.12,5.82 2.36,5.8 2.58,5.78 2.82,5.76 c 0.1,0 0.2,0 0.28,0.02 0.16,0 0.3,0.02 0.44,0.04 0.06,0.02 0.12,0.02 0.18,0.04 0.22,0.06 0.44,0.12 0.68,0.1 0.12,0 0.24,0.02 0.36,0.08 0.08,0.04 0.18,0.08 0.26,0.1 0.08,0.04 0.16,0.06 0.24,0.1 0.24,0.14 0.46,0.3 0.7,0.46 0.06,0.04 0.1,0.1 0.14,0.16 0.16,0.18 0.32,0.38 0.5,0.54 0.1,0.08 0.16,0.18 0.22,0.28 0.16,0.22 0.3,0.46 0.38,0.74 0.06,0.18 0.12,0.36 0.16,0.56 0,0.1 0.04,0.18 0.08,0.28 0.02,0.06 0.04,0.12 0.04,0.18 0.02,0.36 0.08,0.72 0.14,1.08 v 0.04 c -0.02,0.38 0.08,0.76 0.08,1.16 0.02,0.36 0.04,0.72 0.1,1.08 0.02,0.12 0.06,0.24 0.08,0.36 0,0.08 0.02,0.16 0.02,0.26 0.02,0.24 0.04,0.48 0.04,0.72 0,0.26 -0.02,0.52 -0.02,0.76 0,0.26 -0.04,0.52 -0.08,0.76 -0.04,0.3 -0.04,0.58 -0.12,0.88 v 0.18 c 0,0.12 -0.02,0.24 -0.08,0.34 -0.04,0.12 -0.08,0.24 -0.1,0.36 0,0.06 -0.02,0.14 -0.06,0.2 -0.06,0.14 -0.08,0.28 -0.08,0.44 0,0.1 -0.04,0.18 -0.1,0.26 -0.08,0.1 -0.14,0.22 -0.18,0.36 C 7.08,18.8 6.98,18.88 6.9,18.96 6.9,18.98 6.88,19 6.84,19.02 6.7,19.06 6.58,19.16 6.46,19.28 6.44,19.3 6.38,19.32 6.32,19.32 6.2,19.32 6.1,19.34 5.98,19.38 5.66,19.42 5.34,19.52 5,19.52 c -0.3,0.02 -0.6,0.02 -0.9,0 -0.54,-0.02 -1.06,0 -1.58,0 -0.06,0 -0.12,0 -0.18,0.02 H 2.24 C 1.96,19.54 1.7,19.52 1.44,19.5 1.4,19.48 1.34,19.46 1.3,19.44 1.22,19.32 1.08,19.3 0.96,19.24 0.92,19.22 0.88,19.18 0.88,19.12 0.9,18.88 0.88,18.62 0.98,18.38 1,18.3 1.04,18.22 1.06,18.14 1.12,18 1.22,17.96 1.36,17.94 c 0.1,-0.02 0.22,0 0.32,0.04 0.04,0 0.1,-0.04 0.1,-0.08 C 1.8,17.78 1.8,17.68 1.8,17.56 V 13.82 9.54 7.8 C 1.8,7.72 1.8,7.64 1.78,7.58 1.78,7.54 1.74,7.52 1.7,7.5 1.54,7.48 1.38,7.48 1.24,7.52 1.06,7.58 0.88,7.58 0.7,7.52 0.62,7.48 0.5,7.48 0.4,7.48 Z M 3.34,7.4 c 0,0.04 -0.02,0.06 -0.02,0.1 v 0.34 9.68 0.26 0.12 c 0.02,0.04 0.06,0.08 0.1,0.08 H 3.64 C 3.96,18 4.26,17.98 4.56,18 4.8,18 5.02,17.96 5.24,17.92 5.38,17.9 5.52,17.84 5.66,17.8 5.74,17.76 5.78,17.72 5.78,17.64 5.8,17.48 5.84,17.34 5.9,17.22 5.96,17.08 5.98,16.94 6.02,16.8 c 0.02,-0.06 0.04,-0.1 0.06,-0.14 0.06,-0.1 0.08,-0.2 0.1,-0.3 0.04,-0.24 0.06,-0.46 0.1,-0.7 0.1,-0.6 0.1,-1.2 0.1,-1.8 0,-0.2 -0.02,-0.4 -0.08,-0.58 C 6.26,13.2 6.26,13.12 6.24,13.04 6.22,12.84 6.22,12.64 6.18,12.46 6.16,12.38 6.16,12.28 6.16,12.2 6.18,11.9 6.16,11.62 6.12,11.32 6.1,11.2 6.1,11.06 6.08,10.92 c 0,-0.06 0,-0.14 -0.02,-0.2 C 6.02,10.38 5.96,10.04 5.9,9.7 5.86,9.38 5.74,9.1 5.64,8.8 5.62,8.7 5.56,8.62 5.5,8.54 5.36,8.4 5.22,8.24 5.1,8.08 4.98,7.94 4.86,7.84 4.7,7.76 4.5,7.62 4.3,7.56 4.06,7.5 3.96,7.48 3.86,7.46 3.74,7.44 3.62,7.42 3.48,7.38 3.34,7.4 Z m 8.057,12.46 -0.18,-0.06 c 0,0 -0.12,-0.02 -0.16,0 -0.04,0.02 -0.1,0.02 -0.14,0.02 -0.3,-0.04 -0.66,-0.12 -0.9,-0.4 -0.02,0 -0.04,-0.02 -0.06,-0.04 -0.32,-0.2 -0.52,-0.5 -0.8,-0.76 -0.1,-0.08 -0.16,-0.18 -0.22,-0.28 -0.04,-0.08 -0.08,-0.18 -0.1,-0.26 -0.06,-0.14 -0.1,-0.28 -0.1,-0.42 0.02,-0.1 -0.02,-0.2 -0.04,-0.3 -0.04,-0.14 -0.06,-0.28 -0.1,-0.42 -0.1,-0.34 -0.14,-0.68 -0.22,-1.02 -0.04,-0.18 -0.04,-0.36 -0.04,-0.54 0,-0.62 -0.02,-1.24 -0.02,-1.86 0,-0.62 0.02,-1.24 0.02,-1.88 v -0.9 c 0.02,-0.14 0,-0.28 -0.08,-0.4 -0.02,-0.04 -0.02,-0.1 -0.02,-0.16 0.02,-0.04 0.02,-0.06 0.02,-0.1 0.04,-0.22 0.04,-0.44 -0.02,-0.66 -0.02,-0.1 -0.02,-0.2 0,-0.3 0.04,-0.18 0.06,-0.34 0,-0.5 V 8.48 c 0.02,-0.06 0.02,-0.1 0.04,-0.16 0.06,-0.14 0.08,-0.3 0.08,-0.46 0,-0.12 0.02,-0.24 0.08,-0.36 0.1,-0.24 0.26,-0.44 0.36,-0.68 0.02,-0.04 0.04,-0.08 0.08,-0.1 0.2,-0.22 0.4,-0.44 0.64,-0.6 0.16,-0.1 0.3,-0.22 0.46,-0.34 0.08,-0.08 0.18,-0.12 0.3,-0.14 0.16,-0.04 0.3,-0.06 0.46,-0.1 0.08,-0.04 0.16,-0.04 0.22,-0.04 0.08,-0.02 0.16,-0.02 0.24,-0.04 0.06,-0.02 0.14,-0.02 0.2,0.02 0.02,0.02 0.06,0.02 0.08,0.04 0.1,0.06 0.22,0.08 0.34,0.08 h 0.2 c 0,0 0.14,0.02 0.2,0.08 0.02,0.02 0.04,0.04 0.06,0.04 0.06,0.08 0.14,0.12 0.22,0.14 0.22,0.08 0.36,0.22 0.5,0.4 0.08,0.12 0.18,0.26 0.3,0.36 0.04,0.04 0.08,0.1 0.1,0.16 0.06,0.14 0.12,0.26 0.16,0.42 0.02,0.1 0.08,0.2 0.12,0.3 0.06,0.12 0.1,0.26 0.12,0.38 0,0.18 0.04,0.36 0.08,0.54 0.04,0.16 0.06,0.34 0.06,0.5 -0.02,0.16 0,0.32 0.06,0.46 0.02,0.06 0.02,0.12 0.02,0.16 0.02,0.1 0.02,0.2 -0.04,0.26 -0.04,0.06 -0.04,0.14 -0.04,0.2 v 0.36 6.62 c 0.02,0.3 -0.06,0.6 -0.18,0.88 l -0.42,0.96 c -0.04,0.06 -0.08,0.1 -0.12,0.16 -0.18,0.26 -0.46,0.42 -0.7,0.6 -0.1,0.08 -0.2,0.12 -0.32,0.14 -0.06,0 -0.14,0.02 -0.2,0.02 -0.2,0 -0.4,0.06 -0.6,0.12 z m -1.5,-6.6 v 2.24 0.34 c 0,0.06 0,0.12 0.02,0.16 0.08,0.14 0.1,0.28 0.12,0.42 0.02,0.06 0.04,0.14 0.06,0.2 0.08,0.2 0.16,0.38 0.24,0.58 0.04,0.08 0.08,0.18 0.12,0.24 0.14,0.16 0.28,0.32 0.4,0.46 0.16,0.18 0.38,0.24 0.62,0.22 0.18,-0.02 0.32,-0.08 0.4,-0.26 0.02,-0.04 0.02,-0.08 0.04,-0.12 0,-0.18 0.06,-0.36 0.12,-0.54 0.04,-0.14 0.08,-0.28 0.08,-0.42 0,-0.1 0.04,-0.2 0.06,-0.3 0.12,-0.28 0.16,-0.58 0.18,-0.88 0,-0.22 0,-0.42 0.02,-0.64 0,-0.08 0,-0.16 -0.04,-0.24 -0.02,-0.04 -0.02,-0.1 0,-0.16 0.06,-0.26 0.04,-0.52 0.02,-0.78 -0.04,-0.38 -0.02,-0.78 -0.02,-1.16 0,-0.74 0.02,-1.46 0.02,-2.2 0.02,-0.12 0.02,-0.22 -0.02,-0.34 -0.02,-0.04 -0.02,-0.1 -0.02,-0.16 -0.02,-0.28 -0.06,-0.56 -0.12,-0.84 -0.06,-0.28 -0.12,-0.56 -0.12,-0.86 0,-0.14 -0.06,-0.28 -0.12,-0.42 -0.04,-0.08 -0.1,-0.14 -0.14,-0.22 -0.04,-0.1 -0.12,-0.16 -0.22,-0.2 -0.04,-0.04 -0.1,-0.06 -0.14,-0.08 -0.3,-0.1 -0.56,-0.08 -0.8,0.12 -0.14,0.12 -0.26,0.24 -0.38,0.38 -0.08,0.06 -0.12,0.16 -0.14,0.26 -0.04,0.2 -0.08,0.42 -0.12,0.62 v 0.1 c 0,0.1 -0.02,0.2 0,0.3 0,0.12 -0.08,0.22 -0.1,0.34 v 0.02 c -0.02,0.26 -0.06,0.52 -0.08,0.78 -0.02,0.18 -0.02,0.38 0.02,0.56 0.02,0.06 0.02,0.12 0.02,0.18 0,0.78 -0.02,1.58 0.02,2.3 z m 9.914,-5.98 c -0.54,-0.1 -1.1,-0.1 -1.66,-0.08 -0.22,0.02 -0.28,-0.02 -0.38,-0.22 -0.1,-0.22 -0.12,-0.46 -0.12,-0.72 0,-0.28 0.04,-0.34 0.36,-0.46 0.18,-0.08 0.36,-0.08 0.56,-0.1 0.42,-0.02 0.84,0 1.26,0.02 h 0.62 c 0.28,-0.02 0.58,-0.02 0.86,-0.02 0.04,0 0.1,0 0.14,0.02 0.14,0.06 0.26,0.06 0.4,0.06 h 1.08 c 0.08,0 0.18,-0.02 0.26,0.02 0,0.02 0.02,0.04 0.04,0.06 0.02,0.22 0.06,0.42 0.08,0.64 0,0.1 -0.02,0.2 0,0.28 0,0.14 -0.04,0.28 -0.08,0.4 -0.02,0.08 -0.08,0.14 -0.16,0.14 -0.2,0.02 -0.42,0.02 -0.62,0.02 h -0.82 c -0.12,0 -0.18,0.06 -0.18,0.18 v 0.3 c 0,0.2 0.02,0.42 0.02,0.62 v 3.32 c 0,0.78 0.02,1.58 0,2.36 v 3.38 c 0,0.12 0,0.22 0.02,0.34 0,0.02 0.02,0.04 0.04,0.04 0.06,0.02 0.12,0.04 0.18,0.04 0.28,0 0.56,0.08 0.84,0.02 l 0.78,0.06 c 0.04,0.02 0.08,0.02 0.12,0.02 l 0.18,0.12 c 0.04,0.04 0.06,0.1 0.08,0.16 0.08,0.22 0.06,0.44 0.02,0.66 0,0.02 -0.02,0.04 -0.02,0.06 -0.1,0.38 -0.14,0.38 -0.48,0.34 -0.02,0 -0.06,-0.02 -0.08,-0.02 -0.32,0 -0.64,-0.02 -0.96,-0.04 -0.22,0 -0.42,0.02 -0.62,0.04 -0.12,0.02 -0.24,0.02 -0.32,0.12 -0.2,0.06 -0.4,0.12 -0.6,0.14 -0.18,0.02 -0.34,-0.06 -0.5,-0.14 -0.04,-0.02 -0.08,-0.06 -0.12,-0.08 -0.06,-0.02 -0.12,-0.04 -0.18,-0.04 -0.1,0 -0.2,0.02 -0.3,0 -0.1,0 -0.22,0 -0.32,0.04 -0.08,0.04 -0.16,0.06 -0.26,0.06 -0.12,0 -0.26,0.02 -0.4,0.06 -0.24,0.06 -0.48,0.02 -0.72,-0.06 -0.08,-0.06 -0.16,-0.14 -0.22,-0.2 -0.02,-0.02 -0.02,-0.04 -0.02,-0.06 0,-0.1 0.02,-0.18 0.02,-0.26 0.02,-0.12 0.04,-0.24 0.02,-0.38 -0.02,-0.1 0,-0.22 0.04,-0.32 0.02,-0.12 0.12,-0.22 0.26,-0.24 0.24,-0.02 0.5,-0.04 0.74,-0.06 l 0.36,-0.06 c 0,0 0.24,-0.04 0.36,0 0.1,0.02 0.2,0 0.3,-0.02 0.16,-0.02 0.18,-0.04 0.18,-0.22 v -0.88 c -0.02,-0.46 -0.02,-0.9 -0.02,-1.34 v -3.34 c 0.02,-0.98 0.02,-1.96 0.04,-2.94 0,-0.48 0,-0.96 0.04,-1.44 V 7.56 c 0.02,-0.12 -0.04,-0.2 -0.14,-0.28 z m 7.797,5.92 c 0.02,-1.48 0.02,-2.96 0.02,-4.44 0,-0.26 0.02,-0.54 0.04,-0.8 0,-0.14 -0.02,-0.28 -0.02,-0.4 0,-0.02 -0.02,-0.04 -0.04,-0.04 C 27.528,7.5 27.448,7.5 27.388,7.5 h -2.22 -0.36 c -0.06,0 -0.12,-0.02 -0.16,-0.04 -0.04,0 -0.08,-0.04 -0.1,-0.08 0,-0.08 -0.02,-0.14 -0.04,-0.22 -0.12,-0.34 -0.12,-0.68 -0.08,-1.04 0.02,-0.08 0.06,-0.16 0.08,-0.24 0.02,-0.04 0.06,-0.08 0.1,-0.08 0.04,-0.02 0.08,-0.02 0.12,-0.02 h 0.26 6.3 0.5 c 0.06,0 0.1,0 0.16,0.02 0.06,0 0.1,0.02 0.12,0.08 0.1,0.48 0.14,0.96 0.02,1.42 -0.04,0.1 -0.1,0.16 -0.18,0.18 -0.12,0 -0.22,0.02 -0.32,0.02 h -1.94 -0.3 c -0.04,0.02 -0.08,0.06 -0.08,0.1 v 0.12 c 0.04,0.2 0.02,0.4 0.02,0.58 v 9.54 c 0,0.2 -0.02,0.4 -0.02,0.6 v 0.54 0.34 c -0.02,0.06 -0.06,0.12 -0.12,0.14 -0.3,0.04 -0.6,0.08 -0.92,0.08 -0.14,-0.02 -0.28,-0.04 -0.4,-0.08 -0.08,-0.02 -0.12,-0.08 -0.12,-0.16 -0.02,-0.22 -0.04,-0.44 -0.04,-0.68 -0.04,-0.74 -0.04,-1.48 -0.04,-2.22 v -1.34 -1 -0.86 z M 40.442,5 l 0.3,-0.12 c 0.24,-0.1 0.5,-0.08 0.74,0 0.06,0.02 0.12,0.06 0.12,0.12 0.02,0.14 0.04,0.28 0.06,0.4 0.04,0.3 0,0.6 0.06,0.88 0.02,0.08 0,0.18 0,0.26 0,0.6 0,1.2 0.06,1.8 0.04,0.64 0.04,1.28 0.04,1.92 0,0.14 0.02,0.28 0.04,0.4 V 11 11.84 c 0,0.04 0.02,0.08 0.02,0.12 0,0.04 0.06,0.08 0.1,0.06 0.06,0 0.12,-0.02 0.18,-0.04 0.14,-0.06 0.28,-0.1 0.42,-0.16 0.06,-0.02 0.14,-0.04 0.2,-0.04 0.18,0 0.32,-0.04 0.48,-0.08 0.22,-0.06 0.44,-0.06 0.66,-0.06 0.04,0 0.1,0.02 0.14,0.04 0.04,0.02 0.1,0.06 0.1,0.1 0.1,0.34 0.18,0.7 0.16,1.06 0,0.08 0,0.16 -0.02,0.24 -0.02,0.08 -0.06,0.12 -0.12,0.14 -0.1,0.02 -0.18,0.06 -0.28,0.06 -0.32,0 -0.62,0.08 -0.9,0.16 -0.34,0.08 -0.66,0.2 -1,0.3 -0.08,0.02 -0.1,0.08 -0.1,0.16 0,0.4 -0.04,0.8 0,1.18 0.02,0.1 0.02,0.2 0.02,0.3 v 3.32 c 0,0.52 -0.04,1.06 -0.06,1.58 0,0.08 -0.06,0.14 -0.14,0.14 -0.12,0 -0.24,0.02 -0.36,0.04 -0.32,0.04 -0.66,0.06 -0.98,-0.02 -0.12,-0.04 -0.18,-0.1 -0.18,-0.2 -0.04,-0.18 -0.06,-0.38 -0.06,-0.56 -0.04,-1.6 -0.02,-3.2 -0.02,-4.8 0,-0.12 0.02,-0.24 -0.04,-0.36 -0.04,0 -0.1,0 -0.14,0.02 -0.34,0.12 -0.66,0.24 -1,0.36 -0.1,0.04 -0.14,0.1 -0.14,0.2 v 0.32 3.1 c 0,0.14 0,0.28 -0.02,0.4 0,0.1 -0.04,0.14 -0.14,0.16 -0.28,0.04 -0.58,0.08 -0.88,0.08 -0.12,0 -0.24,-0.02 -0.36,-0.06 -0.02,0 -0.04,0 -0.06,-0.02 -0.1,-0.04 -0.16,-0.1 -0.16,-0.22 -0.02,-0.2 -0.02,-0.42 -0.02,-0.62 -0.02,-0.82 -0.02,-1.62 -0.02,-2.44 v -0.32 c 0,-0.18 -0.02,-0.2 -0.2,-0.2 -0.08,-0.02 -0.18,-0.02 -0.28,-0.04 -0.06,0 -0.1,-0.04 -0.12,-0.08 -0.06,-0.2 -0.12,-0.4 -0.1,-0.62 0,-0.16 0,-0.34 0.04,-0.5 0.04,-0.1 0.08,-0.18 0.2,-0.2 0.14,-0.06 0.3,-0.1 0.46,-0.14 0.02,-0.06 0.02,-0.12 0.02,-0.18 0.02,-0.52 0.02,-1.02 0.04,-1.54 0,-0.3 0,-0.6 0.02,-0.88 0.04,-0.3 0.02,-0.6 0.04,-0.88 0.02,-0.52 0.02,-1.02 0.04,-1.52 0.02,-0.36 0.02,-0.72 0.04,-1.06 l 0.06,-0.78 c 0,-0.08 0.02,-0.16 0.04,-0.26 l 0.12,-0.54 c 0.02,-0.14 0.18,-0.28 0.32,-0.3 h 0.16 c 0.28,0 0.32,0.08 0.34,0.28 0.02,0.06 0.02,0.1 0.04,0.14 0.12,0.44 0.16,0.88 0.18,1.32 0.02,0.56 0.06,1.12 0.06,1.68 0,0.06 -0.02,0.1 0,0.16 0.06,0.54 0.06,1.08 0.06,1.62 0,0.28 0.02,0.56 0.02,0.84 v 0.14 c 0.06,0.34 0.04,0.68 0.04,1 0,0.08 0.02,0.14 0.02,0.22 0,0.02 0.04,0.04 0.06,0.04 h 0.06 l 1.08,-0.42 c 0.08,-0.04 0.14,-0.08 0.14,-0.18 0.02,-0.44 0.02,-0.86 0.04,-1.3 0,-0.62 0,-1.24 0.02,-1.88 0,-0.32 0.04,-0.66 0.06,-0.98 0,-0.16 0,-0.3 0.02,-0.44 0,-0.6 0.02,-1.18 0.04,-1.78 0.02,-0.32 0.06,-0.66 0.08,-0.98 0,-0.08 0.02,-0.16 0.04,-0.24 z m 6.937,14.86 -0.18,-0.06 c 0,0 -0.12,-0.02 -0.16,0 -0.04,0.02 -0.1,0.02 -0.14,0.02 -0.3,-0.04 -0.66,-0.12 -0.9,-0.4 -0.02,0 -0.04,-0.02 -0.06,-0.04 -0.32,-0.2 -0.52,-0.5 -0.8,-0.76 -0.1,-0.08 -0.16,-0.18 -0.22,-0.28 -0.04,-0.08 -0.08,-0.18 -0.1,-0.26 -0.06,-0.14 -0.1,-0.28 -0.1,-0.42 0.02,-0.1 -0.02,-0.2 -0.04,-0.3 -0.04,-0.14 -0.06,-0.28 -0.1,-0.42 -0.1,-0.34 -0.14,-0.68 -0.22,-1.02 -0.04,-0.18 -0.04,-0.36 -0.04,-0.54 0,-0.62 -0.02,-1.24 -0.02,-1.86 0,-0.62 0.02,-1.24 0.02,-1.88 v -0.9 c 0.02,-0.14 0,-0.28 -0.08,-0.4 -0.02,-0.04 -0.02,-0.1 -0.02,-0.16 0.02,-0.04 0.02,-0.06 0.02,-0.1 0.04,-0.22 0.04,-0.44 -0.02,-0.66 -0.02,-0.1 -0.02,-0.2 0,-0.3 0.04,-0.18 0.06,-0.34 0,-0.5 V 8.48 c 0.02,-0.06 0.02,-0.1 0.04,-0.16 0.06,-0.14 0.08,-0.3 0.08,-0.46 0,-0.12 0.02,-0.24 0.08,-0.36 0.1,-0.24 0.26,-0.44 0.36,-0.68 0.02,-0.04 0.04,-0.08 0.08,-0.1 0.2,-0.22 0.4,-0.44 0.64,-0.6 0.16,-0.1 0.3,-0.22 0.46,-0.34 0.08,-0.08 0.18,-0.12 0.3,-0.14 0.16,-0.04 0.3,-0.06 0.46,-0.1 0.08,-0.04 0.16,-0.04 0.22,-0.04 0.08,-0.02 0.16,-0.02 0.24,-0.04 0.06,-0.02 0.14,-0.02 0.2,0.02 0.02,0.02 0.06,0.02 0.08,0.04 0.1,0.06 0.22,0.08 0.34,0.08 h 0.2 c 0,0 0.14,0.02 0.2,0.08 0.02,0.02 0.04,0.04 0.06,0.04 0.06,0.08 0.14,0.12 0.22,0.14 0.22,0.08 0.36,0.22 0.5,0.4 0.08,0.12 0.18,0.26 0.3,0.36 0.04,0.04 0.08,0.1 0.1,0.16 0.06,0.14 0.12,0.26 0.16,0.42 0.02,0.1 0.08,0.2 0.12,0.3 0.06,0.12 0.1,0.26 0.12,0.38 0,0.18 0.04,0.36 0.08,0.54 0.04,0.16 0.06,0.34 0.06,0.5 -0.02,0.16 0,0.32 0.06,0.46 0.02,0.06 0.02,0.12 0.02,0.16 0.02,0.1 0.02,0.2 -0.04,0.26 -0.04,0.06 -0.04,0.14 -0.04,0.2 v 0.36 6.62 c 0.02,0.3 -0.06,0.6 -0.18,0.88 l -0.42,0.96 c -0.04,0.06 -0.08,0.1 -0.12,0.16 -0.18,0.26 -0.46,0.42 -0.7,0.6 -0.1,0.08 -0.2,0.12 -0.32,0.14 -0.06,0 -0.14,0.02 -0.2,0.02 -0.2,0 -0.4,0.06 -0.6,0.12 z m -1.5,-6.6 v 2.24 0.34 c 0,0.06 0,0.12 0.02,0.16 0.08,0.14 0.1,0.28 0.12,0.42 0.02,0.06 0.04,0.14 0.06,0.2 0.08,0.2 0.16,0.38 0.24,0.58 0.04,0.08 0.08,0.18 0.12,0.24 0.14,0.16 0.28,0.32 0.4,0.46 0.16,0.18 0.38,0.24 0.62,0.22 0.18,-0.02 0.32,-0.08 0.4,-0.26 0.02,-0.04 0.02,-0.08 0.04,-0.12 0,-0.18 0.06,-0.36 0.12,-0.54 0.04,-0.14 0.08,-0.28 0.08,-0.42 0,-0.1 0.04,-0.2 0.06,-0.3 0.12,-0.28 0.16,-0.58 0.18,-0.88 0,-0.22 0,-0.42 0.02,-0.64 0,-0.08 0,-0.16 -0.04,-0.24 -0.02,-0.04 -0.02,-0.1 0,-0.16 0.06,-0.26 0.04,-0.52 0.02,-0.78 -0.04,-0.38 -0.02,-0.78 -0.02,-1.16 0,-0.74 0.02,-1.46 0.02,-2.2 0.02,-0.12 0.02,-0.22 -0.02,-0.34 -0.02,-0.04 -0.02,-0.1 -0.02,-0.16 -0.02,-0.28 -0.06,-0.56 -0.12,-0.84 -0.06,-0.28 -0.12,-0.56 -0.12,-0.86 0,-0.14 -0.06,-0.28 -0.12,-0.42 -0.04,-0.08 -0.1,-0.14 -0.14,-0.22 -0.04,-0.1 -0.12,-0.16 -0.22,-0.2 -0.04,-0.04 -0.1,-0.06 -0.14,-0.08 -0.3,-0.1 -0.56,-0.08 -0.8,0.12 -0.14,0.12 -0.26,0.24 -0.38,0.38 -0.08,0.06 -0.12,0.16 -0.14,0.26 -0.04,0.2 -0.08,0.42 -0.12,0.62 v 0.1 c 0,0.1 -0.02,0.2 0,0.3 0,0.12 -0.08,0.22 -0.1,0.34 v 0.02 c -0.02,0.26 -0.06,0.52 -0.08,0.78 -0.02,0.18 -0.02,0.38 0.02,0.56 0.02,0.06 0.02,0.12 0.02,0.18 0,0.78 -0.02,1.58 0.02,2.3 z m 5.117,-7.52 c 0.3,-0.14 0.6,-0.2 0.92,-0.2 0.08,0 0.18,0 0.28,0.02 0.08,0.02 0.12,0.06 0.14,0.14 0.04,0.08 0.06,0.14 0.08,0.22 0.04,0.18 0.06,0.36 0.1,0.54 0.02,0.06 0.04,0.12 0.06,0.2 0.04,0.06 0.08,0.12 0.1,0.18 0.08,0.34 0.18,0.66 0.26,1 0.06,0.2 0.12,0.4 0.22,0.6 0.14,0.28 0.28,0.56 0.42,0.86 0.12,0.26 0.26,0.52 0.38,0.8 0.16,0.32 0.3,0.66 0.46,1 0.06,0.14 0.16,0.28 0.24,0.44 0.26,0.46 0.46,0.94 0.6,1.46 0.02,0.1 0.06,0.2 0.1,0.3 0.22,0.52 0.44,1.02 0.66,1.52 0.08,0.16 0.16,0.3 0.26,0.44 0.12,0.16 0.24,0.34 0.34,0.52 0.06,0.12 0.14,0.2 0.2,0.3 0.02,0.02 0.04,0.02 0.06,0.04 0.02,0 0.06,-0.04 0.06,-0.08 V 15.68 5.82 5.46 c 0,-0.04 0.02,-0.08 0.04,-0.12 0.38,-0.1 0.76,-0.1 1.14,-0.1 0.04,0 0.08,0.02 0.14,0.02 0.18,0.06 0.24,0.06 0.26,0.3 0.04,0.44 0.02,0.88 0.02,1.32 V 8.3 c 0.02,0.14 0,0.28 0,0.42 0,0.28 0.02,0.56 0,0.86 0,0.28 0.02,0.58 0,0.88 v 0.84 0.9 1.1 c 0,0.4 -0.02,0.82 -0.02,1.22 0,0.18 0,0.34 -0.02,0.5 0,0.72 0,1.42 -0.02,2.14 0,0.26 -0.02,0.52 -0.04,0.78 v 0.14 c -0.02,0.26 0.06,0.48 0.3,0.62 0.12,0.06 0.16,0.14 0.16,0.26 0.02,0.06 0.02,0.14 0.02,0.2 0,0.08 -0.04,0.12 -0.08,0.16 -0.14,0.1 -0.24,0.26 -0.34,0.4 -0.04,0.08 -0.08,0.14 -0.14,0.2 -0.12,0.1 -0.24,0.16 -0.38,0.14 -0.06,-0.02 -0.1,0 -0.14,0 -0.14,0 -0.24,-0.06 -0.32,-0.16 -0.1,-0.12 -0.22,-0.24 -0.32,-0.36 -0.08,-0.08 -0.14,-0.18 -0.18,-0.26 -0.14,-0.3 -0.32,-0.6 -0.5,-0.86 -0.1,-0.14 -0.2,-0.28 -0.3,-0.4 -0.14,-0.12 -0.26,-0.28 -0.36,-0.44 -0.08,-0.1 -0.16,-0.2 -0.22,-0.32 -0.06,-0.08 -0.12,-0.16 -0.18,-0.26 -0.1,-0.22 -0.22,-0.42 -0.36,-0.6 -0.14,-0.18 -0.26,-0.38 -0.36,-0.58 -0.16,-0.28 -0.3,-0.56 -0.42,-0.86 -0.06,-0.22 -0.16,-0.42 -0.26,-0.62 -0.18,-0.38 -0.34,-0.78 -0.46,-1.18 -0.06,-0.22 -0.16,-0.42 -0.26,-0.62 -0.24,-0.44 -0.46,-0.86 -0.64,-1.32 -0.02,-0.06 -0.06,-0.12 -0.1,-0.18 h -0.02 -0.04 v 0.28 3.74 c -0.02,1 -0.02,2.02 -0.04,3.04 0,0.38 -0.02,0.76 -0.08,1.14 -0.02,0.08 -0.02,0.16 -0.02,0.24 -0.02,0.1 -0.08,0.18 -0.18,0.22 -0.26,0.1 -0.52,0.12 -0.8,0.08 -0.08,0 -0.18,-0.04 -0.26,-0.06 -0.06,-0.02 -0.08,-0.06 -0.08,-0.12 -0.02,-0.06 -0.02,-0.12 -0.04,-0.18 0,-0.08 0,-0.16 -0.02,-0.24 -0.04,-0.32 -0.06,-0.64 -0.08,-0.96 v -0.48 c -0.02,-0.2 -0.02,-0.4 -0.02,-0.62 V 6.98 c 0,-0.22 0.02,-0.44 -0.04,-0.66 -0.02,-0.04 0,-0.1 0.02,-0.14 0.06,-0.14 0.08,-0.28 0.1,-0.44 z m 15.757,0.22 c 0,0.02 0.02,0.02 0.02,0.04 0.08,0.34 0.1,0.7 0.1,1.08 l -0.02,0.02 c -0.06,0.32 -0.04,0.38 -0.4,0.4 -0.12,0.02 -0.26,0.02 -0.4,0.02 h -3.14 c -0.12,0 -0.24,0 -0.36,0.02 -0.1,0 -0.14,0.04 -0.14,0.12 v 0.36 c 0,0 0.02,0.24 0.02,0.36 v 0.66 c 0,0.28 0,0.54 0.04,0.82 v 0.3 2.56 c 0,0.12 -0.02,0.24 0.02,0.38 0.06,-0.02 0.1,0 0.14,-0.02 0.46,-0.16 0.92,-0.24 1.38,-0.26 0.32,-0.04 0.66,-0.06 0.98,-0.12 0.16,-0.04 0.32,-0.06 0.5,-0.06 0.18,-0.02 0.32,-0.04 0.48,-0.14 0.04,-0.02 0.12,-0.02 0.16,0.04 0.08,0.1 0.18,0.18 0.3,0.26 0.18,0.12 0.28,0.44 0.14,0.72 -0.16,0.3 -0.24,0.42 -0.66,0.5 -0.14,0.02 -0.26,0.04 -0.4,0.06 -0.42,0.06 -0.84,0.12 -1.26,0.16 -0.06,0.02 -0.14,0.02 -0.2,0.02 -0.52,0.04 -1,0.18 -1.46,0.4 -0.08,0.04 -0.12,0.1 -0.12,0.2 v 0.54 2 c 0,0.1 0,0.2 0.02,0.32 0,0.04 0.02,0.06 0.06,0.08 h 0.32 3.16 0.24 c 0.36,0.02 0.32,-0.02 0.38,0.32 0.04,0.28 0.04,0.54 0.04,0.8 V 19 c -0.1,0.3 -0.06,0.36 -0.42,0.36 -0.54,0.02 -1.08,0.02 -1.64,0 h -1.16 c -0.48,0 -0.98,0 -1.48,-0.02 -0.28,-0.02 -0.54,-0.06 -0.82,-0.1 -0.06,0 -0.1,-0.06 -0.12,-0.12 -0.16,-0.44 -0.16,-0.44 -0.16,-0.92 -0.02,-0.54 -0.02,-1.1 -0.02,-1.66 v -4.02 c 0.02,-1.2 0.04,-2.42 0.04,-3.62 0,-0.4 0.04,-0.8 0.04,-1.2 0,-0.08 0.02,-0.18 -0.06,-0.26 -0.04,-0.16 -0.1,-0.3 -0.14,-0.44 -0.04,-0.32 -0.06,-0.64 0.04,-0.94 0.04,-0.08 0.08,-0.12 0.16,-0.12 h 0.26 5.22 c 0.1,0 0.22,-0.02 0.32,0.02 z m 2.957,4.64 c 0.2,0.28 0.42,0.54 0.66,0.8 0.18,0.22 0.4,0.36 0.64,0.48 0.18,0.06 0.34,0.14 0.5,0.22 0.28,0.18 0.52,0.36 0.74,0.58 0.2,0.2 0.4,0.42 0.62,0.58 0.06,0.06 0.1,0.12 0.18,0.18 h 0.16 c 0.06,0.02 0.1,0.04 0.14,0.08 0.14,0.14 0.24,0.3 0.28,0.5 0.02,0.16 0.06,0.32 0.12,0.48 0.06,0.2 0.08,0.42 0.1,0.64 v 0.58 c 0,0.1 0,0.22 0.06,0.32 0.02,0.04 0.02,0.1 0.02,0.16 0.02,0.12 0.02,0.24 0.04,0.34 0.04,0.28 0.04,0.54 -0.02,0.82 -0.02,0.04 -0.02,0.1 -0.02,0.16 -0.02,0.04 -0.02,0.1 -0.04,0.16 -0.08,0.2 -0.12,0.42 -0.2,0.64 0,0.02 -0.02,0.06 -0.04,0.08 -0.1,0.14 -0.18,0.3 -0.28,0.44 -0.04,0.06 -0.08,0.12 -0.14,0.18 -0.16,0.04 -0.32,0.1 -0.48,0.2 -0.04,0.04 -0.1,0.06 -0.18,0.06 -0.06,0 -0.14,0.02 -0.22,0.02 -0.12,0.02 -0.2,0.06 -0.28,0.16 -0.08,0.1 -0.18,0.14 -0.3,0.16 h -0.1 c -0.12,0.02 -0.26,0.06 -0.38,0.06 -0.14,0 -0.26,-0.04 -0.38,-0.06 h -0.2 c -0.12,0 -0.24,-0.02 -0.34,-0.08 -0.18,-0.08 -0.38,-0.14 -0.56,-0.18 -0.14,-0.04 -0.26,-0.1 -0.38,-0.18 -0.12,-0.08 -0.24,-0.16 -0.36,-0.22 -0.3,-0.16 -0.5,-0.44 -0.68,-0.74 -0.02,-0.1 -0.06,-0.2 -0.06,-0.3 -0.02,-0.2 -0.08,-0.38 -0.1,-0.58 -0.06,-0.3 -0.12,-0.6 -0.1,-0.9 0.02,-0.1 0.02,-0.2 0.04,-0.3 0.02,-0.14 0.04,-0.28 0.04,-0.42 0,-0.08 0,-0.16 0.02,-0.24 0.06,-0.14 0.04,-0.26 0.02,-0.38 -0.04,-0.12 -0.06,-0.22 -0.1,-0.34 0.04,-0.1 0.08,-0.2 0.12,-0.32 0.02,-0.06 0.08,-0.1 0.14,-0.1 h 0.24 c 0.22,-0.02 0.46,-0.02 0.68,-0.02 0.1,0 0.16,0.04 0.22,0.1 0.04,0.04 0.06,0.08 0.06,0.12 -0.02,0.12 0,0.22 0.1,0.3 0.04,0.04 0.06,0.1 0.04,0.18 -0.02,0.04 -0.04,0.1 -0.06,0.16 -0.04,0.1 -0.06,0.22 -0.04,0.34 0.04,0.12 0.02,0.26 0.04,0.38 0,0.14 -0.02,0.26 0.04,0.4 0.02,0.06 0.02,0.12 0,0.18 -0.06,0.18 -0.04,0.34 -0.02,0.52 0,0.08 0.04,0.16 0.12,0.22 0.18,0.16 0.36,0.3 0.6,0.38 0.06,0.02 0.14,0.06 0.2,0.08 0.1,0.04 0.2,0.06 0.32,0.06 0.08,0 0.18,0 0.26,0.04 0.28,0.06 0.54,0.02 0.8,-0.08 0.1,-0.02 0.2,-0.08 0.3,-0.12 0.08,-0.22 0.16,-0.42 0.14,-0.66 V 15.5 15.3 c 0,-0.14 -0.04,-0.26 -0.18,-0.32 -0.04,-0.04 -0.08,-0.08 -0.1,-0.14 -0.04,-0.18 -0.16,-0.32 -0.3,-0.44 -0.26,-0.24 -0.5,-0.48 -0.76,-0.72 -0.06,-0.04 -0.1,-0.1 -0.18,-0.12 -0.08,0 -0.18,-0.04 -0.24,-0.08 -0.14,-0.08 -0.28,-0.12 -0.44,-0.16 -0.4,-0.1 -0.76,-0.28 -1.06,-0.56 -0.26,-0.24 -0.42,-0.52 -0.58,-0.78 -0.08,-0.12 -0.14,-0.26 -0.2,-0.38 -0.1,-0.18 -0.12,-0.4 -0.18,-0.58 -0.02,-0.04 0,-0.08 0,-0.1 0.04,-0.14 0.06,-0.26 -0.02,-0.38 C 68.19,10.3 68.13,10.08 68.15,9.84 68.17,9.62 68.19,9.4 68.17,9.18 V 9.1 C 68.23,8.94 68.23,8.8 68.23,8.64 V 7.7 c -0.02,-0.2 0.04,-0.38 0.16,-0.54 0.04,-0.06 0.06,-0.1 0.1,-0.14 0.14,-0.18 0.3,-0.38 0.46,-0.56 0.02,-0.04 0.06,-0.06 0.12,-0.1 0.18,-0.08 0.32,-0.2 0.48,-0.32 0.12,-0.1 0.26,-0.18 0.42,-0.24 0.14,-0.04 0.26,-0.12 0.4,-0.12 0.06,0 0.12,-0.02 0.2,-0.02 0.16,0 0.32,-0.02 0.48,-0.04 0.1,-0.02 0.22,0 0.32,0.02 0.18,0.02 0.34,0.04 0.52,0.04 0.12,0.02 0.26,0.02 0.38,0.06 0.1,0.02 0.2,0.08 0.3,0.14 0.16,0.1 0.28,0.26 0.38,0.42 0.08,0.12 0.14,0.24 0.24,0.34 0.06,0.08 0.12,0.16 0.14,0.26 0.02,0.06 0.04,0.12 0.08,0.18 0.06,0.18 0.12,0.36 0.14,0.56 0.02,0.08 0.04,0.16 0.04,0.22 0.02,0.16 0.08,0.3 0.2,0.4 0.06,0.04 0.06,0.08 0.06,0.14 0,0.24 0,0.48 -0.02,0.72 -0.04,0.18 -0.04,0.36 -0.04,0.54 0,0.26 -0.02,0.5 -0.08,0.74 -0.02,0.1 -0.02,0.18 0,0.26 0.02,0.06 0.02,0.1 0.02,0.16 0,0.04 0,0.06 -0.02,0.1 -0.08,0.08 -0.16,0.14 -0.26,0.18 -0.22,0.06 -0.44,0.1 -0.68,0.14 -0.02,0.02 -0.06,0 -0.08,-0.02 -0.06,-0.06 -0.14,-0.14 -0.2,-0.22 0,-0.02 -0.02,-0.06 -0.02,-0.08 -0.02,-0.14 -0.04,-0.26 -0.04,-0.4 0.02,-0.18 0,-0.36 0,-0.54 0,-0.14 0.02,-0.28 -0.02,-0.42 C 72.39,9.54 72.39,9.52 72.39,9.5 72.43,9.14 72.33,8.78 72.25,8.44 72.25,8.42 72.25,8.4 72.23,8.38 72.13,8.2 72.05,7.98 71.89,7.82 71.79,7.7 71.67,7.58 71.55,7.48 71.41,7.36 71.25,7.3 71.11,7.22 h -0.1 c -0.22,0 -0.42,0.08 -0.62,0.18 -0.04,0.02 -0.06,0.06 -0.1,0.08 l -0.28,0.28 c 0,0 -0.2,0.2 -0.22,0.34 0,0.06 -0.02,0.1 -0.02,0.14 -0.02,0.04 -0.04,0.1 -0.02,0.16 0.02,0.16 -0.08,0.34 -0.06,0.5 v 1.44 c 0,0.08 0.02,0.16 0.02,0.26 z m 7.697,2.6 c 0.02,-1.48 0.02,-2.96 0.02,-4.44 0,-0.26 0.02,-0.54 0.04,-0.8 0,-0.14 -0.02,-0.28 -0.02,-0.4 0,-0.02 -0.02,-0.04 -0.04,-0.04 C 77.327,7.5 77.247,7.5 77.187,7.5 h -2.22 -0.36 c -0.06,0 -0.12,-0.02 -0.16,-0.04 -0.04,0 -0.08,-0.04 -0.1,-0.08 0,-0.08 -0.02,-0.14 -0.04,-0.22 -0.12,-0.34 -0.12,-0.68 -0.08,-1.04 0.02,-0.08 0.06,-0.16 0.08,-0.24 0.02,-0.04 0.06,-0.08 0.1,-0.08 0.04,-0.02 0.08,-0.02 0.12,-0.02 h 0.26 6.3 0.5 c 0.06,0 0.1,0 0.16,0.02 0.06,0 0.1,0.02 0.12,0.08 0.1,0.48 0.14,0.96 0.02,1.42 -0.04,0.1 -0.1,0.16 -0.18,0.18 -0.12,0 -0.22,0.02 -0.32,0.02 h -1.94 -0.3 c -0.04,0.02 -0.08,0.06 -0.08,0.1 v 0.12 c 0.04,0.2 0.02,0.4 0.02,0.58 v 9.54 c 0,0.2 -0.02,0.4 -0.02,0.6 v 0.54 0.34 c -0.02,0.06 -0.06,0.12 -0.12,0.14 -0.3,0.04 -0.6,0.08 -0.92,0.08 -0.14,-0.02 -0.28,-0.04 -0.4,-0.08 -0.08,-0.02 -0.12,-0.08 -0.12,-0.16 -0.02,-0.22 -0.04,-0.44 -0.04,-0.68 -0.04,-0.74 -0.04,-1.48 -0.04,-2.22 v -1.34 -1 -0.86 z m 5.817,-7.4 c 0.08,-0.02 0.14,-0.04 0.2,-0.06 0.26,-0.12 0.54,-0.1 0.82,-0.1 0.04,0 0.06,0 0.08,0.02 0.28,0.06 0.34,0.04 0.36,0.38 0,0.36 0.02,0.74 0.02,1.1 v 10.4 0.36 c 0,0.14 0.02,0.18 0.18,0.18 h 0.22 c 0.3,0.06 0.58,0 0.86,-0.06 0.26,-0.06 0.52,-0.1 0.78,-0.1 h 1.92 c 0.04,0 0.08,0.02 0.14,0.02 0.1,0.36 0.12,0.72 0.1,1.1 0,0.08 -0.02,0.16 -0.04,0.24 -0.02,0.1 -0.1,0.16 -0.2,0.18 -0.12,0.02 -0.24,0.02 -0.36,0.02 -0.3,0 -0.6,0 -0.92,-0.02 -0.4,0 -0.82,0.04 -1.22,0.12 -0.08,0.02 -0.14,0.02 -0.22,0.04 -0.18,0.02 -0.34,0.04 -0.52,0.04 h -0.42 c -0.1,0 -0.18,-0.02 -0.26,-0.02 -0.48,0 -0.94,-0.08 -1.42,-0.1 -0.12,0 -0.24,-0.02 -0.36,-0.1 -0.14,-0.26 -0.16,-0.56 -0.14,-0.86 0.02,-0.06 0.02,-0.12 0.04,-0.18 0.02,-0.08 0.06,-0.16 0.16,-0.2 0.02,-0.02 0.04,-0.04 0.06,-0.04 0.04,-0.12 0.04,-0.24 0.04,-0.36 v -2.76 c 0,-2.16 -0.02,-4.34 0,-6.5 0,-0.6 0,-1.22 0.02,-1.84 0,-0.26 0.04,-0.52 0.06,-0.78 0,-0.04 0,-0.06 0.02,-0.12 z m 9.977,11.34 c 0,-0.72 -0.02,-1.44 0,-2.14 0,-0.2 -0.02,-0.4 -0.1,-0.58 -0.02,-0.06 -0.04,-0.14 -0.04,-0.22 -0.04,-0.34 -0.14,-0.64 -0.22,-0.96 -0.02,-0.08 -0.06,-0.16 -0.08,-0.22 -0.1,-0.18 -0.18,-0.36 -0.26,-0.52 -0.22,-0.44 -0.38,-0.88 -0.52,-1.34 -0.1,-0.38 -0.24,-0.74 -0.42,-1.08 -0.2,-0.42 -0.36,-0.88 -0.48,-1.34 -0.04,-0.2 -0.1,-0.38 -0.18,-0.56 -0.1,-0.24 -0.18,-0.48 -0.26,-0.72 -0.04,-0.08 -0.06,-0.16 -0.14,-0.2 -0.08,-0.04 -0.12,-0.1 -0.12,-0.18 -0.02,-0.06 -0.02,-0.12 -0.02,-0.18 0,-0.18 -0.02,-0.34 -0.1,-0.5 -0.02,-0.06 -0.02,-0.14 0.02,-0.2 0.04,-0.08 0.06,-0.16 0.06,-0.26 0,-0.06 0,-0.14 0.02,-0.2 0,-0.1 0.04,-0.14 0.14,-0.16 0.06,-0.02 0.12,-0.02 0.2,-0.06 0.08,-0.02 0.16,-0.04 0.26,-0.04 h 0.54 c 0.02,0 0.02,-0.02 0.04,-0.02 0.32,0.04 0.36,0.08 0.4,0.36 0.02,0.12 0.02,0.24 0.02,0.38 0,0.1 0.02,0.2 0.06,0.3 0.1,0.26 0.18,0.56 0.32,0.82 0.04,0.08 0.06,0.16 0.08,0.26 0.06,0.14 0.1,0.3 0.16,0.44 0.06,0.16 0.12,0.3 0.14,0.46 0.02,0.26 0.12,0.5 0.24,0.74 0.24,0.42 0.4,0.88 0.56,1.36 0.02,0.1 0.04,0.2 0.08,0.3 0.06,0.28 0.16,0.54 0.28,0.78 0.02,0.04 0.02,0.04 0.04,0.06 0.02,0.04 0.06,0.02 0.08,0 0.14,-0.2 0.22,-0.44 0.28,-0.68 0.04,-0.08 0.04,-0.16 0.06,-0.24 0.06,-0.2 0.1,-0.4 0.2,-0.58 0.02,-0.04 0.02,-0.08 0.04,-0.14 0.08,-0.28 0.2,-0.54 0.34,-0.8 0.16,-0.28 0.26,-0.56 0.3,-0.86 0.02,-0.14 0.06,-0.28 0.12,-0.4 l 0.06,-0.12 c 0.1,-0.4 0.28,-0.76 0.42,-1.16 0.08,-0.22 0.16,-0.44 0.14,-0.68 0,-0.1 0.02,-0.22 0.04,-0.32 0.02,-0.18 0.1,-0.24 0.28,-0.26 h 0.14 0.48 c 0.12,0 0.24,0.02 0.36,0.06 0.3,0.08 0.3,0.04 0.32,0.38 0,0.06 0,0.14 0.02,0.2 0.12,0.12 0.06,0.24 0.02,0.38 -0.04,0.1 -0.06,0.2 -0.06,0.3 V 7 c 0,0.12 -0.04,0.22 -0.16,0.28 -0.06,0.04 -0.08,0.08 -0.1,0.14 -0.08,0.26 -0.18,0.52 -0.28,0.76 -0.08,0.2 -0.14,0.38 -0.2,0.58 -0.1,0.48 -0.28,0.92 -0.48,1.34 -0.16,0.34 -0.3,0.68 -0.38,1.02 -0.18,0.58 -0.4,1.14 -0.68,1.68 -0.12,0.22 -0.22,0.46 -0.28,0.72 -0.06,0.3 -0.1,0.6 -0.18,0.9 -0.02,0.12 -0.02,0.24 -0.02,0.34 v 1.06 3.62 c 0,0.32 0.02,0.3 -0.3,0.36 -0.28,0.04 -0.58,0.04 -0.86,0.04 -0.1,0 -0.2,-0.04 -0.3,-0.06 -0.06,-0.02 -0.12,-0.08 -0.12,-0.14 -0.02,-0.08 -0.02,-0.16 -0.02,-0.24 0,-0.66 0,-1.3 -0.02,-1.96 v -0.3 z" />
  </g>
  <g
     fill="#000000"
     transform="matrix(0.7999993,0,0,0.81225279,79.99993,98.296925)"
     featurekey="sloganFeature-1"
     id="SvgjsG14913">
    <path
       inkscape:connector-curvature="0"
       id="path843"
       d="" />
  </g>
</svg>
