<svg xmlns="http://www.w3.org/2000/svg" xmlns:xlink="http://www.w3.org/1999/xlink" contentStyleType="text/css" height="719px" preserveAspectRatio="none" style="width:2309px;height:719px;background:#FFFFFF;" version="1.1" viewBox="0 0 2309 719" width="2309px" zoomAndPan="magnify"><defs/><g><!--cluster d77d5e503ad1439f585ac494268b351b--><g id="cluster_d77d5e503ad1439f585ac494268b351b"><polygon fill="none" points="16,40.44,26,30.44,544,30.44,544,601.26,534,611.26,16,611.26,16,40.44" style="stroke:#181818;stroke-width:1.0;"/><line style="stroke:#181818;stroke-width:1.0;" x1="534" x2="544" y1="40.44" y2="30.44"/><line style="stroke:#181818;stroke-width:1.0;" x1="16" x2="534" y1="40.44" y2="40.44"/><line style="stroke:#181818;stroke-width:1.0;" x1="534" x2="534" y1="40.44" y2="611.26"/><text fill="#000000" font-family="sans-serif" font-size="14" font-weight="bold" lengthAdjust="spacing" textLength="21" x="265.5" y="56.4351">Db</text></g><!--cluster f1366ba311b0bb2d1d0327202fbd9971--><g id="cluster_f1366ba311b0bb2d1d0327202fbd9971"><polygon fill="none" points="1304,16,1314,6,2060,6,2060,601.26,2050,611.26,1304,611.26,1304,16" style="stroke:#181818;stroke-width:1.0;"/><line style="stroke:#181818;stroke-width:1.0;" x1="2050" x2="2060" y1="16" y2="6"/><line style="stroke:#181818;stroke-width:1.0;" x1="1304" x2="2050" y1="16" y2="16"/><line style="stroke:#181818;stroke-width:1.0;" x1="2050" x2="2050" y1="16" y2="611.26"/><text fill="#000000" font-family="sans-serif" font-size="14" font-weight="bold" lengthAdjust="spacing" textLength="88" x="1634" y="31.9951">Djangoblog</text></g><!--cluster ee434023cf89d7dfb21f63d64f0f9d74--><g id="cluster_ee434023cf89d7dfb21f63d64f0f9d74"><polygon fill="none" points="630,56.74,640,46.74,1129,46.74,1129,601.26,1119,611.26,630,611.26,630,56.74" style="stroke:#181818;stroke-width:1.0;"/><line style="stroke:#181818;stroke-width:1.0;" x1="1119" x2="1129" y1="56.74" y2="46.74"/><line style="stroke:#181818;stroke-width:1.0;" x1="630" x2="1119" y1="56.74" y2="56.74"/><line style="stroke:#181818;stroke-width:1.0;" x1="1119" x2="1119" y1="56.74" y2="611.26"/><text fill="#000000" font-family="sans-serif" font-size="14" font-weight="bold" lengthAdjust="spacing" textLength="44" x="853.5" y="72.7351">Nginx</text></g><!--cluster 86a1b907d54bf7010394bf316e183e67--><g id="cluster_86a1b907d54bf7010394bf316e183e67"><polygon fill="none" points="2092,56.74,2102,46.74,2292,46.74,2292,363.97,2282,373.97,2092,373.97,2092,56.74" style="stroke:#181818;stroke-width:1.0;"/><line style="stroke:#181818;stroke-width:1.0;" x1="2282" x2="2292" y1="56.74" y2="46.74"/><line style="stroke:#181818;stroke-width:1.0;" x1="2092" x2="2282" y1="56.74" y2="56.74"/><line style="stroke:#181818;stroke-width:1.0;" x1="2282" x2="2282" y1="56.74" y2="373.97"/><text fill="#000000" font-family="sans-serif" font-size="14" font-weight="bold" lengthAdjust="spacing" textLength="43" x="2166.5" y="72.7351">Redis</text></g><!--entity 355aeb7ac3f8fa43e8d94fbf0e4b8d6c--><g id="elem_355aeb7ac3f8fa43e8d94fbf0e4b8d6c"><rect fill="#F1F1F1" height="144.0781" rx="2.5" ry="2.5" style="stroke:#181818;stroke-width:0.5;" width="495" x="32.5" y="70.44"/><rect fill="#F1F1F1" height="10" style="stroke:#181818;stroke-width:0.5;" width="15" x="507.5" y="75.44"/><rect fill="#F1F1F1" height="2" style="stroke:#181818;stroke-width:0.5;" width="4" x="505.5" y="77.44"/><rect fill="#F1F1F1" height="2" style="stroke:#181818;stroke-width:0.5;" width="4" x="505.5" y="81.44"/><text fill="#000000" font-family="sans-serif" font-size="14" font-weight="bold" lengthAdjust="spacing" textLength="20" x="47.5" y="103.4351">db</text><text fill="#000000" font-family="sans-serif" font-size="14" lengthAdjust="spacing" textLength="4" x="47.5" y="119.732">&#160;</text><text fill="#000000" font-family="sans-serif" font-size="14" lengthAdjust="spacing" textLength="134" x="47.5" y="136.0289">image: mysql:latest</text><text fill="#000000" font-family="sans-serif" font-size="14" lengthAdjust="spacing" textLength="99" x="47.5" y="152.3257">restart: always</text><text fill="#000000" font-family="sans-serif" font-size="14" lengthAdjust="spacing" textLength="315" x="47.5" y="168.6226">environment: MYSQL_DATABASE=djangoblog</text><text fill="#000000" font-family="sans-serif" font-size="14" lengthAdjust="spacing" textLength="455" x="47.5" y="184.9195">environment: MYSQL_ROOT_PASSWORD=DjAnGoBlOg!2!Q@W#E</text><text fill="#000000" font-family="sans-serif" font-size="14" lengthAdjust="spacing" textLength="4" x="47.5" y="201.2164">&#160;</text></g><!--entity 1d26fba9ad763582f6611cc37d18b99e--><g id="elem_1d26fba9ad763582f6611cc37d18b99e"><ellipse cx="422" cy="328.97" fill="#F1F1F1" rx="8" ry="8" style="stroke:#181818;stroke-width:0.5;"/><text fill="#000000" font-family="sans-serif" font-size="14" lengthAdjust="spacing" textLength="36" x="404" y="358.9651">3306</text></g><!--entity 335240261b3f541f5fb471b158fbba47--><g id="elem_335240261b3f541f5fb471b158fbba47"><rect fill="#F1F1F1" height="39.2969" rx="2.5" ry="2.5" style="stroke:#181818;stroke-width:0.5;" width="120" x="220" y="555.97"/><polygon fill="#F1F1F1" points="323,560.97,323,574.97,335,574.97,335,566.97,329,560.97,323,560.97" style="stroke:#181818;stroke-width:0.5;"/><line style="stroke:#181818;stroke-width:0.5;" x1="329" x2="329" y1="560.97" y2="566.97"/><line style="stroke:#181818;stroke-width:0.5;" x1="335" x2="329" y1="566.97" y2="566.97"/><text fill="#000000" font-family="sans-serif" font-size="14" lengthAdjust="spacing" textLength="90" x="230" y="581.9651">/var/lib/mysql</text></g><!--entity 450088450036913a033d363e8cbe391e--><g id="elem_450088450036913a033d363e8cbe391e"><rect fill="#F1F1F1" height="192.9688" rx="2.5" ry="2.5" style="stroke:#181818;stroke-width:0.5;" width="509" x="1525.5" y="46"/><rect fill="#F1F1F1" height="10" style="stroke:#181818;stroke-width:0.5;" width="15" x="2014.5" y="51"/><rect fill="#F1F1F1" height="2" style="stroke:#181818;stroke-width:0.5;" width="4" x="2012.5" y="53"/><rect fill="#F1F1F1" height="2" style="stroke:#181818;stroke-width:0.5;" width="4" x="2012.5" y="57"/><text fill="#000000" font-family="sans-serif" font-size="14" font-weight="bold" lengthAdjust="spacing" textLength="87" x="1540.5" y="78.9951">djangoblog</text><text fill="#000000" font-family="sans-serif" font-size="14" lengthAdjust="spacing" textLength="4" x="1540.5" y="95.292">&#160;</text><text fill="#000000" font-family="sans-serif" font-size="14" lengthAdjust="spacing" textLength="99" x="1540.5" y="111.5889">restart: always</text><text fill="#000000" font-family="sans-serif" font-size="14" lengthAdjust="spacing" textLength="377" x="1540.5" y="127.8857">environment: DJANGO_MYSQL_DATABASE=djangoblog</text><text fill="#000000" font-family="sans-serif" font-size="14" lengthAdjust="spacing" textLength="291" x="1540.5" y="144.1826">environment: DJANGO_MYSQL_USER=root</text><text fill="#000000" font-family="sans-serif" font-size="14" lengthAdjust="spacing" textLength="469" x="1540.5" y="160.4795">environment: DJANGO_MYSQL_PASSWORD=DjAnGoBlOg!2!Q@W#E</text><text fill="#000000" font-family="sans-serif" font-size="14" lengthAdjust="spacing" textLength="282" x="1540.5" y="176.7764">environment: DJANGO_MYSQL_HOST=db</text><text fill="#000000" font-family="sans-serif" font-size="14" lengthAdjust="spacing" textLength="300" x="1540.5" y="193.0732">environment: DJANGO_MYSQL_PORT=3306</text><text fill="#000000" font-family="sans-serif" font-size="14" lengthAdjust="spacing" textLength="321" x="1540.5" y="209.3701">environment: DJANGO_REDIS_URL=redis:6379</text><text fill="#000000" font-family="sans-serif" font-size="14" lengthAdjust="spacing" textLength="4" x="1540.5" y="225.667">&#160;</text></g><!--entity d3fe4aae408385ddeba9a37edc4a3f7d--><g id="elem_d3fe4aae408385ddeba9a37edc4a3f7d"><ellipse cx="1971" cy="328.97" fill="#F1F1F1" rx="8" ry="8" style="stroke:#181818;stroke-width:0.5;"/><text fill="#000000" font-family="sans-serif" font-size="14" lengthAdjust="spacing" textLength="36" x="1953" y="358.9651">8000</text></g><!--entity 1f09649ba7a4d1c7439ec85339c60c01--><g id="elem_1f09649ba7a4d1c7439ec85339c60c01"><rect fill="#F1F1F1" height="39.2969" rx="2.5" ry="2.5" style="stroke:#181818;stroke-width:0.5;" width="257" x="1319.5" y="555.97"/><polygon fill="#F1F1F1" points="1559.5,560.97,1559.5,574.97,1571.5,574.97,1571.5,566.97,1565.5,560.97,1559.5,560.97" style="stroke:#181818;stroke-width:0.5;"/><line style="stroke:#181818;stroke-width:0.5;" x1="1565.5" x2="1565.5" y1="560.97" y2="566.97"/><line style="stroke:#181818;stroke-width:0.5;" x1="1571.5" x2="1565.5" y1="566.97" y2="566.97"/><text fill="#000000" font-family="sans-serif" font-size="14" lengthAdjust="spacing" textLength="227" x="1329.5" y="581.9651">/code/djangoblog/collectedstatic</text></g><!--entity c90af3e20beac19dfeb4130c64f246cf--><g id="elem_c90af3e20beac19dfeb4130c64f246cf"><rect fill="#F1F1F1" height="39.2969" rx="2.5" ry="2.5" style="stroke:#181818;stroke-width:0.5;" width="186" x="1611" y="555.97"/><polygon fill="#F1F1F1" points="1780,560.97,1780,574.97,1792,574.97,1792,566.97,1786,560.97,1780,560.97" style="stroke:#181818;stroke-width:0.5;"/><line style="stroke:#181818;stroke-width:0.5;" x1="1786" x2="1786" y1="560.97" y2="566.97"/><line style="stroke:#181818;stroke-width:0.5;" x1="1792" x2="1786" y1="566.97" y2="566.97"/><text fill="#000000" font-family="sans-serif" font-size="14" lengthAdjust="spacing" textLength="156" x="1621" y="581.9651">/code/djangoblog/logs</text></g><!--entity f9fdb318fc186230425e40f348d60571--><g id="elem_f9fdb318fc186230425e40f348d60571"><rect fill="#F1F1F1" height="39.2969" rx="2.5" ry="2.5" style="stroke:#181818;stroke-width:0.5;" width="212" x="1832" y="555.97"/><polygon fill="#F1F1F1" points="2027,560.97,2027,574.97,2039,574.97,2039,566.97,2033,560.97,2027,560.97" style="stroke:#181818;stroke-width:0.5;"/><line style="stroke:#181818;stroke-width:0.5;" x1="2033" x2="2033" y1="560.97" y2="566.97"/><line style="stroke:#181818;stroke-width:0.5;" x1="2039" x2="2033" y1="566.97" y2="566.97"/><text fill="#000000" font-family="sans-serif" font-size="14" lengthAdjust="spacing" textLength="182" x="1842" y="581.9651">/code/djangoblog/uploads</text></g><!--entity af7a7f0b3b2e57bd500b4dc604f1838f--><g id="elem_af7a7f0b3b2e57bd500b4dc604f1838f"><rect fill="#F1F1F1" height="111.4844" rx="2.5" ry="2.5" style="stroke:#181818;stroke-width:0.5;" width="171" x="874.5" y="86.74"/><rect fill="#F1F1F1" height="10" style="stroke:#181818;stroke-width:0.5;" width="15" x="1025.5" y="91.74"/><rect fill="#F1F1F1" height="2" style="stroke:#181818;stroke-width:0.5;" width="4" x="1023.5" y="93.74"/><rect fill="#F1F1F1" height="2" style="stroke:#181818;stroke-width:0.5;" width="4" x="1023.5" y="97.74"/><text fill="#000000" font-family="sans-serif" font-size="14" font-weight="bold" lengthAdjust="spacing" textLength="43" x="889.5" y="119.7351">nginx</text><text fill="#000000" font-family="sans-serif" font-size="14" lengthAdjust="spacing" textLength="4" x="889.5" y="136.032">&#160;</text><text fill="#000000" font-family="sans-serif" font-size="14" lengthAdjust="spacing" textLength="99" x="889.5" y="152.3289">restart: always</text><text fill="#000000" font-family="sans-serif" font-size="14" lengthAdjust="spacing" textLength="131" x="889.5" y="168.6257">image: nginx:latest</text><text fill="#000000" font-family="sans-serif" font-size="14" lengthAdjust="spacing" textLength="4" x="889.5" y="184.9226">&#160;</text></g><!--entity 97b04832e42a04c7beb04c21e560b3fb--><g id="elem_97b04832e42a04c7beb04c21e560b3fb"><ellipse cx="997" cy="328.97" fill="#F1F1F1" rx="8" ry="8" style="stroke:#181818;stroke-width:0.5;"/><text fill="#000000" font-family="sans-serif" font-size="14" lengthAdjust="spacing" textLength="18" x="988" y="358.9651">80</text></g><!--entity 3a61031652ff80665f419f821c1ac407--><g id="elem_3a61031652ff80665f419f821c1ac407"><ellipse cx="1086" cy="328.97" fill="#F1F1F1" rx="8" ry="8" style="stroke:#181818;stroke-width:0.5;"/><text fill="#000000" font-family="sans-serif" font-size="14" lengthAdjust="spacing" textLength="27" x="1072.5" y="358.9651">443</text></g><!--entity d8d4e4f3ed3706d9e8d3638ad294010c--><g id="elem_d8d4e4f3ed3706d9e8d3638ad294010c"><rect fill="#F1F1F1" height="39.2969" rx="2.5" ry="2.5" style="stroke:#181818;stroke-width:0.5;" width="175" x="646.5" y="555.97"/><polygon fill="#F1F1F1" points="804.5,560.97,804.5,574.97,816.5,574.97,816.5,566.97,810.5,560.97,804.5,560.97" style="stroke:#181818;stroke-width:0.5;"/><line style="stroke:#181818;stroke-width:0.5;" x1="810.5" x2="810.5" y1="560.97" y2="566.97"/><line style="stroke:#181818;stroke-width:0.5;" x1="816.5" x2="810.5" y1="566.97" y2="566.97"/><text fill="#000000" font-family="sans-serif" font-size="14" lengthAdjust="spacing" textLength="145" x="656.5" y="581.9651">/etc/nginx/nginx.conf</text></g><!--entity e585d045482969ca1b2bfd206c1c63fd--><g id="elem_e585d045482969ca1b2bfd206c1c63fd"><rect fill="#F1F1F1" height="39.2969" rx="2.5" ry="2.5" style="stroke:#181818;stroke-width:0.5;" width="257" x="856.5" y="555.97"/><polygon fill="#F1F1F1" points="1096.5,560.97,1096.5,574.97,1108.5,574.97,1108.5,566.97,1102.5,560.97,1096.5,560.97" style="stroke:#181818;stroke-width:0.5;"/><line style="stroke:#181818;stroke-width:0.5;" x1="1102.5" x2="1102.5" y1="560.97" y2="566.97"/><line style="stroke:#181818;stroke-width:0.5;" x1="1108.5" x2="1102.5" y1="566.97" y2="566.97"/><text fill="#000000" font-family="sans-serif" font-size="14" lengthAdjust="spacing" textLength="227" x="866.5" y="581.9651">/code/djangoblog/collectedstatic</text></g><!--entity 3c217ea98bfddc0f9ff1c849de325d93--><g id="elem_3c217ea98bfddc0f9ff1c849de325d93"><rect fill="#F1F1F1" height="111.4844" rx="2.5" ry="2.5" style="stroke:#181818;stroke-width:0.5;" width="168" x="2108" y="86.74"/><rect fill="#F1F1F1" height="10" style="stroke:#181818;stroke-width:0.5;" width="15" x="2256" y="91.74"/><rect fill="#F1F1F1" height="2" style="stroke:#181818;stroke-width:0.5;" width="4" x="2254" y="93.74"/><rect fill="#F1F1F1" height="2" style="stroke:#181818;stroke-width:0.5;" width="4" x="2254" y="97.74"/><text fill="#000000" font-family="sans-serif" font-size="14" font-weight="bold" lengthAdjust="spacing" textLength="40" x="2123" y="119.7351">redis</text><text fill="#000000" font-family="sans-serif" font-size="14" lengthAdjust="spacing" textLength="4" x="2123" y="136.032">&#160;</text><text fill="#000000" font-family="sans-serif" font-size="14" lengthAdjust="spacing" textLength="99" x="2123" y="152.3289">restart: always</text><text fill="#000000" font-family="sans-serif" font-size="14" lengthAdjust="spacing" textLength="128" x="2123" y="168.6257">image: redis:latest</text><text fill="#000000" font-family="sans-serif" font-size="14" lengthAdjust="spacing" textLength="4" x="2123" y="184.9226">&#160;</text></g><!--entity 09876deab5af8de0c168ec3aa053742d--><g id="elem_09876deab5af8de0c168ec3aa053742d"><ellipse cx="2192" cy="328.97" fill="#F1F1F1" rx="8" ry="8" style="stroke:#181818;stroke-width:0.5;"/><text fill="#000000" font-family="sans-serif" font-size="14" lengthAdjust="spacing" textLength="36" x="2174" y="358.9651">6379</text></g><!--entity e859f25eb7065dd4eea4fb946973908f--><g id="elem_e859f25eb7065dd4eea4fb946973908f"><ellipse cx="587" cy="465.97" fill="#F1F1F1" rx="8" ry="8" style="stroke:#181818;stroke-width:0.5;"/><text fill="#000000" font-family="sans-serif" font-size="14" lengthAdjust="spacing" textLength="36" x="569" y="495.9651">3306</text></g><!--entity 1624c420083928ef3e240dd88f2e52f0--><g id="elem_1624c420083928ef3e240dd88f2e52f0"><ellipse cx="2103" cy="465.97" fill="#F1F1F1" rx="8" ry="8" style="stroke:#181818;stroke-width:0.5;"/><text fill="#000000" font-family="sans-serif" font-size="14" lengthAdjust="spacing" textLength="36" x="2085" y="495.9651">8000</text></g><!--entity dba3f4d0bb5aa6fcfa18da2c1f7a9775--><g id="elem_dba3f4d0bb5aa6fcfa18da2c1f7a9775"><ellipse cx="1172" cy="465.97" fill="#F1F1F1" rx="8" ry="8" style="stroke:#181818;stroke-width:0.5;"/><text fill="#000000" font-family="sans-serif" font-size="14" lengthAdjust="spacing" textLength="18" x="1163" y="495.9651">80</text></g><!--entity 8a81c9bb0ec23d07684c1472053c60fe--><g id="elem_8a81c9bb0ec23d07684c1472053c60fe"><ellipse cx="1261" cy="465.97" fill="#F1F1F1" rx="8" ry="8" style="stroke:#181818;stroke-width:0.5;"/><text fill="#000000" font-family="sans-serif" font-size="14" lengthAdjust="spacing" textLength="27" x="1247.5" y="495.9651">443</text></g><!--entity c896127ab1831787795a6fc7c8465c9a--><g id="elem_c896127ab1831787795a6fc7c8465c9a"><ellipse cx="2192" cy="465.97" fill="#F1F1F1" rx="8" ry="8" style="stroke:#181818;stroke-width:0.5;"/><text fill="#000000" font-family="sans-serif" font-size="14" lengthAdjust="spacing" textLength="36" x="2174" y="495.9651">6379</text></g><!--entity 30bffa4fa255af0c831df9febfb8485e--><g id="elem_30bffa4fa255af0c831df9febfb8485e"><rect fill="#F1F1F1" height="39.2969" rx="2.5" ry="2.5" style="stroke:#181818;stroke-width:0.5;" width="153" x="203.5" y="674.26"/><polygon fill="#F1F1F1" points="339.5,679.26,339.5,693.26,351.5,693.26,351.5,685.26,345.5,679.26,339.5,679.26" style="stroke:#181818;stroke-width:0.5;"/><line style="stroke:#181818;stroke-width:0.5;" x1="345.5" x2="345.5" y1="679.26" y2="685.26"/><line style="stroke:#181818;stroke-width:0.5;" x1="351.5" x2="345.5" y1="685.26" y2="685.26"/><text fill="#000000" font-family="sans-serif" font-size="14" lengthAdjust="spacing" textLength="123" x="213.5" y="700.2551">./bin/datas/mysql/</text></g><!--entity 59625493767b5dd67b650ef5049b1f88--><g id="elem_59625493767b5dd67b650ef5049b1f88"><rect fill="#F1F1F1" height="39.2969" rx="2.5" ry="2.5" style="stroke:#181818;stroke-width:0.5;" width="139" x="1096.5" y="674.26"/><polygon fill="#F1F1F1" points="1218.5,679.26,1218.5,693.26,1230.5,693.26,1230.5,685.26,1224.5,679.26,1218.5,679.26" style="stroke:#181818;stroke-width:0.5;"/><line style="stroke:#181818;stroke-width:0.5;" x1="1224.5" x2="1224.5" y1="679.26" y2="685.26"/><line style="stroke:#181818;stroke-width:0.5;" x1="1230.5" x2="1224.5" y1="685.26" y2="685.26"/><text fill="#000000" font-family="sans-serif" font-size="14" lengthAdjust="spacing" textLength="109" x="1106.5" y="700.2551">./collectedstatic</text></g><!--entity 6dba058cd41f7d38cb0f6ce487c4dfea--><g id="elem_6dba058cd41f7d38cb0f6ce487c4dfea"><rect fill="#F1F1F1" height="39.2969" rx="2.5" ry="2.5" style="stroke:#181818;stroke-width:0.5;" width="68" x="1670" y="674.26"/><polygon fill="#F1F1F1" points="1721,679.26,1721,693.26,1733,693.26,1733,685.26,1727,679.26,1721,679.26" style="stroke:#181818;stroke-width:0.5;"/><line style="stroke:#181818;stroke-width:0.5;" x1="1727" x2="1727" y1="679.26" y2="685.26"/><line style="stroke:#181818;stroke-width:0.5;" x1="1733" x2="1727" y1="685.26" y2="685.26"/><text fill="#000000" font-family="sans-serif" font-size="14" lengthAdjust="spacing" textLength="38" x="1680" y="700.2551">./logs</text></g><!--entity 5b376ac5b8cd91e43135a39fe7ab8af4--><g id="elem_5b376ac5b8cd91e43135a39fe7ab8af4"><rect fill="#F1F1F1" height="39.2969" rx="2.5" ry="2.5" style="stroke:#181818;stroke-width:0.5;" width="94" x="1891" y="674.26"/><polygon fill="#F1F1F1" points="1968,679.26,1968,693.26,1980,693.26,1980,685.26,1974,679.26,1968,679.26" style="stroke:#181818;stroke-width:0.5;"/><line style="stroke:#181818;stroke-width:0.5;" x1="1974" x2="1974" y1="679.26" y2="685.26"/><line style="stroke:#181818;stroke-width:0.5;" x1="1980" x2="1974" y1="685.26" y2="685.26"/><text fill="#000000" font-family="sans-serif" font-size="14" lengthAdjust="spacing" textLength="64" x="1901" y="700.2551">./uploads</text></g><!--entity 9ca949419939455487c5ed2cbb5dc566--><g id="elem_9ca949419939455487c5ed2cbb5dc566"><rect fill="#F1F1F1" height="39.2969" rx="2.5" ry="2.5" style="stroke:#181818;stroke-width:0.5;" width="136" x="666" y="674.26"/><polygon fill="#F1F1F1" points="785,679.26,785,693.26,797,693.26,797,685.26,791,679.26,785,679.26" style="stroke:#181818;stroke-width:0.5;"/><line style="stroke:#181818;stroke-width:0.5;" x1="791" x2="791" y1="679.26" y2="685.26"/><line style="stroke:#181818;stroke-width:0.5;" x1="797" x2="791" y1="685.26" y2="685.26"/><text fill="#000000" font-family="sans-serif" font-size="14" lengthAdjust="spacing" textLength="106" x="676" y="700.2551">./bin/nginx.conf</text></g><!--link 355aeb7ac3f8fa43e8d94fbf0e4b8d6c to 1d26fba9ad763582f6611cc37d18b99e--><g id="link_355aeb7ac3f8fa43e8d94fbf0e4b8d6c_1d26fba9ad763582f6611cc37d18b99e"><path codeLine="66" d="M334.9,214.81 C366.27,255.57 402.08,302.08 416.01,320.19 " fill="none" id="355aeb7ac3f8fa43e8d94fbf0e4b8d6c-1d26fba9ad763582f6611cc37d18b99e" style="stroke:#181818;stroke-width:1.0;"/></g><!--link 1d26fba9ad763582f6611cc37d18b99e to e859f25eb7065dd4eea4fb946973908f--><g id="link_1d26fba9ad763582f6611cc37d18b99e_e859f25eb7065dd4eea4fb946973908f"><path codeLine="67" d="M430.87,337.22 C459.52,360.66 549.37,434.18 578.09,457.67 " fill="none" id="1d26fba9ad763582f6611cc37d18b99e-e859f25eb7065dd4eea4fb946973908f" style="stroke:#181818;stroke-width:1.0;"/></g><!--link 335240261b3f541f5fb471b158fbba47 to 30bffa4fa255af0c831df9febfb8485e--><g id="link_335240261b3f541f5fb471b158fbba47_30bffa4fa255af0c831df9febfb8485e"><path codeLine="68" d="M280,595.56 C280,617.18 280,652.35 280,673.98 " fill="none" id="335240261b3f541f5fb471b158fbba47-30bffa4fa255af0c831df9febfb8485e" style="stroke:#181818;stroke-width:1.0;"/><text fill="#000000" font-family="sans-serif" font-size="13" lengthAdjust="spacing" textLength="14" x="281" y="640.3269">rw</text></g><!--link 355aeb7ac3f8fa43e8d94fbf0e4b8d6c to 335240261b3f541f5fb471b158fbba47--><g id="link_355aeb7ac3f8fa43e8d94fbf0e4b8d6c_335240261b3f541f5fb471b158fbba47"><path codeLine="69" d="M280,214.67 C280,316.32 280,491.23 280,549.77 " fill="none" id="355aeb7ac3f8fa43e8d94fbf0e4b8d6c-to-335240261b3f541f5fb471b158fbba47" style="stroke:#181818;stroke-width:1.0;stroke-dasharray:7.0,7.0;"/><polygon fill="#181818" points="280,555.77,284,546.77,280,550.77,276,546.77,280,555.77" style="stroke:#181818;stroke-width:1.0;"/><text fill="#000000" font-family="sans-serif" font-size="13" lengthAdjust="spacing" textLength="23" x="281" y="403.0369">use</text></g><!--link 450088450036913a033d363e8cbe391e to d3fe4aae408385ddeba9a37edc4a3f7d--><g id="link_450088450036913a033d363e8cbe391e_d3fe4aae408385ddeba9a37edc4a3f7d"><path codeLine="70" d="M1879.14,239.24 C1914.02,272.93 1948.25,305.99 1963.19,320.42 " fill="none" id="450088450036913a033d363e8cbe391e-d3fe4aae408385ddeba9a37edc4a3f7d" style="stroke:#181818;stroke-width:1.0;"/></g><!--link d3fe4aae408385ddeba9a37edc4a3f7d to 1624c420083928ef3e240dd88f2e52f0--><g id="link_d3fe4aae408385ddeba9a37edc4a3f7d_1624c420083928ef3e240dd88f2e52f0"><path codeLine="71" d="M1978.48,337.61 C2001.6,361.26 2071.82,433.08 2095.28,457.07 " fill="none" id="d3fe4aae408385ddeba9a37edc4a3f7d-1624c420083928ef3e240dd88f2e52f0" style="stroke:#181818;stroke-width:1.0;"/></g><!--link 1f09649ba7a4d1c7439ec85339c60c01 to 59625493767b5dd67b650ef5049b1f88--><g id="link_1f09649ba7a4d1c7439ec85339c60c01_59625493767b5dd67b650ef5049b1f88"><path codeLine="72" d="M1401.75,595.69 C1349.4,617.28 1264.63,652.24 1212.28,673.83 " fill="none" id="1f09649ba7a4d1c7439ec85339c60c01-59625493767b5dd67b650ef5049b1f88" style="stroke:#181818;stroke-width:1.0;"/><text fill="#000000" font-family="sans-serif" font-size="13" lengthAdjust="spacing" textLength="14" x="1324" y="640.3269">rw</text></g><!--link 450088450036913a033d363e8cbe391e to 1f09649ba7a4d1c7439ec85339c60c01--><g id="link_450088450036913a033d363e8cbe391e_1f09649ba7a4d1c7439ec85339c60c01"><path codeLine="73" d="M1706.11,239.43 C1626.05,343.4 1507.8309,496.9263 1466.1909,550.9963 " fill="none" id="450088450036913a033d363e8cbe391e-to-1f09649ba7a4d1c7439ec85339c60c01" style="stroke:#181818;stroke-width:1.0;stroke-dasharray:7.0,7.0;"/><polygon fill="#181818" points="1462.53,555.75,1471.1905,551.06,1465.5807,551.7886,1464.8522,546.1788,1462.53,555.75" style="stroke:#181818;stroke-width:1.0;"/><text fill="#000000" font-family="sans-serif" font-size="13" lengthAdjust="spacing" textLength="23" x="1591" y="403.0369">use</text></g><!--link c90af3e20beac19dfeb4130c64f246cf to 6dba058cd41f7d38cb0f6ce487c4dfea--><g id="link_c90af3e20beac19dfeb4130c64f246cf_6dba058cd41f7d38cb0f6ce487c4dfea"><path codeLine="74" d="M1704,595.56 C1704,617.18 1704,652.35 1704,673.98 " fill="none" id="c90af3e20beac19dfeb4130c64f246cf-6dba058cd41f7d38cb0f6ce487c4dfea" style="stroke:#181818;stroke-width:1.0;"/><text fill="#000000" font-family="sans-serif" font-size="13" lengthAdjust="spacing" textLength="14" x="1705" y="640.3269">rw</text></g><!--link 450088450036913a033d363e8cbe391e to c90af3e20beac19dfeb4130c64f246cf--><g id="link_450088450036913a033d363e8cbe391e_c90af3e20beac19dfeb4130c64f246cf"><path codeLine="75" d="M1763.09,239.43 C1744.76,343.4 1717.9015,495.7711 1708.3715,549.8411 " fill="none" id="450088450036913a033d363e8cbe391e-to-c90af3e20beac19dfeb4130c64f246cf" style="stroke:#181818;stroke-width:1.0;stroke-dasharray:7.0,7.0;"/><polygon fill="#181818" points="1707.33,555.75,1712.8315,547.5809,1708.1979,550.8259,1704.9529,546.1923,1707.33,555.75" style="stroke:#181818;stroke-width:1.0;"/><text fill="#000000" font-family="sans-serif" font-size="13" lengthAdjust="spacing" textLength="23" x="1737" y="403.0369">use</text></g><!--link f9fdb318fc186230425e40f348d60571 to 5b376ac5b8cd91e43135a39fe7ab8af4--><g id="link_f9fdb318fc186230425e40f348d60571_5b376ac5b8cd91e43135a39fe7ab8af4"><path codeLine="76" d="M1938,595.56 C1938,617.18 1938,652.35 1938,673.98 " fill="none" id="f9fdb318fc186230425e40f348d60571-5b376ac5b8cd91e43135a39fe7ab8af4" style="stroke:#181818;stroke-width:1.0;"/><text fill="#000000" font-family="sans-serif" font-size="13" lengthAdjust="spacing" textLength="14" x="1939" y="640.3269">rw</text></g><!--link 450088450036913a033d363e8cbe391e to f9fdb318fc186230425e40f348d60571--><g id="link_450088450036913a033d363e8cbe391e_f9fdb318fc186230425e40f348d60571"><path codeLine="77" d="M1815.16,239.43 C1853.26,343.4 1909.205,496.0466 1929.025,550.1166 " fill="none" id="450088450036913a033d363e8cbe391e-to-f9fdb318fc186230425e40f348d60571" style="stroke:#181818;stroke-width:1.0;stroke-dasharray:7.0,7.0;"/><polygon fill="#181818" points="1931.09,555.75,1931.7481,545.9232,1929.3692,551.0555,1924.2369,548.6765,1931.09,555.75" style="stroke:#181818;stroke-width:1.0;"/><text fill="#000000" font-family="sans-serif" font-size="13" lengthAdjust="spacing" textLength="23" x="1877" y="403.0369">use</text></g><!--link af7a7f0b3b2e57bd500b4dc604f1838f to 97b04832e42a04c7beb04c21e560b3fb--><g id="link_af7a7f0b3b2e57bd500b4dc604f1838f_97b04832e42a04c7beb04c21e560b3fb"><path codeLine="78" d="M971,198.33 C979.78,242.09 991.26,299.37 995.42,320.07 " fill="none" id="af7a7f0b3b2e57bd500b4dc604f1838f-97b04832e42a04c7beb04c21e560b3fb" style="stroke:#181818;stroke-width:1.0;"/></g><!--link 97b04832e42a04c7beb04c21e560b3fb to dba3f4d0bb5aa6fcfa18da2c1f7a9775--><g id="link_97b04832e42a04c7beb04c21e560b3fb_dba3f4d0bb5aa6fcfa18da2c1f7a9775"><path codeLine="79" d="M1002.5,337.65 C1010.43,348.38 1025.89,368.1 1042,381.97 C1076.67,411.81 1090.5,412.26 1129,436.97 C1140.85,444.57 1154.45,453.45 1163.13,459.14 " fill="none" id="97b04832e42a04c7beb04c21e560b3fb-dba3f4d0bb5aa6fcfa18da2c1f7a9775" style="stroke:#181818;stroke-width:1.0;"/></g><!--link af7a7f0b3b2e57bd500b4dc604f1838f to 3a61031652ff80665f419f821c1ac407--><g id="link_af7a7f0b3b2e57bd500b4dc604f1838f_3a61031652ff80665f419f821c1ac407"><path codeLine="80" d="M997.46,198.33 C1027.35,242.09 1066.47,299.37 1080.61,320.07 " fill="none" id="af7a7f0b3b2e57bd500b4dc604f1838f-3a61031652ff80665f419f821c1ac407" style="stroke:#181818;stroke-width:1.0;"/></g><!--link 3a61031652ff80665f419f821c1ac407 to 8a81c9bb0ec23d07684c1472053c60fe--><g id="link_3a61031652ff80665f419f821c1ac407_8a81c9bb0ec23d07684c1472053c60fe"><path codeLine="81" d="M1094.92,336.85 C1125.01,360.06 1222.56,435.31 1252.31,458.26 " fill="none" id="3a61031652ff80665f419f821c1ac407-8a81c9bb0ec23d07684c1472053c60fe" style="stroke:#181818;stroke-width:1.0;"/></g><!--link d8d4e4f3ed3706d9e8d3638ad294010c to 9ca949419939455487c5ed2cbb5dc566--><g id="link_d8d4e4f3ed3706d9e8d3638ad294010c_9ca949419939455487c5ed2cbb5dc566"><path codeLine="82" d="M734,595.56 C734,617.18 734,652.35 734,673.98 " fill="none" id="d8d4e4f3ed3706d9e8d3638ad294010c-9ca949419939455487c5ed2cbb5dc566" style="stroke:#181818;stroke-width:1.0;"/><text fill="#000000" font-family="sans-serif" font-size="13" lengthAdjust="spacing" textLength="14" x="735" y="640.3269">rw</text></g><!--link af7a7f0b3b2e57bd500b4dc604f1838f to d8d4e4f3ed3706d9e8d3638ad294010c--><g id="link_af7a7f0b3b2e57bd500b4dc604f1838f_d8d4e4f3ed3706d9e8d3638ad294010c"><path codeLine="83" d="M931.15,198.52 C880.1,295.91 778.9758,488.8259 746.6258,550.5359 " fill="none" id="af7a7f0b3b2e57bd500b4dc604f1838f-to-d8d4e4f3ed3706d9e8d3638ad294010c" style="stroke:#181818;stroke-width:1.0;stroke-dasharray:7.0,7.0;"/><polygon fill="#181818" points="743.84,555.85,751.5614,549.7361,746.1615,551.4216,744.4759,546.0217,743.84,555.85" style="stroke:#181818;stroke-width:1.0;"/><text fill="#000000" font-family="sans-serif" font-size="13" lengthAdjust="spacing" textLength="23" x="831" y="403.0369">use</text></g><!--link e585d045482969ca1b2bfd206c1c63fd to 59625493767b5dd67b650ef5049b1f88--><g id="link_e585d045482969ca1b2bfd206c1c63fd_59625493767b5dd67b650ef5049b1f88"><path codeLine="84" d="M1014.48,595.56 C1048.04,617.12 1102.55,652.14 1136.23,673.78 " fill="none" id="e585d045482969ca1b2bfd206c1c63fd-59625493767b5dd67b650ef5049b1f88" style="stroke:#181818;stroke-width:1.0;"/><text fill="#000000" font-family="sans-serif" font-size="13" lengthAdjust="spacing" textLength="14" x="1087" y="640.3269">rw</text></g><!--link af7a7f0b3b2e57bd500b4dc604f1838f to e585d045482969ca1b2bfd206c1c63fd--><g id="link_af7a7f0b3b2e57bd500b4dc604f1838f_e585d045482969ca1b2bfd206c1c63fd"><path codeLine="85" d="M956.94,198.5 C955.42,228.49 953.75,266.25 953,299.97 C952.19,336.4 950,345.65 953,381.97 C958.3,446.17 972.0969,515.3245 979.5069,549.7345 " fill="none" id="af7a7f0b3b2e57bd500b4dc604f1838f-to-e585d045482969ca1b2bfd206c1c63fd" style="stroke:#181818;stroke-width:1.0;stroke-dasharray:7.0,7.0;"/><polygon fill="#181818" points="980.77,555.6,982.7857,545.9596,979.7174,550.7121,974.965,547.6438,980.77,555.6" style="stroke:#181818;stroke-width:1.0;"/><text fill="#000000" font-family="sans-serif" font-size="13" lengthAdjust="spacing" textLength="23" x="956" y="403.0369">use</text></g><!--link 3c217ea98bfddc0f9ff1c849de325d93 to 09876deab5af8de0c168ec3aa053742d--><g id="link_3c217ea98bfddc0f9ff1c849de325d93_09876deab5af8de0c168ec3aa053742d"><path codeLine="86" d="M2192,198.33 C2192,242.09 2192,299.37 2192,320.07 " fill="none" id="3c217ea98bfddc0f9ff1c849de325d93-09876deab5af8de0c168ec3aa053742d" style="stroke:#181818;stroke-width:1.0;"/></g><!--link 09876deab5af8de0c168ec3aa053742d to c896127ab1831787795a6fc7c8465c9a--><g id="link_09876deab5af8de0c168ec3aa053742d_c896127ab1831787795a6fc7c8465c9a"><path codeLine="87" d="M2192,337.61 C2192,361.26 2192,433.08 2192,457.07 " fill="none" id="09876deab5af8de0c168ec3aa053742d-c896127ab1831787795a6fc7c8465c9a" style="stroke:#181818;stroke-width:1.0;"/></g><!--SRC=[bLRRRXit47tVhzYeBws1M2I7LmCkwi16sYAD6ib1K1I5GN8uXW9PIYKbJb3qtpkx6xbMwehnWnPQQJYNCsVcC2uMgzkR-SVvyhfPhh2qe_CqQkEcHUVG52CWejGGo7WJimvQMP_0oDJ-rRHvTVDkjIpBRGl6n99Sp42UeeRYCMXA98fE7crkVs-EZZ0T7JND_2PUbvFsvjFcpyN98cxBPjki-H7NsvCsBcxZfqrJbX_cwzNoXbsVjB_yDdlrukhyxFBisTdiuXJVnkNrAYrMrm-PJIUJowjVpsQpDvFf-UdvsxFbyzMpnUJwYNhoweSttrmqpH_Djz-r8m1X-pebAaifXeZEWl6Ah9KoPt0eVGgXD9pNd6BUjgFnXxWUB-PftEVUdmOmIWjbPG8oMfAXf9rCqdXAAMhN_Br3zIxh_Xn9i3P5a3A9b1HA5A2S4eeIXk3aFhhQ2E5zzmGR94G1W60Pv9mA15a6TEyYT2WVHFJyvxENpoTNNmdidlNhsSNqTBrQRG_O78B__q_zE9bTdc8wv7SolJpj6lUWpVJY_AVPrUlfYzDrmVdcn88Bksvx8SJ0Qg2YOonQUF06iNIT1rSmwmZay7wtCpTk_2ye_BvObBmjoCXkvtbW3ubWTKZHHOqoEvwKahq12DcABEGXV_pPz4vo496WA95Ap38WbQGbY6mrAMqp7NBo_jrY5N7mGu4mWVIKfRSAX5Q62oNGF872E7b7nfVNy-N7_aWf6fY_aCa7T4X9IRA075aG_w3tUHZ9HKSYGLB5k8HCoAIHAzKa6K_gURZid3z4mS-3t_-_6_ox_lJP19U4zg2ALb7ex5BXzwnaCPQ3KkfjjOPXzAAL0gGrYiWBQmrf6SWhcIKlAk7kerQsUTp77Px7URMaWGyUTT4CFe8J5WFlBHui7r45BQJ8Z-L3uJM9GXljLR0XHvbK8bJ2Pfaj4DwrODfnj3_YBLi5mTjM9t8S509_uS8AOrgi-sBHCXoknE3PBMPk4f7CNWSie0m6w5lG3y215Wm3ij-2RbpwV4JmpcA9oKJoM4IMrfSCCGe3JgkkXBq5Mhm9n4nB321Fb2ubykOFsWO7GNZQ7q1fbSvQyJw3e7pfQAy5elV4b58axjC1UK6IHbwG9aPBcQBq65MMJCFWdDcZWuzUvf2IA5a12cUzpbBpIZN01AMoNsJsmKhbOcACfVFE1TD5S0obDJd4Utq_7gVvSenn6pV3uXyFz1E9MEaeAfO-4fdz87UZ94fUUrFsF3n45HEiCZg0iounRloqHXGoWjU99E_t7Dpj2ikW2ECpijWu15O0GJONxLtMl3Zs4x-_74pYI36Rn6TPCZH8C95rlJ08FfB-JyLVJ0gJER3yon2OdyPq0Kr1bRavc8srJVKAy1IVrjMsPj1xgLAk9ikzbre7svDsjBuTrGixFiRZu- -hTu7Et_jD6JLLEU-ogofLpM30kpPkDG7hlTIekaEgMjXdfAf1TqZLbB7FhZOIZysk6dINNKrl1-mgS_VOxAf1TzbLnRhBhgguDOE1gxL5_LMvL0MzPj1xgUf0JV87N2hRRjUrQc6VkrODkkjQxGBng7dyskogGNVPLMyVNNRL2qJDeFTIK-X_0000]--></g></svg>