<svg width="364" height="56" viewBox="0 0 364 56" xmlns="http://www.w3.org/2000/svg"><title>icon-sn</title><g fill="none" fill-rule="evenodd"><rect fill="none" width="28" height="28" rx="3" /><g fill="#FFF"><path d="M13.816 13.156h7.42l-.073 2.416h-7.347z" /><path d="M21.856 13.156v.09c.816 6.153-3.262 9.697-8.15 9.651C8.898 22.89 5 18.891 5 13.95 5 9.006 8.898 5 13.706 5c2.513 0 4.626.903 6.07 2.47l-1.698 1.745c-1.059-1.113-2.563-1.723-4.299-1.723-3.469 0-6.281 2.89-6.281 6.457 0 3.566 2.812 6.456 6.281 6.456 3.47 0 5.933-2.061 5.928-6.456.005-.272 0-.536-.018-.793h2.167z" /></g><g transform="translate(112)"><rect fill="none" width="28" height="28" rx="3" /><path d="M10.29 22.667c-2.317 0-4.474-.697-6.29-1.89a8.105 8.105 0 0 0 6.075-1.742c-1.796-.035-3.311-1.251-3.833-2.923a4 4 0 0 0 1.853-.072c-1.877-.387-3.292-2.087-3.292-4.126v-.053a4.01 4.01 0 0 0 1.86.527 4.235 4.235 0 0 1-1.826-3.503c0-.77.202-1.493.555-2.115 2.024 2.546 5.048 4.22 8.458 4.396a4.327 4.327 0 0 1-.107-.959C13.743 7.884 15.581 6 17.847 6c1.18 0 2.246.511 2.995 1.329a8.095 8.095 0 0 0 2.605-1.021 4.203 4.203 0 0 1-1.804 2.327A8.046 8.046 0 0 0 24 7.973a8.46 8.46 0 0 1-2.047 2.178c.007.18.011.362.011.544 0 5.56-4.127 11.972-11.674 11.972" fill="#FFF" /></g><g transform="translate(168)"><rect fill="none" width="28" height="28" rx="3" /><path d="M12.413 5c.056.517.075.954.075 1.689 0 4.728-1.027 8.006-3.417 10.947C7.894 19.066 6.905 19.88 5 20.954c.672.635 1.027 1.132 1.456 2.046 1.307-.854 1.924-1.331 2.895-2.285 1.325-1.291 2.128-2.364 2.875-3.814.766-1.51 1.102-2.424 1.457-4.014.634 2.285 1.344 3.815 2.483 5.424 1.326 1.868 2.465 3 4.743 4.689.448-.954.747-1.43 1.456-2.205-1.232-.696-1.792-1.113-2.894-2.146-1.326-1.232-2.147-2.285-2.95-3.775-1.345-2.543-1.83-4.649-1.83-8.026 0-.477.075-1.59.13-1.848h-2.408z" fill="#FFF" /></g><g transform="translate(224)"><rect fill="none" width="28" height="28" rx="3" /><path d="M6.593 6h14.875v1.74H6.593V6zm1.293 10.358h12.289V9.555H7.885v6.803zm1.782-5.064h8.743v3.326H9.668v-3.326zm7.848 8.985c.536-.85 1.04-1.837 1.507-2.955l-1.787-.677a22.67 22.67 0 0 1-1.623 3.632h-3.111c-.516-1.417-1.098-2.629-1.75-3.632l-1.644.677a24.246 24.246 0 0 1 1.644 2.955h-4.58V22h15.717v-1.721h-4.373z" fill="#FFF" /></g><g transform="translate(28)"><rect fill="none" width="28" height="28" rx="3" /><path d="M23 14.227C23 9.133 18.969 5 14 5s-9 4.133-9 9.227c0 4.073 2.578 7.533 6.152 8.758.457.084.621-.204.621-.444 0-.217-.011-.95-.011-1.718 0 0-2.508.552-3.035-1.094 0 0-.41-1.069-.997-1.345 0 0-.82-.577.06-.565 0 0 .89.072 1.382.95.785 1.417 2.098 1.008 2.613.768.082-.6.317-.997.574-1.237-2.004-.229-4.101-1.022-4.101-4.554 0-1.009.351-1.838.926-2.475-.094-.24-.399-1.177.082-2.45.761-.24 2.484.949 2.484.949a8.279 8.279 0 0 1 4.5 0s1.723-1.19 2.473-.95c.492 1.274.187 2.211.093 2.451.575.637.926 1.466.926 2.475 0 3.544-2.11 4.325-4.113 4.554.328.288.61.84.61 1.706v2.535c0 .24.152.528.609.444C20.422 21.76 23 18.3 23 14.227z" fill="#FFF" /></g><g transform="translate(56)"><rect fill="none" width="28" height="28" rx="3" /><path d="M11.533 18.427c-.323.513-1.015.737-1.529.502-.502-.234-.658-.826-.334-1.328.312-.491.982-.714 1.484-.502.525.223.692.815.38 1.328zm1.05-1.35a.475.475 0 0 1-.57.212c-.2-.09-.256-.302-.145-.503a.488.488 0 0 1 .558-.212c.201.078.268.302.157.503zm1.942 1.194c.67-1.496-.157-3.036-1.797-3.46-1.574-.402-3.349.38-4.04 1.763-.692 1.418-.023 2.991 1.573 3.505 1.652.535 3.594-.29 4.264-1.808zm3.482-1.786c.212 2.176-2.288 4.196-5.603 4.531-3.315.324-6.172-1.172-6.384-3.348-.212-2.176 2.288-4.196 5.603-4.531 3.315-.324 6.172 1.172 6.384 3.348zm3.437.045c0-1.518-1.272-2.378-2.422-2.735-.279-.089-.468-.145-.323-.513.312-.804.346-1.496 0-1.987-.648-.926-2.422-.881-4.453-.022 0-.011-.637.279-.48-.234.312-1.005.267-1.853-.224-2.333-1.104-1.105-4.04.033-6.562 2.556C5.094 13.148 4 15.146 4 16.876c0 3.314 4.241 5.323 8.393 5.323 5.435 0 9.051-3.158 9.051-5.67zm-.826-6.965a2.554 2.554 0 0 0-2.455-.792.653.653 0 0 0-.502.781c.067.357.424.58.781.502a1.267 1.267 0 0 1 1.462 1.63.655.655 0 1 0 1.25.402c.28-.849.1-1.82-.536-2.523zm2.02-1.819c-1.317-1.462-3.247-2.009-5.044-1.63a.763.763 0 0 0-.592.905c.09.413.502.68.915.591a3.765 3.765 0 0 1 3.583 1.16 3.743 3.743 0 0 1 .781 3.684c-.122.402.1.826.503.96a.76.76 0 0 0 .96-.491c.557-1.741.211-3.728-1.106-5.179z" fill="#FFF" /></g><g transform="translate(84)"><rect fill="none" width="28" height="28" rx="3" /><path d="M7.531 13.096C5.964 14.281 5 15.768 5 17.776c0 .372.09.674.231 1.005.06.02.03.1.11.1h.01c.583-.06 1.105-.612 1.326-1.124.02-.05.05-.201.121-.201l.05.03c.15.723 1.125 2.47 1.818 2.632l.02.03c0 .03-.01.03-.02.04-.05.01-.09.02-.14.02-.362.02-.593.19-.904.251-.392.362-.513.522-.513 1.085C7.11 22.95 10.063 23 10.826 23c.864 0 2.36-.18 2.973-.854.261.03.623-.01.864.06 1.155.342 2.15.663 3.375.663.924 0 2.46-.11 3.033-.974.08-.11.06-.23.11-.341-.17-.955-1.094-.904-1.666-1.457.652-.623 1.004-1.406 1.325-2.24l.05-.04c.01 0 .02 0 .03.01.141.261.573 1.215.965 1.215.563 0 .753-1.225.753-1.577 0-1.587-.783-2.973-1.647-4.248-.01-.02-.07-.1-.07-.121 0-.241.18-.512.18-.784 0-.542-.26-1.064-.552-1.506l-.01-.05c-.502-2.36-1.035-4.21-3.395-5.204C16.32 5.211 15.356 5 14.472 5c-1.135 0-2.22.17-3.254.663-1.678.804-3.114 3.144-3.114 5.002-.201.17-.312.703-.302.964-.17.211-.351.663-.351.945 0 .18.01.351.08.522z" fill="#FFF" /></g><g transform="translate(140)"><rect fill="none" width="28" height="28" rx="3" /><path d="M19.385 4.144C19.06 4.096 17.942 4 16.645 4c-2.717 0-4.58 1.659-4.58 4.7v2.62H9v3.557h3.065V24h3.678v-9.123h3.053l.468-3.557h-3.521V9.048c0-1.022.276-1.73 1.755-1.73h1.887V4.143z" fill="#FFF" /></g><g transform="translate(196)"><rect fill="none" width="28" height="28" rx="3" /><path d="M16.761 10.384a2.155 2.155 0 0 0-2.154-2.154c-1.194 0-2.154.96-2.154 2.154 0 .301.056.591.179.86a13.77 13.77 0 0 0-1.474 1.84c-1.372 2.043-2.924 5.503-2.488 10.391a.59.59 0 0 0 .58.525h.056a.595.595 0 0 0 .524-.636c-.334-3.627.436-6.853 2.255-9.587.435-.648.882-1.194 1.283-1.63.357.246.782.391 1.24.391a2.163 2.163 0 0 0 2.153-2.154zm4.252.123A6.506 6.506 0 0 0 14.507 4 6.514 6.514 0 0 0 8 10.507a6.46 6.46 0 0 0 .714 2.957c.145.29.491.402.782.257a.583.583 0 0 0 .245-.781 5.354 5.354 0 0 1 4.766-7.779c2.946 0 5.346 2.4 5.346 5.346s-2.4 5.346-5.346 5.346a4.88 4.88 0 0 1-1.206-.145.592.592 0 0 0-.692.435.595.595 0 0 0 .436.703c.48.1.97.156 1.462.156 3.593 0 6.506-2.913 6.506-6.495z" fill="#FFF" /></g><g transform="translate(252)"><rect fill="none" width="28" height="28" rx="3" /><path d="M9.23 9.306c0 .582-.386.971-.977.971-.58 0-1.171-.389-1.171-.971 0-.594.59-.982 1.17-.982.592 0 .978.388.978.982zm7.982 5.471c0 .4-.387.788-.978.788-.386 0-.773-.389-.773-.788 0-.389.387-.777.773-.777.591 0 .978.388.978.777zm-2.535-5.471c0 .582-.387.971-.967.971-.59 0-1.17-.389-1.17-.971 0-.594.58-.982 1.17-.982.58 0 .967.388.967.982zm6.821 5.471c0 .4-.397.788-.977.788-.387 0-.774-.389-.774-.788 0-.389.387-.777.774-.777.58 0 .977.388.977.777zm-2.857-4.284C17.975 7.342 14.612 5 10.788 5 6.502 5 3 7.924 3 11.647c0 2.148 1.17 3.918 3.115 5.288l-.773 2.353 2.718-1.37c.977.194 1.75.388 2.728.388.247 0 .483-.011.73-.033a5.51 5.51 0 0 1-.247-1.64c0-3.41 2.922-6.183 6.618-6.183.257 0 .505.01.752.043zM25 16.547c0-3.13-3.115-5.676-6.617-5.676-3.706 0-6.617 2.546-6.617 5.676 0 3.13 2.91 5.676 6.617 5.676.773 0 1.557-.205 2.342-.4L22.862 23l-.59-1.953C23.84 19.87 25 18.306 25 16.547z" fill="#FFF" /></g><g transform="translate(280)"><rect fill="#EEE" width="28" height="28" rx="3" /><path d="M8 16a2 2 0 1 0 0-4 2 2 0 0 0 0 4zm6 0a2 2 0 1 0 0-4 2 2 0 0 0 0 4zm6 0a2 2 0 1 0 0-4 2 2 0 0 0 0 4z" fill="#888" /></g><g transform="translate(0 28)"><rect fill="none" width="28" height="28" rx="3" /><g fill="#3182F6"><path d="M13.816 13.156h7.42l-.073 2.416h-7.347z" /><path d="M21.856 13.156v.09c.816 6.153-3.262 9.697-8.15 9.651C8.898 22.89 5 18.891 5 13.95 5 9.006 8.898 5 13.706 5c2.513 0 4.626.903 6.07 2.47l-1.698 1.745c-1.059-1.113-2.563-1.723-4.299-1.723-3.469 0-6.281 2.89-6.281 6.457 0 3.566 2.812 6.456 6.281 6.456 3.47 0 5.933-2.061 5.928-6.456.005-.272 0-.536-.018-.793h2.167z" /></g></g><g transform="translate(280 28)"><rect fill="none" width="28" height="28" rx="3" /><path d="M8 16a2 2 0 1 0 0-4 2 2 0 0 0 0 4zm6 0a2 2 0 1 0 0-4 2 2 0 0 0 0 4zm6 0a2 2 0 1 0 0-4 2 2 0 0 0 0 4z" fill="#888" /></g><g transform="translate(112 28)"><rect fill="none" width="28" height="28" rx="3" /><path d="M10.29 22.667c-2.317 0-4.474-.697-6.29-1.89a8.105 8.105 0 0 0 6.075-1.742c-1.796-.035-3.311-1.251-3.833-2.923a4 4 0 0 0 1.853-.072c-1.877-.387-3.292-2.087-3.292-4.126v-.053a4.01 4.01 0 0 0 1.86.527 4.235 4.235 0 0 1-1.826-3.503c0-.77.202-1.493.555-2.115 2.024 2.546 5.048 4.22 8.458 4.396a4.327 4.327 0 0 1-.107-.959C13.743 7.884 15.581 6 17.847 6c1.18 0 2.246.511 2.995 1.329a8.095 8.095 0 0 0 2.605-1.021 4.203 4.203 0 0 1-1.804 2.327A8.046 8.046 0 0 0 24 7.973a8.46 8.46 0 0 1-2.047 2.178c.007.18.011.362.011.544 0 5.56-4.127 11.972-11.674 11.972" fill="#4BAAF4" /></g><g transform="translate(168 28)"><rect fill="none" width="28" height="28" rx="3" /><path d="M12.413 5c.056.517.075.954.075 1.689 0 4.728-1.027 8.006-3.417 10.947C7.894 19.066 6.905 19.88 5 20.954c.672.635 1.027 1.132 1.456 2.046 1.307-.854 1.924-1.331 2.895-2.285 1.325-1.291 2.128-2.364 2.875-3.814.766-1.51 1.102-2.424 1.457-4.014.634 2.285 1.344 3.815 2.483 5.424 1.326 1.868 2.465 3 4.743 4.689.448-.954.747-1.43 1.456-2.205-1.232-.696-1.792-1.113-2.894-2.146-1.326-1.232-2.147-2.285-2.95-3.775-1.345-2.543-1.83-4.649-1.83-8.026 0-.477.075-1.59.13-1.848h-2.408z" fill="#0B79CB" /></g><g transform="translate(224 28)"><rect fill="none" width="28" height="28" rx="3" /><path d="M6.593 6h14.875v1.74H6.593V6zm1.293 10.358h12.289V9.555H7.885v6.803zm1.782-5.064h8.743v3.326H9.668v-3.326zm7.848 8.985c.536-.85 1.04-1.837 1.507-2.955l-1.787-.677a22.67 22.67 0 0 1-1.623 3.632h-3.111c-.516-1.417-1.098-2.629-1.75-3.632l-1.644.677a24.246 24.246 0 0 1 1.644 2.955h-4.58V22h15.717v-1.721h-4.373z" fill="#1F9832" /></g><g transform="translate(28 28)"><rect fill="none" width="28" height="28" rx="3" /><path d="M23 14.227C23 9.133 18.969 5 14 5s-9 4.133-9 9.227c0 4.073 2.578 7.533 6.152 8.758.457.084.621-.204.621-.444 0-.217-.011-.95-.011-1.718 0 0-2.508.552-3.035-1.094 0 0-.41-1.069-.997-1.345 0 0-.82-.577.06-.565 0 0 .89.072 1.382.95.785 1.417 2.098 1.008 2.613.768.082-.6.317-.997.574-1.237-2.004-.229-4.101-1.022-4.101-4.554 0-1.009.351-1.838.926-2.475-.094-.24-.399-1.177.082-2.45.761-.24 2.484.949 2.484.949a8.279 8.279 0 0 1 4.5 0s1.723-1.19 2.473-.95c.492 1.274.187 2.211.093 2.451.575.637.926 1.466.926 2.475 0 3.544-2.11 4.325-4.113 4.554.328.288.61.84.61 1.706v2.535c0 .24.152.528.609.444C20.422 21.76 23 18.3 23 14.227z" fill="#333" /></g><g transform="translate(56 28)"><rect fill="none" width="28" height="28" rx="3" /><path d="M11.533 18.427c-.323.513-1.015.737-1.529.502-.502-.234-.658-.826-.334-1.328.312-.491.982-.714 1.484-.502.525.223.692.815.38 1.328zm1.05-1.35a.475.475 0 0 1-.57.212c-.2-.09-.256-.302-.145-.503a.488.488 0 0 1 .558-.212c.201.078.268.302.157.503zm1.942 1.194c.67-1.496-.157-3.036-1.797-3.46-1.574-.402-3.349.38-4.04 1.763-.692 1.418-.023 2.991 1.573 3.505 1.652.535 3.594-.29 4.264-1.808zm3.482-1.786c.212 2.176-2.288 4.196-5.603 4.531-3.315.324-6.172-1.172-6.384-3.348-.212-2.176 2.288-4.196 5.603-4.531 3.315-.324 6.172 1.172 6.384 3.348zm3.437.045c0-1.518-1.272-2.378-2.422-2.735-.279-.089-.468-.145-.323-.513.312-.804.346-1.496 0-1.987-.648-.926-2.422-.881-4.453-.022 0-.011-.637.279-.48-.234.312-1.005.267-1.853-.224-2.333-1.104-1.105-4.04.033-6.562 2.556C5.094 13.148 4 15.146 4 16.876c0 3.314 4.241 5.323 8.393 5.323 5.435 0 9.051-3.158 9.051-5.67zm-.826-6.965a2.554 2.554 0 0 0-2.455-.792.653.653 0 0 0-.502.781c.067.357.424.58.781.502a1.267 1.267 0 0 1 1.462 1.63.655.655 0 1 0 1.25.402c.28-.849.1-1.82-.536-2.523zm2.02-1.819c-1.317-1.462-3.247-2.009-5.044-1.63a.763.763 0 0 0-.592.905c.09.413.502.68.915.591a3.765 3.765 0 0 1 3.583 1.16 3.743 3.743 0 0 1 .781 3.684c-.122.402.1.826.503.96a.76.76 0 0 0 .96-.491c.557-1.741.211-3.728-1.106-5.179z" fill="#EC0117" /></g><g transform="translate(84 28)"><rect fill="none" width="28" height="28" rx="3" /><path d="M7.531 13.096C5.964 14.281 5 15.768 5 17.776c0 .372.09.674.231 1.005.06.02.03.1.11.1h.01c.583-.06 1.105-.612 1.326-1.124.02-.05.05-.201.121-.201l.05.03c.15.723 1.125 2.47 1.818 2.632l.02.03c0 .03-.01.03-.02.04-.05.01-.09.02-.14.02-.362.02-.593.19-.904.251-.392.362-.513.522-.513 1.085C7.11 22.95 10.063 23 10.826 23c.864 0 2.36-.18 2.973-.854.261.03.623-.01.864.06 1.155.342 2.15.663 3.375.663.924 0 2.46-.11 3.033-.974.08-.11.06-.23.11-.341-.17-.955-1.094-.904-1.666-1.457.652-.623 1.004-1.406 1.325-2.24l.05-.04c.01 0 .02 0 .03.01.141.261.573 1.215.965 1.215.563 0 .753-1.225.753-1.577 0-1.587-.783-2.973-1.647-4.248-.01-.02-.07-.1-.07-.121 0-.241.18-.512.18-.784 0-.542-.26-1.064-.552-1.506l-.01-.05c-.502-2.36-1.035-4.21-3.395-5.204C16.32 5.211 15.356 5 14.472 5c-1.135 0-2.22.17-3.254.663-1.678.804-3.114 3.144-3.114 5.002-.201.17-.312.703-.302.964-.17.211-.351.663-.351.945 0 .18.01.351.08.522z" fill="#0098E6" /></g><g transform="translate(140 28)"><rect fill="none" width="28" height="28" rx="3" /><path d="M19.385 4.144C19.06 4.096 17.942 4 16.645 4c-2.717 0-4.58 1.659-4.58 4.7v2.62H9v3.557h3.065V24h3.678v-9.123h3.053l.468-3.557h-3.521V9.048c0-1.022.276-1.73 1.755-1.73h1.887V4.143z" fill="#4862A3" /></g><g transform="translate(196 28)"><rect fill="none" width="28" height="28" rx="3" /><path d="M16.761 10.384a2.155 2.155 0 0 0-2.154-2.154c-1.194 0-2.154.96-2.154 2.154 0 .301.056.591.179.86a13.77 13.77 0 0 0-1.474 1.84c-1.372 2.043-2.924 5.503-2.488 10.391a.59.59 0 0 0 .58.525h.056a.595.595 0 0 0 .524-.636c-.334-3.627.436-6.853 2.255-9.587.435-.648.882-1.194 1.283-1.63.357.246.782.391 1.24.391a2.163 2.163 0 0 0 2.153-2.154zm4.252.123A6.506 6.506 0 0 0 14.507 4 6.514 6.514 0 0 0 8 10.507a6.46 6.46 0 0 0 .714 2.957c.145.29.491.402.782.257a.583.583 0 0 0 .245-.781 5.354 5.354 0 0 1 4.766-7.779c2.946 0 5.346 2.4 5.346 5.346s-2.4 5.346-5.346 5.346a4.88 4.88 0 0 1-1.206-.145.592.592 0 0 0-.692.435.595.595 0 0 0 .436.703c.48.1.97.156 1.462.156 3.593 0 6.506-2.913 6.506-6.495z" fill="#0D9DD4" /></g><g transform="translate(252 28)"><rect fill="none" width="28" height="28" rx="3" /><path d="M9.23 9.306c0 .582-.386.971-.977.971-.58 0-1.171-.389-1.171-.971 0-.594.59-.982 1.17-.982.592 0 .978.388.978.982zm7.982 5.471c0 .4-.387.788-.978.788-.386 0-.773-.389-.773-.788 0-.389.387-.777.773-.777.591 0 .978.388.978.777zm-2.535-5.471c0 .582-.387.971-.967.971-.59 0-1.17-.389-1.17-.971 0-.594.58-.982 1.17-.982.58 0 .967.388.967.982zm6.821 5.471c0 .4-.397.788-.977.788-.387 0-.774-.389-.774-.788 0-.389.387-.777.774-.777.58 0 .977.388.977.777zm-2.857-4.284C17.975 7.342 14.612 5 10.788 5 6.502 5 3 7.924 3 11.647c0 2.148 1.17 3.918 3.115 5.288l-.773 2.353 2.718-1.37c.977.194 1.75.388 2.728.388.247 0 .483-.011.73-.033a5.51 5.51 0 0 1-.247-1.64c0-3.41 2.922-6.183 6.618-6.183.257 0 .505.01.752.043zM25 16.547c0-3.13-3.115-5.676-6.617-5.676-3.706 0-6.617 2.546-6.617 5.676 0 3.13 2.91 5.676 6.617 5.676.773 0 1.557-.205 2.342-.4L22.862 23l-.59-1.953C23.84 19.87 25 18.306 25 16.547z" fill="#00B500" /></g><g transform="translate(308)"><rect fill="none" width="28" height="28" rx="3" /><path d="M14 5c-4.969 0-9 4.031-9 9s4.031 9 9 9 9-4.031 9-9-4.031-9-9-9zm3.21 6.105c.13-.082.34-.187.505-.14.129.035.234.082.082.187-.07.047-.176 0-.258.024.106.023.258.07.211.176.305.175-.094.386-.293.363.094.012-.2.187-.2.176-.105.058-.245.058-.327.164-.094.129.035.351-.14.304-.071.153-.34.07-.458.235.129.14-.129.34-.258.164-.117.047-.058.176-.176.246.047.07.059.14-.023.187.023-.011.164.106.2.118-.024.058-.071.105-.13.105.059.152-.07.316-.175.41-.118.094-.387.188-.422.211-.211.2-.352.492.023.574.012 0 .012.387.024.399.023.14.082.55-.165.398-.117-.058-.187-.386-.222-.515-.035-.141-.047-.141-.14-.282-.153.176-.177.047-.306-.035-.128-.07-.316-.047-.386-.117-.176.129-.305.094-.34-.105-.047.093.047.234.035.27-.059.116-.164.093-.258.023-.152-.118-.48.082-.656 0 .012 0 .059.046.094.07-.035.14-.117.058-.188.105-.082.059-.152.176-.222.235.152.293-.012.574 0 .89 0 .235.152.645.375.774.105.058.457.082.562.035.164-.07.14-.2.2-.34.058-.152.128-.223.304-.234.504-.024.117.386.059.597-.036.153-.047.328-.07.47.058.023.117.01.175.01 0-.046.035-.105.035-.14.07.117.305.153.375.012.082.14.246.246.27.41.023.164.176.34-.047.34-.164 0 .023.328.047.387.129.234.34.328.574.21 0 .094-.035.352-.164.376-.117.023-.34-.223-.293-.352a.187.187 0 0 1-.082.105c-.117-.14-.316-.21-.422-.351-.023-.035-.34-.516-.27-.54-.164.071-.492-.046-.644-.128-.246-.129-.281-.469-.586-.422-.21.035-.27.117-.516.023-.164-.058-.304-.175-.468-.257-.188-.106-.516-.211-.586-.446-.07-.187-.047-.41-.153-.586-.07-.117-.28-.351-.433-.351.14 0-.13-.352-.164-.387-.13-.152-.598-.562-.504-.797.023-.035-.235-.129-.281-.14.046.117.058.246.117.351.058.117.129.223.199.34.129.211.305.469.281.727-.152.046-.105-.176-.152-.27-.082-.152-.305-.152-.363-.316.023-.012.035-.012.058-.024.012-.199-.281-.363-.234-.504-.164-.129-.164-.375-.281-.539-.106-.152-.282-.222-.434-.328-.059-.035-.48-.574-.328-.61-.235.06-.352-.491-.317-.632 0 0-.023 0-.023-.012.047-.14-.035-.867.152-.879-.129.012-.164-.304-.129-.363.024-.047.2.129.211.152.07-.035.141-.129.118-.21-.036-.094-.164-.176-.246-.247-.036-.023-.504-.328-.516-.316.047-.082.035-.164-.035-.223-.223.176-.106-.164-.223-.199a.329.329 0 0 1-.14-.094 7.618 7.618 0 0 1 2.753-2.601c.07-.012.164-.012.258-.012.211.024.328.2.48.305.024-.059-.023-.153-.058-.211.035-.094.176-.117.258-.14.105-.013.258-.036.351.01-.07-.105-.152-.198-.234-.292-.012.012-.047.035-.059.059-.128-.106-.375.035-.492.082-.094.046-.176.105-.27.14a.2.2 0 0 1-.14.012 7.117 7.117 0 0 1 1.102-.48c.07.046.14.128.246.21-.07-.058-.07.211-.047.258.129.176.41.059.586.059-.012 0 .515.07.41-.059.082.117.082.293.187.399.106-.106-.046-.223.024-.329.023-.046.234-.105.305-.14.082-.059-.059-.14-.094-.164-.117-.07-.574-.106-.352-.375.082-.094.375-.047.469.012.129.07.27.199.094.316.082.012.469.117.41.27.035-.07.094-.176.187-.176.106.011.13.258.176.316.164.293.446-.293.492-.27-.21-.081.188-.187.293-.152.082.035.211.317.059.305.129.117.14.375-.094.363-.164-.012-.351-.234-.504-.058-.105.117-.152.293-.258.398-.164.164-.386.152-.585.129.082.012-.176.281-.2.328a.664.664 0 0 0-.14.27c-.024.117 0 .246-.059.363.2-.059.305.305.223.316.246-.035.445-.035.68.047.164.059.41.13.48.305.047-.07.27-.035.34-.012.14.07.152.223.187.352.047.175.2.468.399.375.035-.024.293-.14.199-.211-.094-.082-.2-.293-.106-.41.094-.13.317-.164.375-.329.094-.27-.28-.234-.28-.433 0-.117.152-.152.14-.293 0-.117-.176-.352-.035-.434.117-.07.68.047.785.117.105.07.433.165.457.27h-.059c.094.082.176.258.012.305.105-.024.41.093.2.164.07-.035.128-.012.198-.059.082-.047.13-.129.235-.07.023.012.152-.246.222-.235.106.012.13.165.176.235.047.105.176.14.223.246.082.2.047.387.316.457.082.023.305-.105.293.07.047-.047.07-.082.07-.093.012.164.083.351.282.328 0 0 0 .222-.024.258-.07.105-.246.082-.351.14-.035.012-.317.258-.281.293-.153-.176-.399-.176-.598-.129-.211.035-.41.059-.61.14-.093.048-.187.095-.257.177-.035.046-.094.257-.153.27.118-.024.176-.153.27-.224zM15.3 21.383a1.974 1.974 0 0 1-.023-.188c-.011-.187.188-.316.176-.492-.129-.035-.164-.164-.14-.305.023-.199.199-.34.34-.468.14-.13.175-.399.14-.563-.059-.281-.059-.574-.105-.855.011.07.21.047.246.14.046-.082.07-.187.129-.27.046-.07.128-.093.199-.152.117-.07.363-.34.504-.175.117.14-.176.293-.024.422.047-.094 0-.235.094-.329.187-.21.316.024.504.082.2.06.27.13.422.258-.047-.047.187-.129.21-.14.223-.047.317.082.47.199.163.117.421.2.398.433.117.024.187.06.281.094.094.047.223.024.293.094a7.439 7.439 0 0 1-4.113 2.215z" fill="#FFF" /></g><g transform="translate(308 28)"><rect fill="none" width="28" height="28" rx="3" /><path d="M14 5c-4.969 0-9 4.031-9 9s4.031 9 9 9 9-4.031 9-9-4.031-9-9-9zm3.21 6.105c.13-.082.34-.187.505-.14.129.035.234.082.082.187-.07.047-.176 0-.258.024.106.023.258.07.211.176.305.175-.094.386-.293.363.094.012-.2.187-.2.176-.105.058-.245.058-.327.164-.094.129.035.351-.14.304-.071.153-.34.07-.458.235.129.14-.129.34-.258.164-.117.047-.058.176-.176.246.047.07.059.14-.023.187.023-.011.164.106.2.118-.024.058-.071.105-.13.105.059.152-.07.316-.175.41-.118.094-.387.188-.422.211-.211.2-.352.492.023.574.012 0 .012.387.024.399.023.14.082.55-.165.398-.117-.058-.187-.386-.222-.515-.035-.141-.047-.141-.14-.282-.153.176-.177.047-.306-.035-.128-.07-.316-.047-.386-.117-.176.129-.305.094-.34-.105-.047.093.047.234.035.27-.059.116-.164.093-.258.023-.152-.118-.48.082-.656 0 .012 0 .059.046.094.07-.035.14-.117.058-.188.105-.082.059-.152.176-.222.235.152.293-.012.574 0 .89 0 .235.152.645.375.774.105.058.457.082.562.035.164-.07.14-.2.2-.34.058-.152.128-.223.304-.234.504-.024.117.386.059.597-.036.153-.047.328-.07.47.058.023.117.01.175.01 0-.046.035-.105.035-.14.07.117.305.153.375.012.082.14.246.246.27.41.023.164.176.34-.047.34-.164 0 .023.328.047.387.129.234.34.328.574.21 0 .094-.035.352-.164.376-.117.023-.34-.223-.293-.352a.187.187 0 0 1-.082.105c-.117-.14-.316-.21-.422-.351-.023-.035-.34-.516-.27-.54-.164.071-.492-.046-.644-.128-.246-.129-.281-.469-.586-.422-.21.035-.27.117-.516.023-.164-.058-.304-.175-.468-.257-.188-.106-.516-.211-.586-.446-.07-.187-.047-.41-.153-.586-.07-.117-.28-.351-.433-.351.14 0-.13-.352-.164-.387-.13-.152-.598-.562-.504-.797.023-.035-.235-.129-.281-.14.046.117.058.246.117.351.058.117.129.223.199.34.129.211.305.469.281.727-.152.046-.105-.176-.152-.27-.082-.152-.305-.152-.363-.316.023-.012.035-.012.058-.024.012-.199-.281-.363-.234-.504-.164-.129-.164-.375-.281-.539-.106-.152-.282-.222-.434-.328-.059-.035-.48-.574-.328-.61-.235.06-.352-.491-.317-.632 0 0-.023 0-.023-.012.047-.14-.035-.867.152-.879-.129.012-.164-.304-.129-.363.024-.047.2.129.211.152.07-.035.141-.129.118-.21-.036-.094-.164-.176-.246-.247-.036-.023-.504-.328-.516-.316.047-.082.035-.164-.035-.223-.223.176-.106-.164-.223-.199a.329.329 0 0 1-.14-.094 7.618 7.618 0 0 1 2.753-2.601c.07-.012.164-.012.258-.012.211.024.328.2.48.305.024-.059-.023-.153-.058-.211.035-.094.176-.117.258-.14.105-.013.258-.036.351.01-.07-.105-.152-.198-.234-.292-.012.012-.047.035-.059.059-.128-.106-.375.035-.492.082-.094.046-.176.105-.27.14a.2.2 0 0 1-.14.012 7.117 7.117 0 0 1 1.102-.48c.07.046.14.128.246.21-.07-.058-.07.211-.047.258.129.176.41.059.586.059-.012 0 .515.07.41-.059.082.117.082.293.187.399.106-.106-.046-.223.024-.329.023-.046.234-.105.305-.14.082-.059-.059-.14-.094-.164-.117-.07-.574-.106-.352-.375.082-.094.375-.047.469.012.129.07.27.199.094.316.082.012.469.117.41.27.035-.07.094-.176.187-.176.106.011.13.258.176.316.164.293.446-.293.492-.27-.21-.081.188-.187.293-.152.082.035.211.317.059.305.129.117.14.375-.094.363-.164-.012-.351-.234-.504-.058-.105.117-.152.293-.258.398-.164.164-.386.152-.585.129.082.012-.176.281-.2.328a.664.664 0 0 0-.14.27c-.024.117 0 .246-.059.363.2-.059.305.305.223.316.246-.035.445-.035.68.047.164.059.41.13.48.305.047-.07.27-.035.34-.012.14.07.152.223.187.352.047.175.2.468.399.375.035-.024.293-.14.199-.211-.094-.082-.2-.293-.106-.41.094-.13.317-.164.375-.329.094-.27-.28-.234-.28-.433 0-.117.152-.152.14-.293 0-.117-.176-.352-.035-.434.117-.07.68.047.785.117.105.07.433.165.457.27h-.059c.094.082.176.258.012.305.105-.024.41.093.2.164.07-.035.128-.012.198-.059.082-.047.13-.129.235-.07.023.012.152-.246.222-.235.106.012.13.165.176.235.047.105.176.14.223.246.082.2.047.387.316.457.082.023.305-.105.293.07.047-.047.07-.082.07-.093.012.164.083.351.282.328 0 0 0 .222-.024.258-.07.105-.246.082-.351.14-.035.012-.317.258-.281.293-.153-.176-.399-.176-.598-.129-.211.035-.41.059-.61.14-.093.048-.187.095-.257.177-.035.046-.094.257-.153.27.118-.024.176-.153.27-.224zM15.3 21.383a1.974 1.974 0 0 1-.023-.188c-.011-.187.188-.316.176-.492-.129-.035-.164-.164-.14-.305.023-.199.199-.34.34-.468.14-.13.175-.399.14-.563-.059-.281-.059-.574-.105-.855.011.07.21.047.246.14.046-.082.07-.187.129-.27.046-.07.128-.093.199-.152.117-.07.363-.34.504-.175.117.14-.176.293-.024.422.047-.094 0-.235.094-.329.187-.21.316.024.504.082.2.06.27.13.422.258-.047-.047.187-.129.21-.14.223-.047.317.082.47.199.163.117.421.2.398.433.117.024.187.06.281.094.094.047.223.024.293.094a7.439 7.439 0 0 1-4.113 2.215z" fill="#4A90E2" /></g><g transform="translate(336)"><rect fill="none" width="28" height="28" rx="3" /><path d="M9.09 10.524H5.223V22H9.09V10.524zm.246-3.544C9.324 5.857 8.504 5 7.18 5 5.867 5 5 5.857 5 6.98c0 1.1.832 1.98 2.133 1.98h.023c1.348 0 2.192-.88 2.18-1.98zM23 15.422c0-3.52-1.898-5.165-4.441-5.165-2.086 0-3 1.147-3.504 1.934h.023v-1.667h-3.855s.047 1.077 0 11.476h3.855v-6.404c0-.347.035-.683.129-.938.281-.683.914-1.39 1.98-1.39 1.395 0 1.958 1.054 1.958 2.594V22H23v-6.578z" fill="#FFF" /></g><g transform="translate(336 28)"><rect fill="none" width="28" height="28" rx="3" /><rect fill="#0077B9" x="5" y="5" width="18" height="18" rx="2" /><path d="M10.727 11.574H8.148V19h2.579v-7.426zm.164-2.293C10.883 8.554 10.336 8 9.453 8 8.578 8 8 8.554 8 9.281c0 .712.555 1.282 1.422 1.282h.015c.899 0 1.461-.57 1.454-1.282zM20 14.744c0-2.278-1.266-3.342-2.96-3.342-1.392 0-2 .742-2.337 1.251h.016v-1.079h-2.57s.03.697 0 7.426h2.57v-4.144c0-.225.023-.442.086-.607.187-.442.61-.899 1.32-.899.93 0 1.305.682 1.305 1.679V19H20v-4.256z" fill="#FFF" /></g></g></svg>