<?xml version="1.0" encoding="UTF-8" standalone="no"?>
<svg
   xmlns:dc="http://purl.org/dc/elements/1.1/"
   xmlns:cc="http://creativecommons.org/ns#"
   xmlns:rdf="http://www.w3.org/1999/02/22-rdf-syntax-ns#"
   xmlns:svg="http://www.w3.org/2000/svg"
   xmlns="http://www.w3.org/2000/svg"
   xmlns:sodipodi="http://sodipodi.sourceforge.net/DTD/sodipodi-0.dtd"
   xmlns:inkscape="http://www.inkscape.org/namespaces/inkscape"
   inkscape:version="1.0beta2 (2b71d25, 2019-12-03)"
   sodipodi:docname="logo_full.svg"
   id="svg1412"
   version="1.1"
   viewBox="0 0 150 80">
  <metadata
     id="metadata1418">
    <rdf:RDF>
      <cc:Work
         rdf:about="">
        <dc:format>image/svg+xml</dc:format>
        <dc:type
           rdf:resource="http://purl.org/dc/dcmitype/StillImage" />
        <dc:title></dc:title>
      </cc:Work>
    </rdf:RDF>
  </metadata>
  <defs
     id="defs1416" />
  <sodipodi:namedview
     inkscape:current-layer="svg1412"
     inkscape:window-maximized="1"
     inkscape:window-y="23"
     inkscape:window-x="0"
     inkscape:cy="51.443209"
     inkscape:cx="32.448438"
     inkscape:zoom="4.6882717"
     showgrid="false"
     id="namedview1414"
     inkscape:window-height="810"
     inkscape:window-width="1440"
     inkscape:pageshadow="2"
     inkscape:pageopacity="0"
     guidetolerance="10"
     gridtolerance="10"
     objecttolerance="10"
     borderopacity="1"
     inkscape:document-rotation="0"
     bordercolor="#666666"
     pagecolor="#ffffff" />
  <path
     id="path1410"
     style="mix-blend-mode:normal;paint-order:fill markers stroke"
     stroke-width=".2"
     stroke-miterlimit="3.7"
     stroke="url(#radialGradient4729)"
     marker-start="url(#Arrow2Lstart)"
     fill="#e0bf4b"
     d="m9.2111 79.999h-0.23544l-0.85592-1.3311h-0.51046l-0.049174 0.93177-0.69405-3.5517-0.69377-1.2403-0.16075 2.2629h-0.49247v-0.79866l-0.52252-0.53244-0.52251-0.53245h-1.045l-0.0079 3.3277-0.2351 0.37852-0.23511 0.37851-0.28795-1.1771-0.28796-1.1771-1.332-3.9934-0.79828-3.7271-0.12233-9.3177-0.12234-9.3177 0.30003-15.174 0.30002-15.174 0.25235-5.5115-0.27918 0.17582-0.27919 0.17582v-1.4088l0.79795-6.7424 0.26422-0.75458 0.6099 0.62147h0.35269l0.1562-0.73211 0.1562-0.73212 0.54625-0.79867 0.24904 0.39934 0.24903 0.39933 0.51268 0.78932 1.4616-1.3899 0.62106-0.32624 0.62106-0.32623 0.21568 0.35559 0.21567 0.35558 1.4902-1.4549h2.1486l0.10992 0.33278 0.10991 0.33278 0.81058-0.68155 1.1067 0.25338 1.1067 0.25339 1.251-0.58079 1.5578 1.5208v0.69905h0.53936l0.2063-0.56827 0.2063-0.56826 0.54487 0.94102 0.54487 0.94103 1.6203 0.36263 0.51817 0.98661-0.05214 5.2264-0.20917 0.66556-0.20918 0.66554-0.06004-5.8568-0.22818-0.36709-0.22817-0.36709-0.32828 8.1884-0.52324 19.168 0.05293 11.98-0.189 2.9876-0.189 2.9876-0.49163-0.30963 0.15621-19.899-0.6361-0.64818-0.01777 1.8369-0.49182 13.045-0.24883 1.3311-0.24882 1.3311-0.48056 1.887 0.45916 1.2648-0.52252 0.53244-0.25266-0.64412-0.25265-0.64412-0.03318 3.2964 0.26126 0.16453 0.26126 0.16453v4.791l0.29493 1.1935 0.29494 1.1935 0.5498-0.18675 0.6494-1.8314-0.01185 6.6556-0.16991 0.61471-0.1699 0.6147-0.26126 0.05081-0.26126 0.05081-0.13063-2.5291-0.13063-2.5292-0.16871 0.26623-0.16871 0.26622-0.18876 2.3294-0.18877 2.3294h-0.39977l-0.16109-0.599-0.16109-0.59901-0.25727 0.39934-0.25727 0.39933-0.0039 0.59901-0.0039 0.599h1.2963l0.15874 0.6445 0.15875 0.6445-0.08847 0.46489-0.08847 0.46488-0.65315 0.2216v-1.9523l-0.65314 0.22114-0.30317 1.8417-0.30316 1.8417-0.21935 1.7096-0.21936 1.7096-1.5676 0.20768-0.17961 0.18324-0.17962 0.18323-0.39607 0.78199-0.39607 0.78198-0.53387-1.4308h-0.69993l-0.8721 1.8636zm29.28-0.69968-0.20708 0.13042-0.25013-0.58059-0.25012-0.58059-2.0901-0.05514-4.7027-0.6436-1.045-0.21949-1.243-1.8772h-0.46636l-0.30554 0.68332-0.30553 0.68332-1.0488-0.27946-0.32166 0.27203-0.32167 0.27202-0.21372-1.2815-0.21371-1.2815 0.08097-13.578 0.1134-11.614 0.11339-11.614 1.1773-1.9411-0.15241-1.3919-0.1524-1.3919-0.20236-4.5258 0.25574-0.16581 0.25573-0.1658-0.28823-0.5488-0.28823-0.54881 0.0079-6.5575 0.19195-0.28564 0.19194-0.28564 0.89884-0.3377 0.11157-0.6104 0.11158-0.6104 0.57619-3.8701v-2.2677l0.85393-1.2423-0.1314-1.6345-0.13141-1.6345 0.40183-1.3311 0.05214 1.4328 0.2631 0.16569 0.2631 0.1657 0.15248-0.48276 0.15247-0.48276 0.56343-1.198h0.43422v1.0335l0.24907 0.15686 0.24906 0.15686 0.29934-1.1328 0.29933-1.1328 0.65898 0.91833h0.57716l0.58589-1.1156 1.7906 0.34231 0.13073-0.34713 0.13072-0.34713 2.3731 0.19239 1.0053-0.92709 0.15627 0.41498 0.15628 0.41498 0.76563 0.29939 1.0739-1.8547 0.301 0.19928 0.30098 0.19927h1.0175l0.55006 2.2418 0.6408 0.64742 1.0573-0.9751v1.0823l-0.78378 0.66283v3.103l0.81679 0.46579-0.81679 0.69075v5.8487l0.39188-0.15324 0.39189-0.15323v1.5639l-0.39189-0.15323-0.39188-0.15324v1.3437l0.55032 0.18695-0.04128 56.564-0.47332 1.2686-3.4195 0.60679-0.62965-0.16103-0.62965-0.16104-0.69728 0.76061-0.46491-0.12388-0.46492-0.12389v0.82934l-0.20708 0.13041zm-12.04-13.297 0.22945-0.1445v-6.3579h-0.44974l-0.16474 1.3977-0.16475 1.3977-0.0039 2.1963 0.16243 0.82762 0.16244 0.82762 0.22945-0.14451zm0.43458-25.506 0.07445-2.8969-0.27963-0.28494-0.19595 0.20037-0.19594 0.20037 0.03022 4.6281 0.24614 0.52493 0.24613 0.52493zm0.98595-4.4242h0.11521v-1.1714l-0.5815 0.59255 0.17555 0.28941 0.17553 0.28942zm-0.14605-1.5973h0.26126v-0.79866h-0.52252v0.79866zm3.6786-24.945 0.16798-0.47973-0.12186-0.33125-0.12185-0.33125-0.23387 0.1473-0.23389 0.1473v0.94472l0.18776 0.19132 0.18776 0.19133zm34.725 69.498-0.2264 0.57175-0.03318-0.68226-0.9144-0.34666-1.4359-1.0671-2.1397 1.1638-0.74506-0.59876-0.74505-0.59876-0.02883-0.64682-1.0785-0.58813-0.64694 0.54711-1.0384-0.2767-0.48742 0.54883-0.48743 0.54883h-0.68937l-0.86365-1.7304-0.10011-0.11368-0.1001-0.11368-0.73118 1.019-0.56073-0.51709-0.56072-0.51709-0.50436 0.32096-0.50435 0.32096h-0.19955l-0.17777-1.1315-0.17778-1.1315-0.0069-3.8602-0.0069-3.8603 0.27721-5.3245 0.27722-5.3245 0.09025-13.843 0.19261 5.7645 0.1926 5.7646 0.28046 0.49168 0.28046 0.49169 0.02172-18.103-0.29857-9.0515-0.29858-9.0515-0.0989-0.11367-0.09889-0.11368-0.64776 0.90484 0.14892-5.1308 0.1489-5.1308 0.34724-0.66555 0.34725-0.66556 0.46386-0.60938 0.46387-0.60937 0.36302-3.4545 0.97891-0.69868 0.17947-0.90805 0.17948-0.90805 0.35418 1.3311 0.35419 1.3311 0.37335 3.4609h0.51536l0.08354-0.53244 0.08354-0.53245 0.51536-1.3628 0.79079-0.47601 0.7908-0.47601 0.14061 0.18494 0.57787 1.243 0.57786 1.2431 0.75191 0.63587 1.7622-0.33686 0.64055 0.78648 0.38743-0.32154 0.38744-0.32154 0.86314-0.93177h0.40639v1.3124l0.48678 0.26546 0.48679 0.26547 0.18711 1.1415 0.1871 1.1415 0.2322 7.3952-0.79621 1.2382v0.28495h1.045v0.53245h-0.56988l0.33456 6.7886-0.22343 0.79866-0.22342 0.79866-0.57332 0.2628-0.57333 0.2628v0.9072l0.58094 0.36586 0.4561-0.73377v3.7271l-0.24305-0.39162-0.24306-0.39162-0.14097 0.14364-0.14097 0.14365-0.28752 10.352 0.75511 1.0523 0.54611-0.50362 0.54612-0.50362v1.6484l0.46776 0.29458 0.31602-0.83914-0.03673-3.5504-0.18779-0.48559-0.18778-0.48559-0.24452 0.03964-0.24453 0.03964-0.09361-0.28618-0.09361-0.28619h0.84025l0.23445-0.62835 0.23444-0.62834-0.30111-7.3181-0.63386-0.60336 0.39119-0.60836 0.39118-0.60837-0.17732-2.8558-0.17733-2.8558 0.03002-0.66556 0.03012-0.66556-0.03387-4.6372-0.03377-4.6372-0.68615-2.0294 0.3776-0.31934 0.3776-0.31934 1.2229 1.5599 0.32909 2.1297 1.1551 0.90104 0.16549 30.419-0.42367 0.65888-0.42367 0.65887 0.15598 3.5145 0.156 3.5144 0.27095 24.227-0.29269 1.3832-0.29268 1.3832-0.75264-0.29431v0.66815l-1.1756-1.7681-0.32656-0.10926-0.32657-0.10927v1.0778l-0.55914 0.35213zm0.97967-22.81 0.1133-0.48672-0.30745-0.31329-0.16291 0.166-0.16291 0.16599 0.20333 0.47738 0.20334 0.47737zm-0.17054-1.2438h0.25405l0.1547-0.41082 0.15471-0.41082-0.1566-0.15956-0.15659-0.15956-0.79065 0.66864 0.14317 0.23605 0.14317 0.23606zm0.04167-1.3988 0.32657-0.11209 0.03594-1.0182 0.16913-0.53244 0.16914-0.53245 0.14966-3.5054 0.14965-3.5054-0.49729-0.3132-1.074 1.4669-0.0158-0.66556h-0.78378v1.3311l1.0885 1.1092-0.1508 0.15367-0.1508 0.15366-0.92954-0.85721-0.32059 0.2019-0.32058 0.20189 0.76712 1.0335 0.02469 1.8636 0.48641 0.78374 0.12938-0.39187 0.12939-0.39187 0.1308-0.53244 0.1308-0.53245-0.03969 4.2596 0.07011 0.44371 0.32657-0.1121zm-0.97972-0.99716h0.43544l-0.18722-0.57238h-0.49639l-0.18722 0.57238zm-0.65314-25.824h0.26126v-1.2997l-0.26126-0.16454-0.26126-0.16453v1.6287zm-0.27433-9.6239 0.31351-0.1065-0.0391-0.38602-0.37883-0.03984-0.1045 0.31947-0.10451 0.31947zm-13.048-0.75874h0.17578l0.30319-0.67807 0.3032-0.67808v-0.72925l-0.3235-0.10988-0.3235-0.10989 0.64701-1.447v-0.77361l-0.39189 0.01409-0.9144 1.8723v2.2854l0.34835 0.35496h0.17577zm50.233 61.529-0.46923 1.0964-0.90167-1.9268h-0.5029l-1.1394-3.1843-0.2281 0.14365-0.22811 0.14364v1.3715l-1.0829-1.4029h-0.94617l-0.15753 0.599-0.15754 0.599-0.0079 1.9967h-0.481l-0.17328-0.80393-0.17328-0.80392-0.77015-2.4573-0.77014-2.4573-0.72888-5.3245-0.14784-4.5258-0.14783-4.5258-0.29781-15.441-0.12194-0.43375-0.12193-0.43375-18.051 0.06882-0.38099-0.52937-0.38099-0.52938 0.67123-0.20702 1.1595-1.0745-0.12395-0.20436-0.12394-0.20436-1.0287-0.17709-1.0287-0.1771 0.76879-1.2731 0.7688-1.2731v-0.88431l-0.65315-0.30324-0.65315-0.30326v-0.39182l1.9595-1.671 0.65806-0.53958-0.55158-1.0503 0.17008-0.28042 0.17009-0.28043-1.1764-1.2761 0.3232-0.39683 0.3232-0.39682 0.49892-0.16136 0.49893-0.16136v-0.49657h-0.78378v-0.52793l0.52251-0.33252 0.52252-0.33252v-0.89244l-0.32658-0.11884-0.32657-0.11885 0.38516-0.42099 6.3981-0.37541 9.4829 0.26482 0.18947-3.7289 0.18948-3.7289-0.31812-0.6057-0.31811-0.60569 0.1895-3.3479 0.18951-3.3479 0.21508-0.54062 0.21509-0.54063 0.03318 0.66556h0.5067l0.36752-1.2646 0.36751-1.2646 0.97896 1.727 0.40309 0.00402 0.26919-0.60205 0.2692-0.60205 0.77023-0.45045 0.77024-0.45044v0.7739h0.42425l1.146-1.5795 0.39385 0.154 0.39385 0.15401 0.81694-0.69089 0.17603 0.26772 0.17603 0.26771 3.2652 0.045882 0.29258-0.4824h1.0142v0.79416l0.52252 0.33252 0.52251 0.33252v0.67059h0.52252v-0.58761l1.847 1.6525h0.74721l0.4754 0.93177 0.18185 1.528 0.18184 1.528-0.18775 0.60175-0.18776 0.60174-0.20423-0.53244-0.20424-0.53245-0.0367-3.3277h-0.52251v15.191l0.65315 0.20802 2.0901 0.40582-1.1756 0.20514v0.56278l17.837-0.24143 0.63925-0.89083h0.36512l-0.14984 0.24706-0.14985 0.24705 0.53733 0.17378 0.53734 0.17379 2.0702-0.35641-0.2531-0.41731 1.9491-0.32832 6.5315 4e-3 3.3198 0.48909 0.49159 0.45332 0.49157 0.45333 4.0849 0.55731 0.89163 1.2045-1.9643 0.55587-1.3716 4e-3 -0.81643 0.16639-0.81643 0.16638v0.46589h1.204l1.2268 0.7928 1.2268 0.79281v0.44555l-1.8465 0.89728h-0.73641l-0.39964 0.58138-0.39962 0.58139 0.15272 0.62007 0.15273 0.62008-0.66052 0.811 0.69471 0.73889 0.6947 0.7389-1.8601 0.90388 0.15997 0.26376 0.15997 0.26375h-1.9032l0.10646 0.32544 0.10645 0.32543 1.2676 0.36094-0.93556 0.05313-1.4158 1.0603-1.2547 0.23676-1.2547 0.23675-0.34406 0.47948-0.34407 0.47947-10.127 0.39512-16.517 0.04065-2.4722 0.34528 0.0434 3.3548 0.0434 3.3547-0.50713 3.4609 4e-3 -4.792-0.18037-1.0649-0.18039-1.0649-0.24865-0.78374-0.48641 0.78374-8e-3 5.1304-0.78056 1.5251-4e-3 0.90036-0.52251 0.32906v2.3332l0.46676 0.29395 0.17293 2.4644 0.17294 2.4644 0.45302 1.0649 0.1707 0.79212 0.17072 0.79214 0.93075-1.2573 0.10587 0.23588 0.10586 0.23588-0.26759 6.6556-0.16581-0.26622-0.1658-0.26623-0.35972-2.3959-0.2607-0.9395-0.48578 0.30592 0.33781 2.9287-1.4578-0.16542-0.23756 0.69176 1.6197 0.62297v2.013h-0.52251v-1.0335l-0.24021-0.15127-0.2402-0.15128-0.52568 1.7353-0.3539 5.2583-1.5138 0.58227v0.41572l-0.50915 0.51882-0.50916 0.51882-0.3232-1.0376h-0.72879l-0.46922 1.0964zm6.4864-35.706h0.2333v-1.3311h-0.49167l-0.2938 0.48439 0.15943 0.42337 0.15943 0.42336zm2.5409-4.3459 1.5238-0.1623 0.81971-0.32053 0.13191-0.51402 0.13192-0.51403h0.58139l-0.31964 1.2977 1.8808 0.35953 2.3357-0.35692 0.14052-0.23167 0.14051-0.23168-1.0526-0.34044v-0.49657h2.1541l-0.68353 0.83924 0.75017 0.51051 10.45-0.22767 9.7228-0.03884 2.1646-0.35269v-0.4644h-7.0883l-1.0542-0.57488-0.9042 0.83383-0.61631-0.62801-6.6766 0.66537-0.86307-0.33748-0.14262-0.37875-0.14264-0.37875h1.8432l-0.32293-0.53244h-2.843v0.42595l0.28913 0.29461 0.28912 0.29462-0.48506-0.04166-0.48508-0.04176 0.0725 0.93177h-1.466l-0.5232-0.7321-0.5232-0.73212-4.6156-0.18112-2.7538 0.51002-0.1401-0.23098-0.14008-0.23098h-2.539l-0.41325 0.16159-0.41327 0.1616v0.7417l0.32658 0.03149 0.32657 0.03159 0.32658-0.04317 0.32657-0.04327v0.55578h-1.045v0.87452zm26.332-14.098 1.9275-0.01268v-0.38876l-0.45399-0.17751-0.45398-0.17752-3.1989-0.30438-0.4015 0.66198 0.65342 0.41151 1.9275-0.01268zm-119.63 47.932-0.10839 0.72734 0.0059-3.1947 0.10572 0.86999 0.10571 0.86998-0.10838 0.72735zm91.415-17.509h-0.10016l-0.13658-0.53218-0.13657-0.53218 0.47347-0.29818v1.3626zm-57.719-16.572-0.11948 0.46589v-1.8636l0.23896 0.93177zm15.295-3.6894-0.20773 0.57219-0.63767-0.64979v-0.92697l0.46331-0.29179 0.5898 0.72417zm-40.035-15.678h-0.17417l-0.17416-0.17748-0.17417-0.17748v-0.97615h0.50413l0.52251 0.99488-0.32996 0.33623zm0.26127-4.3926-0.26127 0.16453 0.03673-5.489 0.44906-1.0649 0.03673 6.2248z" />
</svg>
